<svg width="24" height="24" viewBox="0 0 24 24" fill="none" xmlns="http://www.w3.org/2000/svg">
<path fill-rule="evenodd" clip-rule="evenodd" d="M11.8971 6.78937H21.018V10.4811H11.8971V6.78937Z" fill="white"/>
<path fill-rule="evenodd" clip-rule="evenodd" d="M3.6449 18.8419C2.84161 18.8419 2.1418 18.4047 1.76611 17.7561C1.5743 18.0858 1.47326 18.4605 1.47327 18.8419C1.47327 20.0413 2.44551 21.0136 3.6449 21.0136H5.81653V18.8419H3.6449Z" fill="#22C55E"/>
<path fill-rule="evenodd" clip-rule="evenodd" d="M13.4151 7.37308L21.018 6.89793V5.81211C21.018 4.61271 20.0458 3.64047 18.8464 3.64047H9.07402L8.80256 3.17031C8.68182 2.96129 8.38029 2.96129 8.25965 3.17031L7.9882 3.64047L7.71674 3.17031C7.59611 2.96129 7.29447 2.96129 7.17384 3.17031L6.90238 3.64047L6.63093 3.17031C6.51029 2.96129 6.20865 2.96129 6.08802 3.17031L5.81656 3.64047C5.81417 3.64047 5.812 3.6408 5.80951 3.6408L5.35976 3.19116C5.18929 3.02058 4.89807 3.09854 4.83553 3.33167L4.68688 3.88587L4.12312 3.73472C3.88989 3.67229 3.67674 3.88554 3.73929 4.11867L3.89022 4.68253L3.33623 4.83096C3.103 4.89351 3.02493 5.18483 3.19551 5.35541L3.64525 5.80516C3.64525 5.80744 3.64493 5.80972 3.64493 5.81211L3.17477 6.08356C2.96575 6.2042 2.96575 6.50584 3.17477 6.62647L3.64493 6.89793L3.17477 7.16938C2.96575 7.29001 2.96575 7.59165 3.17477 7.71229L3.64493 7.98374L3.17477 8.2552C2.96575 8.37583 2.96575 8.67747 3.17477 8.79811L3.64493 9.06956L3.17477 9.34101C2.96575 9.46165 2.96575 9.76329 3.17477 9.88392L3.64493 10.1554L3.17477 10.4268C2.96575 10.5475 2.96575 10.8491 3.17477 10.9697L3.64493 11.2412L3.17477 11.5126C2.96575 11.6333 2.96575 11.9349 3.17477 12.0556L3.64493 12.327L3.17477 12.5985C2.96575 12.7191 2.96575 13.0207 3.17477 13.1414L3.64493 13.4128L3.17477 13.6843C2.96575 13.8049 2.96575 14.1066 3.17477 14.2272L3.64493 14.4986L3.17477 14.7701C2.96575 14.8907 2.96575 15.1924 3.17477 15.313L3.64493 15.5845L3.17477 15.8559C2.96575 15.9766 2.96575 16.2782 3.17477 16.3988L3.64493 16.6703L3.17477 16.9417C2.96575 17.0624 2.96575 17.364 3.17477 17.4846L3.64493 17.7561L3.17477 18.0276C2.96575 18.1482 2.96575 18.4498 3.17477 18.5705L3.64493 18.8419C3.64493 20.0413 4.61717 21.0135 5.81656 21.0135H18.8464C20.0458 21.0135 21.018 20.0413 21.018 18.8419V10.1554L13.4151 9.68022C13.1216 9.66185 12.8462 9.53232 12.6449 9.31801C12.4435 9.10369 12.3315 8.8207 12.3315 8.52665C12.3315 7.91631 12.806 7.41119 13.4151 7.37308Z" fill="#22C55E"/>
<path fill-rule="evenodd" clip-rule="evenodd" d="M16.6747 21.0136H19.9321V16.6703H16.6747V21.0136Z" fill="#22C55E"/>
<path fill-rule="evenodd" clip-rule="evenodd" d="M22.1038 18.299C22.08 18.299 22.0573 18.303 22.0344 18.306C22.0303 18.2897 22.0263 18.2733 22.0218 18.257C22.1375 18.2086 22.2329 18.1217 22.2917 18.0109C22.3506 17.9002 22.3693 17.7725 22.3447 17.6495C22.3201 17.5265 22.2536 17.4159 22.1567 17.3363C22.0597 17.2568 21.9382 17.2133 21.8128 17.2132C21.6942 17.2136 21.5791 17.2532 21.4853 17.3257C21.4733 17.3134 21.4611 17.3013 21.4489 17.2892C21.5198 17.1959 21.5584 17.0821 21.5587 16.9649C21.5586 16.8398 21.5153 16.7186 21.4362 16.6217C21.3571 16.5248 21.2469 16.4583 21.1243 16.4332C21.0018 16.4082 20.8743 16.4263 20.7636 16.4844C20.6528 16.5425 20.5655 16.6371 20.5164 16.7522C20.5003 16.7476 20.4842 16.7438 20.4681 16.7397C20.471 16.7168 20.475 16.6941 20.475 16.6703C20.475 16.5263 20.4178 16.3882 20.316 16.2864C20.2142 16.1846 20.0761 16.1274 19.9321 16.1274C19.7881 16.1274 19.6501 16.1846 19.5482 16.2864C19.4464 16.3882 19.3892 16.5263 19.3892 16.6703C19.3892 16.6941 19.3932 16.7168 19.3962 16.7397C19.3801 16.7438 19.3639 16.7476 19.3479 16.7522C19.2989 16.6369 19.2117 16.5421 19.1008 16.4838C18.99 16.4255 18.8624 16.4074 18.7398 16.4324C18.6171 16.4574 18.5068 16.5241 18.4277 16.6212C18.3485 16.7182 18.3054 16.8397 18.3056 16.9649C18.3056 17.087 18.3473 17.1984 18.4154 17.2892C18.0118 17.6836 17.7605 18.2331 17.7605 18.8419C17.7605 20.0413 18.7327 21.0136 19.9321 21.0136C20.9462 21.0136 21.7954 20.3175 22.0344 19.3779C22.0573 19.3808 22.08 19.3848 22.1038 19.3848C22.2478 19.3848 22.3858 19.3276 22.4877 19.2258C22.5895 19.124 22.6467 18.9859 22.6467 18.8419C22.6467 18.6979 22.5895 18.5598 22.4877 18.458C22.3858 18.3562 22.2478 18.299 22.1038 18.299Z" fill="#22C55E"/>
<path fill-rule="evenodd" clip-rule="evenodd" d="M17.7605 14.4987H21.0179V12.327H17.7605V14.4987Z" fill="#22C55E"/>
<path fill-rule="evenodd" clip-rule="evenodd" d="M22.1038 13.6843C22.1758 13.6843 22.2449 13.6557 22.2958 13.6048C22.3467 13.5539 22.3753 13.4848 22.3753 13.4128C22.3753 13.3408 22.3467 13.2718 22.2958 13.2209C22.2449 13.17 22.1758 13.1414 22.1038 13.1414C22.092 13.1414 22.0806 13.1434 22.0692 13.1448C22.067 13.1367 22.0652 13.1286 22.0629 13.1204C22.1207 13.0962 22.1683 13.0527 22.1977 12.9973C22.227 12.9419 22.2363 12.8781 22.224 12.8167C22.2117 12.7552 22.1785 12.6999 22.1301 12.6602C22.0817 12.6204 22.021 12.5986 21.9583 12.5985C21.8965 12.5985 21.8402 12.6199 21.7946 12.6547C21.7886 12.6485 21.7825 12.6424 21.7763 12.6365C21.8104 12.5912 21.8313 12.5354 21.8313 12.4742C21.8313 12.4117 21.8096 12.3511 21.7701 12.3026C21.7305 12.2542 21.6754 12.2209 21.6141 12.2084C21.5528 12.1959 21.489 12.2049 21.4337 12.234C21.3783 12.2631 21.3346 12.3104 21.3101 12.3679C21.215 12.3411 21.1168 12.3273 21.018 12.327C20.4184 12.327 19.9322 12.8132 19.9322 13.4128C19.9322 14.0124 20.4184 14.4986 21.018 14.4986C21.1194 14.4986 21.217 14.4837 21.3101 14.4577C21.3346 14.5153 21.3783 14.5626 21.4337 14.5917C21.489 14.6207 21.5528 14.6298 21.6141 14.6173C21.6754 14.6048 21.7305 14.5715 21.7701 14.5231C21.8096 14.4746 21.8313 14.414 21.8313 14.3514C21.8313 14.2903 21.8104 14.2345 21.7763 14.1892C21.7825 14.1832 21.7886 14.1771 21.7946 14.1709C21.8402 14.2058 21.8965 14.2272 21.9583 14.2272C22.0211 14.2272 22.0819 14.2055 22.1304 14.1657C22.1789 14.1259 22.2121 14.0706 22.2245 14.0091C22.2368 13.9475 22.2274 13.8837 22.198 13.8283C22.1685 13.7729 22.1208 13.7294 22.0629 13.7052C22.0652 13.6972 22.067 13.689 22.0692 13.6808C22.0806 13.6822 22.092 13.6843 22.1038 13.6843Z" fill="#22C55E"/>
<path fill-rule="evenodd" clip-rule="evenodd" d="M12.3314 21.0136H18.8463C20.0457 21.0136 21.018 20.0413 21.018 18.8419V11.2412H14.5031C13.3037 11.2412 12.3314 12.2135 12.3314 13.4128V21.0136Z" fill="#FDE047"/>
<path d="M6.90253 5.44104C7.70614 5.44112 8.35956 6.09444 8.35956 6.89807C8.35952 6.9965 8.32075 7.09115 8.25116 7.16077C8.18156 7.23036 8.08688 7.26909 7.98846 7.26917C7.89005 7.26917 7.79541 7.2303 7.72577 7.16077C7.65614 7.09114 7.61643 6.99653 7.61639 6.89807C7.61639 6.50426 7.29632 6.18331 6.90253 6.18323C6.50866 6.18323 6.18768 6.50421 6.18768 6.89807C6.18764 6.99653 6.14891 7.09114 6.07928 7.16077C6.00964 7.23038 5.91507 7.26916 5.81659 7.26917C5.71812 7.26917 5.62355 7.23037 5.55389 7.16077C5.48427 7.09114 5.44554 6.99653 5.4455 6.89807C5.4455 6.09439 6.09884 5.44104 6.90253 5.44104Z" fill="black" stroke="black" stroke-width="0.2" stroke-linejoin="round"/>
<path fill-rule="evenodd" clip-rule="evenodd" d="M19.3914 14.6072H13.958C13.9292 14.6072 13.9016 14.5958 13.8812 14.5754C13.8608 14.555 13.8494 14.5274 13.8494 14.4986C13.8494 14.4698 13.8608 14.4422 13.8812 14.4218C13.9016 14.4015 13.9292 14.39 13.958 14.39H19.3914C19.4202 14.39 19.4478 14.4015 19.4682 14.4218C19.4886 14.4422 19.5 14.4698 19.5 14.4986C19.5 14.5274 19.4886 14.555 19.4682 14.5754C19.4478 14.5958 19.4202 14.6072 19.3914 14.6072ZM19.3914 16.7788H13.958C13.9292 16.7788 13.9016 16.7674 13.8812 16.747C13.8608 16.7267 13.8494 16.699 13.8494 16.6702C13.8494 16.6415 13.8608 16.6138 13.8812 16.5935C13.9016 16.5731 13.9292 16.5617 13.958 16.5617H19.3914C19.4202 16.5617 19.4478 16.5731 19.4682 16.5935C19.4886 16.6138 19.5 16.6415 19.5 16.6702C19.5 16.699 19.4886 16.7267 19.4682 16.747C19.4478 16.7674 19.4202 16.7788 19.3914 16.7788ZM19.3914 18.9505H13.958C13.9292 18.9505 13.9016 18.939 13.8812 18.9187C13.8608 18.8983 13.8494 18.8707 13.8494 18.8419C13.8494 18.8131 13.8608 18.7855 13.8812 18.7651C13.9016 18.7447 13.9292 18.7333 13.958 18.7333H19.3914C19.4202 18.7333 19.4478 18.7447 19.4682 18.7651C19.4886 18.7855 19.5 18.8131 19.5 18.8419C19.5 18.8707 19.4886 18.8983 19.4682 18.9187C19.4478 18.939 19.4202 18.9505 19.3914 18.9505ZM19.3914 13.5416H13.958C13.9292 13.5416 13.9016 13.5301 13.8812 13.5098C13.8608 13.4894 13.8494 13.4618 13.8494 13.433C13.8494 13.4042 13.8608 13.3766 13.8812 13.3562C13.9016 13.3359 13.9292 13.3244 13.958 13.3244H19.3914C19.4202 13.3244 19.4478 13.3359 19.4682 13.3562C19.4886 13.3766 19.5 13.4042 19.5 13.433C19.5 13.4618 19.4886 13.4894 19.4682 13.5098C19.4478 13.5301 19.4202 13.5416 19.3914 13.5416ZM19.3914 15.693H13.958C13.9292 15.693 13.9016 15.6816 13.8812 15.6612C13.8608 15.6408 13.8494 15.6132 13.8494 15.5844C13.8494 15.5556 13.8608 15.528 13.8812 15.5077C13.9016 15.4873 13.9292 15.4759 13.958 15.4759H19.3914C19.4202 15.4759 19.4478 15.4873 19.4682 15.5077C19.4886 15.528 19.5 15.5556 19.5 15.5844C19.5 15.6132 19.4886 15.6408 19.4682 15.6612C19.4478 15.6816 19.4202 15.693 19.3914 15.693ZM19.3914 17.8646H13.958C13.9292 17.8646 13.9016 17.8532 13.8812 17.8328C13.8608 17.8125 13.8494 17.7849 13.8494 17.7561C13.8494 17.7273 13.8608 17.6997 13.8812 17.6793C13.9016 17.6589 13.9292 17.6475 13.958 17.6475H19.3914C19.4202 17.6475 19.4478 17.6589 19.4682 17.6793C19.4886 17.6997 19.5 17.7273 19.5 17.7561C19.5 17.7849 19.4886 17.8125 19.4682 17.8328C19.4478 17.8532 19.4202 17.8646 19.3914 17.8646ZM21.018 7.83289C21.0167 7.83289 21.0156 7.83224 21.0143 7.83235C20.6788 7.84375 20.52 8.17938 20.3799 8.47548C20.2338 8.78494 20.1208 8.98614 19.9355 8.98006C19.7304 8.97267 19.6131 8.74096 19.4889 8.49578C19.3462 8.21412 19.1834 7.89467 18.8414 7.90662C18.5107 7.91791 18.3514 8.21 18.2109 8.46766C18.0614 8.74216 17.9597 8.90904 17.7634 8.90134C17.5542 8.89373 17.443 8.70535 17.3144 8.48731C17.1709 8.24453 17.0051 7.97155 16.6698 7.98089C16.3447 7.99207 16.185 8.23986 16.0441 8.45865C15.895 8.68993 15.7905 8.83087 15.5918 8.82251C15.3776 8.8149 15.2669 8.65855 15.1389 8.47754C14.9952 8.27417 14.8332 8.04397 14.4988 8.05516C14.1809 8.06602 14.0212 8.26906 13.8803 8.44801C13.7466 8.61783 13.6421 8.75225 13.4212 8.74378C13.3924 8.74275 13.3643 8.75319 13.3432 8.77282C13.3221 8.79245 13.3097 8.81966 13.3087 8.84846C13.3076 8.87725 13.3181 8.90528 13.3377 8.92638C13.3573 8.94748 13.3845 8.95991 13.4133 8.96095C13.7409 8.97191 13.9068 8.7655 14.0509 8.58232C14.1787 8.41988 14.289 8.27971 14.5062 8.27232C14.7153 8.26342 14.8134 8.39339 14.9617 8.60295C15.1025 8.80209 15.2624 9.02794 15.584 9.03956C15.9209 9.05085 16.083 8.79905 16.2266 8.57624C16.3549 8.3771 16.4657 8.20522 16.6772 8.19794C16.8719 8.19067 16.9779 8.34453 17.1273 8.59763C17.2681 8.83619 17.4276 9.10645 17.7556 9.11839C18.0949 9.13012 18.2588 8.83391 18.4016 8.57168C18.5253 8.34496 18.642 8.13084 18.8488 8.12367C19.0435 8.11911 19.145 8.29686 19.2952 8.59383C19.4355 8.87104 19.5946 9.18506 19.9277 9.19711L19.946 9.19744C20.2787 9.19744 20.4366 8.86355 20.5764 8.56832C20.7 8.30663 20.8171 8.06015 21.018 8.05006V7.83289Z" fill="black"/>
<path d="M16.7451 5.04047H16.746L16.8163 5.06097L16.8798 5.09515L16.8828 5.09711L16.9345 5.1391L16.9413 5.14496H16.9404C16.9538 5.15956 16.969 5.17756 16.9824 5.19672L16.9843 5.19965L17.0185 5.26312L17.0195 5.26605L17.039 5.33344C17.0427 5.3541 17.0458 5.37933 17.0458 5.40472C17.0458 5.50285 17.0059 5.59873 16.9374 5.66742L16.9345 5.67133C16.9202 5.68438 16.9022 5.69984 16.8828 5.71332L16.8798 5.71527L16.8163 5.74847C16.7939 5.7576 16.7707 5.76431 16.747 5.76898L16.6747 5.77679C16.6497 5.77679 16.625 5.77301 16.6035 5.76898H16.6025L16.5331 5.74847C16.5086 5.73864 16.4873 5.72651 16.4697 5.71527L16.4667 5.71332C16.4473 5.69984 16.4293 5.68437 16.415 5.67133L16.4081 5.66449C16.3975 5.65275 16.3802 5.63318 16.3652 5.6098C16.3538 5.59208 16.3408 5.57145 16.331 5.5473V5.54633C16.313 5.50159 16.304 5.4539 16.3036 5.4057V5.40472C16.3037 5.37967 16.3065 5.35497 16.3105 5.33344C16.3153 5.30762 16.3231 5.28482 16.33 5.26605L16.331 5.26312C16.3409 5.23884 16.3537 5.21745 16.3652 5.19965L16.3661 5.19672L16.4374 5.24652L16.4492 5.25433L16.3671 5.19672C16.3803 5.17776 16.3952 5.16022 16.4081 5.14594L16.415 5.13812C16.4293 5.12515 16.4474 5.11049 16.4667 5.09711L16.4697 5.09515C16.4873 5.08389 16.5086 5.07082 16.5331 5.06097L16.6035 5.04047C16.6502 5.03071 16.698 5.03098 16.7451 5.04047ZM18.9169 4.9057L18.9179 4.90472C18.9425 4.90936 18.9662 4.91687 18.9872 4.92523H18.9882L19.0517 4.95941L19.0546 4.96136L19.1054 5.00336L19.1103 5.00726C19.1775 5.07619 19.2176 5.17038 19.2177 5.26898C19.2177 5.29445 19.2146 5.31955 19.2109 5.34027V5.34125C19.2062 5.36609 19.1987 5.38969 19.1904 5.41058L19.1884 5.41547L19.0976 5.37347L19.1874 5.41547C19.1792 5.4331 19.1696 5.45323 19.1562 5.47406L19.1542 5.47699C19.1409 5.49626 19.1257 5.51406 19.1122 5.52875L19.1064 5.53558L19.039 5.46136L19.1054 5.53558C19.0911 5.54854 19.0739 5.56422 19.0546 5.57758L19.0517 5.57953L18.9882 5.61273C18.9658 5.62187 18.9425 5.62856 18.9189 5.63324L18.8466 5.64105C18.7479 5.64105 18.6531 5.6002 18.5839 5.53265L18.581 5.52972C18.566 5.51355 18.5518 5.49593 18.539 5.47797L18.5361 5.47406C18.5247 5.45641 18.5127 5.43556 18.5029 5.41156V5.41058C18.4849 5.36583 18.4749 5.31819 18.4745 5.26996V5.26898C18.4746 5.17041 18.5155 5.07628 18.5829 5.00726L18.5869 5.00336C18.6012 4.99031 18.6191 4.97484 18.6386 4.96136L18.6415 4.95941C18.6592 4.94814 18.6804 4.93508 18.705 4.92523C18.726 4.91679 18.7497 4.90937 18.7744 4.90472V4.9057C18.8212 4.89581 18.87 4.896 18.9169 4.9057Z" fill="black" stroke="black" stroke-width="0.2" stroke-linejoin="round"/>
<path fill-rule="evenodd" clip-rule="evenodd" d="M10.1598 21.0136H14.5031V16.6703H10.1598V21.0136Z" fill="#22C55E"/>
<path fill-rule="evenodd" clip-rule="evenodd" d="M16.6747 18.299C16.6509 18.299 16.6282 18.303 16.6053 18.306C16.6012 18.2897 16.5973 18.2733 16.5927 18.257C16.7084 18.2086 16.8038 18.1217 16.8627 18.0109C16.9215 17.9002 16.9402 17.7725 16.9156 17.6495C16.891 17.5265 16.8246 17.4159 16.7276 17.3363C16.6306 17.2568 16.5091 17.2133 16.3837 17.2132C16.2651 17.2136 16.15 17.2532 16.0562 17.3257C16.0442 17.3134 16.0321 17.3013 16.0198 17.2892C16.0908 17.1959 16.1293 17.0821 16.1296 16.9649C16.1295 16.8398 16.0863 16.7186 16.0071 16.6217C15.928 16.5248 15.8178 16.4583 15.6953 16.4332C15.5727 16.4082 15.4453 16.4263 15.3345 16.4844C15.2237 16.5425 15.1364 16.6371 15.0873 16.7522C15.0713 16.7476 15.0551 16.7438 15.039 16.7397C15.0419 16.7168 15.046 16.6941 15.046 16.6703C15.046 16.5263 14.9888 16.3882 14.887 16.2864C14.7851 16.1846 14.647 16.1274 14.5031 16.1274C14.3591 16.1274 14.221 16.1846 14.1192 16.2864C14.0173 16.3882 13.9601 16.5263 13.9601 16.6703C13.9601 16.6941 13.9642 16.7168 13.9671 16.7397C13.951 16.7438 13.9348 16.7476 13.9188 16.7522C13.8699 16.6369 13.7826 16.5421 13.6718 16.4838C13.5609 16.4255 13.4334 16.4074 13.3107 16.4324C13.188 16.4574 13.0777 16.5241 12.9986 16.6212C12.9195 16.7182 12.8763 16.8397 12.8765 16.9649C12.8765 17.087 12.9182 17.1984 12.9863 17.2892C12.5827 17.6836 12.3314 18.2331 12.3314 18.8419C12.3314 20.0413 13.3037 21.0136 14.5031 21.0136C15.5171 21.0136 16.3663 20.3175 16.6053 19.3779C16.6282 19.3808 16.6509 19.3848 16.6747 19.3848C16.8187 19.3848 16.9568 19.3276 17.0586 19.2258C17.1604 19.124 17.2176 18.9859 17.2176 18.8419C17.2176 18.6979 17.1604 18.5598 17.0586 18.458C16.9568 18.3562 16.8187 18.299 16.6747 18.299Z" fill="#22C55E"/>
<path fill-rule="evenodd" clip-rule="evenodd" d="M10.1598 14.4987H14.5031V12.327H10.1598V14.4987Z" fill="#22C55E"/>
<path fill-rule="evenodd" clip-rule="evenodd" d="M15.5889 13.6843C15.6609 13.6843 15.7299 13.6557 15.7808 13.6048C15.8317 13.5539 15.8603 13.4848 15.8603 13.4128C15.8603 13.3408 15.8317 13.2718 15.7808 13.2209C15.7299 13.17 15.6609 13.1414 15.5889 13.1414C15.577 13.1414 15.5656 13.1434 15.5542 13.1448C15.5521 13.1367 15.5502 13.1286 15.5479 13.1204C15.6057 13.0962 15.6533 13.0527 15.6827 12.9973C15.7121 12.9419 15.7214 12.8781 15.7091 12.8167C15.6968 12.7552 15.6636 12.6999 15.6152 12.6602C15.5667 12.6204 15.506 12.5986 15.4434 12.5985C15.3816 12.5985 15.3252 12.6199 15.2796 12.6547C15.2737 12.6485 15.2676 12.6424 15.2614 12.6365C15.2955 12.5912 15.3163 12.5354 15.3163 12.4742C15.3163 12.4117 15.2947 12.3511 15.2551 12.3026C15.2155 12.2542 15.1604 12.2209 15.0991 12.2084C15.0378 12.1959 14.9741 12.2049 14.9187 12.234C14.8633 12.2631 14.8197 12.3104 14.7951 12.3679C14.7001 12.3411 14.6018 12.3273 14.5031 12.327C13.9035 12.327 13.4172 12.8132 13.4172 13.4128C13.4172 14.0124 13.9035 14.4986 14.5031 14.4986C14.6045 14.4986 14.7021 14.4837 14.7951 14.4577C14.8197 14.5153 14.8633 14.5626 14.9187 14.5917C14.9741 14.6207 15.0378 14.6298 15.0991 14.6173C15.1604 14.6048 15.2155 14.5715 15.2551 14.5231C15.2947 14.4746 15.3163 14.414 15.3163 14.3514C15.3163 14.2903 15.2955 14.2345 15.2614 14.1892C15.2676 14.1832 15.2737 14.1771 15.2796 14.1709C15.3252 14.2058 15.3816 14.2272 15.4434 14.2272C15.5061 14.2272 15.5669 14.2055 15.6154 14.1657C15.6639 14.1259 15.6972 14.0706 15.7095 14.0091C15.7218 13.9475 15.7125 13.8837 15.683 13.8283C15.6536 13.7729 15.6058 13.7294 15.5479 13.7052C15.5502 13.6972 15.5521 13.689 15.5542 13.6808C15.5656 13.6822 15.577 13.6843 15.5889 13.6843Z" fill="#22C55E"/>
</svg>
