<svg width="24" height="24" viewBox="0 0 24 24" fill="none" xmlns="http://www.w3.org/2000/svg">
<path d="M11.0409 3.84171C11.4562 3.10583 12.5176 3.10583 12.933 3.84171L15.1095 7.69863C15.3788 8.17587 15.8426 8.5123 16.3799 8.62059L20.7252 9.49626C21.5548 9.66343 21.8816 10.6709 21.3098 11.2922L18.3098 14.5516C18.1264 14.7508 17.9881 14.9872 17.9043 15.2447C17.8206 15.5023 17.7933 15.7748 17.8244 16.0438L18.3333 20.4419C18.4303 21.28 17.5726 21.9039 16.8027 21.552L12.7719 19.7094C12.5255 19.5968 12.2578 19.5385 11.9869 19.5385C11.716 19.5385 11.4483 19.5968 11.202 19.7094L7.17125 21.552C6.40125 21.9038 5.54367 21.28 5.64057 20.4419L6.1495 16.0438C6.21249 15.4995 6.03525 14.9548 5.66409 14.5516L2.66401 11.2922C2.0922 10.671 2.41911 9.66344 3.24868 9.49626L7.59393 8.62059C8.13126 8.5123 8.59503 8.17587 8.86432 7.69863L11.0409 3.84171Z" fill="#F472B6"/>
<path d="M11.9868 2.90228C11.4792 2.90228 10.9715 3.14982 10.6921 3.64494L8.51553 7.50186C8.30333 7.87789 7.93836 8.14271 7.51474 8.22808L3.16949 9.10374C2.05447 9.32845 1.59987 10.7275 2.36929 11.5634L5.36938 14.8228C5.51385 14.9796 5.62279 15.1658 5.68875 15.3686C5.75472 15.5713 5.77616 15.786 5.75162 15.9978L5.24271 20.3959C5.11214 21.5242 6.30257 22.3892 7.3376 21.9162L7.33762 21.9161L11.3684 20.0736L11.3685 20.0736C11.5625 19.9848 11.7735 19.9388 11.9869 19.9388C12.2003 19.9388 12.4112 19.9848 12.6053 20.0736L12.6053 20.0736L16.6361 21.9161C17.6711 22.3893 18.8616 21.5243 18.7309 20.3959L18.7309 20.3959L18.2221 15.9978V15.9978C18.1975 15.7859 18.219 15.5713 18.2849 15.3685C18.3509 15.1658 18.4598 14.9796 18.6043 14.8228L18.6043 14.8227L21.6043 11.5633V11.5633C22.3737 10.7273 21.9192 9.32831 20.8041 9.10356L16.4589 8.2279C16.0353 8.14254 15.6703 7.87771 15.4581 7.50171L13.2815 3.64469C13.0021 3.14959 12.4944 2.90205 11.9867 2.90205M11.9867 3.67716C12.2174 3.67716 12.4482 3.79755 12.5841 4.03834L14.7606 7.89526C15.0871 8.47373 15.6497 8.88178 16.3006 9.01298L20.6459 9.88864C21.19 9.9983 21.3892 10.6143 21.015 11.0209L18.015 14.2803C17.5652 14.769 17.3501 15.43 17.4264 16.0897L17.9353 20.4878C17.9987 21.0355 17.4739 21.4185 16.969 21.1876H16.969L12.9382 19.3451C12.3342 19.0689 11.6393 19.0689 11.0352 19.3451L7.00449 21.1877C6.49948 21.4184 5.97477 21.0355 6.03809 20.4879L6.54702 16.0898C6.62338 15.4299 6.40827 14.769 5.95845 14.2803L2.95837 11.0209C2.58418 10.6144 2.78342 9.9984 3.32751 9.88868L7.67277 9.01299C8.3238 8.88179 8.88639 8.47375 9.21285 7.89527V7.89525L11.3894 4.03833C11.5253 3.79756 11.756 3.67717 11.9867 3.67717" fill="#151515"/>
<path d="M11.4746 13.8265C11.5518 13.8421 11.6251 13.8734 11.6904 13.9173C11.7558 13.9612 11.8119 14.0177 11.8555 14.0833C11.899 14.1488 11.9301 14.222 11.9453 14.2991L11.9512 14.3148C11.9541 14.3192 11.9581 14.3242 11.9629 14.3275C11.9675 14.3306 11.9731 14.3322 11.9785 14.3333H11.9961C12.0013 14.3323 12.0063 14.3303 12.0107 14.3275C12.0151 14.3245 12.0192 14.3196 12.0225 14.3148H12.0234C12.0263 14.3103 12.0283 14.3053 12.0293 14.3001L12.0635 14.1878C12.0785 14.1516 12.0972 14.117 12.1191 14.0843C12.1631 14.0188 12.2195 13.962 12.2852 13.9183C12.3508 13.8746 12.4246 13.8447 12.502 13.8294C12.5793 13.8142 12.659 13.8139 12.7363 13.8294C12.8924 13.8608 13.0299 13.9528 13.1182 14.0853C13.2064 14.2178 13.2383 14.3803 13.207 14.5364C13.1749 14.6968 13.1107 14.8489 13.0195 14.9847C12.9285 15.1202 12.8117 15.237 12.6758 15.3275C12.5398 15.4178 12.3868 15.4806 12.2266 15.512C12.0665 15.5434 11.901 15.5431 11.7412 15.511C11.5814 15.4788 11.4293 15.4153 11.2939 15.3245C11.1921 15.2562 11.1007 15.173 11.0234 15.0784L10.9512 14.9798C10.8609 14.8439 10.7981 14.6916 10.7666 14.5316V14.5306C10.7515 14.4535 10.7512 14.3742 10.7666 14.2972C10.7822 14.2199 10.8135 14.1458 10.8574 14.0804C10.9014 14.015 10.9578 13.9589 11.0234 13.9153C11.0891 13.8717 11.1629 13.8417 11.2402 13.8265C11.3175 13.8113 11.3974 13.8109 11.4746 13.8265ZM8.76855 11.9847C9.31328 11.9847 9.75562 12.4263 9.75586 12.971C9.75586 13.5159 9.31342 13.9583 8.76855 13.9583C8.22389 13.9581 7.78223 13.5157 7.78223 12.971C7.78246 12.4265 8.22403 11.9849 8.76855 11.9847ZM15.2041 11.9847C15.7488 11.9847 16.1902 12.4263 16.1904 12.971C16.1904 13.5159 15.749 13.9583 15.2041 13.9583C14.6593 13.9582 14.2178 13.5158 14.2178 12.971C14.218 12.4264 14.6595 11.9848 15.2041 11.9847Z" fill="#151515" stroke="black" stroke-width="0.4"/>
</svg>
