<svg width="24" height="24" viewBox="0 0 24 24" fill="none" xmlns="http://www.w3.org/2000/svg">
<path d="M6.87793 13C8.49666 13 9.88077 14.3817 9.88086 16.1768C9.88086 17.9719 8.49672 19.3535 6.87793 19.3535C5.25913 19.3535 3.875 17.9719 3.875 16.1768C3.87509 14.3817 5.25918 13 6.87793 13Z" stroke="#F87171" stroke-width="2"/>
<path d="M11.5001 4.64612C13.1188 4.64613 14.5029 6.02783 14.503 7.82288C14.503 9.61801 13.1188 10.9996 11.5001 10.9996C9.88126 10.9996 8.49713 9.61802 8.49713 7.82288C8.49723 6.02782 9.88132 4.64612 11.5001 4.64612Z" stroke="#4ADE80" stroke-width="2"/>
<path d="M16.1221 13C17.7409 13 19.125 14.3817 19.1251 16.1768C19.1251 17.9719 17.7409 19.3535 16.1221 19.3535C14.5033 19.3535 13.1192 17.9719 13.1192 16.1768C13.1193 14.3817 14.5034 13 16.1221 13Z" stroke="#C084FC" stroke-width="2"/>
</svg>
