<svg width="24" height="24" viewBox="0 0 24 24" fill="none" xmlns="http://www.w3.org/2000/svg">
<path fill-rule="evenodd" clip-rule="evenodd" d="M6.91602 3.38017C5.57302 7.38015 2.91583 16.4217 3.04823 16.542C3.32471 16.7931 15.9407 20.7272 16.5409 20.7495C17.046 20.7682 17.1567 20.4904 19.0791 14.3769C20.1849 10.8612 21.0685 7.8458 21.0429 7.67614C21.0121 7.47137 18.7004 6.65252 14.171 5.2417C10.417 4.07247 7.26922 3.1143 7.17626 3.11257C7.08309 3.11083 6.96586 3.23131 6.91602 3.38017ZM16.7933 8.73832C16.6414 9.3316 16.5283 9.89216 16.5424 9.98425C16.5662 10.1413 18.7487 10.9704 18.8351 10.8551C19.0648 10.5491 19.5513 8.62391 19.4269 8.51297C19.3042 8.40398 17.2737 7.65967 17.0986 7.65967C17.0828 7.65967 16.9454 8.14504 16.7933 8.73832Z" fill="#0EA5E9"/>
</svg>
