<svg width="24" height="24" viewBox="0 0 24 24" fill="none" xmlns="http://www.w3.org/2000/svg">
<path d="M14.0294 4.22914C13.0488 3.23322 12.2044 2.22174 12.0319 2.01167C12.0137 1.99611 11.9865 1.99611 11.9684 2.01167C11.7958 2.22174 10.9515 3.23322 9.97091 4.22914C1.5544 13.418 11.2965 19.6192 11.2965 19.6192L11.3782 19.6658C11.4508 20.6228 11.6324 22 11.6324 22H11.9956H12.3587C12.3587 22 12.5404 20.6305 12.613 19.6658L12.6947 19.6114C12.7037 19.6114 22.4459 13.418 14.0294 4.22914ZM11.9956 19.4791C11.9956 19.4791 11.5598 19.1601 11.4417 18.9966V18.9811L11.9684 8.9753C11.9684 8.94417 12.0228 8.94417 12.0228 8.9753L12.5495 18.9811V18.9966C12.4314 19.1601 11.9956 19.4791 11.9956 19.4791Z" fill="#22C55E"/>
</svg>
