<svg width="24" height="24" viewBox="0 0 24 24" fill="none" xmlns="http://www.w3.org/2000/svg">
<path d="M20.417 11.4091C20.4127 11.4193 19.4027 13.7915 18.6533 15.4804C15.4796 19.4303 8.19955 19.1684 5.34863 15.4072C4.67584 13.7773 3.70703 11.4316 3.70703 11.4316C4.56242 12.4731 5.37373 13.2349 6.58008 13.8788C7.17799 14.1581 8.49805 14.3701 8.49805 14.3701L12.0312 12.5859L15.5439 14.4062C15.5597 14.4039 16.8855 14.2122 17.4619 13.8964C18.278 13.4479 19.6028 12.6152 20.417 11.4091ZM12.0713 5.99994C12.0713 5.99994 12.7205 6.59124 13.3662 7.12201C14.3148 7.07026 15.4426 7.27899 16.375 7.45111C17.0651 6.96794 17.6611 6.52533 17.6611 6.52533C17.6697 6.5399 18.1663 7.38553 18.5088 8.01263C18.873 8.23229 19.5143 8.68738 19.7861 8.98334C20.2414 8.8097 20.9434 8.57425 21 8.5556C20.4838 9.91538 19.9735 11.3885 18.6611 12.0732C16.6301 9.23796 7.38256 8.9481 5.39258 12.0908C4.14291 11.261 3.68343 9.88039 3 8.50189C3.01953 8.51015 3.61768 8.76082 4.13379 8.96576C4.57748 8.57333 5.07546 8.27635 5.57129 8.01263C5.90566 7.47583 6.4375 6.56049 6.4375 6.56049C6.4375 6.56049 7.05954 7.05624 7.76758 7.50482C8.53628 7.22526 9.95539 7.0629 10.6787 7.08588C11.3779 6.54756 12.0638 6.00585 12.0713 5.99994Z" fill="#FBBF24"/>
</svg>
