<svg width="24" height="24" viewBox="0 0 24 24" fill="none" xmlns="http://www.w3.org/2000/svg">
<path d="M16.6664 12.3833C16.3468 12.3771 16.0332 12.4702 15.7688 12.6496C15.5043 12.8291 15.302 13.0861 15.1896 13.3853C15.3758 13.1067 15.6513 12.9 15.9708 12.7993C16.2903 12.6985 16.6346 12.7097 16.9469 12.831C17.2439 12.9518 17.6346 13.1475 17.9444 13.0433C17.799 12.8397 17.6073 12.6736 17.3851 12.5589C17.1629 12.4441 16.9165 12.3839 16.6664 12.3833ZM19.2088 13.179C18.9276 13.0815 18.6088 12.9713 18.3771 12.6683C18.3321 12.6083 18.2901 12.5408 18.2451 12.4695C18.1447 12.2844 18.0089 12.1208 17.8454 11.988C17.6249 11.826 17.3354 11.7465 16.9604 11.7465C16.5917 11.7466 16.2315 11.8562 15.9252 12.0612C15.6189 12.2663 15.3804 12.5577 15.2399 12.8985C15.418 12.6506 15.6581 12.4537 15.9361 12.3277C16.2142 12.2016 16.5205 12.1508 16.8244 12.1802C17.1282 12.2097 17.419 12.3184 17.6677 12.4956C17.9164 12.6727 18.1142 12.912 18.2414 13.1895C18.3047 13.2935 18.4 13.3741 18.5131 13.4193C18.6261 13.4645 18.7508 13.4717 18.8683 13.44C19.2381 13.3613 19.2133 13.71 19.7706 13.8285V13.7288C19.7683 13.3943 19.5868 13.3163 19.2088 13.179ZM20.7268 14.1285C20.8086 14.0788 20.8757 14.0084 20.9214 13.9243C20.9671 13.8403 20.9898 13.7456 20.9871 13.65C20.9796 11.4323 19.1796 9.53479 16.9596 9.53479C16.2923 9.53424 15.6353 9.69971 15.0478 10.0163C14.4604 10.3329 13.9609 10.7906 13.5944 11.3483C13.5869 11.3288 12.4529 9.55579 12.4409 9.53479H9.70715L12.3044 13.602L9.77015 17.592H12.4251L13.5801 15.8175L14.7561 17.592H17.4119L15.0044 13.803C14.9645 13.7292 14.9429 13.6469 14.9414 13.563C14.9413 13.298 14.9934 13.0356 15.0947 12.7907C15.1961 12.5459 15.3447 12.3234 15.532 12.136C15.7194 11.9485 15.9418 11.7999 16.1866 11.6984C16.4314 11.597 16.6939 11.5448 16.9589 11.5448C18.0749 11.5448 18.2616 12.2123 18.5023 12.5258C18.9778 13.1453 19.9273 12.8738 19.9273 13.6815C19.929 13.7742 19.955 13.8647 20.0026 13.9442C20.0502 14.0237 20.1179 14.0894 20.1987 14.1346C20.2796 14.1798 20.3709 14.203 20.4636 14.202C20.5563 14.2009 20.647 14.1756 20.7268 14.1285ZM20.9893 14.2283C20.8596 14.5073 20.5693 14.4818 20.4231 14.7075C20.2911 14.9108 20.5086 15.0165 20.5086 15.0165C20.5086 15.0165 20.7613 15.1335 20.9121 14.7833C20.9901 14.61 21.0171 14.4173 20.9893 14.2283Z" fill="#64748B"/>
<path fill-rule="evenodd" clip-rule="evenodd" d="M9.214 16.6025L11.1188 13.6035L9.70551 11.3903L9.70346 13.0327L5.76823 6.40802H3V17.592H5.73748L5.74648 10.9755L9.214 16.6025ZM12.4492 8.53479C12.4494 8.15501 12.4481 7.69113 12.4471 7.29361V7.29357V7.29355C12.4458 6.80804 12.4447 6.42152 12.4469 6.40802H9.70946C9.71021 6.43015 9.70927 7.13859 9.70833 7.84663C9.70802 8.08477 9.7077 8.32287 9.70745 8.53479H12.4492Z" fill="#64748B"/>
</svg>
