<svg width="24" height="24" viewBox="0 0 24 24" fill="none" xmlns="http://www.w3.org/2000/svg">
<g clip-path="url(#clip0_38272_332)">
<path d="M2.83161 12.5204C2.95187 12.6239 3.12896 12.7676 3.39961 12.8211C3.73705 12.8879 4.01772 12.7743 4.13465 12.7208C4.32509 12.9514 4.92652 13.6129 5.93889 13.8234C6.68065 13.9805 7.28205 13.8167 7.47585 13.7566C7.66294 13.6998 8.18083 13.5194 8.66196 13.0717C9.33021 12.4502 9.83805 11.4011 9.64761 10.2483C9.44714 9.02881 8.57509 8.3539 8.37796 8.21023C8.43809 8.15676 8.52163 8.07659 8.61185 7.97634C8.67534 7.90283 8.97269 7.56203 9.17985 7.00741C9.23998 6.84703 9.35358 6.53296 9.38032 6.10527C9.42709 5.36021 9.16983 4.79554 9.04621 4.53492C8.92925 4.28767 8.80563 4.0939 8.71207 3.96692C8.38798 4.05045 7.93358 4.1841 7.40903 4.40127C6.75749 4.67192 5.56469 5.24994 4.40196 6.37259C4.01772 6.74345 3.65687 7.09761 3.29936 7.67563C2.86167 8.38396 2.66121 9.05554 2.56429 9.5133C2.45069 9.61687 2.27363 9.80063 2.16336 10.0813C2.02971 10.4187 2.06312 10.7128 2.09653 10.9834C2.12995 11.2373 2.22685 12.0058 2.83161 12.5204Z" fill="url(#paint0_radial_38272_332)"/>
<path d="M17.1319 5.93827C15.6651 4.70535 14.1515 4.19082 13.2227 3.96695C11.4251 3.5326 9.91825 3.71971 9.09632 3.88342C9.46718 4.37124 9.6142 4.82898 9.68103 5.10295C9.96169 6.27571 9.48723 7.23798 9.34692 7.50862C9.17985 7.83271 8.99607 8.07327 8.86243 8.22698C9.05287 8.39069 9.31349 8.64795 9.54738 9.01215C9.66432 9.19591 9.8982 9.56678 10.0151 10.1147C10.1354 10.6761 10.0719 11.1472 10.0151 11.4178C9.92158 11.8555 9.75454 12.193 9.6142 12.4202C9.83472 12.3834 10.1588 12.3433 10.5497 12.3533C11.7392 12.3834 12.6213 12.8378 12.9888 13.055C13.226 13.1953 13.7673 13.5395 14.2919 14.1576C14.7864 14.7356 15.0403 15.2936 15.1606 15.5943C15.2942 15.9284 15.5582 16.6935 15.5281 17.6658C15.5181 17.9465 15.4345 19.7073 14.058 21.1072C13.9377 21.2309 13.4232 21.7387 12.5878 22.143C11.6991 22.574 10.8872 22.6709 10.3994 22.6942C10.7469 22.7178 11.1779 22.7278 11.669 22.6942C11.9397 22.6742 12.491 22.6242 13.1726 22.4605C13.637 22.3502 14.5525 22.0896 15.5949 21.5082C16.4102 21.0538 17.0016 20.5693 17.3658 20.2385C17.7099 19.9278 18.2244 19.4166 18.7356 18.7016C19.1266 18.157 19.3771 17.6859 19.5041 17.4319C19.7681 16.904 19.9485 16.4196 20.0721 16.0286C20.159 15.7547 20.306 15.2334 20.4062 14.5585C20.4263 14.4215 20.4964 13.917 20.5065 13.3223C20.5298 11.8655 20.169 10.6527 20.0721 10.3486C19.2736 7.79595 17.5328 6.27571 17.1319 5.93827Z" fill="url(#paint1_radial_38272_332)"/>
<path d="M21.843 6.77352C21.5757 5.84132 20.7805 5.12966 19.7882 4.91917C19.8115 4.45808 19.7748 3.66621 19.2703 2.99799C18.4016 1.84528 16.4837 1.49445 14.626 2.32975C14.3086 1.67154 13.891 1.46104 13.7239 1.39422C12.795 1.01666 11.3918 1.66485 10.5164 3.16504C11.5588 3.13164 13.206 3.22519 14.9936 4.00035C16.1696 4.51155 16.9949 5.13635 17.3992 5.47046C17.8503 5.84468 18.7658 6.66661 19.571 7.97635C20.012 8.6947 20.2927 9.35292 20.4731 9.84741C20.707 9.72712 21.1146 9.47655 21.442 9.01212C21.5222 8.89517 22.1771 7.93959 21.843 6.77352Z" fill="url(#paint2_radial_38272_332)"/>
<path d="M12.0032 17.6491C12.1635 17.7694 12.6914 18.1369 13.4398 18.1169C14.4188 18.0902 15.0136 17.4286 15.1104 17.315C15.1004 17.0544 15.0637 16.6802 14.9434 16.2458C14.4689 14.5452 13.1625 13.6631 12.9721 13.5395C12.785 13.4158 11.7058 12.7309 10.2323 12.771C9.95833 12.7777 9.7278 12.8077 9.56409 12.8378C9.83471 12.8913 10.2323 13.0015 10.65 13.2555C11.8595 13.9872 12.1736 15.2535 12.2203 15.4606C12.4208 16.3227 12.227 17.0243 12.1869 17.1646C12.1268 17.3651 12.0566 17.5322 12.0032 17.6491Z" fill="url(#paint3_radial_38272_332)"/>
<path d="M6.70735 20.1383C6.2897 19.0257 6.52359 18.0534 6.60713 17.7326C6.6873 17.4219 6.79088 17.1713 6.87441 16.9976C6.77753 16.9307 5.32077 15.9518 3.85064 16.6133C3.18241 16.914 2.8015 17.4252 2.6311 17.6992C3.20246 18.755 3.85733 19.5001 4.3351 19.9712C5.69497 21.3077 7.16175 21.9425 8.07724 22.2431C8.80897 22.4838 9.46048 22.5973 9.95833 22.6576C9.56741 22.6073 8.98604 22.4738 8.37795 22.1096C8.11066 21.9492 7.1651 21.3612 6.70735 20.1383Z" fill="url(#paint4_radial_38272_332)"/>
<path d="M6.67401 12.4034C7.60587 12.4034 8.36129 11.648 8.36129 10.7161C8.36129 9.78425 7.60587 9.02881 6.67401 9.02881C5.74214 9.02881 4.98669 9.78425 4.98669 10.7161C4.98669 11.648 5.74214 12.4034 6.67401 12.4034Z" fill="white" stroke="white" stroke-width="0.0222222" stroke-miterlimit="10" stroke-linejoin="round"/>
<path d="M6.67396 11.675C7.20356 11.675 7.63287 11.2457 7.63287 10.7161C7.63287 10.1865 7.20356 9.7572 6.67396 9.7572C6.14436 9.7572 5.71503 10.1865 5.71503 10.7161C5.71503 11.2457 6.14436 11.675 6.67396 11.675Z" fill="url(#paint5_linear_38272_332)"/>
<path d="M7.19189 10.2317C7.1618 10.1982 6.92457 9.94097 6.57042 9.9677C6.35657 9.98441 6.09597 10.1013 5.99909 10.3319C5.98237 10.3686 5.89884 10.5891 6.02246 10.7328C6.106 10.8297 6.23295 10.8331 6.25635 10.8331C6.37329 10.8331 6.48355 10.7729 6.54035 10.6861C6.6172 10.5624 6.54035 10.4655 6.59046 10.3653C6.63391 10.2784 6.77089 10.1982 7.19189 10.2317Z" fill="white"/>
<path d="M11.4686 6.89046C12.0733 7.68566 13.6938 6.27903 15.5114 7.09092C16.751 7.64557 17.1686 8.81832 18.0507 8.6613C18.4717 8.58443 18.7657 8.25032 18.9428 7.98972C18.1877 6.85037 17.3891 6.15206 17.1319 5.93823C15.6651 4.70532 14.1515 4.19079 13.2227 3.96692C12.5812 3.81323 11.9798 3.73639 11.4318 3.70966C11.4251 3.79986 11.4151 3.94354 11.4017 4.11728C11.2982 5.76783 11.2447 6.59643 11.4686 6.89046Z" fill="url(#paint6_linear_38272_332)"/>
<path d="M14.4422 12.3032C14.3754 12.1462 14.0914 11.5481 13.4733 11.2006C12.9688 10.9166 12.6848 11.0436 12.0366 10.8665C10.9841 10.5758 10.8838 9.92427 10.2657 9.86414C10.1622 9.85412 10.0552 9.85412 9.94831 9.86078C9.97171 9.94098 9.99509 10.0245 10.0151 10.1147C10.1354 10.6761 10.0719 11.1471 10.0151 11.4178C9.92157 11.8555 9.75453 12.1929 9.6142 12.4201C9.83471 12.3834 10.1588 12.3433 10.5497 12.3533C11.7392 12.3834 12.6213 12.8378 12.9888 13.055C13.226 13.1953 13.7673 13.5394 14.2918 14.1576C14.3386 14.211 14.3821 14.2645 14.4222 14.3179C14.6694 13.653 14.7128 12.928 14.4422 12.3032Z" fill="url(#paint7_linear_38272_332)"/>
<path d="M19.5041 17.4319C19.7681 16.904 19.9485 16.4195 20.0721 16.0286C20.159 15.7547 20.306 15.2334 20.4062 14.5585C20.4263 14.4215 20.4964 13.917 20.5065 13.3223C20.5298 11.8655 20.169 10.6527 20.0721 10.3486C20.0687 10.3386 20.0654 10.3286 20.0621 10.3185C19.9351 10.7796 19.7313 11.2307 19.4206 11.635C18.455 12.8879 17.0316 12.9781 16.9481 13.8736C16.8679 14.759 18.2111 15.0864 18.6855 16.3795C19.0397 17.3517 18.7323 18.3975 18.3113 19.2495C18.4516 19.0825 18.5919 18.8987 18.7356 18.7016C19.1232 18.1536 19.3738 17.6859 19.5041 17.4319Z" fill="url(#paint8_linear_38272_332)"/>
<path d="M16.3467 20.6561C16.3033 20.4356 16.1496 20.1583 15.9124 20.0547C15.4413 19.8476 14.9167 20.4289 14.1582 21.0036C14.1248 21.037 14.0914 21.0738 14.058 21.1072C13.9377 21.2308 13.4232 21.7387 12.5879 22.143C11.6991 22.574 10.8872 22.6709 10.3994 22.6942C10.7469 22.7178 11.1779 22.7278 11.6691 22.6942C11.9397 22.6742 12.491 22.6242 13.1726 22.4604C13.637 22.3502 14.5525 22.0895 15.5949 21.5081C15.8522 21.3645 16.0895 21.2175 16.3033 21.0738C16.3534 20.9468 16.3768 20.8132 16.3467 20.6561Z" fill="url(#paint9_linear_38272_332)"/>
<path d="M5.03344 12.6206C4.82295 12.7876 4.65588 12.9981 4.56568 13.2287C4.5523 13.2588 4.54228 13.2855 4.53561 13.3156C4.52559 13.3423 4.51557 13.3824 4.50555 13.4158C4.48884 13.4826 4.47213 13.5428 4.4621 13.6029C4.44206 13.7232 4.44875 13.8368 4.48215 13.937C4.51557 14.0372 4.58239 14.1275 4.67595 14.2043C4.82628 14.3212 4.99668 14.368 5.03344 14.378C5.17044 14.4115 5.27401 14.4081 5.44441 14.4014C5.63153 14.3948 5.71839 14.368 5.97566 14.3613C6.02244 14.3613 6.06588 14.3613 6.10597 14.3613H6.23628C6.32315 14.3613 6.41335 14.3647 6.50357 14.3747C6.68399 14.3881 6.86775 14.4148 7.0415 14.4683C7.21857 14.5217 7.38564 14.6086 7.52264 14.7188C7.65628 14.8324 7.76319 14.9661 7.82668 15.1164C7.86008 15.1933 7.88013 15.2702 7.88681 15.3503C7.89684 15.4305 7.89015 15.5074 7.87679 15.5842C7.86344 15.6611 7.84004 15.7379 7.80664 15.8081C7.76988 15.8816 7.71975 15.9484 7.65293 16.0052C7.63624 16.0186 7.61953 16.0319 7.59948 16.0453C7.58277 16.0587 7.56273 16.0687 7.54268 16.0787C7.50257 16.0988 7.45915 16.1121 7.4157 16.1222C7.32884 16.1422 7.23528 16.1455 7.14841 16.1322C7.02479 16.1155 6.93793 16.0687 6.9045 16.0486C6.78424 15.9785 6.72408 15.8916 6.72744 15.8883C6.73077 15.8849 6.7909 15.9718 6.91453 16.0319C6.94459 16.0453 7.03148 16.0854 7.15175 16.0921C7.23528 16.0954 7.31548 16.0854 7.39233 16.062C7.42908 16.0486 7.46584 16.0353 7.49924 16.0152C7.51595 16.0052 7.53266 15.9952 7.54601 15.9852C7.55937 15.9751 7.57608 15.9618 7.5861 15.9484C7.68968 15.8482 7.72977 15.7078 7.73981 15.5675C7.74984 15.4272 7.7231 15.2935 7.65628 15.1732C7.58946 15.053 7.48921 14.946 7.36893 14.8625C7.24866 14.7823 7.10833 14.7222 6.95797 14.6921C6.65726 14.6253 6.32648 14.6453 5.99237 14.6754C5.75515 14.6955 5.75515 14.7255 5.5079 14.7489C5.24728 14.7756 5.10026 14.789 4.90315 14.7556C4.63584 14.7088 4.44539 14.5986 4.35184 14.5384C4.2683 14.4816 4.18813 14.4181 4.1213 14.3413C4.05448 14.2678 3.99768 14.1843 3.95759 14.094C3.87406 13.917 3.85401 13.7299 3.86068 13.5595C3.86404 13.4726 3.87406 13.3891 3.88741 13.3122C3.8941 13.2721 3.89744 13.2387 3.90746 13.1953C3.91415 13.1518 3.9275 13.1117 3.93753 13.0683C4.03444 12.7342 4.23157 12.4268 4.49886 12.1729L4.50219 12.1695C4.63919 12.0392 4.87306 12.0292 5.02341 12.1461C5.17713 12.2631 5.18715 12.4636 5.05348 12.5939C5.05015 12.6072 5.04013 12.6139 5.03344 12.6206Z" fill="url(#paint10_linear_38272_332)"/>
</g>
<defs>
<radialGradient id="paint0_radial_38272_332" cx="0" cy="0" r="1" gradientUnits="userSpaceOnUse" gradientTransform="translate(12.001 12.0014) scale(13.1309)">
<stop stop-color="#9E60FC"/>
<stop offset="1" stop-color="#45239B"/>
</radialGradient>
<radialGradient id="paint1_radial_38272_332" cx="0" cy="0" r="1" gradientUnits="userSpaceOnUse" gradientTransform="translate(12.001 12.0015) scale(13.1309)">
<stop stop-color="#9E60FC"/>
<stop offset="1" stop-color="#45239B"/>
</radialGradient>
<radialGradient id="paint2_radial_38272_332" cx="0" cy="0" r="1" gradientUnits="userSpaceOnUse" gradientTransform="translate(12.0011 12.0014) scale(13.1309 13.1309)">
<stop stop-color="#9E60FC"/>
<stop offset="1" stop-color="#45239B"/>
</radialGradient>
<radialGradient id="paint3_radial_38272_332" cx="0" cy="0" r="1" gradientUnits="userSpaceOnUse" gradientTransform="translate(12.001 12.0015) scale(13.1309 13.1309)">
<stop stop-color="#9E60FC"/>
<stop offset="1" stop-color="#45239B"/>
</radialGradient>
<radialGradient id="paint4_radial_38272_332" cx="0" cy="0" r="1" gradientUnits="userSpaceOnUse" gradientTransform="translate(12.001 12.0015) scale(13.1309 13.1309)">
<stop stop-color="#9E60FC"/>
<stop offset="1" stop-color="#45239B"/>
</radialGradient>
<linearGradient id="paint5_linear_38272_332" x1="5.66649" y1="8.53169" x2="6.87214" y2="11.1474" gradientUnits="userSpaceOnUse">
<stop stop-color="#9E60FC"/>
<stop offset="0.928" stop-color="#45239B"/>
</linearGradient>
<linearGradient id="paint6_linear_38272_332" x1="12.2812" y1="9.31448" x2="15.6259" y2="5.33434" gradientUnits="userSpaceOnUse">
<stop offset="0.5056" stop-color="#FFBF4F"/>
<stop offset="1" stop-color="#F58E54"/>
</linearGradient>
<linearGradient id="paint7_linear_38272_332" x1="12.9966" y1="11.2887" x2="10.7222" y2="13.5296" gradientUnits="userSpaceOnUse">
<stop offset="0.1847" stop-color="#FFBF4F"/>
<stop offset="1" stop-color="#F58E54"/>
</linearGradient>
<linearGradient id="paint8_linear_38272_332" x1="16.9433" y1="14.7832" x2="20.5062" y2="14.7832" gradientUnits="userSpaceOnUse">
<stop offset="0.2361" stop-color="#FFBF4F"/>
<stop offset="1" stop-color="#F58E54"/>
</linearGradient>
<linearGradient id="paint9_linear_38272_332" x1="15.8905" y1="18.962" x2="12.3611" y2="23.0175" gradientUnits="userSpaceOnUse">
<stop offset="0.1026" stop-color="#FFBF4F"/>
<stop offset="0.893" stop-color="#F58E54"/>
</linearGradient>
<linearGradient id="paint10_linear_38272_332" x1="3.8609" y1="14.1078" x2="7.89221" y2="14.1078" gradientUnits="userSpaceOnUse">
<stop offset="0.1847" stop-color="#FFBF4F"/>
<stop offset="1" stop-color="#F58E54"/>
</linearGradient>
<clipPath id="clip0_38272_332">
<rect width="24" height="24" fill="white"/>
</clipPath>
</defs>
</svg>
