<svg
  width="24"
  height="24"
  viewBox="0 0 24 24"
  fill="none"
  xmlns="http://www.w3.org/2000/svg"
>
  <path
    d="M22.3462 17.5155L18.7612 13.803C18.7159 13.7529 18.6606 13.7129 18.5988 13.6856C18.5371 13.6582 18.4703 13.644 18.4027 13.644C18.3352 13.644 18.2684 13.6582 18.2066 13.6856C18.1449 13.7129 18.0896 13.7529 18.0442 13.803C17.5006 14.2855 16.9096 14.7119 16.2802 15.0757C16.1364 15.1445 15.9768 15.1737 15.8179 15.1604C15.659 15.147 15.5065 15.0916 15.3762 14.9998C15.2458 14.908 15.1422 14.7831 15.0761 14.638C15.01 14.493 14.9837 14.3329 15 14.1743V12.4245C15.0016 12.1463 15.1119 11.8798 15.3075 11.682L20.2462 6.9045C20.3169 6.83043 20.3649 6.73765 20.3845 6.63713C20.4041 6.53662 20.3944 6.43261 20.3567 6.33741C20.319 6.24221 20.2548 6.15983 20.1716 6.10003C20.0885 6.04023 19.99 6.00551 19.8877 6H16.125C15.8266 6 15.5405 5.88147 15.3295 5.6705C15.1185 5.45952 15 5.17337 15 4.875V2.0625C15 1.91332 14.9407 1.77024 14.8352 1.66475C14.7297 1.55926 14.5867 1.5 14.4375 1.5H9.56248C9.41329 1.5 9.27022 1.55926 9.16473 1.66475C9.05924 1.77024 8.99998 1.91332 8.99998 2.0625V4.875C8.99998 5.17337 8.88145 5.45952 8.67047 5.6705C8.45949 5.88147 8.17335 6 7.87498 6H4.11223C4.00997 6.00551 3.91145 6.04023 3.82832 6.10003C3.7452 6.15983 3.68097 6.24221 3.64323 6.33741C3.6055 6.43261 3.59586 6.53662 3.61544 6.63713C3.63503 6.73765 3.68302 6.83043 3.75373 6.9045L8.69248 11.682C8.88801 11.8798 8.99838 12.1463 8.99998 12.4245V14.1743C9.01623 14.3329 8.98995 14.493 8.92383 14.638C8.85772 14.7831 8.75415 14.908 8.62378 14.9998C8.49341 15.0916 8.34094 15.147 8.18205 15.1604C8.02316 15.1737 7.86358 15.1445 7.71973 15.0757C7.09039 14.7119 6.4994 14.2855 5.95573 13.803C5.91038 13.7529 5.85505 13.7129 5.79331 13.6856C5.73156 13.6582 5.66477 13.644 5.59723 13.644C5.52968 13.644 5.46289 13.6582 5.40115 13.6856C5.3394 13.7129 5.28408 13.7529 5.23873 13.803L1.65373 17.5155C1.60497 17.5643 1.56629 17.6221 1.53991 17.6858C1.51352 17.7495 1.49994 17.8178 1.49994 17.8868C1.49994 17.9557 1.51352 18.024 1.53991 18.0877C1.56629 18.1514 1.60497 18.2092 1.65373 18.258C4.41124 20.9764 8.12783 22.5003 12 22.5003C15.8721 22.5003 19.5887 20.9764 22.3462 18.258C22.395 18.2092 22.4337 18.1514 22.46 18.0877C22.4864 18.024 22.5 17.9557 22.5 17.8868C22.5 17.8178 22.4864 17.7495 22.46 17.6858C22.4337 17.6221 22.395 17.5643 22.3462 17.5155Z"
    fill="#32F3EF"
  />
</svg>
