<svg width="24" height="24" viewBox="0 0 24 24" fill="none" xmlns="http://www.w3.org/2000/svg">
<path fill-rule="evenodd" clip-rule="evenodd" d="M12.3143 6.26969C13.3693 6.26969 14.2245 5.41452 14.2245 4.35958C14.2245 3.30463 13.3693 2.44946 12.3143 2.44946C11.2594 2.44946 10.4042 3.30463 10.4042 4.35958C10.4042 5.41452 11.2594 6.26969 12.3143 6.26969ZM12.3143 5.48317C12.9349 5.48317 13.4379 4.98014 13.4379 4.35958C13.4379 3.73901 12.9349 3.23598 12.3143 3.23598C11.6938 3.23598 11.1908 3.73901 11.1908 4.35958C11.1908 4.98014 11.6938 5.48317 12.3143 5.48317Z" fill="#EA580C"/>
<path fill-rule="evenodd" clip-rule="evenodd" d="M13.1028 6.09991C13.7644 5.79969 14.2245 5.1334 14.2245 4.35958C14.2245 3.30463 13.3694 2.44946 12.3144 2.44946C11.2595 2.44946 10.4043 3.30463 10.4043 4.35958C10.4043 5.1334 10.8644 5.79969 11.526 6.09991L11.4776 7.50564H11.4717L8.80588 7.70677C8.72109 7.71317 8.64185 7.75138 8.58405 7.81376C8.52626 7.87611 8.49415 7.95802 8.4942 8.04306V8.76665C8.4942 8.85158 8.52626 8.93336 8.58396 8.99568C8.64167 9.05798 8.72076 9.09622 8.80544 9.10272L11.4155 9.3034L11.2915 13.9965C11.2541 15.4136 11.0232 17.1501 9.63869 17.4543C9.48532 17.488 9.3278 17.5056 9.16836 17.5056C8.33847 17.5056 7.38072 16.484 6.76723 15.4363C7.01041 15.3308 7.25935 15.2392 7.51285 15.1618C7.65858 15.1173 7.68791 14.9122 7.56072 14.8281C6.64139 14.2205 5.91218 13.405 5.46476 12.4616C5.4033 12.3319 5.21757 12.3225 5.15566 12.4519C4.99895 12.779 4.86678 13.1172 4.76027 13.4638C4.45004 14.4753 4.37094 15.5302 4.52734 16.5685L4.53779 16.6355C4.55948 16.7707 4.7269 16.8186 4.82532 16.7234C5.01084 16.5441 5.20732 16.3765 5.41364 16.2216C6.54218 19.7743 10.3164 21.5506 12.3144 21.5506C14.3128 21.5506 18.0886 19.7734 19.216 16.2189C19.4222 16.3743 19.6185 16.5423 19.8037 16.722C19.9022 16.8176 20.07 16.7697 20.0916 16.6343C20.0952 16.6124 20.0986 16.5904 20.1018 16.5685C20.2576 15.5302 20.1788 14.4753 19.8699 13.4638C19.7642 13.1179 19.6328 12.7802 19.4772 12.4537C19.4154 12.324 19.2292 12.3333 19.1679 12.4633C18.7223 13.4061 17.9965 14.221 17.0818 14.8283C16.955 14.9125 16.9843 15.1172 17.1298 15.1618C17.3794 15.2383 17.6244 15.3288 17.8639 15.4327C17.2503 16.4816 16.2914 17.5056 15.4605 17.5056C15.3012 17.5056 15.1436 17.488 14.9904 17.4544C13.6056 17.1502 13.3748 15.4136 13.3373 13.9965L13.2133 9.3034L15.8234 9.10261C15.9081 9.0961 15.9872 9.05787 16.0449 8.99556C16.1026 8.93325 16.1346 8.85146 16.1346 8.76654V8.04295C16.1346 7.95796 16.1025 7.8761 16.0448 7.81378C15.9869 7.75146 15.9077 7.71328 15.823 7.70688L13.1571 7.50564H13.1513L13.1028 6.09991ZM13.438 4.35958C13.438 4.98014 12.935 5.48317 12.3144 5.48317C11.6939 5.48317 11.1908 4.98014 11.1908 4.35958C11.1908 3.73901 11.6939 3.23598 12.3144 3.23598C12.935 3.23598 13.438 3.73901 13.438 4.35958Z" fill="#EA580C"/>
<path fill-rule="evenodd" clip-rule="evenodd" d="M12.3144 6.04494C12.3144 5.92079 12.4154 5.82135 12.5389 5.80876C13.4014 5.71977 14.0882 5.12337 14.2065 4.36719C14.2069 4.36504 14.2079 4.36308 14.2096 4.36165C14.2111 4.36023 14.2133 4.35945 14.2154 4.35944C14.2166 4.35943 14.2178 4.35965 14.2189 4.3601C14.22 4.36055 14.221 4.36122 14.2219 4.36207C14.2227 4.36292 14.2234 4.36393 14.2238 4.36503C14.2243 4.36615 14.2245 4.36734 14.2245 4.36854C14.2221 4.87201 14.021 5.35419 13.6651 5.71022C13.5015 5.87377 13.3108 6.00507 13.103 6.09927L13.1571 7.50564L12.5034 8.11575C12.4316 8.18272 12.3144 8.13182 12.3144 8.03362V6.04497C12.3144 6.04496 12.3144 6.04495 12.3144 6.04494ZM19.2946 12.4285C19.2888 12.4374 19.2844 12.447 19.2814 12.4571L19.2781 12.4725C18.6887 17.7659 15.3679 19.4045 12.9556 19.2923C13.8746 18.9956 14.4957 18.3387 15.0426 17.6872C15.1427 17.5679 15.2973 17.5131 15.4529 17.5056C15.2954 17.5056 15.1399 17.4885 14.9888 17.4555C13.6035 17.1541 13.3747 15.4136 13.3373 13.9965L13.2133 9.3034L15.8311 9.10901C15.9143 9.10069 15.9914 9.06175 16.0475 8.99978C16.1036 8.9378 16.1346 8.8572 16.1346 8.77362V8.40452H12.4829C12.4382 8.40452 12.3954 8.42227 12.3637 8.45388C12.3321 8.48548 12.3144 8.52836 12.3144 8.57306V21.5506C14.3128 21.5506 18.0885 19.7734 19.216 16.2189C19.4217 16.3744 19.618 16.5424 19.8037 16.722C19.9021 16.8175 20.07 16.7697 20.0916 16.6343C20.0952 16.6124 20.0985 16.5903 20.1018 16.5684C20.2575 15.5302 20.1788 14.4753 19.8699 13.4638C19.7626 13.113 19.6292 12.7708 19.4707 12.4399C19.4366 12.3688 19.3384 12.3628 19.2946 12.4285ZM8.55406 9.02325C8.51558 8.98172 8.4942 8.92718 8.4942 8.87056V8.40449H12.0974C12.1152 8.4045 12.1326 8.40978 12.1473 8.41966C12.1622 8.42955 12.1736 8.44359 12.1805 8.46002C12.1872 8.47646 12.189 8.49452 12.1855 8.51196C12.1821 8.5294 12.1735 8.54541 12.1609 8.55797L11.4155 9.30337L8.70173 9.0946C8.64527 9.09028 8.59253 9.06479 8.55406 9.02325Z" fill="black" fill-opacity="0.4"/>
</svg>
