<svg width="24" height="24" viewBox="0 0 24 24" fill="none" xmlns="http://www.w3.org/2000/svg">
<path d="M11.5 13.6773C12.3877 13.6773 13.1074 12.9263 13.1074 12C13.1074 11.0737 12.3877 10.3227 11.5 10.3227C10.6122 10.3227 9.89258 11.0737 9.89258 12C9.89258 12.9263 10.6122 13.6773 11.5 13.6773Z" fill="#2563EB"/>
<path d="M11.5 15.4364C16.2635 15.4364 20.125 13.8979 20.125 12C20.125 10.1022 16.2635 8.56366 11.5 8.56366C6.73654 8.56366 2.875 10.1022 2.875 12C2.875 13.8979 6.73654 15.4364 11.5 15.4364Z" stroke="#2563EB"/>
<path d="M8.64797 13.7182C11.0297 18.0228 14.2373 20.7432 15.8124 19.7942C17.3876 18.8453 16.7337 14.5865 14.3519 10.2818C11.9702 5.9772 8.76255 3.25687 7.18745 4.20579C5.61235 5.15472 6.26624 9.41357 8.64797 13.7182Z" stroke="#2563EB"/>
<path d="M8.64797 10.2818C6.26624 14.5865 5.61235 18.8453 7.18745 19.7943C8.76255 20.7432 11.9702 18.0228 14.3519 13.7182C16.7337 9.41358 17.3876 5.15472 15.8124 4.2058C14.2373 3.25687 11.0297 5.97721 8.64797 10.2818Z" stroke="#2563EB"/>
</svg>
