<svg
  width="24"
  height="24"
  viewBox="0 0 24 24"
  fill="none"
  xmlns="http://www.w3.org/2000/svg"
>
  <path
    d="M20.442 1.5C20.892 1.5 21.1395 2.025 20.85 2.373L15.9345 8.2725C15.357 8.9655 15.591 10.5 16.4955 10.5H21.9615C22.413 10.5 22.659 11.025 22.371 11.373L12.4035 22.308C12.3536 22.3679 12.291 22.416 12.2204 22.449C12.1498 22.4821 12.0728 22.4992 11.9948 22.4992C11.9168 22.4992 11.8398 22.4821 11.7691 22.449C11.6985 22.416 11.636 22.3679 11.586 22.308L1.62603 11.373C1.56149 11.2954 1.52034 11.2011 1.50735 11.101C1.49437 11.0009 1.5101 10.8992 1.5527 10.8077C1.5953 10.7162 1.66302 10.6387 1.74797 10.5842C1.83292 10.5298 1.93161 10.5006 2.03253 10.5H7.49253C8.39553 10.5 8.63103 8.9655 8.05203 8.2725L3.13803 2.373C3.07341 2.29531 3.03224 2.20084 3.01931 2.10062C3.00638 2.00041 3.02224 1.89858 3.06502 1.80704C3.1078 1.7155 3.17575 1.63802 3.26092 1.58365C3.3461 1.52928 3.44498 1.50027 3.54603 1.5H20.442Z"
    fill="#FF5500"
  />
</svg>
