<svg width="24" height="24" viewBox="0 0 24 24" fill="none" xmlns="http://www.w3.org/2000/svg">
<g clip-path="url(#clip0_33021_223)">
<path d="M2.85756 18.2344C2.27631 18.4969 1.70256 18.7707 1.13256 19.0594L0.787558 19.4607C0.656308 19.8282 0.678808 20.4019 0.622559 20.7919L0.783808 21.1444L0.990058 21.0657C0.990058 21.0657 1.07256 20.7394 1.60506 20.1919L2.09256 19.7644C2.09256 19.7644 3.83256 18.7069 4.08006 18.5869C3.73131 18.4857 3.20631 18.3394 2.85756 18.2344Z" fill="#FF5A5A"/>
<path d="M4.06497 18.5457C3.33372 19.1794 2.35497 19.5094 1.66497 20.1994L1.49622 20.4544C2.68872 19.7007 3.90747 20.9194 4.98747 21.2532C5.24622 21.3319 5.01372 21.1819 4.98747 21.0019C4.97622 20.9269 5.02497 20.7994 5.12997 20.6157L5.13372 20.3419L4.39122 20.1469L4.52247 19.4569L4.89747 19.1794C4.97247 19.0482 5.33997 18.8494 5.42622 18.7257L4.62747 18.5344L4.06497 18.5457Z" fill="#9D3737"/>
<mask id="mask0_33021_223" style="mask-type:luminance" maskUnits="userSpaceOnUse" x="6" y="13" width="14" height="11">
<path d="M6.71997 13.9182H19.2V23.5145H6.71997V13.9182Z" fill="white"/>
</mask>
<g mask="url(#mask0_33021_223)">
<path d="M19.0913 18.4482V17.552L19.05 16.8545L18.8888 16.1907L18.735 15.7445L18.4988 15.3432L18.3075 14.987L18.1313 15.4295L17.8125 15.977L17.5613 16.2995L17.2388 16.5657L16.635 16.9032H16.065L15.5175 16.6407L15.0338 16.3632L14.6888 15.9095L14.5838 15.5607L14.3888 14.387L14.3063 14.6307L14.01 15.2007L13.6575 15.7107L13.1775 16.1495L12.7875 16.3632L12.2663 16.5095L11.8763 16.4945L10.8113 16.0032L10.2825 15.3432L10.1063 14.987L9.67876 15.8757L9.18375 16.5095L8.415 17.3382L7.66126 17.8332L7.005 18.3395C7.03126 18.6357 7.12126 18.842 7.27126 18.9657C7.6575 19.277 7.905 19.8207 8.265 20.0907C8.71875 20.4357 9.14251 20.6007 9.55501 20.867C9.94126 21.1145 10.035 21.5757 10.3763 21.7707C11.6475 22.4945 12.8288 22.5845 13.1325 22.5357C13.4963 22.607 13.9875 22.5207 14.3513 22.5282C14.6025 22.4682 15.2063 22.412 15.5175 22.277C16.0163 22.0595 16.815 21.7707 17.2913 21.4557C17.8575 21.077 18.2213 20.5145 18.36 20.3495C18.4988 20.1807 18.6338 19.8582 18.735 19.6745C18.8475 19.442 18.9075 19.2095 18.9863 18.9657L19.0913 18.4482Z" fill="url(#paint0_linear_33021_223)"/>
</g>
<path d="M8.66255 17.4507C9.3338 18.4745 11.8313 17.8707 11.8313 16.5845C11.8313 16.5845 11.1188 16.4232 10.815 16.1195L10.1288 15.2795C9.75005 16.0295 8.66255 16.8882 8.55005 17.2595C8.55005 17.2595 8.6213 17.3757 8.66255 17.4507ZM16.635 16.9857C16.59 18.0245 18.2025 18.512 18.9788 18.0282C19.0238 17.0495 18.9 16.0107 18.3113 15.2232C18.1238 15.4407 18.1013 15.9132 17.61 16.3632C17.325 16.6257 16.995 16.8357 16.6388 16.9857H16.635Z" fill="#F28773"/>
<path d="M13.41 16.5095C13.5638 17.0495 14.3738 17.192 14.9438 17.2895C14.46 17.4545 13.9088 17.3757 13.4625 17.132C13.215 17.0232 12.9938 16.5995 13.41 16.5095Z" fill="#564341"/>
<path d="M6.95628 18.6394C6.84378 18.4482 5.24628 18.7594 4.51503 19.6632C4.15878 20.0494 4.65378 20.2482 5.01378 20.1957C6.08253 19.9182 5.93628 19.2619 7.50753 19.4382C7.52628 19.4419 7.23003 19.1007 6.95628 18.6394Z" fill="url(#paint1_linear_33021_223)"/>
<path d="M7.67614 19.6182C6.94114 19.3332 5.80114 19.6369 5.22364 20.4169C5.01739 20.6944 4.70239 21.5157 5.05864 21.4332C5.95114 21.2307 6.59239 21.2344 6.70864 21.1257C7.12489 20.7319 7.42114 20.4469 8.49364 20.4094C8.36614 20.2332 7.95364 19.7232 7.67989 19.6182H7.67614Z" fill="url(#paint2_linear_33021_223)"/>
<mask id="mask1_33021_223" style="mask-type:luminance" maskUnits="userSpaceOnUse" x="4" y="19" width="8" height="5">
<path d="M4.80005 19.6782H11.52V23.5144H4.80005V19.6782Z" fill="white"/>
</mask>
<g mask="url(#mask1_33021_223)">
<path d="M9.08626 20.5856C8.32876 20.2894 7.47001 20.4619 6.87376 21.0281C5.52376 22.2806 5.70751 23.0494 5.70751 23.0494L5.85001 23.2969C6.22126 23.4431 7.81501 22.9781 8.25376 22.8469C9.09376 22.6031 9.99376 22.5131 10.8263 22.2431C10.8263 22.2431 9.34501 20.7769 9.08626 20.5856Z" fill="url(#paint3_linear_33021_223)"/>
</g>
<mask id="mask2_33021_223" style="mask-type:luminance" maskUnits="userSpaceOnUse" x="15" y="20" width="6" height="4">
<path d="M15.36 20.6382H20.16V23.5144H15.36V20.6382Z" fill="white"/>
</mask>
<g mask="url(#mask2_33021_223)">
<path d="M15.8101 22.3331C16.8826 22.4194 17.9213 22.7681 18.9226 23.1506L19.1701 23.2369L19.3726 23.1994C19.6501 22.7419 19.2076 22.2731 18.9263 21.9394C18.6638 21.6581 18.2251 21.5306 17.8613 21.4594C17.1001 21.3881 16.4626 22.0069 15.8101 22.3331Z" fill="url(#paint4_linear_33021_223)"/>
</g>
<path d="M17.3512 21.5307C17.9962 21.3357 18.7049 21.5607 19.1774 22.1007C19.1774 22.1007 19.5449 22.3294 19.6499 22.2619C19.7474 22.1982 19.6312 21.7444 19.5749 21.6394C19.2487 20.9982 18.9862 20.6044 18.3412 20.4169C18.0187 20.7844 17.7074 21.1932 17.3512 21.5307Z" fill="url(#paint5_linear_33021_223)"/>
<path d="M18.4762 20.3757C19.3762 20.6644 19.1287 20.9944 19.95 21.1932C20.0025 21.2044 20.0062 20.9644 20.0062 20.9119C20.0062 20.6532 19.3125 20.0532 18.9375 19.8019C18.7837 19.7007 18.405 20.3494 18.4762 20.3719V20.3757Z" fill="url(#paint6_linear_33021_223)"/>
<path d="M15.0225 9.8007C15.0675 10.1082 14.9738 10.9895 14.9738 10.9895C17.5088 10.3107 20.9663 6.4632 15.8513 7.20195C16.3913 6.4032 17.4938 5.9682 17.9063 5.04945L17.8838 4.93695C15.5888 5.04945 13.2938 6.2607 11.8763 8.12445L11.7638 8.4657L11.9138 8.8557C12.96 9.1857 14.0925 9.09195 15.18 9.1782C15.18 9.1782 14.9925 9.70695 15.0225 9.8007Z" fill="url(#paint7_linear_33021_223)"/>
<path d="M14.5049 13.9932C14.0587 15.5307 15.7162 15.8682 16.8487 15.3057C19.3799 13.2432 18.7012 8.43569 14.9099 11.3007C14.6962 11.6532 14.7524 12.5907 14.7412 12.6357C14.6812 12.9732 14.5274 13.9219 14.5049 13.9932Z" fill="url(#paint8_linear_33021_223)"/>
<path d="M10.2488 14.3082C10.3463 15.0244 11.6925 15.1707 12.3975 14.8557C14.04 14.2932 14.535 11.0119 13.8788 10.0369C13.8188 9.94694 13.0013 9.82694 12.6675 9.79319C11.7375 9.70319 10.6313 10.5919 10.1513 11.8482C10.0275 12.1819 10.2 12.6057 10.2338 12.9469C10.2825 13.4232 10.2038 13.9594 10.2488 14.3082Z" fill="url(#paint9_linear_33021_223)"/>
<path d="M10.215 14.6119C10.215 14.6119 12.7125 16.3894 13.9462 13.0219C14.2575 12.1632 14.1187 10.8807 14.1262 10.3069C15.2175 10.8469 14.3962 13.9182 14.3175 14.2857C14.0475 15.5832 12.8025 16.5957 11.7637 16.3144C10.1962 15.8907 10.215 14.6119 10.215 14.6119ZM14.5087 15.2194L14.7262 15.3019C15.405 15.8232 16.38 15.6394 17.0437 15.1819C18.0112 14.3794 18.0975 13.3032 18.4687 12.1932L18.5362 12.2682C18.6825 13.4157 18.4125 14.5894 18.015 15.6582C17.1375 17.4582 14.8125 17.3044 14.5087 15.2194Z" fill="white"/>
<path d="M15.0075 12.6469C14.8425 13.0482 14.7825 13.5582 14.8987 13.9819C15.18 14.6419 15.945 14.6982 16.3912 14.1769C17.6662 12.7782 16.1362 10.4157 15.0075 12.6469ZM12.7987 12.6357C13.0387 9.76319 10.1062 11.3269 10.8487 13.3969C11.4825 14.4394 12.5737 13.4982 12.7987 12.6357Z" fill="white"/>
<path d="M18.8737 20.1732C18.8999 20.3607 19.0237 20.537 19.0237 20.537L18.7537 20.3495L18.5699 20.2557L18.8062 19.8582L18.9037 19.907C18.9037 19.907 18.8512 20.0232 18.8737 20.1732Z" fill="url(#paint10_linear_33021_223)"/>
<path d="M18.3112 21.1519C18.3862 21.3319 18.6337 21.5494 18.6337 21.5494L18.0112 21.3582L17.7037 21.3244L18.24 20.7132C18.24 20.7132 18.2325 20.9607 18.3112 21.1519Z" fill="url(#paint11_linear_33021_223)"/>
<mask id="mask3_33021_223" style="mask-type:luminance" maskUnits="userSpaceOnUse" x="5" y="20" width="7" height="4">
<path d="M5.76001 20.6382H11.52V23.5144H5.76001V20.6382Z" fill="white"/>
</mask>
<g mask="url(#mask3_33021_223)">
<path d="M6.63 23.1244C6.63 23.1244 8.36625 22.5957 9.0675 21.8794C9.54375 21.3882 9.15375 20.7732 9.22875 20.8069C9.70126 21.0244 9.8475 21.3469 10.1288 21.6994C10.2563 21.8569 10.815 22.2319 10.815 22.2319C10.815 22.2319 9.88501 22.3632 9.50251 22.4869C8.81626 22.7044 6.63 23.1244 6.63 23.1244Z" fill="url(#paint12_linear_33021_223)"/>
</g>
<mask id="mask4_33021_223" style="mask-type:luminance" maskUnits="userSpaceOnUse" x="15" y="21" width="5" height="3">
<path d="M15.36 21.5982H19.2V23.5145H15.36V21.5982Z" fill="white"/>
</mask>
<g mask="url(#mask4_33021_223)">
<path d="M17.3737 21.8457C17.4487 22.2469 17.5425 22.3557 18.2775 22.7382C18.3037 22.7532 17.8462 22.5919 17.1337 22.4119C16.8937 22.3519 16.1775 22.2319 16.1775 22.2319C16.1775 22.2319 16.695 22.0219 16.83 21.9319C16.9912 21.8232 17.4187 21.6357 17.4187 21.6357C17.4187 21.6357 17.3662 21.8044 17.3737 21.8419V21.8457Z" fill="url(#paint13_linear_33021_223)"/>
</g>
<path d="M6.61868 21.0282C6.53243 21.0545 6.22493 21.0882 5.92493 21.182C5.78993 21.2232 5.57993 21.2832 5.42618 21.3282C5.35493 21.347 5.16368 21.3695 5.09993 21.317C5.08118 21.302 5.04368 21.2232 5.06618 21.2195C5.90243 21.0357 6.40868 20.8032 6.77993 20.5745C7.41743 20.1807 7.53368 19.8695 7.58618 19.6407C7.60868 19.5432 7.83743 19.7645 7.91993 19.8507L8.33993 20.297C8.33993 20.297 7.73618 20.417 7.55243 20.4695C7.13993 20.5932 6.73868 20.9907 6.61868 21.0282Z" fill="url(#paint14_linear_33021_223)"/>
<path d="M4.44379 20.0832C5.21629 19.7682 5.98504 19.4982 6.81004 18.6507C6.86629 18.5945 7.02379 18.7295 7.05004 18.7857C7.15879 19.0557 7.36129 19.352 7.23004 19.337C6.41254 19.247 5.91004 19.5957 5.54629 19.8807C5.28754 20.087 4.36879 20.1095 4.44379 20.0832Z" fill="url(#paint15_linear_33021_223)"/>
<path d="M18.9862 16.4757C19.0275 16.7194 19.0275 17.4094 19.1175 17.4582C20.67 18.3619 22.9425 18.2832 23.3662 16.2657L23.595 16.2282L23.805 15.9919C23.8725 15.6094 23.925 15.2194 23.9587 14.8294L23.835 14.2669L23.595 13.7644L22.9762 13.0444L22.29 12.6394L21.5587 12.4144L20.685 12.3319L20.0025 12.3882L19.2187 12.5832C19.095 12.6582 18.7387 12.8644 18.6375 12.9694C18.5962 13.2019 18.5062 13.6669 18.45 13.8919C18.4275 14.0494 18.4275 14.3832 18.3525 14.5482L18.3337 14.8894L18.4275 15.2944C18.6412 15.7182 18.885 15.9919 18.9862 16.4757Z" fill="url(#paint16_linear_33021_223)"/>
<path d="M19.6726 17.7619C18.6001 15.2794 19.8301 12.8269 22.5976 12.8644C21.9563 12.4369 21.4276 12.3769 20.6851 12.3357L20.3063 12.3919L20.0326 12.3694C19.5788 12.5007 18.9826 12.6357 18.6338 12.9919C18.6188 13.2094 18.5026 13.7007 18.4463 13.9144C18.3901 14.0757 18.2138 14.5482 18.2176 14.7169L18.4913 15.3694C18.6863 15.7557 18.7876 15.9057 18.8776 16.3332L19.0501 16.9932L19.1363 17.4582L19.6726 17.7619Z" fill="url(#paint17_linear_33021_223)"/>
<path d="M20.5575 14.5407C20.6138 14.4432 20.5763 14.222 20.415 14.1207C20.2313 14.0045 19.9763 14.0195 19.8675 14.2557C19.7813 14.4395 19.905 14.6232 20.0775 14.717C20.2538 14.8145 20.4638 14.717 20.5575 14.5407Z" fill="url(#paint18_linear_33021_223)"/>
<path d="M22.8113 14.4507C22.665 14.7019 22.2338 14.8894 21.705 14.7207C21.0938 14.5257 20.4375 13.9107 20.9363 13.2169C21.1575 12.9132 21.7688 12.9207 22.2038 13.1419C22.5225 13.3032 23.1563 13.8619 22.8113 14.4507Z" fill="url(#paint19_linear_33021_223)"/>
<path d="M19.1025 15.0507C19.3763 15.5607 19.5413 15.8719 20.4075 15.8719C20.6963 15.8719 20.76 16.3257 21.3263 16.8019C21.6038 17.0344 22.1475 17.0269 22.4663 16.8319C22.6575 16.7157 22.725 16.7607 22.785 16.7944C22.92 16.8732 22.9425 16.8432 23.1188 16.8319C23.1188 16.8319 23.3288 16.5357 23.2463 16.3257C22.995 16.1569 22.7775 16.0219 22.4625 16.0294L22.2788 16.2057L22.14 16.4269L21.9713 16.5357L21.7238 16.5132C21.4838 16.3032 21.2738 16.0557 21.0975 15.7857C20.7225 15.3957 20.34 15.4819 19.8638 15.5457C19.635 15.3994 19.3425 15.1744 19.1025 15.0507Z" fill="#ED8870"/>
<path d="M6.2663 18.4294C8.58005 17.7544 10.1288 15.7332 10.59 13.3594L10.5975 12.8832L10.6838 12.5269C10.6313 12.1894 10.6613 11.6832 10.635 11.3457L10.9013 11.2294L11.1338 11.1807L11.3213 11.0457C11.43 10.7532 11.4188 10.7719 11.3963 10.4607C9.54005 6.66194 3.54755 5.82944 1.2038 9.54569C-1.2337 13.0632 0.937547 19.1757 5.61755 18.6057L6.2663 18.4294Z" fill="url(#paint20_linear_33021_223)"/>
<path d="M4.37621 16.3257C4.52246 15.5494 8.45621 15.0619 8.84996 13.7494C9.02246 12.4257 9.49496 12.2794 10.6125 12.1594L10.62 11.4919L10.4437 11.3307C10.0162 11.4582 9.58121 11.5557 9.13871 11.6157C8.87621 11.6269 8.47121 11.6307 8.21621 11.6944L8.12246 12.0844C8.24996 12.3507 8.37746 13.3182 8.37746 13.3182C8.35871 13.5019 8.33246 13.6819 8.29121 13.8582C7.09496 14.8069 5.44871 14.8707 4.13246 15.6057L4.05371 15.8382L4.37621 16.3257Z" fill="#F28773"/>
<path d="M7.24133 18.0619C2.51633 18.4894 0.300077 12.2157 2.29883 8.31567C2.29883 8.31567 1.59758 8.87817 1.51133 9.00942C0.573827 10.4869 0.0675771 11.5932 0.221327 13.5957L0.483827 14.9869C0.637577 15.3207 0.933827 15.9244 0.933827 15.9244C1.68008 17.8594 3.99383 19.0932 5.97383 18.4969L6.45758 18.4032L7.24133 18.0619Z" fill="url(#paint21_linear_33021_223)"/>
<path d="M6.47624 11.9719C6.78749 12.3507 6.62249 12.8344 6.25874 13.2957C5.84999 13.8132 5.12624 13.8619 4.74749 13.4944C4.45874 13.2169 4.37624 12.6132 5.02874 12.0432C5.58374 11.5594 6.21374 11.6532 6.47624 11.9719Z" fill="url(#paint22_linear_33021_223)"/>
<path d="M5.35874 9.23066C5.75624 9.65066 5.89499 10.6369 4.90124 11.6569C4.17749 12.3994 2.77499 13.2619 1.81499 12.1782C1.11749 11.3944 1.84124 10.1682 2.53124 9.54566C3.05999 9.06566 4.55624 8.38316 5.35874 9.23066Z" fill="url(#paint23_linear_33021_223)"/>
<path d="M4.94629 15.8757L5.79379 16.5394L6.94504 16.2544L7.11004 14.7094L5.06629 15.3132L4.94629 15.8757Z" fill="#564341"/>
<path d="M5.80881 16.4457L5.59131 17.6007L6.78381 17.1319L6.96006 16.1457L5.80881 16.4457Z" fill="#7D7C7D"/>
<path d="M5.80878 16.4457L4.94628 15.8757L4.78503 16.7757L5.59128 17.6007L5.80878 16.4457Z" fill="#989697"/>
<path d="M6.3562 6.36945L6.19495 7.1682L7.8412 7.5207L8.0362 6.48945L6.3562 6.36945Z" fill="#564341"/>
<mask id="mask5_33021_223" style="mask-type:luminance" maskUnits="userSpaceOnUse" x="3" y="0" width="9" height="8">
<path d="M3.83997 0.485657H11.52V7.19816H3.83997V0.485657Z" fill="white"/>
</mask>
<g mask="url(#mask5_33021_223)">
<path d="M4.39124 6.19691L9.64873 6.49316L10.8225 6.03191L11.3325 2.39066L10.1362 1.37441L9.04123 1.24691L8.75249 1.49441L8.33623 1.61816L7.90123 1.60691L7.51124 1.61066L7.16998 1.55441L6.88498 1.49441L6.64873 1.41941L6.46124 1.29191L6.26249 1.16441L6.15748 0.961911L4.49249 0.834412L4.83373 1.93316L4.39124 6.19691Z" fill="#B6B6B6"/>
</g>
<path d="M7.72505 3.14066L6.8363 3.91316L7.6688 4.58066L7.12505 5.48816L8.7338 5.06816L8.09255 4.13066L7.9838 3.90941L8.52755 3.10316L8.23505 3.02441L7.72505 3.13691V3.14066Z" fill="#FFED7E"/>
<mask id="mask6_33021_223" style="mask-type:luminance" maskUnits="userSpaceOnUse" x="2" y="0" width="3" height="4">
<path d="M2.88 0.485657H4.8V3.35816H2.88V0.485657Z" fill="white"/>
</mask>
<g mask="url(#mask6_33021_223)">
<path d="M4.43624 0.856934L3.42374 1.47568L3.23999 2.64568L4.76624 1.88818L4.43624 0.856934Z" fill="#B6B6B6"/>
</g>
<mask id="mask7_33021_223" style="mask-type:luminance" maskUnits="userSpaceOnUse" x="2" y="0" width="8" height="7">
<path d="M2.88 0.485657H9.6V6.23816H2.88V0.485657Z" fill="white"/>
</mask>
<g mask="url(#mask7_33021_223)">
<path d="M4.86005 1.97445L4.34255 6.1857L3.38255 5.5407L2.99255 4.77195L3.2213 2.73195L4.86005 1.97445ZM6.1388 0.931953L6.4613 1.2882L7.35005 1.5732L8.2088 1.58445C8.48255 1.5057 8.73005 1.4907 8.9288 1.26945L8.9663 1.0932C8.5463 0.699453 7.8713 0.688203 7.33505 0.658203L6.4688 0.710704L6.14255 0.931953H6.1388Z" fill="#979797"/>
</g>
<mask id="mask8_33021_223" style="mask-type:luminance" maskUnits="userSpaceOnUse" x="0" y="0" width="24" height="24">
<path d="M0 0.485657H24V23.5144H0V0.485657Z" fill="white"/>
</mask>
<g mask="url(#mask8_33021_223)">
<path d="M7.66127 0.500665C8.35127 0.553165 8.94377 0.789416 9.06377 1.08566L10.1288 1.22817C10.1438 1.22817 10.155 1.23192 10.1663 1.23942C10.2825 1.28442 10.5488 1.47942 10.8863 1.74566C11.0213 1.85442 11.1525 1.96692 11.2838 2.08317C11.3363 2.13192 11.3775 2.16942 11.4038 2.19942C11.4263 2.22566 11.4413 2.25942 11.4488 2.29317C11.4788 2.31942 11.4938 2.35692 11.49 2.39817V2.40942L11.4863 2.44317L11.4713 2.57067C11.385 3.36191 11.2913 4.15317 11.1938 4.94442C11.13 5.43192 11.0738 5.80691 11.025 6.04691C11.0025 6.16691 10.8075 6.26442 10.3763 6.42942L10.35 6.44067L10.3313 6.44816C10.0238 6.56442 9.75002 6.65067 9.66002 6.65067C9.55877 6.65067 9.17252 6.62817 8.14127 6.56442L8.02127 7.39691C9.06377 7.76817 10.0088 8.39442 10.7175 9.23816L10.7138 9.23442L10.7325 9.25317C10.9538 9.47442 11.145 9.72566 11.3025 9.99566C11.5538 9.81566 11.8163 9.69191 12.0825 9.64316C13.305 9.42192 14.3325 9.85316 14.7488 10.7232C14.7825 10.5244 14.8125 10.2807 14.8388 10.0294L14.8463 9.97692V9.94691L14.8538 9.88692C14.8688 9.72192 14.8688 9.57567 14.8463 9.41067C14.8463 9.39567 14.8313 9.37317 14.805 9.34317L14.7038 9.33566H14.6963C14.655 9.33191 14.6138 9.32817 14.5388 9.32442H14.5125C13.6388 9.28691 13.1888 9.26067 12.8025 9.20817L12.7725 9.20442L12.7575 9.20067L12.7313 9.19691L12.6638 9.18941C12.0788 9.09941 11.7413 8.95317 11.6325 8.67192C11.5425 8.43566 11.6288 8.16566 11.835 7.85817C11.97 7.65942 12.1313 7.47566 12.3413 7.26191C12.6825 6.91691 13.305 6.42192 13.95 5.99817C14.7713 5.46192 15.5775 5.07566 16.2825 4.91442C17.19 4.70442 17.9363 4.66317 18.075 4.95566C18.1575 5.12442 18.0638 5.30442 17.8425 5.55942C17.6888 5.73566 17.4675 5.94942 17.1788 6.20067C16.9838 6.37691 16.7813 6.54942 16.575 6.71442L16.44 6.83067L16.4288 6.83817L16.4213 6.84566L16.4138 6.84942L16.3913 6.87191L16.275 6.96566L16.2713 6.96942L16.3013 6.96566C16.575 6.93191 16.8525 6.91317 17.13 6.91691L17.1638 6.92067C17.5425 6.93191 17.865 6.99566 18.1163 7.12691C18.4275 7.27691 18.6375 7.57691 18.675 7.92566C18.765 8.60816 17.9738 9.55316 16.8788 10.2394C17.265 10.2507 17.64 10.3557 17.9025 10.5657C18.2363 10.8319 18.4875 11.1882 18.63 11.5969C18.7425 11.9194 18.7988 12.2607 18.795 12.6057C19.9013 12.0019 21.3825 12.0244 22.5075 12.6357C23.7938 13.3294 24.3413 14.6119 23.7825 16.1044C23.7338 16.2619 23.595 16.3744 23.4375 16.3894C23.4375 16.4082 23.4413 16.4232 23.4413 16.4382C23.4413 16.5807 23.4038 16.7194 23.3325 16.8394C23.205 17.0719 23.0438 17.2857 22.86 17.4769C22.1288 18.2644 20.7825 18.4332 19.7625 17.9194L19.665 17.8707L19.6538 17.8632L19.6463 17.8594L19.635 17.8557L19.6275 17.8519L19.5263 17.8032C19.4363 17.7582 19.3575 17.7169 19.2863 17.6757C19.2938 18.2794 19.185 18.8794 18.9713 19.4419L18.9563 19.4794L18.945 19.5057L18.9225 19.5732C19.0875 19.6482 19.2488 19.7344 19.4025 19.8319C19.605 19.9744 19.785 20.1469 19.935 20.3457C20.0213 20.4657 20.0963 20.5932 20.1563 20.7282C20.2463 20.9457 20.265 21.1294 20.1525 21.2682C20.055 21.3919 19.8938 21.4144 19.6988 21.3732C19.7813 21.5269 19.8525 21.6919 19.905 21.8607C19.9763 22.1044 19.9575 22.2994 19.7925 22.4232C19.7325 22.4682 19.6463 22.4794 19.5488 22.4644C19.7175 22.8432 19.7063 23.2182 19.4325 23.3569C19.2825 23.4319 19.1063 23.4057 18.825 23.3082C18.7725 23.2894 18.6375 23.2369 18.4913 23.1769L18.4725 23.1694L18.4425 23.1582L18.3863 23.1357H18.3788L18.3638 23.1282L18.0188 22.9932C17.7263 22.8807 17.4263 22.7907 17.1188 22.7232L16.9463 22.6819L16.7438 22.6407C16.4213 22.5732 16.14 22.5319 15.8738 22.5169C15.69 22.5057 15.5213 22.5094 15.3675 22.5282C15.345 22.5282 15.3225 22.5282 15.3038 22.5207C14.6363 22.6782 13.9538 22.7419 13.2713 22.7157C12.5588 22.6894 12.1763 22.6632 11.7713 22.5844C11.6588 22.5619 11.55 22.5357 11.4375 22.5057C11.0775 22.4269 10.1325 22.5544 9.52877 22.7494C9.36752 22.8019 9.20252 22.8469 9.03752 22.8844L8.34752 23.0382L8.31002 23.0457L8.29877 23.0494L8.24627 23.0607L8.22377 23.0682L8.20127 23.0719C7.95752 23.1244 7.72877 23.1807 7.60127 23.2107C7.50002 23.2369 7.39877 23.2632 7.30127 23.2894L7.17002 23.3269L7.02752 23.3682C6.90752 23.3982 6.78752 23.4282 6.66752 23.4544C6.23252 23.5444 5.92502 23.5407 5.72627 23.3907C5.56502 23.2669 5.50877 23.0719 5.53127 22.8244C5.55002 22.6332 5.61752 22.4044 5.73002 22.1344C5.81627 21.9282 6.00377 21.6544 6.21752 21.4032L6.22502 21.3919L6.21377 21.3957C6.10877 21.4257 6.00002 21.4557 5.89502 21.4857L5.86502 21.4969L5.85002 21.5007L5.62502 21.5682H5.61752L5.60252 21.5719L5.59877 21.5757L5.58002 21.5794L5.54627 21.5869L5.52752 21.5907L5.50127 21.5982C5.31377 21.6469 5.18627 21.6582 5.06252 21.6207C4.92752 21.5757 4.82627 21.4632 4.78877 21.3244C4.75127 21.3132 4.70627 21.3019 4.66127 21.2832C4.28627 21.1557 3.94127 20.9644 3.39377 20.6157C3.24752 20.5182 2.77877 20.3794 2.59877 20.3569C2.25002 20.3119 1.62002 20.4844 1.35377 20.6719C1.27877 20.7732 1.21127 20.8819 1.15502 20.9907L1.14752 21.0057L1.12127 21.0619L1.11377 21.0769L1.10627 21.0957C1.07627 21.1632 1.04627 21.2269 1.03502 21.2419C0.990016 21.3169 0.933765 21.3619 0.855016 21.3657C0.772516 21.3694 0.712516 21.3169 0.667515 21.2419C0.637515 21.1894 0.615016 21.1219 0.592516 21.0394C0.551266 20.8482 0.528765 20.6569 0.525016 20.4657C0.506266 19.9594 0.573765 19.5057 0.735016 19.2919C0.967515 18.9882 1.32002 18.7744 1.88252 18.5382C1.99502 18.4894 2.43002 18.3207 2.52377 18.2794C2.61377 18.2419 2.68877 18.2082 2.75252 18.1782C2.01752 17.7544 1.39127 17.1169 0.922516 16.3219C-0.333734 14.1957 -0.277484 11.3532 1.21127 9.26816C2.28377 7.77191 4.00877 6.98067 5.91002 7.01067C5.98127 7.01442 6.04877 7.01442 6.11627 7.01817L6.23252 6.44442L5.11127 6.37691L5.07377 6.37317C4.76627 6.35442 4.54877 6.34317 4.38002 6.33566C4.35377 6.33191 4.33502 6.32442 4.31627 6.31317C3.90377 6.10317 3.45002 5.79566 3.30752 5.65317C3.11627 5.45817 2.88002 4.79067 2.88002 4.55067C2.88002 4.18691 2.97002 3.49692 3.11252 2.62691L3.13127 2.51817L3.13502 2.48442L3.13877 2.46942L3.14252 2.43942L3.15377 2.37566L3.16127 2.34566L3.16502 2.31192L3.16877 2.30067L3.17252 2.27817C3.22127 2.00067 3.26627 1.73817 3.29627 1.58817L3.30002 1.57692L3.32252 1.47192V1.46067C3.34877 1.37442 3.48377 1.28817 3.85127 1.06317C4.02752 0.954416 4.20752 0.849416 4.38752 0.748165L4.42127 0.729416L4.43252 0.725665C4.45502 0.710666 4.47752 0.706915 4.50377 0.710666H4.51502C4.75502 0.721915 4.99127 0.736915 5.22752 0.751915C5.49752 0.770666 5.77127 0.789416 6.04127 0.811915H6.04877C6.09002 0.751915 6.14627 0.703165 6.21002 0.673165C6.30377 0.624416 6.43127 0.583165 6.58502 0.553165C6.89252 0.489415 7.28627 0.466915 7.66127 0.500665ZM8.26127 20.6307H8.23877L8.22002 20.6344H8.21252L8.19377 20.6382L8.15252 20.6419L8.11877 20.6457C7.99127 20.6607 7.86752 20.6794 7.74377 20.7094C7.53752 20.7619 7.16252 20.9682 6.91502 21.1707C6.59252 21.4257 6.15752 21.9582 6.03002 22.2657C5.83502 22.7419 5.80502 23.0344 5.92127 23.1207C6.01877 23.1957 6.25877 23.1957 6.60377 23.1244C6.76502 23.0907 6.92627 23.0532 7.08377 23.0044L7.21502 22.9707C7.51127 22.8844 7.81127 22.8132 8.11502 22.7494L8.15252 22.7382L8.19002 22.7307L8.21252 22.7269L8.25002 22.7194L8.32877 22.7007L8.34752 22.6969C8.65127 22.6257 8.92127 22.5694 8.96252 22.5582C9.15377 22.5132 9.30752 22.4719 9.42752 22.4307C9.82502 22.3069 10.2338 22.2244 10.6463 22.1794C10.5113 22.1007 10.38 22.0107 10.2563 21.9094C10.125 21.7932 10.005 21.6657 9.90377 21.5232C9.81752 21.4032 9.72002 21.2869 9.61502 21.1782L9.60002 21.1632C9.56627 21.1332 9.53252 21.0994 9.49877 21.0694C9.27752 20.8857 9.03377 20.7319 8.77502 20.6119C8.73377 20.5969 8.50877 20.6044 8.26127 20.6307ZM17.7188 21.6244C17.5088 21.6319 17.3063 21.6919 17.1225 21.7932C17.1075 21.8007 17.0925 21.8044 17.0775 21.8082C16.9538 21.8832 16.83 21.9544 16.6988 22.0182L16.665 22.0332C16.5338 22.1007 16.3988 22.1607 16.26 22.2169C16.515 22.2507 16.7663 22.2994 17.0138 22.3557L17.085 22.3707L17.1038 22.3744L17.1863 22.3932C17.5013 22.4607 17.8013 22.5544 18.1275 22.6782C18.2513 22.7232 18.375 22.7719 18.495 22.8207L18.5475 22.8394L18.57 22.8507L18.585 22.8544C18.7388 22.9182 18.8813 22.9744 18.9338 22.9894C19.1325 23.0607 19.245 23.0757 19.2863 23.0569C19.335 23.0307 19.3538 22.8957 19.2863 22.6969C19.2113 22.4869 19.0913 22.2994 18.9338 22.1457L18.93 22.1419L18.9188 22.1344C18.87 22.0857 18.8175 22.0407 18.7613 21.9994C18.3863 21.7219 18.0413 21.6094 17.7188 21.6244ZM14.3025 15.0469C14.1 15.4482 13.845 15.7932 13.5188 16.0819L13.5038 16.0969L13.4888 16.1082C12.8888 16.6557 12.0713 16.7757 11.3288 16.4869L11.3063 16.4757C10.7588 16.2544 10.3275 15.8382 10.1138 15.3244C9.49877 16.5657 8.51252 17.6044 7.27502 18.2007L7.28252 18.3769C7.28252 18.5194 7.29752 18.6357 7.33127 18.7669C7.38002 18.9544 7.48877 19.1194 7.64252 19.2282C7.74377 19.2994 7.83752 19.3744 7.92752 19.4569L7.93502 19.4607C7.96877 19.4794 7.99502 19.5057 8.01002 19.5394C8.07752 19.6032 8.13752 19.6707 8.20127 19.7382L8.21627 19.7532L8.22002 19.7607L8.22752 19.7644L8.32127 19.8657L8.33252 19.8807C8.40377 19.9519 8.45627 20.0082 8.50877 20.0532C8.60252 20.1394 8.68127 20.1994 8.75627 20.2332C9.17627 20.4282 9.47627 20.6157 9.70877 20.8144C9.88127 20.9644 9.95627 21.0544 10.1625 21.3169C10.2488 21.4407 10.3538 21.5532 10.4663 21.6507C10.5075 21.6882 10.5488 21.7219 10.5975 21.7557C10.9575 22.0069 11.355 22.1607 11.8313 22.2544C12.2175 22.3294 12.585 22.3557 13.2825 22.3819C14.4375 22.4232 15.585 22.2019 16.5225 21.7332C17.565 21.2157 18.3038 20.4169 18.6488 19.3669V19.3632L18.6525 19.3557C19.1588 18.0469 19.035 16.5732 18.3225 15.3694C18.1913 15.6919 18.0113 15.9994 17.7938 16.2732C17.3888 16.7794 16.8938 17.0869 16.305 17.1094C15.7838 17.1282 15.0488 16.7532 14.7075 16.2319C14.4975 15.9057 14.3963 15.6132 14.3025 15.0469ZM18.4313 20.5407L18.4275 20.5482C18.2363 20.8219 18.0188 21.0694 17.775 21.2869C18.15 21.2907 18.5438 21.4257 18.9525 21.7257C19.02 21.7744 19.0838 21.8307 19.1438 21.8869C19.245 21.9769 19.3613 22.0482 19.4888 22.1007C19.5375 22.1194 19.5825 22.1344 19.6125 22.1382V22.1344C19.62 22.1082 19.62 22.0557 19.5938 21.9694L19.59 21.9544C19.5338 21.7857 19.4625 21.6207 19.3763 21.4669C19.3088 21.3282 19.2263 21.1969 19.1288 21.0807C19.0763 21.0207 19.0238 20.9644 18.9675 20.9082C18.81 20.7582 18.63 20.6307 18.4313 20.5407ZM6.21002 19.7719C6.01877 19.8582 5.84252 19.9744 5.68877 20.1207C5.67752 20.1357 5.66252 20.1469 5.65127 20.1582C5.49377 20.3119 5.36627 20.4919 5.26502 20.6907L5.25002 20.7207L5.24627 20.7244L5.23877 20.7394L5.23127 20.7507C5.14877 20.9194 5.08127 21.0882 5.08877 21.1482C5.09627 21.2532 5.12252 21.2869 5.16002 21.2982C5.20877 21.3132 5.29127 21.3057 5.42252 21.2757L5.50127 21.2532L5.53877 21.2457L5.73377 21.1857L5.74127 21.1819L5.76377 21.1782L5.79752 21.1669L5.82377 21.1594C5.93252 21.1294 6.04127 21.0957 6.15002 21.0657C6.35627 21.0132 6.52127 20.9757 6.64502 20.9644L6.71252 20.9044C6.99377 20.6794 7.41002 20.4469 7.66502 20.3832C7.83377 20.3419 8.06252 20.3119 8.27627 20.2932C8.22002 20.2369 8.16377 20.1769 8.08502 20.0944L7.99877 20.0044L7.96877 19.9744C7.93127 19.9332 7.89752 19.8957 7.87877 19.8769C7.83002 19.8282 7.78877 19.7832 7.74377 19.7419C7.35752 19.5882 6.58127 19.6032 6.21002 19.7719ZM4.14752 18.6882C4.05752 18.7519 3.96377 18.8157 3.87002 18.8757L3.85502 18.8869C3.74252 18.9582 3.63002 19.0332 3.51752 19.1082L3.49127 19.1232L3.48377 19.1269L3.48002 19.1307L3.47252 19.1344C2.83127 19.4569 2.19752 19.8544 1.78502 20.2107C2.07752 20.1244 2.39627 20.0757 2.62877 20.1057C2.84252 20.1319 3.34127 20.2819 3.52502 20.3982C4.05752 20.7432 4.38752 20.9232 4.74002 21.0469L4.77002 21.0582C4.80752 20.8557 4.94252 20.5632 5.08127 20.3457L4.98377 20.3644C4.63502 20.4357 4.37627 20.4057 4.24127 20.1957C4.08752 19.9557 4.21502 19.6594 4.50377 19.3332C4.70627 19.1119 4.98752 18.8794 5.15627 18.7894L5.23877 18.7482C4.86377 18.7707 4.50002 18.7519 4.14752 18.6882ZM18.7988 19.8844L18.795 19.8957C18.7388 20.0194 18.6788 20.1394 18.6113 20.2557C18.8138 20.3532 19.0125 20.4957 19.1888 20.6644C19.2713 20.7432 19.3388 20.8144 19.3988 20.8894L19.41 20.8969C19.4925 20.9494 19.5788 20.9907 19.6688 21.0207C19.7325 21.0394 19.7963 21.0507 19.86 21.0544C19.8788 21.0544 19.8975 21.0507 19.905 21.0469L19.9013 21.0507V21.0169C19.8975 20.9757 19.8825 20.9232 19.8563 20.8632C19.8113 20.7582 19.74 20.6382 19.6725 20.5444C19.545 20.3757 19.3913 20.2294 19.2188 20.1094C19.1288 20.0494 18.9225 19.9369 18.7988 19.8844ZM3.01127 18.3132V18.3169C3.00377 18.3244 2.99252 18.3319 2.98127 18.3394C2.86502 18.4032 2.74127 18.4632 2.61752 18.5119C2.57252 18.5344 2.44877 18.5832 2.32127 18.6319L2.30627 18.6394L2.28002 18.6469C2.15252 18.6994 2.02877 18.7482 1.97627 18.7707C1.45127 18.9882 1.12502 19.1907 0.930016 19.4494C0.813765 19.5994 0.753765 20.0082 0.772516 20.4544C0.776266 20.6569 0.802516 20.8444 0.832516 20.9757C0.840016 21.0019 0.847515 21.0244 0.851266 21.0432L0.855016 21.0507V21.0469L0.903765 20.9457L0.907515 20.9344L0.963766 20.8257C1.06877 20.6307 1.20002 20.4469 1.35002 20.2857C1.74377 19.8469 2.52752 19.3294 3.34127 18.9207L3.36377 18.9094H3.35627H3.36002L3.38627 18.8944C3.49877 18.8194 3.61127 18.7482 3.72377 18.6732L3.73877 18.6619L3.81377 18.6132C3.53627 18.5419 3.26627 18.4407 3.01127 18.3132ZM6.09377 18.7782C5.80877 18.8569 5.50127 18.9844 5.30627 19.0857C4.94627 19.2769 4.42127 19.8657 4.51502 20.0119C4.54877 20.0644 4.69502 20.0832 4.92377 20.0382C5.01377 20.0194 5.11127 19.9932 5.21252 19.9632C5.27252 19.9444 5.33252 19.9219 5.39627 19.8994L5.46377 19.8732C5.64377 19.7044 5.85002 19.5657 6.07502 19.4644C6.36377 19.3332 6.82502 19.2807 7.24502 19.3069C7.12127 19.1569 7.03877 18.9769 6.99752 18.7819C6.81002 18.6657 6.49127 18.6694 6.09377 18.7782ZM1.42877 9.42941C0.00376575 11.4244 -0.0524843 14.1432 1.14752 16.1794C1.73252 17.1657 2.56127 17.8932 3.54002 18.2419C3.73502 18.3132 3.93752 18.3694 4.14002 18.4107C4.15877 18.4107 4.17752 18.4107 4.19252 18.4182C5.07377 18.5794 6.03377 18.4482 7.03502 18.0132L7.06877 17.9982L7.14002 17.9644C9.45002 16.8582 10.8563 14.1394 10.5075 11.5219L10.3388 11.5632C9.89627 11.6682 9.45752 11.7169 8.73002 11.7507C8.71127 11.7507 8.69627 11.7507 8.67377 11.7507L8.64752 11.7544H8.62502C8.41127 11.7619 8.32127 11.7732 8.26127 11.8032C8.21627 11.8257 8.20877 11.8632 8.25377 11.9869C8.29877 12.1032 8.38127 12.4932 8.46002 12.8869L8.46751 12.9357L8.47127 12.9469L8.47877 12.9957L8.48252 13.0182L8.49377 13.0632L8.55377 13.4119C8.62127 13.8057 8.37002 14.1244 7.86377 14.3944C7.66127 14.4994 7.45502 14.5894 7.24127 14.6644V14.6907L7.23752 14.7132C7.22627 14.8332 7.21502 14.9532 7.20377 15.0732C7.17377 15.3582 7.14377 15.6432 7.11002 15.9244C7.08002 16.1644 7.05377 16.3782 7.02752 16.5582C6.97502 16.9219 6.93377 17.1244 6.88877 17.2032C6.83252 17.2857 6.59252 17.4169 6.28877 17.5407C5.95502 17.6757 5.70002 17.7507 5.57252 17.7057C5.45252 17.6682 5.25377 17.5069 5.04752 17.3007C4.83002 17.0794 4.69127 16.8994 4.68377 16.7869C4.67627 16.6969 4.71752 16.4344 4.79252 16.0144C4.82627 15.8307 4.86377 15.6432 4.90127 15.4557L4.92002 15.3619C4.56752 15.4819 4.35377 15.5869 4.22627 15.6957C4.16627 15.7482 4.15877 15.7819 4.18502 15.8419C4.22252 15.9244 4.31252 16.0294 4.48127 16.1907C4.53002 16.2432 4.53002 16.3257 4.48127 16.3782C4.43252 16.4307 4.35377 16.4344 4.29752 16.3894C4.10627 16.2057 3.99752 16.0819 3.94502 15.9582C3.86627 15.7857 3.90377 15.6207 4.05377 15.4894C4.29002 15.2794 4.71002 15.1219 5.54627 14.8857L6.18377 14.7057C6.93377 14.4957 7.38752 14.3382 7.74002 14.1507C8.15627 13.9294 8.33252 13.7044 8.29127 13.4569C8.26502 13.3107 8.23502 13.1344 8.20127 12.9582L8.19002 12.9132V12.9057L8.18627 12.8832C8.11502 12.5232 8.04377 12.1782 8.00627 12.0844C7.91627 11.8407 7.96127 11.6569 8.14127 11.5632C8.25002 11.5032 8.35502 11.4919 8.61377 11.4807H8.66627L8.71502 11.4769C9.42752 11.4432 9.85502 11.3982 10.2788 11.2969L10.4813 11.2482L10.6388 11.2107L10.6688 11.2032H10.6763L10.6913 11.1994H10.695C10.74 11.1844 10.7925 11.1732 10.8563 11.1619C10.8638 11.1619 10.8638 11.1619 10.8675 11.1619C10.965 11.1432 11.0025 11.1357 11.0288 11.1207L11.0363 11.1132C11.2913 10.9482 11.3288 10.6932 11.1788 10.3407L11.1713 10.3219C11.04 10.0257 10.7925 9.69566 10.5225 9.42566L10.5188 9.42192L10.515 9.41442C9.39752 8.09442 7.67627 7.31442 5.90627 7.28442C4.08752 7.25442 2.44502 8.01191 1.42877 9.42941ZM6.95627 18.3394L6.94127 18.3469L6.85502 18.3807C6.88877 18.3882 6.92252 18.3957 6.95627 18.4032C6.95627 18.3844 6.95627 18.3619 6.95627 18.3394ZM18.8213 12.8832L18.7913 12.8982C18.7575 13.5994 18.645 14.2932 18.4575 14.9682L18.4725 14.9869C18.9413 15.6957 19.2188 16.5207 19.275 17.3719C19.38 17.4432 19.4963 17.5069 19.635 17.5744L19.77 17.6419L19.8713 17.6944C20.8013 18.1632 22.0313 18.0057 22.68 17.3007C22.8488 17.1282 22.995 16.9332 23.115 16.7194C23.2275 16.5019 23.2238 16.3782 23.0963 16.3182C23.07 16.3032 23.04 16.2844 22.9988 16.2619L22.95 16.2282L22.9425 16.2244L22.8975 16.1944C22.7813 16.1194 22.695 16.0819 22.62 16.0782C22.5638 16.0782 22.515 16.0969 22.4663 16.1457C22.425 16.1907 22.3838 16.2394 22.35 16.2919L22.3463 16.2994L22.3238 16.3369L22.3088 16.3557L22.275 16.4119C22.2188 16.5094 22.125 16.5807 22.0163 16.6069C21.8288 16.6519 21.66 16.5994 21.5063 16.4757C21.3975 16.3857 21.3113 16.2769 21.1725 16.0782C21.1425 16.0332 21.1125 15.9919 21.0825 15.9507C20.9625 15.7782 20.8838 15.6882 20.805 15.6544C20.5163 15.5269 20.385 15.5157 20.1938 15.5607L20.175 15.5644L20.16 15.5682L20.1263 15.5757C19.8488 15.6357 19.6088 15.5269 19.0875 15.0657C19.0388 15.0169 19.035 14.9419 19.0763 14.8894C19.1213 14.8369 19.1963 14.8332 19.2488 14.8744C19.5113 15.1069 19.695 15.2419 19.83 15.3019C19.905 15.3394 19.995 15.3507 20.0775 15.3282C20.0925 15.3244 20.1075 15.3244 20.1225 15.3207L20.1375 15.3169C20.3813 15.2569 20.565 15.2719 20.9025 15.4219C21.0338 15.4819 21.1388 15.5944 21.285 15.8007L21.33 15.8682L21.3713 15.9244V15.9319H21.375C21.6225 16.2919 21.7613 16.4082 21.9563 16.3594C22.0088 16.3482 22.0313 16.3294 22.0725 16.2694C22.0763 16.2619 22.1325 16.1719 22.1513 16.1419C22.1963 16.0782 22.2375 16.0219 22.2938 15.9694C22.38 15.8719 22.5038 15.8232 22.6313 15.8269C22.7588 15.8307 22.875 15.8832 23.0288 15.9807L23.13 16.0482C23.1638 16.0707 23.2013 16.0932 23.2425 16.1119C23.3925 16.1719 23.505 16.1457 23.5538 16.0182C23.8163 15.3057 23.8163 14.6569 23.58 14.0982C23.3625 13.5844 22.9463 13.1569 22.395 12.8569C21.3038 12.2682 19.86 12.2644 18.8213 12.8832ZM6.98627 14.7507H6.97877C6.76877 14.8219 6.53252 14.8932 6.25877 14.9682L6.13127 15.0019C6.13877 15.0207 6.13877 15.0394 6.13502 15.0544L5.78627 17.4469L5.83127 17.4357C6.07877 17.3607 6.31502 17.2632 6.54377 17.1469C6.59252 17.1207 6.63752 17.0907 6.68252 17.0607C6.69002 17.0419 6.70502 16.9857 6.72002 16.9144V16.9032C6.73877 16.8057 6.76127 16.6782 6.78377 16.5207C6.81002 16.3444 6.83627 16.1344 6.86627 15.8944C6.91127 15.5119 6.94877 15.1332 6.98627 14.7507ZM5.88377 15.0732L5.61377 15.1482C5.47127 15.1894 5.32877 15.2307 5.18252 15.2757C5.18252 15.2869 5.18252 15.2944 5.18252 15.3057L5.17877 15.3207C5.13002 15.5644 5.08127 15.8157 5.03627 16.0632C4.99127 16.2919 4.95377 16.5244 4.92752 16.7607V16.7644L4.93877 16.7832L4.94252 16.7869C4.95377 16.8094 4.97627 16.8394 5.00252 16.8769C5.05877 16.9482 5.13377 17.0344 5.22002 17.1207C5.33627 17.2369 5.45627 17.3419 5.54252 17.4057L5.88377 15.0732ZM18.4688 12.5119V12.5194C18.42 12.9582 18.315 13.4194 18.1463 13.9032C17.9363 14.4994 17.415 15.2082 16.7813 15.5307C16.4663 15.6732 16.125 15.7557 15.7763 15.7744C15.36 15.7894 14.9963 15.6957 14.7225 15.4669C14.775 15.6732 14.865 15.8682 14.9813 16.0444C15.255 16.4682 15.885 16.7907 16.2938 16.7757C16.7738 16.7569 17.19 16.5019 17.5425 16.0632C17.7863 15.7519 17.9738 15.3994 18.1013 15.0207C18.3338 14.2932 18.4875 13.2357 18.4688 12.5532V12.5119ZM14.2613 10.5657L14.265 10.5844C14.4 11.4019 14.3475 12.3244 13.98 13.3669C13.7663 13.9632 13.245 14.6719 12.615 14.9944C12.375 15.1182 11.88 15.2419 11.4525 15.2457C10.9875 15.2494 10.5975 15.1257 10.3313 14.8444L10.32 14.8707C10.425 15.4444 10.8488 15.9319 11.4263 16.1644C12.0713 16.4269 12.7725 16.3219 13.2863 15.8457L13.29 15.8419C13.7963 15.3919 14.13 14.7919 14.3325 14.0119C14.49 13.4044 14.5575 12.8007 14.6175 11.7694C14.6475 11.2857 14.5125 10.8732 14.2613 10.5657ZM16.0763 10.7194C16.05 10.7307 16.0238 10.7419 15.9975 10.7532L15.96 10.7682C15.4688 10.9894 15.0338 11.2594 14.955 11.4469V11.4507L14.9438 11.4732C14.9513 11.5744 14.9513 11.6794 14.9438 11.7882C14.9363 11.9794 14.925 12.1519 14.91 12.3169C15.2288 11.7094 15.7388 11.4019 16.2675 11.5369C16.9163 11.7094 17.205 12.5007 17.0025 13.3594L16.995 13.3857C16.7775 14.2707 16.1325 14.8257 15.5213 14.7057C15.1275 14.6269 14.8275 14.3269 14.6963 13.9069C14.6588 14.0682 14.6138 14.2294 14.565 14.3869C14.5538 14.4807 14.58 14.6082 14.6288 14.7469C14.6588 14.8294 14.6963 14.9119 14.7413 14.9907C14.9513 15.3207 15.3038 15.4594 15.765 15.4369C16.0913 15.4257 16.455 15.3207 16.635 15.2307C17.1825 14.9532 17.655 14.3082 17.8388 13.7869C18.1613 12.8682 18.2288 12.0394 18.1275 11.3007C18.0113 11.1207 17.8688 10.9594 17.7 10.8282C17.325 10.5282 16.5863 10.5019 16.0763 10.7194ZM12.1388 9.97317C11.8875 10.0294 11.6513 10.1382 11.4488 10.2994C11.5388 10.5357 11.5575 10.7569 11.4975 10.9444C11.7188 10.8319 11.9625 10.7982 12.2063 10.8619C12.855 11.0344 13.14 11.8257 12.9375 12.6844L12.9338 12.7107C12.7163 13.5957 12.0675 14.1507 11.4563 14.0307C11.1413 13.9669 10.8825 13.7607 10.7288 13.4607C10.665 13.8094 10.5788 14.1507 10.4625 14.4844C10.6613 14.7844 11.0025 14.9157 11.4488 14.9119C11.8275 14.9082 12.2738 14.7957 12.4688 14.6944C13.0163 14.4169 13.485 13.7757 13.6725 13.2544C14.0288 12.2382 14.07 11.3532 13.9313 10.5694C13.9163 10.5019 13.905 10.4382 13.89 10.3744L13.8863 10.3632L13.86 10.2507C13.86 10.2394 13.8563 10.2282 13.8563 10.2169C13.4175 9.94691 12.8175 9.84942 12.1388 9.97317ZM15.0075 12.9919C14.82 13.7232 15.1163 14.2819 15.5813 14.3757C16.005 14.4619 16.5113 14.0232 16.6838 13.2807C16.8488 12.5794 16.6313 11.9794 16.185 11.8632C15.7088 11.7394 15.2175 12.1632 15.0075 12.9919ZM10.9425 12.3169C10.7588 13.0482 11.055 13.6069 11.52 13.7007C11.9438 13.7869 12.45 13.3482 12.6225 12.6057C12.7875 11.9044 12.57 11.3044 12.1238 11.1882C11.6475 11.0644 11.1525 11.4882 10.9425 12.3169ZM10.9838 11.4169C10.9613 11.4207 10.9388 11.4244 10.9125 11.4282L10.9013 11.4319C10.845 11.4394 10.8038 11.4507 10.7738 11.4582L10.77 11.4619L10.7775 11.5407C10.7888 11.6044 10.7963 11.6719 10.8 11.7394C10.8525 11.6269 10.9125 11.5182 10.9838 11.4169ZM17.3513 5.08691C17.0138 5.10942 16.68 5.16191 16.3538 5.24067C15.6938 5.39067 14.9175 5.76567 14.1263 6.27942C13.4963 6.69192 12.8963 7.17192 12.5738 7.49817C12.1238 7.95566 11.8575 8.34566 11.9363 8.55192C11.985 8.67192 12.24 8.78442 12.7125 8.85566C13.1175 8.91941 13.56 8.94942 14.5238 8.98691C15.0713 9.00942 15.3413 9.02067 15.5813 9.03566L15.6188 9.03942H15.6638L15.6863 9.04317H15.7463L15.885 9.05441C15.915 9.05441 15.9338 9.05817 15.9525 9.06192C15.9675 9.06942 15.9825 9.07316 15.9975 9.08442C16.0425 9.11442 16.0763 9.15942 16.0763 9.22692C16.0763 9.29067 16.0463 9.33191 16.0088 9.36191C15.9938 9.37317 15.9825 9.38067 15.9713 9.38441C15.93 9.39942 15.8925 9.40692 15.8513 9.41067L15.7013 9.42941L15.6938 9.43317H15.6825L15.645 9.43692L15.5063 9.45942C15.405 9.47441 15.3075 9.49317 15.21 9.51566C15.1838 9.93566 15.1313 10.4232 15.0713 10.7794V10.7869H15.075C15.1575 10.7532 15.2625 10.7044 15.3825 10.6519L15.405 10.6407C15.525 10.5844 15.645 10.5244 15.765 10.4644L15.795 10.4494C15.9975 10.3482 16.1963 10.2469 16.3425 10.1682C17.52 9.53442 18.4238 8.54067 18.3525 7.96691C18.2888 7.49442 17.8725 7.27692 17.1525 7.25442C16.8938 7.24692 16.62 7.26566 16.2975 7.30316L16.14 7.32191L16.1288 7.32566H16.1063C16.0163 7.34067 15.9263 7.34817 15.8325 7.35566C15.81 7.35566 15.7875 7.35566 15.765 7.34817C15.69 7.33317 15.6338 7.26566 15.63 7.18691C15.63 7.13816 15.645 7.10442 15.6675 7.07067L15.7013 7.02942L15.7763 6.95442C15.8288 6.90942 15.8963 6.84942 15.9975 6.76691L16.0238 6.74442L16.1888 6.60942L16.2075 6.59442L16.2188 6.58317L16.3688 6.45566C16.5713 6.29067 16.77 6.11817 16.965 5.94942C17.1863 5.75817 17.4 5.55192 17.595 5.33442C17.6588 5.26692 17.715 5.19192 17.76 5.11317L17.7638 5.10942H17.7563L17.7188 5.09817H17.7075C17.5913 5.08317 17.4713 5.07942 17.3513 5.08691ZM6.48377 6.45942L6.36752 7.03691C6.84752 7.07817 7.32377 7.17192 7.78502 7.31817L7.89377 6.54942L6.89627 6.48566H6.89252L6.48377 6.46317V6.45942ZM4.98752 2.07566V2.07942C4.95377 2.30442 4.92377 2.52566 4.89002 2.75067C4.82252 3.25317 4.75502 3.74442 4.69502 4.19442C4.63502 4.65942 4.57877 5.12442 4.53002 5.58942C4.51127 5.75442 4.50002 5.91942 4.49252 6.08067V6.08817H4.50377C4.89752 6.11067 5.52002 6.14817 6.86252 6.23067L6.90752 6.23442H6.91127C8.86877 6.35817 9.53252 6.39942 9.66002 6.39942C9.68252 6.39942 9.76877 6.37691 9.88127 6.33942C10.1513 6.25317 10.4138 6.14816 10.6725 6.03191C10.7213 6.00566 10.7625 5.98692 10.785 5.96817L10.7888 5.96442H10.7925C10.8038 5.89691 10.815 5.83317 10.8263 5.76566L10.83 5.74691C10.8638 5.53316 10.9013 5.25942 10.9463 4.93317V4.91067C11.0513 4.08942 11.1488 3.26817 11.235 2.44317C10.6613 2.40191 10.1213 2.36817 9.58877 2.33442L9.49502 2.32692C8.88752 2.28942 8.28377 2.25566 7.68002 2.22192L6.56252 2.16192L6.53252 2.15817H6.48752L6.45752 2.15442H6.42377L6.37502 2.15067H6.34127L6.27002 2.14692L6.14252 2.13942L6.11252 2.13566H6.07127L6.04502 2.13192L4.98752 2.07566ZM4.74002 2.04942L3.34127 2.76191C3.20627 3.57566 3.12752 4.22067 3.12752 4.55067C3.12752 4.72691 3.33752 5.33067 3.48377 5.47317C3.58127 5.57817 3.91127 5.80692 4.24877 5.99442C4.26002 5.85192 4.27127 5.70941 4.28627 5.56691C4.33502 5.09817 4.39127 4.62942 4.45127 4.16442C4.54502 3.45942 4.63877 2.75442 4.74377 2.04942H4.74002ZM8.55377 2.86691C8.57627 2.86691 8.59502 2.87442 8.61752 2.88192C8.65877 2.90442 8.68877 2.94566 8.69627 2.99442C8.70752 3.11817 8.64002 3.23817 8.42252 3.55317L8.41127 3.57191C8.31752 3.70691 8.27627 3.76691 8.24627 3.81942L8.23877 3.82692L8.22002 3.85691C8.20127 3.88691 8.18627 3.92067 8.17502 3.95442H8.17127V3.95817L8.17877 3.96566L8.18252 3.97317C8.22002 4.05191 8.29502 4.15317 8.47877 4.38942L8.50877 4.42691C8.76752 4.75691 8.86502 4.91442 8.85752 5.07566C8.85377 5.13942 8.82752 5.16566 8.77877 5.19566C8.75627 5.20691 8.73377 5.21817 8.71127 5.22942C8.66627 5.24817 8.60252 5.27442 8.52002 5.30067C8.14502 5.42442 7.76252 5.52942 7.38002 5.61566C7.29377 5.63067 7.22627 5.64566 7.17377 5.64942C7.14377 5.65317 7.11752 5.65317 7.09877 5.65317C7.04252 5.64942 7.00127 5.63442 6.97127 5.57442C6.94127 5.51442 6.95252 5.46566 6.98627 5.40191C7.00502 5.37191 7.02752 5.33442 7.06127 5.28942C7.08752 5.25191 7.11752 5.21442 7.16252 5.15816L7.17002 5.15067L7.17377 5.14317L7.21502 5.09067L7.22252 5.07942L7.27502 5.01566L7.30877 4.97067C7.37252 4.89191 7.43252 4.80942 7.48877 4.72691C7.50377 4.70067 7.51502 4.67817 7.52627 4.65942V4.65191C7.50752 4.63691 7.48502 4.62566 7.46627 4.61067L7.43627 4.59566L7.43252 4.59191L7.32377 4.52442L7.31627 4.52067L7.30502 4.51316L7.29002 4.50566L7.17002 4.43442C7.06877 4.37067 6.97127 4.30317 6.87752 4.22442C6.79877 4.16442 6.73877 4.08191 6.70127 3.98817C6.67877 3.92067 6.70127 3.87942 6.74627 3.81942C6.76877 3.78942 6.79877 3.75566 6.84002 3.71442C6.96002 3.59817 7.08377 3.48942 7.21502 3.38817L7.23752 3.36942L7.27127 3.34317L7.28252 3.33191L7.30127 3.31692L7.30877 3.30942L7.32752 3.29817C7.43252 3.21192 7.54127 3.12566 7.65377 3.04692C7.71377 3.00191 7.92377 2.94942 8.15627 2.90442C8.25002 2.88566 8.34377 2.87442 8.44127 2.86691C8.48627 2.86317 8.52377 2.86317 8.55377 2.86691ZM8.40752 3.12192H8.40002C8.30252 3.13317 8.20877 3.14817 8.11502 3.17067L8.09627 3.17442C7.99127 3.19317 7.89377 3.21942 7.79252 3.25317C7.72502 3.30191 7.58252 3.41067 7.44002 3.52317L7.42502 3.53817L7.41752 3.54191L7.40627 3.55317L7.39502 3.56067L7.38377 3.57191L7.27502 3.66192C7.16627 3.75191 7.06127 3.84942 6.96002 3.94691L6.95627 3.95067L6.96002 3.95442C6.98252 3.98067 7.00502 4.00317 7.03127 4.02566L7.03877 4.03317C7.12127 4.10067 7.20752 4.16067 7.30127 4.21691L7.42877 4.29566L7.45502 4.31067L7.56377 4.37817L7.58627 4.39317C7.72127 4.47566 7.76627 4.51316 7.78127 4.58817C7.80377 4.71566 7.72502 4.84691 7.50377 5.12817L7.46627 5.17317L7.41377 5.24067L7.40252 5.25566C7.37252 5.29317 7.34252 5.33067 7.30877 5.37191H7.32002L7.33127 5.36817C7.70627 5.28566 8.07752 5.18067 8.44127 5.06067C8.50502 5.03817 8.55752 5.02317 8.59502 5.00442H8.59877V5.00067C8.56502 4.92192 8.47877 4.79067 8.32502 4.59566L8.31377 4.58442L8.28752 4.54691C8.04751 4.24317 7.98377 4.14942 7.93502 4.02942C7.90127 3.94317 7.93127 3.86067 8.01002 3.72942L8.02877 3.69566L8.03627 3.68442V3.68067L8.04377 3.67317C8.07752 3.62067 8.11877 3.55692 8.20877 3.42566L8.22002 3.41067C8.28752 3.31692 8.34752 3.22317 8.40377 3.12566L8.40752 3.12192ZM4.39502 1.03317L4.38752 1.03692C4.25252 1.11942 4.11377 1.19817 3.97877 1.28067C3.84752 1.35942 3.73877 1.42692 3.66002 1.47942C3.62627 1.50566 3.58877 1.52817 3.55502 1.55442V1.56192L3.54377 1.61817L3.54002 1.62942L3.49502 1.87692C3.46127 2.05692 3.42752 2.25191 3.39002 2.45442L4.66502 1.80566C4.56002 1.55817 4.47002 1.29942 4.39502 1.03692V1.03317ZM4.63502 0.969416V0.973165C4.71752 1.26192 4.81877 1.53942 4.93877 1.80942L4.94252 1.81317L4.94627 1.82067C5.14877 1.83192 5.65127 1.86192 6.18002 1.88817L6.21377 1.89192L6.28127 1.89566L6.39002 1.89942C7.07627 1.93692 7.76252 1.97442 8.44502 2.01192L9.54751 2.07942L9.66377 2.08692C10.1025 2.11317 10.545 2.14317 11.01 2.17317C10.7813 1.97817 10.545 1.79067 10.3013 1.61442C10.2338 1.56942 10.1663 1.52067 10.095 1.47942L10.0875 1.47566L9.05627 1.34067C8.90252 1.64442 8.24252 1.77942 7.53377 1.70442C7.19627 1.67067 6.87002 1.59192 6.55502 1.46442C6.29627 1.35566 6.11627 1.22067 6.04877 1.06317C5.97377 1.05942 5.90252 1.05192 5.82752 1.04817C5.43002 1.01817 5.03252 0.991915 4.63502 0.969416ZM6.63377 0.800666C6.49877 0.826915 6.39002 0.860666 6.32252 0.898165C6.30377 0.909416 6.28502 0.920666 6.26627 0.935665V0.943165C6.31127 1.13817 6.88877 1.37817 7.53752 1.44942L7.55627 1.45317C7.87127 1.49067 8.19002 1.47192 8.49752 1.40442C8.68877 1.35566 8.79752 1.29192 8.83127 1.23566C8.82377 1.21317 8.82377 1.19067 8.83127 1.16817C8.79752 1.10817 8.68877 1.02566 8.52002 0.954416C8.23877 0.838165 7.94252 0.770666 7.64252 0.751915C7.30502 0.721915 6.96752 0.740666 6.63377 0.800666Z" fill="#564341"/>
</g>
</g>
<defs>
<linearGradient id="paint0_linear_33021_223" x1="8.51904" y1="15.3672" x2="13.863" y2="23.5028" gradientUnits="userSpaceOnUse">
<stop stop-color="#FFBC9C"/>
<stop offset="0.7" stop-color="#FFBC9C"/>
<stop offset="1" stop-color="#FFA67A"/>
</linearGradient>
<linearGradient id="paint1_linear_33021_223" x1="5.94915" y1="18.5849" x2="5.45979" y2="20.5092" gradientUnits="userSpaceOnUse">
<stop stop-color="#F28773"/>
<stop offset="0.3" stop-color="#F28773"/>
<stop offset="1" stop-color="#F6A66A"/>
</linearGradient>
<linearGradient id="paint2_linear_33021_223" x1="6.69589" y1="19.5114" x2="6.09733" y2="21.795" gradientUnits="userSpaceOnUse">
<stop stop-color="#F28773"/>
<stop offset="0.3" stop-color="#F28773"/>
<stop offset="1" stop-color="#F6A66A"/>
</linearGradient>
<linearGradient id="paint3_linear_33021_223" x1="8.26369" y1="20.4428" x2="7.32951" y2="23.8353" gradientUnits="userSpaceOnUse">
<stop stop-color="#F28773"/>
<stop offset="0.3" stop-color="#F28773"/>
<stop offset="1" stop-color="#F6A66A"/>
</linearGradient>
<linearGradient id="paint4_linear_33021_223" x1="17.6353" y1="21.7869" x2="18.1852" y2="23.6183" gradientUnits="userSpaceOnUse">
<stop stop-color="#F57A55"/>
<stop offset="0.4" stop-color="#F28773"/>
<stop offset="1" stop-color="#FA9F6E"/>
</linearGradient>
<linearGradient id="paint5_linear_33021_223" x1="18.5193" y1="20.7641" x2="19.3426" y2="22.4441" gradientUnits="userSpaceOnUse">
<stop stop-color="#F57A55"/>
<stop offset="0.4" stop-color="#F28773"/>
<stop offset="1" stop-color="#FA9F6E"/>
</linearGradient>
<linearGradient id="paint6_linear_33021_223" x1="19.2374" y1="20.0537" x2="19.9059" y2="21.2482" gradientUnits="userSpaceOnUse">
<stop stop-color="#F57A55"/>
<stop offset="0.4" stop-color="#F28773"/>
<stop offset="1" stop-color="#FA9F6E"/>
</linearGradient>
<linearGradient id="paint7_linear_33021_223" x1="15.1268" y1="4.93586" x2="15.1268" y2="10.9911" gradientUnits="userSpaceOnUse">
<stop stop-color="#FFE768"/>
<stop offset="0.4" stop-color="#FFE768"/>
<stop offset="0.7" stop-color="#FFBD4A"/>
<stop offset="1" stop-color="#FFBD4A"/>
</linearGradient>
<linearGradient id="paint8_linear_33021_223" x1="16.3919" y1="10.4133" x2="19.2195" y2="14.9582" gradientUnits="userSpaceOnUse">
<stop stop-color="#564341"/>
<stop offset="0.5" stop-color="#564341"/>
<stop offset="1" stop-color="#845750"/>
</linearGradient>
<linearGradient id="paint9_linear_33021_223" x1="12.1344" y1="9.7875" x2="14.9809" y2="14.4474" gradientUnits="userSpaceOnUse">
<stop stop-color="#564341"/>
<stop offset="0.5" stop-color="#564341"/>
<stop offset="1" stop-color="#845750"/>
</linearGradient>
<linearGradient id="paint10_linear_33021_223" x1="18.6787" y1="19.9988" x2="18.9912" y2="20.2354" gradientUnits="userSpaceOnUse">
<stop stop-color="#C35C45"/>
<stop offset="1" stop-color="#B76455"/>
</linearGradient>
<linearGradient id="paint11_linear_33021_223" x1="17.9241" y1="20.8869" x2="18.3105" y2="21.3794" gradientUnits="userSpaceOnUse">
<stop stop-color="#C35C45"/>
<stop offset="1" stop-color="#B76455"/>
</linearGradient>
<linearGradient id="paint12_linear_33021_223" x1="10.8144" y1="21.5364" x2="9.26879" y2="24.088" gradientUnits="userSpaceOnUse">
<stop stop-color="#AA6160"/>
<stop offset="1" stop-color="#B36F5F"/>
</linearGradient>
<linearGradient id="paint13_linear_33021_223" x1="16.6781" y1="21.8675" x2="17.0761" y2="22.734" gradientUnits="userSpaceOnUse">
<stop stop-color="#C35C45"/>
<stop offset="1" stop-color="#B76455"/>
</linearGradient>
<linearGradient id="paint14_linear_33021_223" x1="8.33945" y1="20.1619" x2="7.21107" y2="22.1163" gradientUnits="userSpaceOnUse">
<stop stop-color="#AA6160"/>
<stop offset="1" stop-color="#B36F5F"/>
</linearGradient>
<linearGradient id="paint15_linear_33021_223" x1="7.273" y1="19.0948" x2="6.34099" y2="20.7587" gradientUnits="userSpaceOnUse">
<stop stop-color="#AA6160"/>
<stop offset="1" stop-color="#B36F5F"/>
</linearGradient>
<linearGradient id="paint16_linear_33021_223" x1="22.9853" y1="13.35" x2="19.1592" y2="17.1393" gradientUnits="userSpaceOnUse">
<stop stop-color="#FFCB87"/>
<stop offset="0.1" stop-color="#FFCB87"/>
<stop offset="0.4" stop-color="#FFBC9C"/>
<stop offset="1" stop-color="#FFBC9C"/>
</linearGradient>
<linearGradient id="paint17_linear_33021_223" x1="22.5985" y1="12.3351" x2="17.8136" y2="17.3719" gradientUnits="userSpaceOnUse">
<stop stop-color="#FBC38C"/>
<stop offset="0.3" stop-color="#F19675"/>
<stop offset="0.7" stop-color="#F0876A"/>
<stop offset="1" stop-color="#ED8870"/>
</linearGradient>
<linearGradient id="paint18_linear_33021_223" x1="20.2109" y1="14.0496" x2="20.2109" y2="14.7551" gradientUnits="userSpaceOnUse">
<stop stop-color="#FFFFFE"/>
<stop offset="1" stop-color="white"/>
</linearGradient>
<linearGradient id="paint19_linear_33021_223" x1="21.8352" y1="12.9816" x2="21.8352" y2="14.7865" gradientUnits="userSpaceOnUse">
<stop stop-color="#FFFFFE"/>
<stop offset="1" stop-color="white"/>
</linearGradient>
<linearGradient id="paint20_linear_33021_223" x1="2.76869" y1="7.25065" x2="6.13393" y2="18.5805" gradientUnits="userSpaceOnUse">
<stop stop-color="#FFCB87"/>
<stop offset="0.2" stop-color="#FFCB87"/>
<stop offset="0.7" stop-color="#FFBC9C"/>
<stop offset="1" stop-color="#FFBC9C"/>
</linearGradient>
<linearGradient id="paint21_linear_33021_223" x1="0.112397" y1="10.655" x2="6.05298" y2="16.3751" gradientUnits="userSpaceOnUse">
<stop stop-color="#FFCB87"/>
<stop offset="0.3" stop-color="#F79E75"/>
<stop offset="0.5" stop-color="#EF876D"/>
<stop offset="1" stop-color="#ED8870"/>
</linearGradient>
<linearGradient id="paint22_linear_33021_223" x1="5.55167" y1="11.7161" x2="5.62306" y2="13.7243" gradientUnits="userSpaceOnUse">
<stop stop-color="#FFFFFE"/>
<stop offset="1" stop-color="white"/>
</linearGradient>
<linearGradient id="paint23_linear_33021_223" x1="3.53087" y1="8.85702" x2="3.66662" y2="12.6631" gradientUnits="userSpaceOnUse">
<stop stop-color="#FFF9CE"/>
<stop offset="1" stop-color="white"/>
</linearGradient>
<clipPath id="clip0_33021_223">
<rect width="24" height="24" fill="white"/>
</clipPath>
</defs>
</svg>
