<svg width="24" height="24" viewBox="0 0 24 24" fill="none" xmlns="http://www.w3.org/2000/svg">
<g clip-path="url(#clip0_33021_366)">
<path d="M14.3242 5.76562C14.1172 5.96484 13.9531 6.16797 13.8672 6.40625C13.8281 6.52734 13.7852 6.60938 13.8281 6.64844C13.8672 6.84766 14.4492 6.92969 14.6563 6.92969L16.4414 7.00781L17.8125 7.16797L17.8945 7.25C17.8945 7.37109 17.7735 7.41016 17.6875 7.41016H17.3164C17.2305 7.41016 17.1055 7.48828 17.1055 7.60938L16.9844 8.85156H17.0664L17.5625 8.57422L18.0195 8.33203C18.5625 8.08984 19.0586 7.69141 19.5156 7.28906C19.8477 7.00781 20.1367 6.72656 20.2617 6.32813C20.3867 5.92578 20.0977 5.60547 19.6836 5.52734" stroke="#AB7F45" stroke-width="0.0407995"/>
<path d="M19.6836 5.52737L19.1016 5.44534L17.6875 5.4844C17.5625 5.4844 17.5234 5.44534 17.5625 5.32425L17.6875 5.12503L18.4375 4.52347L19.1836 3.88284L19.6406 3.40237V3.3594C18.8672 3.33597 18.1016 3.48831 17.3984 3.80081C16.4414 4.20315 15.5312 4.72269 14.7422 5.40628L14.3242 5.76565" stroke="#AB9655" stroke-width="0.0407995"/>
<path d="M19.7227 5.52734L19.6836 5.56641V5.60547L19.4727 6.08594L19.2266 6.28906L18.6836 6.52734L17.6484 6.72656H16.9414L16.3164 6.64844L15.2813 6.40625L14.9883 6.28906L14.7422 6.16797L14.5313 5.96484L14.4922 5.92578L14.4492 5.88672L14.4102 5.84766L14.3672 5.76562" stroke="#FFD259" stroke-width="0.0407995"/>
<path d="M1.28906 11.7383L1.86719 11.5781" stroke="#AB836A" stroke-width="0.0407995"/>
<path d="M1.82812 11.5781L3.44531 10.8984L3.69531 10.8594C4.07031 10.8164 4.07031 11.3398 4.10938 11.5781C4.10938 11.9414 4.19531 12.3008 4.35938 12.582C4.52734 12.8633 4.85938 12.9414 5.19141 12.9414C5.64844 12.9023 6.10547 12.8633 6.5625 12.7422L8.05469 12.4609L8.55469 12.3398L8.80469 12.3008C9.05078 12.3398 9.13672 12.582 9.17578 12.7812L9.21875 13.3047C9.21875 13.4219 9.17578 13.4648 9.05078 13.5039C8.96875 13.5039 8.84375 13.4219 8.84375 13.3437V13.1406" stroke="#AB806F" stroke-width="0.0407995"/>
<path d="M8.88672 13.1406L8.84375 12.9414" stroke="#A4655A" stroke-width="0.0407995"/>
<path d="M8.84375 12.9414L8.80469 12.7031L8.76172 12.6602L8.63672 12.7031" stroke="#825451" stroke-width="0.0407995"/>
<path d="M8.59375 12.7031L6.4375 13.1406L5.39844 13.2617C4.85938 13.3047 4.35938 13.2617 4.07031 12.7813C3.94531 12.582 3.82031 12.3789 3.77734 12.1406L3.69531 11.7812" stroke="#A4655A" stroke-width="0.0407995"/>
<path d="M3.73828 11.7813V11.2188H3.69531L2.57422 11.6602" stroke="#825451" stroke-width="0.0407995"/>
<path d="M2.57422 11.6602L1.82812 11.9805V12.2617" stroke="#A4655A" stroke-width="0.0407995"/>
<path d="M1.78516 12.2617L2.03516 13.0625C2.49219 13.9844 3.19531 14.707 4.10938 15.1875L4.31641 15.3086" stroke="#AB806F" stroke-width="0.0407995"/>
<path d="M4.31641 15.3086C5.34375 15.7734 6.46484 16.0195 7.59766 16.0273C8.13672 15.9883 8.63672 15.8672 9.13672 15.668" stroke="#A65E4B" stroke-width="0.0407995"/>
<path d="M9.13672 15.668C9.58984 15.4688 10.0469 15.2266 10.4219 14.9063L10.5898 14.7852C10.8789 14.5039 11.168 14.1445 11.3789 13.7422L11.543 13.3438C11.75 12.7422 11.918 12.1406 11.957 11.5L11.918 10.5781" stroke="#825451" stroke-width="0.0407995"/>
<path d="M11.918 10.5781C11.875 10.0547 11.793 9.57422 11.5859 9.13281L10.9609 8.13281" stroke="#A4655A" stroke-width="0.0407995"/>
<path d="M10.9609 8.13281C10.5898 7.60938 10.1719 7.16797 9.63281 6.76953" stroke="#AB806F" stroke-width="0.0407995"/>
<path d="M9.67578 6.76953L9.42578 6.56641" stroke="#AB836A" stroke-width="0.0407995"/>
<path d="M9.38281 6.56641C8.63672 6.08594 7.80469 5.84766 6.9336 5.76562L6.10547 5.72656C4.31641 5.72656 2.78125 6.72656 1.66016 8.05078C1.12109 8.73438 0.746094 9.57422 0.457031 10.418C0.332031 10.8164 0.289063 11.2188 0.5 11.5781C0.582031 11.6992 0.707031 11.7813 0.832031 11.7813L1.24609 11.7383" stroke="#AB8666" stroke-width="0.0407995"/>
<path d="M9.38281 6.56641L9.05078 6.64844H9.01172L8.92578 6.6875L8.88672 6.72656H8.80469L8.76172 6.76953L8.67969 6.80859H8.63672L8.59375 6.84766H8.55469L8.51172 6.88672H8.46875L8.34766 6.96875H8.22266C8.22266 6.99219 8.20313 7.00781 8.17969 7.00781L8.09766 7.05078H7.76563L7.72266 7.08984H7.01563L6.97656 7.12891H6.64453L6.60156 7.16797H6.39453L6.35156 7.21094" stroke="#FFC68F" stroke-width="0.0407995"/>
<path d="M6.35158 7.21091C5.98049 6.68747 5.35549 6.56638 4.73439 6.64841C4.02736 6.7695 3.2383 7.08982 2.78127 7.60935C2.32424 8.13279 2.2422 8.77341 2.6172 9.33591" stroke="#FFE2B1" stroke-width="0.0407995"/>
<path d="M2.61719 9.33594C2.53125 9.33594 2.49219 9.375 2.49219 9.41406L2.44922 9.45312L2.32422 9.57422V9.65625L2.16016 9.77344V9.85547L2.07422 9.89453V9.97656L1.99219 10.0156V10.0977L1.91016 10.1758L1.86719 10.2148V10.2969L1.82813 10.3359V10.375L1.74219 10.457L1.70313 10.4961V10.5781L1.66016 10.6172V10.6562L1.62109 10.6953V10.7383C1.57812 10.7773 1.53516 10.7773 1.57813 10.8164L1.53516 10.8594V10.9375C1.49609 10.9766 1.45313 10.9766 1.49609 11.0195L1.45313 11.0586V11.1367L1.41016 11.2187V11.2578C1.37109 11.2969 1.32812 11.2969 1.37109 11.3398V11.3789L1.32813 11.457L1.28906 11.5V11.5391L1.24609 11.5781V11.7383" stroke="#FFC68F" stroke-width="0.0407995"/>
<path d="M9.63281 6.76953V6.80859H9.67578V6.84766H9.58984L9.50781 6.88672H9.46875L9.34375 6.92969H9.21875L9.17578 6.96875L9.01172 7.00781L8.96875 7.05078H8.88672L8.84375 7.08984H8.80469L8.71875 7.21094H8.63672L8.55469 7.28906L8.51172 7.32813L8.42969 7.37109V7.41016L8.13672 7.53125H8.05469L7.97266 7.57031H7.72266L7.64063 7.60938H6.93359V7.64844H6.72656L6.60156 7.69141" stroke="#FFBF98" stroke-width="0.0407995"/>
<path d="M6.64453 7.69141L6.5625 7.48828" stroke="#FFE0BF" stroke-width="0.0407995"/>
<path d="M6.5625 7.48828L6.39453 7.21094" stroke="#FFDFB6" stroke-width="0.0407995"/>
<path d="M6.51953 7.48828L6.35156 7.44922L6.1875 7.37109H5.85547L5.48047 7.44922L5.4375 7.48828H5.39844L5.31641 7.53125L5.06641 7.60938C4.48438 7.8125 3.94531 8.13281 3.44531 8.53125L2.94922 9.01172L2.86328 9.13281H2.90625V9.375L3.23828 9.65625L3.32031 9.73438C3.36328 9.77344 3.40625 9.81641 3.36328 9.85547" stroke="#FFFCE2" stroke-width="0.0407995"/>
<path d="M3.36328 9.85547L2.98828 9.69531" stroke="#FFDCBA" stroke-width="0.0407995"/>
<path d="M2.98828 9.69531L2.61719 9.33594" stroke="#FFDFB6" stroke-width="0.0407995"/>
<path d="M10.9609 8.13281C11.0859 8.61328 11.168 9.01172 11.168 9.33594V10.2148C11.168 10.6953 11.0859 11.1367 10.8359 11.5781L10.2148 12.5C9.46875 13.3828 8.55469 14.1055 7.47266 14.6641C7.01563 14.9063 6.5625 15.0664 6.10547 15.1484L4.65234 15.2656" stroke="#F9A288" stroke-width="0.0407995"/>
<path d="M4.69141 15.2656L4.35938 15.3086" stroke="#FB9B78" stroke-width="0.0407995"/>
<path d="M1.78516 12.2617C2.16016 12.1797 2.57422 12.1406 2.94922 12.1797C3.15625 12.1797 3.40625 12.1797 3.57031 12.3398C3.73828 12.5 3.90234 12.7422 4.02734 13.0234C4.15234 13.2226 4.31641 13.3437 4.60938 13.3828H5.64844L8.46875 12.9023C8.59375 12.8633 8.63672 12.9023 8.67969 12.9805L8.84375 13.1406" stroke="#F9A288" stroke-width="0.0407995"/>
<path d="M1.82812 11.5781V11.5391H1.86719L1.91016 11.5L1.86719 11.457L1.91016 11.418V11.3398L1.95313 11.2969V11.2578L1.99219 11.2188V11.1797L2.03516 11.1367V11.0977L2.07422 11.0586V11.0195L2.11719 10.9766V10.9375C2.16016 10.8984 2.19922 10.8984 2.16016 10.8594V10.8164L2.19922 10.7773L2.24219 10.7383V10.6563L2.28516 10.6172V10.5781L2.36719 10.4961L2.41016 10.457V10.375L2.44922 10.3359V10.2969L2.53125 10.2578V10.1758L2.61719 10.1367V10.0547L2.74219 9.97656V9.89453L2.86328 9.81641V9.77344L2.94922 9.69531H2.98828" stroke="#FFBF98" stroke-width="0.0407995"/>
<path d="M3.40625 9.85547L3.77734 9.93359" stroke="#FFDDC4" stroke-width="0.0407995"/>
<path d="M3.73828 9.93359C4.73438 10.1367 5.73047 9.61328 6.26953 8.85156" stroke="#FFDECE" stroke-width="0.0407995"/>
<path d="M6.26953 8.85156C6.5625 8.49219 6.64453 8.13281 6.60156 7.69141" stroke="#FFDDC4" stroke-width="0.0407995"/>
<path d="M6.26953 8.85156L6.39453 8.53125V8.45313L6.47656 8.25C6.51953 8.21094 6.47656 8.13281 6.4375 8.08984H6.10547L6.01953 8.13281H5.98047L5.89453 8.17188H5.85547L5.77344 8.21094H5.73047V8.25H5.6875L5.60547 8.29297H5.5625L5.48047 8.33203H5.4375L5.35547 8.37109H5.31641L5.27344 8.41016H5.19141L5.14844 8.45313L4.89844 8.53125L4.60938 8.69141L4.56641 8.73438L4.48438 8.8125L4.35938 8.93359H4.27734L4.19531 9.05469H4.10938L3.90234 9.29297H3.82031L3.48828 9.61328V9.77344L3.53125 9.81641L3.73828 9.93359" stroke="#FFFEF5" stroke-width="0.0407995"/>
<path d="M11.918 10.5781V11.0195L11.875 11.418C11.793 12.0195 11.625 12.6211 11.418 13.1836L11.2539 13.543" stroke="#D0766A" stroke-width="0.0407995"/>
<path d="M11.2539 13.543H11.1289L11.0039 13.6641H10.9219L10.5039 13.9023L10.2578 14.0664L10.0469 14.1836L9.71484 14.3867L9.30078 14.5469L8.26172 14.9453L6.85156 15.2266L6.5625 15.2656H6.47656L6.39453 15.3086H6.01953L5.64844 15.3477H4.94141C4.85937 15.3867 4.77344 15.3477 4.65234 15.2656" stroke="#F48064" stroke-width="0.0407995"/>
<path d="M8.59375 12.7031C8.71875 12.7031 8.76172 12.8633 8.80469 12.9414" stroke="#D0766A" stroke-width="0.0407995"/>
<path d="M9.13672 15.668L9.46875 15.4258L9.63281 15.3086L9.80078 15.1484C10.3398 14.7461 10.8789 14.1836 11.2539 13.543" stroke="#D26F5A" stroke-width="0.0407995"/>
<path d="M3.69531 11.7812L3.65234 11.6211C3.61328 11.5391 3.57031 11.457 3.44531 11.457L3.07422 11.5391L2.53125 11.6602" stroke="#D0766A" stroke-width="0.0407995"/>
<path d="M13.1641 13.0234C12.832 12.9805 12.457 12.8633 12.25 12.582C12.25 13.1016 12.6641 13.625 13.1211 13.8242L13.8281 14.0234C14.1992 14.1055 14.4922 14.0234 14.8242 13.8242C15.1953 13.582 15.5703 13.3047 15.7773 12.9414C16.0625 12.3086 16.2852 11.6524 16.4414 10.9766C16.5273 10.457 16.6094 9.97657 16.5273 9.45313C16.4414 9.17188 16.3594 8.89454 16.1953 8.65235C16.1523 8.61329 16.1523 8.65235 16.1523 8.69141C16.3164 9.81641 16.0703 10.9375 15.4883 11.8984L15.1133 12.3399C14.5898 12.8203 13.8828 13.0703 13.1641 13.0234Z" stroke="#ABA1A0" stroke-width="0.0407995"/>
<path d="M13.2461 11.6992L13.0781 12.0195V12.3008L13.1641 12.543L13.2461 12.6602L13.3281 12.7422L13.3711 12.7813C13.7852 12.7813 14.1602 12.6602 14.4922 12.4609C14.8242 12.2617 15.1133 12.0195 15.3203 11.6602C15.3203 11.6367 15.3047 11.6211 15.2813 11.6211L15.1953 11.5L15.0742 11.457L14.9883 11.3789H14.9063V11.3398L14.5313 11.2969L14.4492 11.3398H14.3672L14.2422 11.3789H14.1602" stroke="#6C4D48" stroke-width="0.0407995"/>
<path d="M14.1602 11.3789C14.5313 10.9766 14.6563 10.4961 14.6172 9.93361C14.5313 9.21486 13.7852 8.65236 13.0781 9.17189C12.707 9.41408 12.5391 9.81642 12.457 10.2149C12.332 10.8164 12.582 11.5781 13.2461 11.6992" stroke="#ABA1A0" stroke-width="0.0407995"/>
<path d="M14.1602 11.3789C13.9102 11.6602 13.6211 11.7383 13.2461 11.6992" stroke="#C0ABA7" stroke-width="0.0407995"/>
<path d="M17.1914 12.1016C17.0664 12.2617 16.9414 12.4219 16.8984 12.6211L16.8164 12.9414V12.9805C17.1055 13.2617 17.4375 13.3438 17.8555 13.3047C18.3516 13.2617 18.7695 13.1016 19.0586 12.7813L19.1406 12.6602L19.1836 12.4609L19.2266 12.3008V12.0586L19.1406 11.8594L18.9336 11.6992L18.6836 11.5781" stroke="#6C4D48" stroke-width="0.0407995"/>
<path d="M18.6836 11.5781C18.8086 11.2969 18.8945 11.0195 18.8516 10.6953C18.8086 10.1367 18.3945 9.61327 17.7734 9.77342C17.3555 9.85545 17.0664 10.2148 16.9414 10.5781C16.8164 10.8594 16.7734 11.0976 16.8164 11.3789C16.8594 11.6601 16.9844 11.8984 17.1914 12.1015" stroke="#ABA1A0" stroke-width="0.0407995"/>
<path d="M18.6836 11.5781C18.5625 11.8594 18.3516 12.0586 18.1445 12.1797C17.8125 12.3789 17.4805 12.3398 17.1914 12.1016" stroke="#C0ABA7" stroke-width="0.0407995"/>
<path d="M19.9297 13.1016C20.3008 12.1836 20.457 11.1992 20.3867 10.2148L20.3047 9.77344H20.2617V10.8164C20.1367 11.457 19.9727 12.0195 19.5977 12.582C19.1758 13.2227 18.4336 13.6055 17.6484 13.582C17.2734 13.582 16.9414 13.4219 16.6523 13.1406V13.1836L16.8164 13.6641C16.9844 14.0234 17.4805 14.3047 17.8945 14.4258C18.1055 14.5039 18.3125 14.5039 18.5195 14.4258C19.2266 14.2266 19.5977 13.7031 19.9297 13.1016Z" stroke="#ABA1A0" stroke-width="0.0407995"/>
<path d="M21.3008 15.1055V15.9492C21.4688 15.9102 21.6328 15.8672 21.8398 15.75C22.1328 15.6289 22.4219 15.4687 22.5898 15.2266C22.7539 15.0664 22.8359 14.7852 22.9609 14.5859V14.5469H22.9219" stroke="#825451" stroke-width="0.0407995"/>
<path d="M22.9219 14.5469L22.5469 14.3437H22.4648L22.3789 14.5039C22.2969 14.6641 22.0469 14.625 22.0469 14.4258C22.0469 14.0664 22.3789 13.8633 22.7539 14.0234C22.9609 14.1445 23.2109 14.3438 23.418 14.1055C23.5 14.0234 23.543 13.8633 23.543 13.7422V12.7422L23.4609 12.5" stroke="#A4655A" stroke-width="0.0407995"/>
<path d="M23.4609 12.5C23.3359 11.9805 23.0859 11.5781 22.7539 11.2188C22.5469 10.9375 22.2578 10.7773 21.8828 10.6562" stroke="#A56E58" stroke-width="0.0407995"/>
<path d="M21.8828 10.6562C21.7148 10.5352 21.5508 10.4961 21.4258 10.4961C21.1367 10.457 20.9687 10.6562 20.8437 10.8594L20.8047 11.0586L20.7187 11.5C20.6797 11.9414 20.5547 12.3789 20.4297 12.7422L20.4687 12.7812L20.5938 12.9414C20.9688 13.4648 21.1758 14.0234 21.2578 14.6641L21.3008 15.1055" stroke="#A4655A" stroke-width="0.0407995"/>
<path d="M21.8828 10.6562L22.0469 10.8594V10.9375L22.1719 11.0195V11.0977L22.3398 11.2188V11.2969L22.4648 11.3789V11.457L22.5898 11.5391V11.6211L22.6719 11.6602V11.7383L22.7539 11.7813V11.8594L22.9219 11.9805V12.0586L23.0039 12.1406H23.0859V12.2188H23.1289L23.4609 12.5" stroke="#F39071" stroke-width="0.0407995"/>
<path d="M22.9219 14.5469C22.6289 14.9883 22.2578 15.2656 21.8008 15.4258H21.6328C21.4258 15.3867 21.3828 15.3086 21.3008 15.1055" stroke="#D0766A" stroke-width="0.0407995"/>
<path d="M13.6602 14.3437C12.9531 14.2266 12.4141 13.9453 12.125 13.3438H12.082L11.668 14.1055C11.3789 14.5859 11.0039 14.9453 10.5469 15.3086" stroke="#A4655A" stroke-width="0.0407995"/>
<path d="M10.5469 15.3086C10.1328 15.5898 9.67581 15.8672 9.17581 16.0703H9.13674C9.09378 16.2695 9.13674 16.4687 9.21878 16.5898C9.38284 16.7891 9.58987 16.9922 9.80081 17.1133L10.0078 17.3125C10.2969 17.5938 10.711 17.9141 11.086 18.0352C11.293 18.1133 11.461 18.2344 11.625 18.3945L12.0821 18.875L12.5 19.3555L12.7071 19.4375L14.4492 19.8359C15.0742 19.957 15.7383 19.957 16.4024 19.918L17.3985 19.7188C18.0625 19.5078 18.6836 19.1836 19.2266 18.7539L20.0157 17.9531C20.5039 17.3086 20.8047 16.5469 20.8867 15.75" stroke="#AB806F" stroke-width="0.0407995"/>
<path d="M20.8867 15.75V15.5469C20.8438 14.707 20.6797 13.9453 20.3047 13.1836H20.2617C19.9297 13.9453 19.4336 14.5469 18.5625 14.7852" stroke="#A4655A" stroke-width="0.0407995"/>
<path d="M18.5625 14.7852C18.0195 14.9453 17.4805 14.7461 17.0234 14.4258C16.4414 14.0664 16.3164 13.543 16.2344 12.9023M16.2344 12.9023C16.2344 12.8633 16.2344 12.8633 16.2344 12.9023ZM16.2344 12.9023C15.9453 13.4648 15.4453 13.9023 14.9063 14.1836C14.5313 14.3867 14.1172 14.4648 13.6602 14.3437" stroke="#AB806F" stroke-width="0.0407995"/>
<path d="M18.5625 14.7852C18.6016 15.2266 18.9336 15.5078 19.3086 15.668C19.5977 15.7891 19.8906 15.8281 20.1797 15.8672C20.4297 15.9102 20.6797 15.8672 20.8867 15.75M10.5469 15.3086L10.6719 15.3477C10.8359 15.5469 11.1289 15.6289 11.418 15.6289C11.793 15.6289 12.207 15.5898 12.582 15.4688C13.0781 15.3477 13.4102 15.0664 13.6211 14.625V14.4648L13.6602 14.3438" stroke="#F9A288" stroke-width="0.0407995"/>
<path d="M6.35156 17.6328H6.64453L7.14062 17.4727L7.30859 17.3906C7.76563 17.0313 8.26172 16.8711 8.88672 16.9102L8.92578 16.8711C8.92578 16.7109 8.59375 16.5898 8.46875 16.5508" stroke="#825451" stroke-width="0.0407995"/>
<path d="M8.46875 16.5508C7.76563 16.3906 6.93359 16.7109 6.47656 17.2305C6.35156 17.3516 6.3125 17.4727 6.26953 17.5938V17.6328H6.35156" stroke="#A4655A" stroke-width="0.0407995"/>
<path d="M8.51172 16.5508L8.26172 16.7891L7.47266 17.1914L6.39453 17.6328" stroke="#D0766A" stroke-width="0.0407995"/>
<path d="M7.30859 17.9141L7.01563 18.2734C6.93359 18.3945 6.89453 18.5938 6.85156 18.7969" stroke="#A56E58" stroke-width="0.0407995"/>
<path d="M6.85156 18.7969C6.97656 18.8359 7.14062 18.7969 7.34766 18.7539C7.68359 18.6328 8.01563 18.5156 8.38672 18.4727H8.42969C8.84375 18.1133 9.34375 17.9141 9.92578 17.875V17.832C9.83984 17.5508 9.63281 17.3906 9.30078 17.3125" stroke="#825451" stroke-width="0.0407995"/>
<path d="M9.30078 17.3125C8.71875 17.1758 8.10156 17.2774 7.59766 17.5938L7.47266 17.711L7.30859 17.9141" stroke="#A4655A" stroke-width="0.0407995"/>
<path d="M9.30078 17.3125C9.25781 17.5508 9.13672 17.7539 8.92578 17.875L8.34766 18.2734L8.09766 18.3945" stroke="#D0766A" stroke-width="0.0407995"/>
<path d="M8.09766 18.3945V18.2734L8.05469 18.2344H8.01562L7.97266 18.1953H7.92969L7.89062 18.1523H7.84766L7.80469 18.1133H7.76563C7.72266 18.0742 7.72266 18.0352 7.68359 18.0742L7.64062 18.0352H7.59766L7.55859 17.9922H7.43359L7.34766 17.9531H7.30859V17.9141" stroke="#F39071" stroke-width="0.0407995"/>
<path d="M6.89453 18.7969L7.76563 18.5547L8.13672 18.3945" stroke="#D17F67" stroke-width="0.0407995"/>
<path d="M20.8867 17.5938L20.7188 17.875H20.7617L20.9258 17.9922" stroke="#825451" stroke-width="0.0407995"/>
<path d="M20.8867 17.9922L21.2188 18.2734L21.4258 18.4336L21.8398 18.5937V18.5547C21.8398 18.4336 21.7578 18.3555 21.6758 18.2344C21.4688 17.9531 21.2188 17.7109 20.8438 17.5937M20.8438 17.5937C20.8438 17.5508 20.8438 17.5508 20.8438 17.5937ZM20.8438 17.5937C20.8047 17.5937 20.8047 17.5937 20.8438 17.5937Z" stroke="#A65E4B" stroke-width="0.0407995"/>
<path d="M20.9258 17.9922L20.8867 17.5938" stroke="#D26F5A" stroke-width="0.0407995"/>
<path d="M20.2617 18.5938L20.0156 18.7539V18.7969L20.4297 18.957" stroke="#825451" stroke-width="0.0407995"/>
<path d="M20.4297 18.957L20.5117 18.9961" stroke="#A65E4B" stroke-width="0.0407995"/>
<path d="M20.4688 18.9961C20.6367 19.0352 20.7617 19.1172 20.8867 19.2344L21.1367 19.3555L21.5078 19.6367H21.5508L21.5078 19.3945C21.3828 19.1172 21.2578 18.8359 21.0508 18.5938" stroke="#A56E58" stroke-width="0.0407995"/>
<path d="M21.0508 18.5937C20.9258 18.4336 20.7617 18.3125 20.5547 18.2344H20.5117L20.2227 18.5937" stroke="#A65E4B" stroke-width="0.0407995"/>
<path d="M21.0937 18.5938L21.0117 18.6758V18.7148H20.9688L20.8047 18.8359H20.7617L20.7187 18.875L20.6797 18.9141L20.5117 18.9961" stroke="#F58961" stroke-width="0.0407995"/>
<path d="M20.4297 18.957L20.2617 18.5938" stroke="#D26F5A" stroke-width="0.0407995"/>
<path d="M8.76172 18.6758C8.30469 18.9961 8.01563 19.3555 7.80469 19.7969C7.6836 20.0391 7.64063 20.2773 7.6836 20.5586L7.76563 20.5977H7.97266L8.80469 20.4375" stroke="#A56E58" stroke-width="0.0407995"/>
<path d="M8.80469 20.4375L9.63281 20.2383L10.3789 20.1172L11.0859 19.918C11.293 19.8789 11.4609 19.7578 11.543 19.5977C11.668 19.3945 11.668 19.1953 11.543 18.9961C11.418 18.7969 11.293 18.6328 11.0859 18.5156" stroke="#825451" stroke-width="0.0407995"/>
<path d="M11.0859 18.5156L10.7539 18.3125L9.92578 18.2344C9.50781 18.2734 9.13672 18.3945 8.76172 18.6758" stroke="#A4655A" stroke-width="0.0407995"/>
<path d="M11.0859 18.5156L11.168 18.7539V18.9141C11.0859 19.1562 10.9219 19.3555 10.7109 19.5156L10.1328 19.918" stroke="#D0766A" stroke-width="0.0407995"/>
<path d="M10.1328 19.918L9.25781 18.9961H9.17578L9.01172 18.7969H8.92578L8.76172 18.6758" stroke="#F39071" stroke-width="0.0407995"/>
<path d="M8.80469 20.4375C9.25781 20.3203 9.67578 20.1172 10.1328 19.918" stroke="#D17F67" stroke-width="0.0407995"/>
<path d="M19.3086 19.3555L18.8945 19.6758C18.875 19.6914 18.8633 19.7148 18.8633 19.7383C18.8633 19.7617 18.875 19.7812 18.8945 19.7969L19.0586 19.8789L19.9727 20.1172" stroke="#825451" stroke-width="0.0407995"/>
<path d="M19.9727 20.1172L21.1367 20.4805H21.2578L21.3008 20.3594C21.2578 19.8359 20.9688 19.5156 20.5117 19.3555C20.3867 19.3164 20.3047 19.2773 20.2617 19.3164" stroke="#A56E58" stroke-width="0.0407995"/>
<path d="M20.2617 19.3164C19.9727 19.2774 19.5586 19.2344 19.3086 19.3555" stroke="#A65E4B" stroke-width="0.0407995"/>
<path d="M20.3047 19.3164L19.6836 19.918" stroke="#F58961" stroke-width="0.0407995"/>
<path d="M19.6836 19.918L19.3906 19.5977L19.3477 19.3555" stroke="#D26F5A" stroke-width="0.0407995"/>
<path d="M20.0156 20.1172L19.6836 19.918" stroke="#D17F67" stroke-width="0.0407995"/>
<path d="M6.14456 10.1758C6.18753 10.375 6.35159 10.4961 6.56253 10.5351C7.01566 10.6562 7.47269 10.4961 7.84769 10.2148C8.22269 9.93357 8.51175 9.41404 8.13675 8.97264L7.80472 8.81248C7.30862 8.65232 6.76956 8.97264 6.43753 9.33592L6.22659 9.61326C6.1055 9.77342 6.06253 10.0156 6.14456 10.1758Z" stroke="#FFDECE" stroke-width="0.0407995"/>
<path d="M15.9844 14.8281C15.6953 14.707 15.3633 14.5859 15.2812 14.3047L15.2383 14.2656L15.1133 14.3437C14.9492 14.5469 15.1562 14.7461 15.3203 14.8281C15.7773 15.0664 16.2773 15.1484 16.7734 15.0273V14.9883L15.9844 14.8281Z" stroke="#AB806F" stroke-width="0.0407995"/>
<path d="M12.043 9.25391C12.25 8.89453 12.5 8.53125 12.7891 8.25C13.4531 7.60938 14.5313 7.53125 15.4453 7.73047C15.7383 7.8125 15.9844 7.92969 16.1953 8.13281L16.3594 8.25L16.6094 8.45312H16.6523L16.6914 8.21094L16.7344 7.73047C16.7344 7.60938 16.6914 7.57031 16.6094 7.53125L15.8633 7.37109L14.6992 7.28906C14.2422 7.25 13.3711 7.16797 13.4531 6.52734C13.4961 6.00781 13.9922 5.52734 14.4102 5.20312C15.5977 4.1875 17.0195 3.46094 18.5625 3.08203L19.7227 3C20.0977 3.03906 20.1367 3.35938 19.9727 3.60156C19.8477 3.76172 19.7227 3.92188 19.5156 4.04297L18.3945 5.00391V5.04297C18.8516 5.00391 19.2656 5.04297 19.6406 5.125C20.1797 5.24609 20.6367 5.52734 20.6367 6.08594C20.6797 6.48828 20.3867 6.96875 20.0977 7.28906C19.7656 7.60938 19.3477 7.92969 18.9336 8.21094V8.25C19.3086 8.25 19.5977 8.33203 19.8477 8.57422C20.3477 8.93359 20.6367 9.45312 20.7617 10.0547H20.8047L21.7578 10.1758C22.0469 10.2969 22.4648 10.457 22.7109 10.6562C23.7227 11.4805 24.1719 12.7812 23.875 14.0234C23.832 14.2266 23.7109 14.3867 23.5 14.5039L23.4609 14.5469C23.3359 14.7461 23.2539 14.9883 23.0859 15.1875L22.9219 15.4688C22.5898 15.8281 22.0078 16.1484 21.5508 16.2695L21.4258 16.3516L21.2578 16.5508L21.0508 17.1523L21.2188 17.3516C21.5898 17.5117 21.8828 17.793 22.0898 18.1953C22.1719 18.3555 22.2578 18.5156 22.2148 18.6758C22.1719 18.875 22.0078 18.957 21.8008 18.957L21.7578 18.9961C21.8828 19.2773 22.0078 19.6758 21.8008 19.918C21.7578 19.957 21.6758 19.9961 21.5898 19.957L21.5508 19.9961V20.1562C21.5898 20.3203 21.6758 20.5977 21.5078 20.7578C21.3438 20.918 21.1367 20.8789 20.9258 20.8008L19.6836 20.3984C19.3906 20.2773 19.0156 20.1992 18.4766 20.1172L17.6484 20.0781L16.6914 20.1172L16.0273 20.1562H14.3242L13.5352 20.0781C13.1641 20.0391 12.7461 20.0391 12.375 20.1172L11.5 20.2383L11.1289 20.3203L10.5898 20.4375L9.42579 20.6797L8.01563 20.9609C7.14063 21.1211 7.22657 20.3203 7.39063 19.8359L7.89063 18.9961V18.957C7.59766 19.0742 7.34766 19.1562 7.0586 19.1953C6.72657 19.2344 6.4375 19.0742 6.47657 18.6758C6.51953 18.4336 6.60156 18.1953 6.76953 17.9922L6.72657 17.9531C6.47657 18.0352 6.01953 18.0352 5.9375 17.7539C5.85547 17.5117 5.98047 17.2305 6.14453 17.0312C6.35156 16.75 6.64453 16.5508 7.01563 16.3906V16.3516C6.10547 16.3086 5.27344 16.0703 4.40235 15.75C3.48828 15.3867 2.74219 14.7852 2.16016 13.9844L1.66016 13.3047C1.4336 12.9453 1.23828 12.5703 1.07813 12.1797L1.03907 12.1406C0.707034 12.1797 0.414065 12.1016 0.207034 11.8203C0.0429722 11.5781 -0.0429654 11.2969 3.37325e-06 10.9375C3.37325e-06 10.4961 0.167972 10.0977 0.332034 9.69531C0.664065 8.77344 1.2461 7.8125 2.03516 7.12891L2.65625 6.60938C3.48828 5.96484 4.60938 5.44531 5.6875 5.40625C6.22657 5.36719 6.72657 5.40625 7.22657 5.44531C8.26172 5.56641 9.17579 5.96484 9.96485 6.56641C10.4648 6.96875 10.9219 7.44922 11.3359 8.05078C11.625 8.41016 11.875 8.8125 12.043 9.25391C12.043 9.29297 12.043 9.29297 12.043 9.25391ZM14.3242 5.76562C14.1172 5.96484 13.9531 6.16797 13.8672 6.40625C13.8281 6.52734 13.7852 6.60938 13.8281 6.64844C13.8672 6.84766 14.4492 6.92969 14.6563 6.92969L16.4414 7.00781L17.8125 7.16797L17.8945 7.25C17.8945 7.37109 17.7734 7.41016 17.6875 7.41016H17.3164C17.2305 7.41016 17.1055 7.48828 17.1055 7.60938L16.9844 8.85156H17.0664L17.5625 8.57422L18.0195 8.33203C18.5625 8.08984 19.0586 7.69141 19.5156 7.28906C19.8477 7.00781 20.1367 6.72656 20.2617 6.32812C20.3867 5.92578 20.0977 5.60547 19.6836 5.52734L19.1016 5.44531L17.6875 5.48438C17.5625 5.48438 17.5234 5.44531 17.5625 5.32422L17.6875 5.125L18.4375 4.52344L19.1836 3.88281L19.6406 3.40234V3.35938C18.8672 3.33594 18.1016 3.48828 17.3984 3.80078C16.4414 4.20312 15.5313 4.72266 14.7422 5.40625L14.3242 5.76562ZM1.2461 11.7383L1.82813 11.5781L3.44532 10.8984L3.69532 10.8594C4.07032 10.8164 4.07032 11.3398 4.10938 11.5781C4.10938 11.9414 4.19532 12.3008 4.35938 12.582C4.52735 12.8633 4.85938 12.9414 5.19141 12.9414C5.64844 12.9023 6.10547 12.8633 6.5625 12.7422L8.05469 12.4609L8.55469 12.3398L8.80469 12.3008C9.05079 12.3398 9.13672 12.582 9.17579 12.7812L9.21875 13.3047C9.21875 13.4219 9.17579 13.4648 9.05079 13.5039C8.96875 13.5039 8.84375 13.4219 8.84375 13.3438V13.1406L8.80469 12.9414L8.76172 12.7031L8.71875 12.6602L8.59375 12.7031L6.4375 13.1406L5.39844 13.2617C4.85938 13.3047 4.35938 13.2617 4.07032 12.7812C3.94532 12.582 3.82032 12.3789 3.77735 12.1406L3.69532 11.7812V11.2188H3.65235L2.53125 11.6602L1.78516 11.9805V12.2617L2.03516 13.0625C2.49219 13.9844 3.19532 14.707 4.10938 15.1875L4.31641 15.3086C5.34375 15.7734 6.46485 16.0195 7.59766 16.0273C8.64063 15.9531 9.62891 15.5625 10.4219 14.9062L10.5898 14.7852C10.8789 14.5039 11.168 14.1445 11.3789 13.7422L11.543 13.3438C11.75 12.7422 11.918 12.1406 11.957 11.5L11.918 10.5781C11.875 10.0547 11.793 9.57422 11.5859 9.13281L10.9609 8.13281C10.5898 7.60938 10.1719 7.16797 9.63282 6.76953L9.38282 6.56641C8.63672 6.08594 7.80469 5.84766 6.9336 5.76562L6.10547 5.72656C4.31641 5.72656 2.78125 6.72656 1.66016 8.05078C1.1211 8.73438 0.746097 9.57422 0.457034 10.418C0.332034 10.8164 0.289065 11.2188 0.500003 11.5781C0.582034 11.6992 0.707034 11.7812 0.832034 11.7812L1.2461 11.7383ZM13.1641 13.0234C12.832 12.9805 12.457 12.8633 12.25 12.582C12.25 13.1016 12.6641 13.625 13.1211 13.8242L13.8281 14.0234C14.1992 14.1055 14.4922 14.0234 14.8242 13.8242C15.1953 13.582 15.5703 13.3047 15.7773 12.9414C16.0625 12.3086 16.2852 11.6523 16.4414 10.9766C16.5273 10.457 16.6094 9.97656 16.5273 9.45312C16.4414 9.17188 16.3594 8.89453 16.1953 8.65234C16.1523 8.61328 16.1523 8.65234 16.1523 8.69141C16.3164 9.81641 16.0703 10.9375 15.4883 11.8984L15.1133 12.3398C14.5898 12.8203 13.8828 13.0703 13.1641 13.0234ZM13.2461 11.6992L13.0781 12.0195V12.3008L13.1641 12.543L13.2461 12.6602L13.3281 12.7422L13.3711 12.7812C13.7852 12.7812 14.1602 12.6602 14.4922 12.4609C14.8242 12.2617 15.1133 12.0195 15.3203 11.6602C15.3203 11.6367 15.3047 11.6211 15.2813 11.6211L15.1953 11.5L15.0742 11.457L14.9883 11.3789H14.9063V11.3398L14.5313 11.2969L14.4492 11.3398H14.3672L14.2422 11.3789H14.1602C14.5313 10.9766 14.6563 10.4961 14.6172 9.93359C14.5313 9.21484 13.7852 8.65234 13.0781 9.17188C12.707 9.41406 12.5391 9.81641 12.457 10.2148C12.332 10.8164 12.582 11.5781 13.2461 11.6992ZM17.1914 12.1016C17.0664 12.2617 16.9414 12.4219 16.8984 12.6211L16.8164 12.9414V12.9805C17.1055 13.2617 17.4375 13.3438 17.8555 13.3047C18.3516 13.2617 18.7695 13.1016 19.0586 12.7812L19.1406 12.6602L19.1836 12.4609L19.2266 12.3008V12.0586L19.1406 11.8594L18.9336 11.6992L18.6836 11.5781C18.8086 11.2969 18.8945 11.0195 18.8516 10.6953C18.8086 10.1367 18.3945 9.61328 17.7734 9.77344C17.3555 9.85547 17.0664 10.2148 16.9414 10.5781C16.8164 10.8594 16.7734 11.0977 16.8164 11.3789C16.8594 11.6602 16.9844 11.8984 17.1914 12.1016ZM19.9297 13.1016C20.3008 12.1836 20.457 11.1992 20.3867 10.2148L20.3047 9.77344H20.2617V10.8164C20.1367 11.457 19.9727 12.0195 19.5977 12.582C19.1758 13.2227 18.4336 13.6055 17.6484 13.582C17.2734 13.582 16.9414 13.4219 16.6523 13.1406V13.1836L16.8164 13.6641C16.9844 14.0234 17.4805 14.3047 17.8945 14.4258C18.1055 14.5039 18.3125 14.5039 18.5195 14.4258C19.2266 14.2266 19.5977 13.7031 19.9297 13.1016ZM21.3008 15.1055V15.9492C21.4688 15.9102 21.6328 15.8672 21.8398 15.75C22.1328 15.6289 22.4219 15.4688 22.5898 15.2266C22.7539 15.0664 22.8359 14.7852 22.9609 14.5859V14.5469H22.9219L22.5469 14.3438H22.4648L22.3789 14.5039C22.2969 14.6641 22.0469 14.625 22.0469 14.4258C22.0469 14.0664 22.3789 13.8633 22.7539 14.0234C22.9609 14.1445 23.2109 14.3438 23.418 14.1055C23.5 14.0234 23.543 13.8633 23.543 13.7422V12.7422L23.4609 12.5C23.3359 11.9805 23.0859 11.5781 22.7539 11.2188C22.5469 10.9375 22.2578 10.7773 21.8828 10.6562C21.7148 10.5352 21.5508 10.4961 21.4258 10.4961C21.1367 10.457 20.9688 10.6562 20.8438 10.8594L20.8047 11.0586L20.7188 11.5C20.6797 11.9414 20.5547 12.3789 20.4297 12.7422L20.4688 12.7812L20.5938 12.9414C20.9688 13.4648 21.1758 14.0234 21.2578 14.6641L21.3008 15.1055ZM13.6602 14.3438C12.9531 14.2266 12.4141 13.9453 12.125 13.3438H12.082L11.668 14.1055C11.3789 14.5859 11.0039 14.9453 10.5469 15.3086C10.1328 15.5898 9.67579 15.8672 9.17579 16.0703H9.13672C9.09375 16.2695 9.13672 16.4688 9.21875 16.5898C9.38282 16.7891 9.58985 16.9922 9.80079 17.1133L10.0078 17.3125C10.2969 17.5938 10.7109 17.9141 11.0859 18.0352C11.293 18.1133 11.4609 18.2344 11.625 18.3945L12.082 18.875L12.5 19.3555L12.707 19.4375L14.4492 19.8359C15.0742 19.957 15.7383 19.957 16.4023 19.918L17.3984 19.7188C18.0625 19.5078 18.6836 19.1836 19.2266 18.7539L20.0156 17.9531C20.5039 17.3086 20.8047 16.5469 20.8867 15.75V15.5469C20.8438 14.707 20.6797 13.9453 20.3047 13.1836H20.2617C19.9297 13.9453 19.4336 14.5469 18.5625 14.7852C18.0195 14.9453 17.4805 14.7461 17.0234 14.4258C16.4414 14.0664 16.3164 13.543 16.2344 12.9023C16.2344 12.8633 16.2344 12.8633 16.2344 12.9023C15.9453 13.4648 15.4453 13.9023 14.9063 14.1836C14.5313 14.3867 14.1172 14.4648 13.6602 14.3438ZM6.35157 17.6328H6.64453L7.14063 17.4727L7.3086 17.3906C7.76563 17.0312 8.26172 16.8711 8.88672 16.9102L8.92579 16.8711C8.92579 16.7109 8.59375 16.5898 8.46875 16.5508C7.76563 16.3906 6.9336 16.7109 6.47657 17.2305C6.35157 17.3516 6.3125 17.4727 6.26953 17.5938V17.6328H6.35157ZM7.3086 17.9141L7.01563 18.2734C6.9336 18.3945 6.89453 18.5938 6.85157 18.7969C6.97657 18.8359 7.14063 18.7969 7.34766 18.7539C7.6836 18.6328 8.01563 18.5156 8.38672 18.4727H8.42969C8.84375 18.1133 9.34375 17.9141 9.92579 17.875V17.832C9.83985 17.5508 9.63282 17.3906 9.30079 17.3125C8.71875 17.1758 8.10157 17.2773 7.59766 17.5938L7.47266 17.7109L7.3086 17.9141ZM20.8438 17.5938L20.6797 17.875H20.7188L20.8867 17.9922L21.2188 18.2734L21.4258 18.4336L21.8398 18.5938V18.5547C21.8398 18.4336 21.7578 18.3555 21.6758 18.2344C21.4688 17.9531 21.2188 17.7109 20.8438 17.5938C20.8438 17.5508 20.8438 17.5508 20.8438 17.5938C20.8047 17.5938 20.8047 17.5938 20.8438 17.5938ZM20.2227 18.5938L19.9727 18.7539V18.7969L20.3867 18.957L20.4688 18.9961C20.6367 19.0352 20.7617 19.1172 20.8867 19.2344L21.1367 19.3555L21.5078 19.6367H21.5508L21.5078 19.3945C21.3828 19.1172 21.2578 18.8359 21.0508 18.5938C20.9258 18.4336 20.7617 18.3125 20.5547 18.2344H20.5117L20.2227 18.5938ZM8.76172 18.6758C8.30469 18.9961 8.01563 19.3555 7.80469 19.7969C7.6836 20.0391 7.64063 20.2773 7.6836 20.5586L7.76563 20.5977H7.97266L8.80469 20.4375L9.63282 20.2383L10.3789 20.1172L11.0859 19.918C11.293 19.8789 11.4609 19.7578 11.543 19.5977C11.668 19.3945 11.668 19.1953 11.543 18.9961C11.418 18.7969 11.293 18.6328 11.0859 18.5156L10.7539 18.3125L9.92579 18.2344C9.50782 18.2734 9.13672 18.3945 8.76172 18.6758ZM19.3086 19.3555L18.8945 19.6758C18.875 19.6914 18.8633 19.7148 18.8633 19.7383C18.8633 19.7617 18.875 19.7812 18.8945 19.7969L19.0586 19.8789L19.9727 20.1172L21.1367 20.4805H21.2578L21.3008 20.3594C21.2578 19.8359 20.9688 19.5156 20.5117 19.3555C20.3867 19.3164 20.3047 19.2773 20.2617 19.3164C19.9727 19.2773 19.5586 19.2344 19.3086 19.3555Z" fill="#564341"/>
<path d="M19.6836 5.52734L19.6406 5.56641V5.60547L19.4336 6.08594L19.1836 6.28906L18.6445 6.52734L17.6055 6.72656H16.8984L16.2773 6.64844L15.2383 6.40625L14.9492 6.28906L14.6992 6.16797L14.4922 5.96484L14.4492 5.92578L14.4102 5.88672L14.3672 5.84766L14.3242 5.76562L14.7422 5.40625C15.7188 4.59375 16.8438 3.96875 18.0625 3.5625C18.5625 3.40234 19.1016 3.35938 19.6406 3.35938V3.40234L19.1836 3.88281L18.4375 4.52344L17.6875 5.125L17.5625 5.32422C17.5234 5.44531 17.5625 5.48438 17.6875 5.48438L19.1016 5.44531L19.6836 5.52734Z" fill="#FFE868"/>
<path d="M19.6836 5.52734C20.0977 5.60547 20.3867 5.92578 20.2617 6.32812C20.1367 6.72656 19.8477 7.00781 19.5156 7.28906C19.0586 7.69141 18.5625 8.08984 18.0195 8.33203L17.5625 8.57422L17.0664 8.85156H16.9844L17.1055 7.60937C17.1055 7.48828 17.2305 7.41016 17.3164 7.41016H17.6875C17.7735 7.41016 17.8945 7.37109 17.8945 7.25L17.8125 7.16797L16.4414 7.00781L14.6563 6.92969C14.4492 6.92969 13.8672 6.84766 13.8281 6.64844C13.7852 6.60937 13.8281 6.52734 13.8672 6.40625C13.9531 6.16797 14.1172 5.96484 14.3242 5.76562L14.3672 5.84766L14.4102 5.88672L14.4492 5.92578L14.4922 5.96484L14.6992 6.16797L14.9492 6.28906L15.2383 6.40625L16.2774 6.64844L16.8985 6.72656H17.6055L18.6445 6.52734L19.1836 6.28906L19.4336 6.08594L19.6406 5.60547V5.56641L19.6836 5.52734Z" fill="#FFBB49"/>
<path d="M9.38281 6.56641L9.05078 6.64844H9.01172L8.92578 6.6875L8.88672 6.72656H8.80469L8.76172 6.76953L8.67969 6.80859H8.63672L8.59375 6.84766H8.55469L8.51172 6.88672H8.46875L8.34766 6.96875H8.22266C8.22266 6.99219 8.20313 7.00781 8.17969 7.00781L8.09766 7.05078H7.76563L7.72266 7.08984H7.01563L6.97656 7.12891H6.64453L6.60156 7.16797H6.39453L6.35156 7.21094C5.98047 6.6875 5.35547 6.56641 4.73438 6.64844C4.02734 6.76953 3.23828 7.08984 2.78125 7.60938C2.32422 8.13281 2.24219 8.77344 2.61719 9.33594C2.53125 9.33594 2.49219 9.375 2.49219 9.41406L2.44922 9.45313L2.32422 9.57422V9.65625L2.16016 9.77344V9.85547L2.07422 9.89453V9.97656L1.99219 10.0156V10.0977L1.91016 10.1758L1.86719 10.2148V10.2969L1.82813 10.3359V10.375L1.74219 10.457L1.70313 10.4961V10.5781L1.66016 10.6172V10.6563L1.62109 10.6953V10.7383C1.57813 10.7773 1.53516 10.7773 1.57813 10.8164L1.53516 10.8594V10.9375C1.49609 10.9766 1.45313 10.9766 1.49609 11.0195L1.45313 11.0586V11.1367L1.41016 11.2188V11.2578C1.37109 11.2969 1.32813 11.2969 1.37109 11.3398V11.3789L1.32813 11.457L1.28906 11.5V11.5391L1.24609 11.5781V11.7383L0.832031 11.7813C0.707031 11.7813 0.582031 11.6992 0.5 11.5781C0.289062 11.2188 0.332031 10.8164 0.457031 10.418C0.746094 9.57422 1.12109 8.73438 1.66016 8.05078C2.78125 6.72656 4.31641 5.72656 6.10547 5.72656L6.93359 5.76563C7.80469 5.84766 8.63672 6.08594 9.38281 6.56641Z" fill="#FFC98A"/>
<path d="M9.38281 6.56641L9.63281 6.76953V6.80859H9.67578V6.84766H9.58984L9.50781 6.88672H9.46875L9.34375 6.92969H9.21875L9.17578 6.96875L9.01172 7.00781L8.96875 7.05078H8.88672L8.84375 7.08984H8.80469L8.71875 7.21094H8.63672L8.55469 7.28906L8.51172 7.32813L8.42969 7.37109V7.41016L8.13672 7.53125H8.05469L7.97266 7.57031H7.72266L7.64063 7.60938H6.93359V7.64844H6.72656L6.60156 7.69141L6.51953 7.48828L6.35156 7.21094L6.39453 7.16797H6.60156L6.64453 7.12891H6.97656L7.01563 7.08984H7.72266L7.76563 7.05078H8.09766L8.17969 7.00781C8.20313 7.00781 8.22266 6.99219 8.22266 6.96875H8.34766L8.46875 6.88672H8.51172L8.55469 6.84766H8.59375L8.63672 6.80859H8.67969L8.76172 6.76953L8.80469 6.72656H8.88672L8.92578 6.6875L9.01172 6.64844H9.05078L9.38281 6.56641Z" fill="#FFC293"/>
<path d="M6.35158 7.21091L6.51955 7.48825L6.35158 7.44919L6.18752 7.37107H5.85548L5.48048 7.44919L5.43752 7.48825H5.39845L5.31642 7.53122L5.06642 7.60935C4.48439 7.81247 3.94533 8.13278 3.44533 8.53122L2.94923 9.01169L2.8633 9.13278H2.90627V9.37497L3.2383 9.65622L3.32033 9.73435C3.3633 9.77341 3.40627 9.81638 3.3633 9.85544L2.9883 9.69528L2.6172 9.33591C2.2422 8.77341 2.32423 8.13278 2.78127 7.60935C3.2383 7.08982 4.02736 6.7695 4.73439 6.64841C5.35548 6.56638 5.98048 6.68747 6.35158 7.21091Z" fill="#FFFBD8"/>
<path d="M9.63281 6.76953C10.1719 7.16797 10.5898 7.60938 10.9609 8.13281C11.0859 8.61328 11.168 9.01172 11.168 9.33594V10.2148C11.168 10.6953 11.0859 11.1367 10.8359 11.5781L10.2148 12.5C9.46875 13.3828 8.55469 14.1055 7.47266 14.6641C7.01562 14.9062 6.5625 15.0664 6.10547 15.1484L4.65234 15.2656L4.31641 15.3086L4.10938 15.1875C3.19531 14.707 2.49219 13.9844 2.03516 13.0625L1.78516 12.2617C2.16016 12.1797 2.57422 12.1406 2.94922 12.1797C3.15625 12.1797 3.40625 12.1797 3.57031 12.3398C3.73828 12.5 3.90234 12.7422 4.02734 13.0234C4.15234 13.2227 4.31641 13.3437 4.60938 13.3828H5.64844L8.46875 12.9023C8.59375 12.8633 8.63672 12.9023 8.67969 12.9805L8.84375 13.1406V13.3438C8.84375 13.4219 8.96875 13.5039 9.05078 13.5039C9.17578 13.4648 9.21875 13.4219 9.21875 13.3047L9.17578 12.7812C9.13672 12.582 9.05078 12.3398 8.80469 12.3008L8.55469 12.3398L8.05469 12.4609L6.5625 12.7422C6.10547 12.8633 5.64844 12.9023 5.19141 12.9414C4.85938 12.9414 4.52734 12.8633 4.35938 12.582C4.19531 12.3008 4.10938 11.9414 4.10938 11.5781C4.07031 11.3398 4.07031 10.8164 3.69531 10.8594L3.44531 10.8984L1.82813 11.5781V11.5391H1.86719L1.91016 11.5L1.86719 11.457L1.91016 11.418V11.3398L1.95313 11.2969V11.2578L1.99219 11.2188V11.1797L2.03516 11.1367V11.0977L2.07422 11.0586V11.0195L2.11719 10.9766V10.9375C2.16016 10.8984 2.19922 10.8984 2.16016 10.8594V10.8164L2.19922 10.7773L2.24219 10.7383V10.6563L2.28516 10.6172V10.5781L2.36719 10.4961L2.41016 10.457V10.375L2.44922 10.3359V10.2969L2.53125 10.2578V10.1758L2.61719 10.1367V10.0547L2.74219 9.97656V9.89453L2.86328 9.81641V9.77344L2.94922 9.69531H2.98828L3.36328 9.85547L3.73828 9.93359C4.73438 10.1367 5.73047 9.61328 6.26953 8.85156C6.5625 8.49219 6.64453 8.13281 6.60156 7.69141L6.72656 7.64844H6.93359V7.60938H7.64062L7.72266 7.57031H7.97266L8.05469 7.53125H8.13672L8.42969 7.41016V7.37109L8.51172 7.32813L8.55469 7.28906L8.63672 7.21094H8.71875L8.80469 7.08984H8.84375L8.88672 7.05078H8.96875L9.01172 7.00781L9.17578 6.96875L9.21875 6.92969H9.34375L9.46875 6.88672H9.50781L9.58984 6.84766H9.67578V6.80859H9.63281V6.76953ZM6.14453 10.1758C6.1875 10.375 6.35156 10.4961 6.5625 10.5352C7.01562 10.6562 7.47266 10.4961 7.84766 10.2148C8.22266 9.93359 8.51172 9.41406 8.13672 8.97266L7.80469 8.8125C7.30859 8.65234 6.76953 8.97266 6.4375 9.33594L6.22656 9.61328C6.10547 9.77344 6.0625 10.0156 6.14453 10.1758Z" fill="#FFBC9C"/>
<path d="M6.51953 7.48828L6.60156 7.69141C6.64453 8.13281 6.5625 8.49219 6.26953 8.85156L6.39453 8.53125V8.45312L6.47656 8.25C6.51953 8.21094 6.47656 8.13281 6.4375 8.08984H6.10547L6.01953 8.13281H5.98047L5.89453 8.17187H5.85547L5.77344 8.21094H5.73047V8.25H5.6875L5.60547 8.29297H5.5625L5.48047 8.33203H5.4375L5.35547 8.37109H5.31641L5.27344 8.41016H5.19141L5.14844 8.45312L4.89844 8.53125L4.60938 8.69141L4.56641 8.73437L4.48438 8.8125L4.35938 8.93359H4.27734L4.19531 9.05469H4.10938L3.90234 9.29297H3.82031L3.48828 9.61328V9.77344L3.53125 9.81641L3.73828 9.93359L3.36328 9.85547C3.40625 9.81641 3.36328 9.77344 3.32031 9.73437L3.23828 9.65625L2.90625 9.375V9.13281H2.86328L2.94922 9.01172L3.44531 8.53125C3.94531 8.13281 4.48438 7.8125 5.06641 7.60937L5.31641 7.53125L5.39844 7.48828H5.4375L5.48047 7.44922L5.85547 7.37109H6.1875L6.35156 7.44922L6.51953 7.48828Z" fill="#FFFDEB"/>
<path d="M6.26953 8.85156C5.73047 9.61328 4.73438 10.1367 3.73828 9.93359L3.53125 9.81641L3.48828 9.77344V9.61328L3.82031 9.29297H3.90234L4.10938 9.05469H4.19531L4.27734 8.93359H4.35938L4.48438 8.8125L4.56641 8.73437L4.60938 8.69141L4.89844 8.53125L5.14844 8.45312L5.19141 8.41016H5.27344L5.31641 8.37109H5.35547L5.4375 8.33203H5.48047L5.5625 8.29297H5.60547L5.6875 8.25H5.73047V8.21094H5.77344L5.85547 8.17187H5.89453L5.98047 8.13281H6.01953L6.10547 8.08984H6.4375C6.47656 8.13281 6.51953 8.21094 6.47656 8.25L6.39453 8.45312V8.53125L6.26953 8.85156Z" fill="white"/>
<path d="M10.9609 8.13281L11.5859 9.13281C11.793 9.57422 11.875 10.0547 11.918 10.5781V11.0195L11.875 11.418C11.793 12.0195 11.625 12.6211 11.418 13.1836L11.2539 13.543H11.1289L11.0039 13.6641H10.9219L10.5039 13.9023L10.2578 14.0664L10.0469 14.1836L9.71484 14.3867L9.30078 14.5469L8.26172 14.9453L6.85156 15.2266L6.5625 15.2656H6.47656L6.39453 15.3086H6.01953L5.64844 15.3477H4.94141C4.85937 15.3867 4.77344 15.3477 4.65234 15.2656L6.10547 15.1484C6.5625 15.0664 7.01562 14.9062 7.47266 14.6641C8.55469 14.1055 9.46875 13.3828 10.2148 12.5L10.8359 11.5781C11.0859 11.1367 11.168 10.6953 11.168 10.2148V9.33594C11.168 9.01172 11.0859 8.61328 10.9609 8.13281Z" fill="#F28773"/>
<path d="M12.25 12.582C12.4571 12.8633 12.8321 12.9805 13.1641 13.0234C13.9102 13.0625 14.5313 12.8203 15.1133 12.3398L15.4883 11.8984C16.0703 10.9375 16.3164 9.81641 16.1524 8.69141C16.1524 8.65235 16.1524 8.61329 16.1953 8.65235C16.3594 8.89454 16.4414 9.17188 16.5274 9.45313C16.6094 9.97657 16.5274 10.457 16.4414 10.9766C16.2852 11.6523 16.0625 12.3086 15.7774 12.9414C15.5703 13.3047 15.1953 13.582 14.8242 13.8242C14.4922 14.0234 14.1992 14.1055 13.8282 14.0234L13.1211 13.8242C12.6641 13.625 12.25 13.1016 12.25 12.582ZM6.14456 10.1758C6.06253 10.0156 6.1055 9.77344 6.22659 9.61329L6.43753 9.33594C6.76956 8.97266 7.30862 8.65235 7.80472 8.81251L8.13675 8.97266C8.51175 9.41407 8.22269 9.9336 7.84769 10.2148C7.47269 10.4961 7.01566 10.6563 6.56253 10.5352C6.35159 10.4961 6.18753 10.375 6.14456 10.1758Z" fill="white"/>
<path d="M14.1602 11.3789C13.9102 11.6602 13.6211 11.7383 13.2461 11.6992C12.582 11.5781 12.332 10.8164 12.457 10.2149C12.5391 9.81642 12.707 9.41408 13.0781 9.17189C13.7852 8.65236 14.5313 9.21486 14.6172 9.93361C14.6563 10.4961 14.5313 10.9766 14.1602 11.3789Z" fill="white"/>
<path d="M2.61719 9.33594L2.98828 9.69531H2.94922L2.86328 9.77344V9.81641L2.74219 9.89453V9.97656L2.61719 10.0547V10.1367L2.53125 10.1758V10.2578L2.44922 10.2969V10.3359L2.41016 10.375V10.457L2.36719 10.4961L2.28516 10.5781V10.6172L2.24219 10.6562V10.7383L2.19922 10.7773L2.16016 10.8164V10.8594C2.19922 10.8984 2.16016 10.8984 2.11719 10.9375V10.9766L2.07422 11.0195V11.0586L2.03516 11.0977V11.1367L1.99219 11.1797V11.2187L1.95312 11.2578V11.2969L1.91016 11.3398V11.418L1.86719 11.457L1.91016 11.5L1.86719 11.5391H1.82812V11.5781L1.24609 11.7383V11.5781L1.28906 11.5391V11.5L1.32812 11.457L1.37109 11.3789V11.3398C1.32812 11.2969 1.37109 11.2969 1.41016 11.2578V11.2187L1.45312 11.1367V11.0586L1.49609 11.0195C1.45312 10.9766 1.49609 10.9766 1.53516 10.9375V10.8594L1.57812 10.8164C1.53516 10.7773 1.57812 10.7773 1.62109 10.7383V10.6953L1.66016 10.6562V10.6172L1.70312 10.5781V10.4961L1.74219 10.457L1.82812 10.375V10.3359L1.86719 10.2969V10.2148L1.91016 10.1758L1.99219 10.0977V10.0156L2.07422 9.97656V9.89453L2.16016 9.85547V9.77344L2.32422 9.65625V9.57422L2.44922 9.45312L2.49219 9.41406C2.49219 9.375 2.53125 9.33594 2.61719 9.33594Z" fill="#FFC293"/>
<path d="M18.6836 11.5781C18.5625 11.8594 18.3516 12.0586 18.1445 12.1797C17.8125 12.3789 17.4805 12.3398 17.1914 12.1015C16.9844 11.8984 16.8594 11.6601 16.8164 11.3789C16.7734 11.0976 16.8164 10.8594 16.9414 10.5781C17.0664 10.2148 17.3555 9.85545 17.7734 9.77342C18.3945 9.61327 18.8086 10.1367 18.8516 10.6953C18.8945 11.0195 18.8086 11.2969 18.6836 11.5781Z" fill="white"/>
<path d="M19.9297 13.1016C19.5977 13.7031 19.2266 14.2266 18.5195 14.4258C18.3125 14.5039 18.1055 14.5039 17.8945 14.4258C17.4805 14.3047 16.9844 14.0234 16.8164 13.6641L16.6523 13.1836V13.1406C16.9414 13.4219 17.2734 13.582 17.6484 13.582C18.4766 13.582 19.1406 13.2227 19.5977 12.582C19.9727 12.0195 20.1367 11.457 20.2617 10.8164V9.77344H20.3047L20.3867 10.2148V11.3398C20.3047 11.8984 20.1797 12.582 19.9297 13.1016Z" fill="white"/>
<path d="M21.8828 10.6562L22.0469 10.8594V10.9375L22.1719 11.0195V11.0977L22.3398 11.2187V11.2969L22.4648 11.3789V11.457L22.5898 11.5391V11.6211L22.6719 11.6602V11.7383L22.7539 11.7812V11.8594L22.9219 11.9805V12.0586L23.0039 12.1406H23.0859V12.2187H23.1289L23.4609 12.5L23.543 12.7422V13.7422C23.543 13.8633 23.5 14.0234 23.418 14.1055C23.2109 14.3437 22.9609 14.1445 22.7539 14.0234C22.3789 13.8633 22.0469 14.0664 22.0469 14.4258C22.0469 14.625 22.2969 14.6641 22.3789 14.5039L22.4648 14.3437H22.5469L22.9219 14.5469C22.6289 14.9883 22.2578 15.2656 21.8008 15.4258H21.6328C21.4258 15.3867 21.3828 15.3086 21.3008 15.1055L21.2578 14.6641C21.1758 14.0234 20.9688 13.4648 20.5938 12.9414L20.4688 12.7812L20.4297 12.7422C20.5547 12.3789 20.6797 11.9414 20.7188 11.5L20.8047 11.0586L20.8438 10.8594C20.9688 10.6562 21.1367 10.457 21.4258 10.4961C21.5508 10.4961 21.7148 10.5352 21.8828 10.6562Z" fill="#F28773"/>
<path d="M11.918 10.5781L11.957 11.5C11.918 12.1406 11.75 12.7422 11.543 13.3438L11.3789 13.7422C11.168 14.1445 10.8789 14.5039 10.5898 14.7852L10.4219 14.9062C10.0469 15.2266 9.58984 15.4687 9.13672 15.668L9.46875 15.4258L9.63281 15.3086L9.80078 15.1484C10.3398 14.7461 10.8789 14.1836 11.2539 13.543L11.418 13.1836C11.625 12.6211 11.793 12.0195 11.875 11.418L11.918 11.0195V10.5781Z" fill="#AD6560"/>
<path d="M21.8828 10.6562C22.2578 10.7773 22.5469 10.9375 22.7539 11.2188C23.0859 11.5781 23.3359 11.9805 23.4609 12.5L23.1289 12.2188H23.0859V12.1406H23.0039L22.9219 12.0586V11.9805L22.7539 11.8594V11.7812L22.6719 11.7383V11.6602L22.5898 11.6211V11.5391L22.4648 11.457V11.3789L22.3398 11.2969V11.2188L22.1719 11.0977V11.0195L22.0469 10.9375V10.8594L21.8828 10.6562Z" fill="#F4986E"/>
<path d="M3.69531 11.7812L3.65234 11.6211C3.61328 11.5391 3.57031 11.457 3.44531 11.457L3.07422 11.5391L2.53125 11.6602L3.65234 11.2188H3.69531V11.7812Z" fill="#AD6560"/>
<path d="M13.2461 11.6992C13.6211 11.7383 13.9102 11.6602 14.1602 11.3789H14.2422L14.3672 11.3398H14.4492L14.5312 11.2969L14.9062 11.3398V11.3789H14.9883L15.0742 11.457L15.1953 11.5L15.2812 11.6211C15.3047 11.6211 15.3203 11.6367 15.3203 11.6602C15.1133 12.0195 14.8242 12.2617 14.4922 12.4609C14.1602 12.6602 13.7852 12.7812 13.3711 12.7812L13.3281 12.7422L13.2461 12.6602L13.1641 12.543L13.0781 12.3008V12.0195L13.2461 11.6992Z" fill="#81564F"/>
<path d="M3.69531 11.7812L3.77734 12.1406C3.82031 12.3789 3.94531 12.582 4.07031 12.7812C4.35938 13.2617 4.85938 13.3047 5.39844 13.2617L6.4375 13.1406L8.59375 12.7031C8.71875 12.7031 8.76172 12.8633 8.80469 12.9414L8.84375 13.1406L8.67969 12.9805C8.63672 12.9023 8.59375 12.8633 8.46875 12.9023L5.64844 13.3828H4.60938C4.31641 13.3437 4.15234 13.2227 4.02734 13.0234C3.90234 12.7422 3.73828 12.5 3.57031 12.3398C3.40625 12.1797 3.15625 12.1797 2.94922 12.1797C2.57422 12.1406 2.16016 12.1797 1.78516 12.2617V11.9805L2.53125 11.6602L3.07422 11.5391L3.44531 11.457C3.57031 11.457 3.61328 11.5391 3.65234 11.6211L3.69531 11.7812Z" fill="#F28773"/>
<path d="M18.6836 11.5781L18.9336 11.6992L19.1406 11.8594L19.2266 12.0586V12.3008L19.1836 12.4609L19.1406 12.6602L19.0586 12.7812C18.7695 13.1016 18.3516 13.2617 17.8555 13.3047C17.4375 13.3438 17.1055 13.2617 16.8164 12.9805V12.9414L16.8984 12.6211C16.9414 12.4219 17.0664 12.2617 17.1914 12.1016C17.4805 12.3398 17.8125 12.3789 18.1445 12.1797C18.3516 12.0586 18.5625 11.8594 18.6836 11.5781Z" fill="#81564F"/>
<path d="M8.80469 12.9414C8.76172 12.8633 8.71875 12.7031 8.59375 12.7031L8.71875 12.6602L8.76172 12.7031L8.80469 12.9414Z" fill="#AD6560"/>
<path d="M18.5625 14.7852C18.6016 15.2266 18.9336 15.5078 19.3086 15.668C19.5977 15.7891 19.8906 15.8281 20.1797 15.8672C20.4297 15.9102 20.6797 15.8672 20.8867 15.75C20.8047 16.5469 20.5039 17.3086 20.0157 17.9531L19.2266 18.7539C18.6836 19.1836 18.0625 19.5078 17.3985 19.7188L16.4024 19.918C15.7383 19.957 15.0742 19.957 14.4492 19.8359C13.7891 19.7227 13.1367 19.5625 12.5 19.3555L12.0821 18.875L11.625 18.3945C11.461 18.2344 11.293 18.1133 11.086 18.0352C10.711 17.9141 10.2969 17.5938 10.0078 17.3125L9.80081 17.1133C9.58987 16.9922 9.38284 16.7891 9.21878 16.5898C9.13675 16.4688 9.09378 16.2695 9.13674 16.0703H9.17581C9.67581 15.8672 10.1328 15.5898 10.5469 15.3086L10.6719 15.3477C10.836 15.5469 11.1289 15.6289 11.418 15.6289C11.793 15.6289 12.2071 15.5898 12.5821 15.4688C13.0782 15.3477 13.4102 15.0664 13.6211 14.625V14.4648L13.6602 14.3438C14.1172 14.4648 14.5313 14.3867 14.9063 14.1836C15.4453 13.9023 15.9453 13.4648 16.2344 12.9023C16.2344 12.8633 16.2344 12.8633 16.2344 12.9023C16.3164 13.543 16.4414 14.0664 17.0235 14.4258C17.4805 14.7461 18.0196 14.9453 18.5625 14.7852ZM15.9844 14.8281C15.6953 14.707 15.3633 14.5859 15.2813 14.3047L15.2383 14.2656L15.1133 14.3438C14.9492 14.5469 15.1563 14.7461 15.3203 14.8281C15.7774 15.0664 16.2774 15.1484 16.7735 15.0273V14.9883L15.9844 14.8281Z" fill="#FFBC9C"/>
<path d="M20.8867 15.75C20.6797 15.8672 20.4297 15.9102 20.1797 15.8672C19.8906 15.8281 19.5977 15.7891 19.3086 15.668C18.9336 15.5078 18.6016 15.2266 18.5625 14.7852C19.4336 14.5469 19.9297 13.9453 20.2617 13.1836H20.3047C20.6797 13.9453 20.8438 14.707 20.8867 15.5469V15.75ZM13.6602 14.3438L13.6211 14.4648V14.625C13.4102 15.0664 13.0781 15.3477 12.582 15.4688C12.207 15.5898 11.793 15.6289 11.418 15.6289C11.1289 15.6289 10.8359 15.5469 10.6719 15.3477L10.5469 15.3086C11.0039 14.9453 11.3789 14.5859 11.668 14.1055L12.082 13.3438H12.125C12.4141 13.9453 12.9531 14.2266 13.6602 14.3438Z" fill="#F28773"/>
<path d="M11.2539 13.543C10.8789 14.1836 10.3398 14.7461 9.80078 15.1484L9.63281 15.3086L9.46875 15.4258L9.13672 15.668C8.18359 16.0859 7.10547 16.1602 6.10547 15.8672C5.52344 15.75 4.94141 15.5898 4.31641 15.3086L4.65234 15.2656C4.77344 15.3477 4.85938 15.3867 4.94141 15.3477H5.64844L6.01953 15.3086H6.39453L6.47656 15.2656H6.5625L6.85156 15.2266L8.26172 14.9453L9.30078 14.5469L9.71484 14.3867L10.0469 14.1836L10.2578 14.0664L10.5039 13.9023L10.9219 13.6641H11.0039L11.1289 13.543H11.2539Z" fill="#F67954"/>
<path d="M15.9844 14.8281L16.7734 14.9883V15.0273C16.2773 15.1484 15.7773 15.0664 15.3203 14.8281C15.1562 14.7461 14.9492 14.5469 15.1133 14.3438L15.2383 14.2656L15.2812 14.3047C15.3633 14.5859 15.6953 14.707 15.9844 14.8281Z" fill="#564341"/>
<path d="M22.9219 14.5469H22.9609V14.5859C22.8359 14.7852 22.7539 15.0664 22.5898 15.2266C22.4219 15.4687 22.1328 15.6289 21.8398 15.75C21.6328 15.8672 21.4688 15.9102 21.3008 15.9492V15.1055C21.3828 15.3086 21.4258 15.3867 21.6328 15.4258H21.8008C22.2578 15.2656 22.6289 14.9883 22.9219 14.5469Z" fill="#AD6560"/>
<path d="M8.46875 16.5508L8.22266 16.7891L7.43359 17.1914L6.35156 17.6328H6.26953V17.5938C6.3125 17.4727 6.35156 17.3516 6.47656 17.2305C6.93359 16.7109 7.76563 16.3906 8.46875 16.5508Z" fill="#F28773"/>
<path d="M8.46875 16.5508C8.59375 16.5898 8.92578 16.7109 8.92578 16.8711L8.88672 16.9102C8.26172 16.8711 7.76563 17.0312 7.30859 17.3906L7.14063 17.4727L6.64453 17.6328H6.35156L7.43359 17.1914L8.22266 16.7891L8.46875 16.5508Z" fill="#AD6560"/>
<path d="M9.30078 17.3125C9.25781 17.5508 9.13672 17.7539 8.92578 17.875L8.34766 18.2734L8.09766 18.3945V18.2734L8.05469 18.2344H8.01562L7.97266 18.1953H7.92969L7.89062 18.1523H7.84766L7.80469 18.1133H7.76562C7.72266 18.0742 7.72266 18.0352 7.68359 18.0742L7.64062 18.0352H7.59766L7.55859 17.9922H7.43359L7.34766 17.9531H7.30859V17.9141L7.47266 17.7109L7.59766 17.5937C7.80469 17.4727 8.01562 17.3516 8.26172 17.3125C8.63672 17.2305 8.96875 17.2305 9.30078 17.3125Z" fill="#F28773"/>
<path d="M9.30078 17.3125C9.63281 17.3906 9.83984 17.5508 9.92578 17.832V17.875C9.34375 17.9141 8.84375 18.1133 8.42969 18.4727H8.38672C8.01563 18.5156 7.68359 18.6328 7.34766 18.7539C7.14063 18.7969 6.97656 18.8359 6.85156 18.7969L7.72266 18.5547L8.09766 18.3945L8.34766 18.2734L8.92578 17.875C9.13672 17.7539 9.25781 17.5508 9.30078 17.3125Z" fill="#AD6560"/>
<path d="M20.8867 17.9922L20.8437 17.5938C20.8047 17.5938 20.8047 17.5938 20.8437 17.5938C20.8437 17.5508 20.8437 17.5508 20.8437 17.5938C21.2187 17.7109 21.4687 17.9531 21.6758 18.2344C21.7578 18.3555 21.8398 18.4336 21.8398 18.5547V18.5938L21.4258 18.4336L21.2187 18.2734L20.8867 17.9922Z" fill="#F67954"/>
<path d="M20.8438 17.5938L20.8867 17.9922L20.7188 17.875H20.6797L20.8438 17.5938Z" fill="#AD6560"/>
<path d="M7.30859 17.9141V17.9531H7.34766L7.43359 17.9922H7.55859L7.59766 18.0352H7.64063L7.68359 18.0742C7.72266 18.0352 7.72266 18.0742 7.76563 18.1133H7.80469L7.84766 18.1523H7.89063L7.92969 18.1953H7.97266L8.01563 18.2344H8.05469L8.09766 18.2734V18.3945L7.72266 18.5547L6.85156 18.7969C6.89453 18.5938 6.93359 18.3945 7.01563 18.2734L7.30859 17.9141Z" fill="#F4986E"/>
<path d="M21.0508 18.5938L20.9688 18.6758V18.7148H20.9258L20.7617 18.8359H20.7188L20.6797 18.875L20.6367 18.9141L20.4688 18.9961L20.3867 18.957L20.2227 18.5938L20.5117 18.2344H20.5547C20.7617 18.3125 20.9258 18.4336 21.0508 18.5938Z" fill="#F67954"/>
<path d="M11.0859 18.5156L11.168 18.7539V18.9141C11.0859 19.1562 10.9219 19.3555 10.7109 19.5156L10.1328 19.918L9.25781 18.9961H9.17578L9.01172 18.7969H8.92578L8.76172 18.6758C9.13672 18.3945 9.50781 18.2734 9.92578 18.2344L10.7539 18.3125L11.0859 18.5156Z" fill="#F28773"/>
<path d="M11.0859 18.5156C11.293 18.6328 11.418 18.7969 11.543 18.9961C11.668 19.1953 11.668 19.3945 11.543 19.5977C11.4609 19.7578 11.293 19.8789 11.0859 19.918L10.3789 20.1172L9.63281 20.2383L8.80469 20.4375C9.25781 20.3203 9.67578 20.1172 10.1328 19.918L10.7109 19.5156C10.9219 19.3555 11.0859 19.1562 11.168 18.9141V18.7539L11.0859 18.5156ZM20.2227 18.5938L20.3867 18.957L19.9727 18.7969V18.7539L20.2227 18.5938Z" fill="#AD6560"/>
<path d="M21.0508 18.5938C21.2578 18.8359 21.3828 19.1172 21.5078 19.3945L21.5508 19.6367H21.5078L21.1367 19.3555L20.8867 19.2344C20.7617 19.1172 20.6367 19.0352 20.4688 18.9961L20.6367 18.9141L20.6797 18.875L20.7188 18.8359H20.7617L20.9258 18.7148H20.9688V18.6758L21.0508 18.5938ZM8.76172 18.6758L8.92578 18.7969H9.01172L9.17578 18.9961H9.25781L10.1328 19.918C9.67578 20.1172 9.25781 20.3203 8.80469 20.4375L7.97266 20.5977H7.76563L7.6836 20.5586C7.64063 20.2773 7.6836 20.0391 7.80469 19.7969C8.01563 19.3555 8.30469 18.9961 8.76172 18.6758Z" fill="#F4986E"/>
<path d="M20.2617 19.3164L19.6406 19.918L19.3477 19.5977L19.3086 19.3555C19.5586 19.2344 19.9727 19.2774 20.2617 19.3164Z" fill="#F67954"/>
<path d="M20.2617 19.3164C20.3047 19.2774 20.3867 19.3164 20.5117 19.3555C20.9687 19.5156 21.2578 19.8359 21.3008 20.3594L21.2578 20.4805H21.1367L19.9727 20.1172L19.6406 19.918L20.2617 19.3164Z" fill="#F4986E"/>
<path d="M19.3086 19.3555L19.3477 19.5977L19.6406 19.918L19.9727 20.1172L19.0586 19.8789L18.8945 19.7969C18.875 19.7812 18.8633 19.7617 18.8633 19.7383C18.8633 19.7148 18.875 19.6914 18.8945 19.6758L19.3086 19.3555Z" fill="#AD6560"/>
</g>
<defs>
<clipPath id="clip0_33021_366">
<rect width="24" height="24" fill="white"/>
</clipPath>
</defs>
</svg>
