<svg width="24" height="24" viewBox="0 0 24 24" fill="none" xmlns="http://www.w3.org/2000/svg">
<path d="M18.4163 12.7599C17.7461 12.7639 17.1658 12.9348 16.6791 13.1892C16.4994 12.8116 16.3197 12.4816 16.2898 12.2352C16.2561 11.949 16.2149 11.774 16.2561 11.4322C16.2973 11.0903 16.4845 10.6053 16.4845 10.5656C16.4807 10.5298 16.4433 10.3549 16.0577 10.3509C15.6721 10.3469 15.3389 10.4304 15.3014 10.5377C15.264 10.6451 15.1891 10.8915 15.1404 11.1459C15.073 11.5196 14.3692 12.8434 13.9686 13.5391C13.8376 13.2687 13.7253 13.0302 13.7028 12.8394C13.6691 12.5532 13.6279 12.3783 13.6691 12.0364C13.7103 11.6945 13.8975 11.2095 13.8975 11.1698C13.8937 11.134 13.8563 10.9591 13.4707 10.9551C13.0851 10.9512 12.7519 11.0346 12.7144 11.142C12.677 11.2493 12.6358 11.5037 12.5535 11.7502C12.4748 11.9967 11.5389 14.2069 11.2955 14.7833C11.172 15.0775 11.0634 15.312 10.9848 15.4711C10.9062 15.6301 10.9811 15.483 10.9736 15.4989C10.9062 15.634 10.8687 15.7096 10.8687 15.7096V15.7135C10.8163 15.8129 10.7602 15.9083 10.734 15.9083C10.7152 15.9083 10.6778 15.642 10.7414 15.2763C10.88 14.509 11.2169 13.3125 11.2132 13.2687C11.2132 13.2489 11.2768 13.0382 10.996 12.9308C10.7227 12.8235 10.6254 13.0024 10.6029 13.0024C10.5805 13.0024 10.5617 13.066 10.5617 13.066C10.5617 13.066 10.865 11.7184 9.98145 11.7184C9.42737 11.7184 8.66363 12.3584 8.28551 12.9428C8.0459 13.0819 7.53674 13.3761 6.99763 13.6901C6.79172 13.8094 6.57832 13.9366 6.37616 14.0519L6.33498 14.0042C5.26425 12.7917 3.28377 11.9331 3.36613 10.3032C3.39608 9.71087 3.59076 8.14858 7.16985 6.25635C10.1013 4.70599 12.4486 5.13134 12.8567 6.07746C13.437 7.42906 11.6025 9.94143 8.55506 10.3032C7.39448 10.4423 6.78424 9.96529 6.63074 9.7864C6.46975 9.59956 6.44729 9.59161 6.38739 9.62739C6.29005 9.68304 6.34995 9.85 6.38739 9.94938C6.47724 10.1998 6.85162 10.6451 7.48807 10.8677C8.0459 11.0625 9.40865 11.1698 11.0559 10.494C12.9016 9.73472 14.343 7.62782 13.9199 5.86677C13.4894 4.07392 10.689 3.48557 8.04216 4.48337C6.46601 5.07966 4.75883 6.00988 3.53086 7.23029C2.07077 8.67729 1.83865 9.94143 1.93599 10.4662C2.27668 12.3385 4.70642 13.5589 5.67981 14.4613C5.63114 14.4892 5.58621 14.517 5.54503 14.5408C5.05834 14.7953 3.20515 15.8249 2.74091 16.9141C2.21678 18.1464 2.82328 19.0329 3.22761 19.1522C4.47804 19.5219 5.75843 18.858 6.45104 17.7648C7.1399 16.6716 7.05753 15.2524 6.73931 14.6044L6.72808 14.5806L7.10995 14.3421C7.35704 14.187 7.60039 14.0439 7.81378 13.9207C7.69398 14.2665 7.60787 14.676 7.56295 15.2723C7.51054 15.9719 7.78009 16.8783 8.13575 17.2361C8.29299 17.3911 8.48018 17.3951 8.59624 17.3951C9.00806 17.3951 9.19525 17.0333 9.40116 16.6C9.65574 16.0713 9.88037 15.4591 9.88037 15.4591C9.88037 15.4591 9.59959 17.1168 10.3671 17.1168C10.6479 17.1168 10.9286 16.7312 11.0559 16.5325V16.5364C11.0559 16.5364 11.0634 16.5245 11.0784 16.4967C11.1083 16.449 11.1233 16.4211 11.1233 16.4211V16.4132C11.2356 16.2065 11.4865 15.7334 11.8609 14.9503C12.3438 13.9406 12.808 12.6764 12.808 12.6764C12.808 12.6764 12.853 12.9865 12.9915 13.4953C13.0738 13.7975 13.2535 14.1274 13.3921 14.4494C13.2798 14.6164 13.2124 14.7118 13.2124 14.7118L13.2161 14.7157C13.1263 14.843 13.0252 14.9781 12.9204 15.1133C12.5385 15.5983 12.0817 16.1508 12.0218 16.3098C11.9507 16.4967 11.9657 16.6358 12.1042 16.7471C12.2053 16.8266 12.385 16.8425 12.5759 16.8266C12.9204 16.8028 13.16 16.7113 13.2798 16.6557C13.4669 16.5841 13.6803 16.4768 13.8863 16.3178C14.2606 16.0236 14.489 15.6062 14.4665 15.0497C14.4553 14.7436 14.3617 14.4415 14.2457 14.1552C14.2794 14.1036 14.313 14.0519 14.3467 13.9962C14.9383 13.0779 15.395 12.0682 15.395 12.0682C15.395 12.0682 15.4399 12.3783 15.5785 12.8871C15.6496 13.1455 15.7919 13.4278 15.9191 13.706C15.3651 14.187 15.0169 14.7436 14.8971 15.1093C14.6762 15.7851 14.8484 16.0912 15.1741 16.1628C15.3201 16.1946 15.5298 16.123 15.687 16.0514C15.8817 15.9839 16.1176 15.8686 16.3347 15.6976C16.7091 15.4035 17.0685 14.994 17.0498 14.4415C17.0385 14.187 16.9749 13.9366 16.8888 13.6981C17.3605 13.4914 17.9708 13.3721 18.7457 13.4715C20.4117 13.6782 20.7412 14.7833 20.6775 15.2445C20.6139 15.7056 20.2657 15.96 20.1497 16.0395C20.0336 16.1151 19.9962 16.1429 20.0074 16.1985C20.0224 16.282 20.0748 16.278 20.1759 16.2621C20.3144 16.2383 21.0519 15.8845 21.0819 15.0338C21.1268 13.9406 20.1497 12.748 18.4163 12.7599ZM5.56749 17.3593C5.01715 17.9993 4.24218 18.2418 3.91273 18.0351C3.55707 17.8165 3.69559 16.8743 4.37322 16.1946C4.78504 15.7811 5.3204 15.3995 5.67232 15.165C5.75094 15.1133 5.87074 15.0377 6.01301 14.9463C6.03547 14.9304 6.05045 14.9225 6.05045 14.9225C6.07665 14.9066 6.1066 14.8867 6.13655 14.8668C6.38739 15.8368 6.14779 16.6875 5.56749 17.3593ZM9.5921 14.4534C9.40116 14.9503 8.99683 16.2264 8.75348 16.1548C8.54383 16.0952 8.41654 15.1292 8.7123 14.1751C8.86205 13.6941 9.18028 13.1217 9.36747 12.899C9.67072 12.5413 10.0002 12.422 10.0825 12.5691C10.1799 12.7599 9.7119 14.1433 9.5921 14.4534ZM12.9129 16.1389C12.8305 16.1826 12.7556 16.2144 12.7219 16.1906C12.6957 16.1747 12.7556 16.115 12.7556 16.115C12.7556 16.115 13.1712 15.642 13.3359 15.4234C13.4295 15.2961 13.5418 15.1491 13.6616 14.9821V15.0298C13.6616 15.6022 13.145 15.9839 12.9129 16.1389ZM15.4736 15.5188C15.4137 15.4711 15.4212 15.324 15.6234 14.8628C15.702 14.68 15.8817 14.3739 16.1924 14.0837C16.2299 14.2029 16.2523 14.3182 16.2486 14.4256C16.2449 15.1411 15.7657 15.4074 15.4736 15.5188Z" fill="#F472B6"/>
</svg>
