<svg width="24" height="24" viewBox="0 0 24 24" fill="none" xmlns="http://www.w3.org/2000/svg">
<path fill-rule="evenodd" clip-rule="evenodd" d="M6.01678 9.6979C6.17379 9.91431 7.49776 10.3225 9.47268 10.7477C11.4476 11.1263 13.5014 12.6208 15.0987 12.16C16.1791 11.8476 17.3511 9.06477 17.3511 8.65145V8.60902C17.3511 8.32046 17.1347 8.08877 16.7672 7.89611C15.2608 7.12635 14.9756 6.84288 14.4172 6.9965C11.518 7.79682 6.39955 7.38775 6.01678 9.6979Z" fill="#7F1D1D"/>
<path fill-rule="evenodd" clip-rule="evenodd" d="M6.01678 15.3485C6.17379 15.5683 7.49776 15.9732 9.47268 16.3992C11.6793 16.8015 13.5982 18.1127 15.1963 17.651C16.2767 17.3387 17.3511 14.7162 17.3511 14.3021V14.2613C17.3511 13.9736 17.1347 13.7411 16.7672 13.5493C15.6181 12.9382 14.0998 12.2652 13.5422 12.4188C10.6379 13.2174 6.756 13.3931 6.01678 15.3485Z" fill="#7F1D1D"/>
<path fill-rule="evenodd" clip-rule="evenodd" d="M15.1921 4.09227C12.5221 4.86374 8.28623 5.29912 6.00409 5.29912V9.65717C6.00482 9.67216 6.01049 9.68649 6.02021 9.69791C7.57757 9.69791 12.3854 9.18869 15.2863 8.39092C15.7922 8.26215 16.2882 8.09737 16.7706 7.89783C17.1254 7.73827 17.3546 7.57023 17.3546 7.3954V3C17.3512 3.41416 16.2725 3.7808 15.1921 4.09227Z" fill="#F87171"/>
<path fill-rule="evenodd" clip-rule="evenodd" d="M15.1921 9.74373C13.594 10.2046 11.4374 10.5474 9.47271 10.7477C8.15384 10.8827 6.92153 10.9531 6.00409 10.9531V15.3078C6.00482 15.3228 6.01049 15.3371 6.02021 15.3485C7.57757 15.3485 12.3854 14.8393 15.2863 14.0424C15.7921 13.9132 16.2881 13.7485 16.7706 13.5493C17.1254 13.3889 17.3546 13.2217 17.3546 13.0469V8.65146C17.3512 9.06477 16.2725 9.43141 15.1921 9.74373Z" fill="#F87171"/>
<path fill-rule="evenodd" clip-rule="evenodd" d="M15.1921 15.3986C13.594 15.8595 11.4374 16.2015 9.47269 16.4026C8.15212 16.5376 6.91811 16.608 6.00067 16.608V21C7.5419 21 12.3744 20.495 15.2829 19.6939C16.3548 19.3985 17.3511 19.0624 17.3511 18.6975V14.3021C17.3511 14.7197 16.2724 15.0829 15.1921 15.3986Z" fill="#F87171"/>
</svg>
