<svg width="24" height="24" viewBox="0 0 24 24" fill="none" xmlns="http://www.w3.org/2000/svg">
<path d="M3.89547 8.58502C3.89397 8.58702 3.84847 8.59202 3.79497 8.59852C3.74297 8.60352 3.68247 8.61202 3.66047 8.61702C3.64047 8.62202 3.60547 8.62902 3.58197 8.63202C3.52497 8.64052 3.39747 8.67602 3.35547 8.69452C3.33697 8.70102 3.27497 8.72602 3.21597 8.74952C2.92097 8.86702 2.61897 9.10502 2.40947 9.38852C2.36247 9.45252 2.31697 9.51302 2.31047 9.52302C2.23497 9.62202 2.07547 10.011 2.04547 10.1685C1.99147 10.449 1.98497 10.759 2.02847 10.9655C2.10097 11.311 2.20447 11.5425 2.40447 11.809C2.45447 11.876 2.81547 12.252 3.20797 12.643C3.71947 13.1545 3.92747 13.376 3.95097 13.426C4.03297 13.607 3.94747 13.827 3.75947 13.911C3.70097 13.936 3.64047 13.941 3.31497 13.9425C3.10897 13.9425 2.90397 13.951 2.86247 13.9595C2.49647 14.0385 2.22797 14.3585 2.21647 14.7325C2.20647 15.0245 2.33897 15.283 2.58547 15.454C2.75297 15.568 2.87397 15.59 3.37197 15.59C3.74297 15.59 3.87697 15.58 4.03447 15.5445C4.05797 15.5395 4.09847 15.531 4.12547 15.526C4.27797 15.4995 4.71747 15.2945 4.78947 15.2175C4.79447 15.2125 4.82647 15.1875 4.86147 15.162C4.97247 15.0785 5.14197 14.904 5.24397 14.7645C5.43197 14.508 5.58297 14.124 5.62147 13.8085C5.63497 13.691 5.63647 13.391 5.62297 13.322C5.61797 13.2985 5.60647 13.233 5.59447 13.1745C5.54597 12.9025 5.39147 12.569 5.21397 12.344C5.16197 12.277 4.79947 11.9045 4.41047 11.514C3.63547 10.7375 3.63397 10.7375 3.65397 10.571C3.68397 10.313 3.93597 10.1655 4.16547 10.2695C4.21897 10.293 4.83147 10.8965 6.62447 12.688C7.93647 14.0015 9.03647 15.0965 9.06847 15.1235C9.10047 15.1505 9.18597 15.211 9.25947 15.2595C9.96597 15.7225 10.8765 15.6955 11.566 15.1955C11.6735 15.117 11.8845 14.907 11.9685 14.7965L12.0275 14.7175L12.22 14.909C12.3895 15.075 12.435 15.117 12.514 15.1805C12.524 15.1875 12.579 15.226 12.638 15.2645C13.3055 15.7075 14.245 15.699 14.914 15.241C15.0315 15.1605 15.07 15.1285 15.196 15.008C15.4745 14.738 15.689 14.3285 15.7645 13.9175C15.7895 13.79 15.793 13.3455 15.771 13.238C15.766 13.2145 15.758 13.1695 15.7525 13.1375C15.709 12.9145 15.56 12.591 15.397 12.3725C15.3485 12.3055 14.993 11.935 14.607 11.549C14.2215 11.1635 13.8875 10.821 13.8655 10.791C13.8135 10.719 13.8005 10.556 13.837 10.469C13.8705 10.3885 13.936 10.311 14.003 10.2745C14.05 10.2475 14.114 10.244 14.557 10.239L15.0565 10.234L15.043 10.323C15.0265 10.4285 15.028 10.8245 15.043 10.9065C15.05 10.9385 15.0585 10.987 15.0635 11.0155C15.085 11.13 15.1455 11.3095 15.2075 11.442C15.362 11.772 15.342 11.7485 17.0495 13.4615C17.9215 14.337 18.6965 15.1 18.7705 15.157C19.057 15.38 19.319 15.4975 19.676 15.5615C19.8305 15.588 20.1005 15.5965 20.2295 15.578C20.4075 15.5515 20.5015 15.531 20.6205 15.4925C21.365 15.2525 21.9085 14.585 21.991 13.812C22.0325 13.4195 21.932 13.146 21.674 12.9445C21.414 12.7435 21.0615 12.7215 20.7665 12.8875C20.525 13.022 20.369 13.287 20.3535 13.582C20.3405 13.8335 20.1475 13.983 19.909 13.9245C19.8305 13.906 19.77 13.847 18.2955 12.376C17.4535 11.5355 16.744 10.8145 16.7205 10.776C16.6415 10.6435 16.672 10.4455 16.7875 10.3345C16.878 10.2475 16.9335 10.236 17.294 10.236C17.6985 10.236 17.816 10.2125 17.9905 10.093C18.517 9.73602 18.47 8.96452 17.903 8.67252C17.7335 8.58502 17.7555 8.58702 15.8685 8.58502C13.9965 8.58502 13.9025 8.58852 13.688 8.64552C13.651 8.65402 13.609 8.66602 13.5955 8.66752C13.5455 8.67902 13.349 8.75652 13.277 8.79302C13.054 8.90552 12.7535 9.15052 12.5945 9.34852C12.4835 9.48752 12.336 9.76452 12.272 9.94902C12.064 10.556 12.15 11.1935 12.5085 11.7305C12.5945 11.8595 12.7435 12.019 13.349 12.626C13.7535 13.032 14.097 13.386 14.1125 13.4145C14.1725 13.532 14.1425 13.7145 14.042 13.822C13.958 13.9125 13.906 13.9325 13.755 13.9325C13.646 13.9325 13.609 13.926 13.562 13.8955C13.53 13.8755 12.358 12.713 10.954 11.311C9.03297 9.39052 8.37897 8.74652 8.30547 8.70252C8.12397 8.59352 7.89747 8.56002 7.68797 8.60852C7.39447 8.67752 7.13297 8.95102 7.07597 9.24602C7.03547 9.45602 7.08597 9.69752 7.20647 9.87502C7.23197 9.91202 8.02497 10.7155 8.97097 11.6615C10.538 13.23 10.692 13.3875 10.7105 13.4565C10.7475 13.589 10.7275 13.691 10.642 13.812C10.558 13.9275 10.338 13.971 10.199 13.899C10.167 13.8805 9.05147 12.7785 7.71997 11.45C5.79947 9.52952 5.27447 9.01452 5.17047 8.94602C4.81797 8.71102 4.46597 8.59702 4.06347 8.58702C3.97247 8.58502 3.89697 8.58352 3.89547 8.58502Z" fill="url(#paint0_linear_26982_171)"/>
<defs>
<linearGradient id="paint0_linear_26982_171" x1="1.99997" y1="12.0875" x2="22" y2="12.0875" gradientUnits="userSpaceOnUse">
<stop stop-color="#FFA888"/>
<stop offset="1" stop-color="#F1E323"/>
</linearGradient>
</defs>
</svg>
