<svg width="24" height="24" viewBox="0 0 24 24" fill="none" xmlns="http://www.w3.org/2000/svg">
<path d="M12.9619 4.62421C13.2813 4.25897 13.8172 4.17598 14.2324 4.42694C17.8292 6.60105 20.1715 10.7518 19.3203 14.4982C20.0925 15.6106 20.402 16.7267 20.4795 17.5705C20.5212 18.0253 20.4998 18.4516 20.416 18.7785C20.3942 18.8637 20.3627 18.9648 20.3145 19.0676C20.2745 19.1526 20.1825 19.3291 20 19.4787C19.7763 19.662 19.3705 19.8233 18.9277 19.634C18.593 19.4907 18.4401 19.2235 18.3896 19.1262L18.3857 19.1174C18.0979 18.549 17.7682 18.4371 17.4639 18.4182C17.1218 18.3969 16.7391 18.5021 16.3828 18.6389C16.3469 18.6637 16.31 18.6879 16.2705 18.7082C15.1069 19.3054 13.8205 19.6241 12.5127 19.6389C11.22 19.6534 9.94215 19.3695 8.77637 18.8117C6.66608 17.9054 4.87991 16.381 3.6543 14.4387C3.39448 14.0269 3.46928 13.4872 3.83105 13.1613C4.19283 12.8358 4.73682 12.8181 5.11914 13.1193C5.46975 13.3955 5.84426 13.6395 6.23828 13.8478L6.6377 14.0441L6.64648 14.048C8.28993 14.8137 9.86126 14.959 11.1465 14.6574C9.23355 12.9693 7.49715 11.0893 5.96582 9.0451C5.63063 8.65736 5.33034 8.24078 5.07031 7.79901C4.82981 7.39041 4.90943 6.86931 5.26074 6.55096C5.61227 6.23263 6.13955 6.20477 6.52246 6.48456C6.59769 6.53952 6.67079 6.59562 6.74414 6.6496C6.70861 6.31908 6.83954 5.97986 7.11523 5.75995C7.51573 5.44051 8.09306 5.47571 8.45215 5.841C10.2818 7.70431 12.2822 9.39144 14.4258 10.8801C14.496 10.137 14.4468 9.38573 14.2754 8.65546C14.0397 7.65144 13.582 6.71294 12.9355 5.90936C12.6314 5.53133 12.6426 4.98944 12.9619 4.62421Z" stroke="#EA580C" stroke-width="2" stroke-linejoin="round"/>
</svg>
