<svg width="24" height="24" viewBox="0 0 24 24" fill="none" xmlns="http://www.w3.org/2000/svg">
<mask id="mask0_38271_220" style="mask-type:luminance" maskUnits="userSpaceOnUse" x="4" y="3" width="16" height="18">
<path d="M19.9446 3H4V21H19.9446V3Z" fill="white"/>
</mask>
<g mask="url(#mask0_38271_220)">
<path d="M15.1175 9.53542C15.1175 10.4793 14.3524 11.2445 13.4084 11.2445C12.4646 11.2445 11.6995 10.4793 11.6995 9.53542C11.6995 8.59163 12.4646 7.82648 13.4085 7.82648C14.3524 7.82648 15.1175 8.59157 15.1175 9.53542Z" fill="#EAB308"/>
<path d="M10.5342 12.7203C9.59033 12.7203 8.8252 13.4855 8.8252 14.4293C8.8252 15.3733 9.59033 16.1383 10.5342 16.1383C11.478 16.1383 12.2432 15.3733 12.2432 14.4293C12.2432 13.4855 11.478 12.7203 10.5342 12.7203Z" fill="#0891B2"/>
<path d="M16.9507 15.012C16.2638 15.4561 15.4996 15.767 14.698 15.9287C14.9303 15.2663 15.0074 14.5593 14.9232 13.8623C16.7888 13.2101 18.0262 11.4356 17.9934 9.45951C17.9603 7.48343 16.6645 5.75101 14.7781 5.16143C12.8918 4.57179 10.8399 5.25772 9.68747 6.86327C8.81794 6.96109 7.97178 7.2081 7.18616 7.59342C8.0397 4.83961 10.5993 2.97228 13.4823 3.00031C16.3653 3.02834 18.8881 4.94505 19.688 7.715C20.4878 10.4849 19.375 13.4516 16.9507 15.012ZM7.26389 8.78192L8.86415 8.97613C8.90045 8.66708 8.96812 8.36254 9.06614 8.06722C8.43314 8.21438 7.8257 8.45527 7.26389 8.78192Z" fill="#EAB308"/>
<path d="M6.98422 8.95291C7.67519 8.50435 8.44485 8.19069 9.25253 8.0285C9.00822 8.69082 8.92047 9.40068 8.99618 10.1025C7.13719 10.764 5.91007 12.5408 5.95012 14.5136C5.9901 16.4863 7.28823 18.2121 9.17256 18.7975C11.0568 19.3829 13.1043 18.6966 14.2552 17.0939C15.1242 16.9985 15.9704 16.7541 16.7565 16.3714C15.9009 19.1224 13.3426 20.9866 10.4618 20.9583C7.58109 20.9301 5.05978 19.016 4.25824 16.2489C3.45665 13.4818 4.56462 10.5165 6.98422 8.95291Z" fill="#0891B2"/>
</g>
</svg>
