<svg width="24" height="24" viewBox="0 0 24 24" fill="none" xmlns="http://www.w3.org/2000/svg">
<path d="M18.532 2.2045C16.0722 2.16973 14.1851 11.9047 14.2372 15.8938C15.0521 13.2091 16.2934 11.5517 17.6032 11.2642C15.4308 13.5323 14.7968 17.5402 15.018 21.36C13.6244 21.6885 12.5714 21.8227 12.2282 21.5517L12.2395 20.1472C12.2825 20.3202 12.346 20.4327 12.4417 20.4506C12.6889 17.3155 11.9401 14.5865 9.26175 13.9107C10.9585 13.8209 11.9932 14.5744 12.8237 16.4053C12.8792 8.86937 15.3648 1.86977 18.532 2.00184C19.0252 2.02243 19.496 2.34989 19.9537 2.96536C19.5512 2.53551 18.9342 2.21016 18.532 2.2045ZM7.05234 17.0262C6.38667 15.5216 5.03984 14.296 4.00854 14.2101C5.55554 15.6138 6.76464 18.3722 6.78062 21.2953C6.47616 20.5753 6.51729 20.505 6.36468 20.1113C6.34058 20.7701 6.49812 20.9569 6.49312 21.9342C7.36757 22.0524 8.19183 22.0359 8.88905 21.6787C8.73402 19.4232 8.75335 17.3379 10.6781 17.1104C9.67511 17.0253 9.20886 17.2308 8.50792 17.7293C8.28226 13.7977 7.54734 9.66696 6.78062 6.08902C6.93944 10.3864 7.06089 14.327 7.05234 17.0262Z" fill="#22C55E"/>
</svg>
