<svg width="24" height="24" viewBox="0 0 24 24" fill="none" xmlns="http://www.w3.org/2000/svg">
<g clip-path="url(#clip0_24689_502)">
<path d="M12.6091 16.7363C12.6091 14.4769 14.4407 12.6454 16.7 12.6454C18.9593 12.6454 20.7909 14.4769 20.7909 16.7363C20.7909 18.9956 18.9593 20.8272 16.7 20.8272C14.4407 20.8272 12.6091 18.9956 12.6091 16.7363Z" fill="#71717A"/>
<path d="M12.6091 7.33639C12.6091 5.07705 14.4407 3.24548 16.7 3.24548C18.9593 3.24548 20.7909 5.07705 20.7909 7.33639V11.0182C20.7909 11.2441 20.6077 11.4273 20.3818 11.4273H13.0182C12.7923 11.4273 12.6091 11.2441 12.6091 11.0182V7.33639Z" fill="#D4D4D8"/>
<path d="M11.3455 16.7363C11.3455 18.9956 9.51389 20.8272 7.25454 20.8272C4.9952 20.8272 3.16364 18.9956 3.16364 16.7363L3.16364 13.0545C3.16364 12.8285 3.34679 12.6454 3.57273 12.6454H10.9364C11.1623 12.6454 11.3455 12.8285 11.3455 13.0545V16.7363Z" fill="#3F3F46"/>
</g>
<defs>
<clipPath id="clip0_24689_502">
<rect width="18" height="18" fill="white" transform="translate(3 3)"/>
</clipPath>
</defs>
</svg>
