<svg
  width="24"
  height="24"
  viewBox="0 0 24 24"
  fill="none"
  xmlns="http://www.w3.org/2000/svg"
>
  <path
    d="M21.9847 8.99999H16.9867C16.796 8.99043 16.6113 8.93001 16.4519 8.82501C16.2924 8.72 16.1639 8.57425 16.0797 8.40285C15.9955 8.23145 15.9587 8.04065 15.9732 7.85024C15.9876 7.65984 16.0527 7.47676 16.1617 7.31999L19.4602 2.31299C19.5104 2.23553 19.5394 2.14626 19.5442 2.0541C19.5491 1.96194 19.5296 1.87012 19.4879 1.78782C19.4461 1.70552 19.3835 1.63562 19.3062 1.58511C19.229 1.53461 19.1399 1.50525 19.0477 1.49999H6.32098C6.23923 1.49664 6.15805 1.51491 6.08562 1.55297C6.01319 1.59103 5.95209 1.64752 5.90848 1.71674L1.58098 8.18699C1.53081 8.26446 1.50186 8.35373 1.49701 8.44589C1.49216 8.53805 1.51158 8.62987 1.55334 8.71217C1.59509 8.79447 1.65772 8.86436 1.73496 8.91487C1.8122 8.96538 1.90134 8.99473 1.99348 8.99999H8.12473C8.31538 9.00969 8.49996 9.0702 8.65935 9.17525C8.81874 9.2803 8.94713 9.42607 9.03121 9.59745C9.11529 9.76883 9.15201 9.95958 9.13755 10.1499C9.12309 10.3403 9.05798 10.5233 8.94898 10.68L5.58898 15.687C5.53862 15.7643 5.50947 15.8535 5.50443 15.9456C5.49939 16.0377 5.51865 16.1296 5.56027 16.2119C5.60189 16.2942 5.66442 16.3642 5.7416 16.4147C5.81877 16.4653 5.90787 16.4947 5.99998 16.5L11.0212 16.5015C11.2875 16.5084 11.5402 16.6207 11.7237 16.8138C11.9073 17.0069 12.0066 17.2649 12 17.5312V21.9817C11.9943 22.086 12.0221 22.1894 12.0793 22.2767C12.1366 22.364 12.2203 22.4307 12.3183 22.467C12.4162 22.5033 12.5232 22.5073 12.6235 22.4784C12.7239 22.4496 12.8123 22.3893 12.876 22.3065L22.3965 9.86699C22.4552 9.78774 22.4913 9.69399 22.5008 9.5958C22.5104 9.49761 22.493 9.39867 22.4507 9.30959C22.4083 9.2205 22.3425 9.14463 22.2602 9.09009C22.178 9.03555 22.0833 9.00441 21.9847 8.99999Z"
    fill="#863BFF"
  />
</svg>
