<svg
  width="24"
  height="24"
  viewBox="0 0 24 24"
  fill="none"
  xmlns="http://www.w3.org/2000/svg"
>
  <path
    d="M11.5785 22.227C11.543 22.2932 11.4933 22.3508 11.4331 22.3958C11.3729 22.4407 11.3035 22.4719 11.2299 22.4872C11.1564 22.5024 11.0803 22.5013 11.0072 22.484C10.9341 22.4666 10.8657 22.4334 10.8067 22.3868L1.7055 15.5662C1.63791 15.5185 1.58358 15.4544 1.54763 15.3798C1.51167 15.3053 1.49528 15.2229 1.5 15.1403V6.88125C1.4981 6.77904 1.52545 6.67842 1.57884 6.59125C1.63222 6.50407 1.70941 6.43396 1.80131 6.3892C1.89321 6.34443 1.99599 6.32686 2.09755 6.33856C2.1991 6.35027 2.29519 6.39075 2.3745 6.45525L7.9275 10.6642C8.05423 10.7522 8.19801 10.8126 8.34955 10.8415C8.50108 10.8704 8.657 10.8672 8.80721 10.8321C8.95743 10.7969 9.09859 10.7307 9.22159 10.6375C9.34459 10.5444 9.44667 10.4265 9.52125 10.2915L14.0977 1.76625C14.1452 1.68557 14.2128 1.61861 14.2939 1.57194C14.375 1.52526 14.4669 1.50047 14.5605 1.5H21.9645C22.0616 1.5054 22.1557 1.53555 22.2378 1.58758C22.32 1.63961 22.3874 1.71179 22.4338 1.79725C22.4802 1.88272 22.5039 1.97863 22.5028 2.07586C22.5016 2.17309 22.4756 2.26841 22.4272 2.35275L11.5785 22.2803V22.227Z"
    fill="#00FF74"
  />
</svg>
