<svg xmlns="http://www.w3.org/2000/svg" width="24" height="24" fill="none" viewBox="0 0 24 24">
  <path fill="#ea580c" fill-rule="evenodd" d="M5.165 13.915c-.268.895-.401 1.341-.368 1.766.03.374.153.733.355 1.045.228.351.601.611 1.35 1.13l3.3 2.297c.666.463 1 .696 1.36.786.318.08.65.08.97.003.36-.09.696-.32 1.364-.78l3.337-2.302c.755-.52 1.133-.78 1.365-1.135.203-.313.325-.675.354-1.052.034-.428-.105-.877-.378-1.777L15.25 4.297c-.142-.466-.212-.699-.348-.872a1.1 1.1 0 0 0-.45-.343C14.256 3 14.022 3 13.553 3h-3.81c-.47 0-.706 0-.904.084-.176.073-.331.192-.45.345-.137.174-.206.408-.345.876l-2.879 9.611m8.537-8.878c.112.145.17.344.284.736l2.51 8.6a10.2 10.2 0 0 0-3-1.058l-1.634-5.762a.22.22 0 0 0-.077-.113.21.21 0 0 0-.253 0 .22.22 0 0 0-.077.113L9.84 13.311c-1.05.19-2.067.549-3.013 1.062L9.35 5.772c.115-.394.172-.59.285-.736.1-.128.23-.228.376-.29.166-.07.363-.07.757-.07h1.8c.395 0 .592 0 .76.07a.94.94 0 0 1 .375.291m-1.946 10.367c.951 0 1.777-.25 2.19-.62a1.96 1.96 0 0 1-.132 1.467c-.265.511-.65.765-.996.994-.435.288-.809.537-.809 1.202 0 .22.048.43.135.615a1.62 1.62 0 0 1-.72-.617c-.175-.275-.27-.599-.27-.93v-.041c0-.46.002-1.026-.62-1.026a.63.63 0 0 0-.465.2.7.7 0 0 0-.194.486c-.698-.73-.637-1.779-.637-1.779 0-.214.021-.548.113-.84.26.51 1.238.888 2.405.888z" clip-rule="evenodd"/>
</svg>
