<svg xmlns="http://www.w3.org/2000/svg" width="24" height="24" fill="none" viewBox="0 0 24 24">
  <g clip-path="url(#a)">
    <mask id="b" width="24" height="24" x="0" y="0" maskUnits="userSpaceOnUse" style="mask-type:luminance">
      <path fill="#fff" d="M24 0H0v24h24z"/>
    </mask>
    <g mask="url(#b)">
      <path fill="#f4aa41" d="m7.837 4.474-1.834.699-2.635 2.853-1.494 3.792.466 1.928c.454 1.37 1.205 2.324 2.55 3.34l.971-.932s1.38 2.784 3.878 3.235c0 0 3.705.7 5.631-.316.538-.284.908-.661 1.19-.937.747-.735 1.094-1.271 1.639-1.892l.603.653.664-.02 1.811-2.611.724-1.831-.008-1.537-.785-2.027-1.745-2.678s-.952-1.537-2.95-1.414c0 0-2.347-1.746-4.272-1.475s-1.304-.245-4.404 1.17"/>
      <path fill="#ea5a47" d="m12 15.876-1.113.872h-.903l.19 1.405.151 1.089.29.847 1.024.541 1.655-.21.31-.796.254-1.51.279-1.306-.723.09z"/>
      <path fill="#3f3f3f" d="m10.736 12.332-.572 1.354.783.451.451.18 1.565.061 1.053-.812-.632-1.174z"/>
      <path fill="#000" d="M9.655 9.873s-.652.448-.993.24a.722.722 0 0 1 .752-1.233c.34.208.24.993.24.993"/>
      <path stroke="#000" stroke-linecap="round" stroke-linejoin="round" stroke-width=".722" d="M10.956 12.363h2.22a.36.36 0 0 1 .332.22l.418.984-.787.414a.36.36 0 0 1-.526-.273M11.552 13.72a.36.36 0 0 1-.492.27l-.836-.344.394-1.049a.36.36 0 0 1 .338-.234M9.99 17.065s-.259 3.176 1.087 3.589c.955.293 1.86.192 2.19-.09.315-.271.95-1.616.659-3.499"/>
      <path fill="#000" d="M14.984 9.873s.652.448.993.24a.722.722 0 0 0-.752-1.233c-.34.208-.24.993-.24.993"/>
      <path stroke="#000" stroke-linecap="round" stroke-linejoin="round" stroke-width=".722" d="M8.253 14.47c-.171 1.3.807 2.076 1.547 2.47.433.23.958.187 1.343-.115l.932-.73.932.73c.385.302.91.345 1.342.115.74-.394 1.72-1.17 1.548-2.47"/>
      <path stroke="#000" stroke-linecap="round" stroke-linejoin="round" stroke-width=".722" d="M6.204 9.24c-.836 1.863-.183 4.704.043 5.553a.7.7 0 0 1-.045.492l-.718 1.514a.72.72 0 0 1-1.203.16c-1.153-1.368-3.09-4.114-2.365-6.026 2.55-6.72 5.73-6.552 5.73-6.552 1.028-.698 4.732-2.505 8.96.316 0 0 3.117-.62 5.394 6.116.652 1.928-1.238 4.647-2.365 6.01a.72.72 0 0 1-1.207-.153l-.713-1.505a.72.72 0 0 1-.046-.492c.227-.849.88-3.689.043-5.552"/>
      <path stroke="#000" stroke-linecap="round" stroke-linejoin="round" stroke-width=".722" d="M18.006 15.778s-1.112 2.428-2.819 2.987M6.019 15.961s1.111 2.196 2.818 2.756M12.075 16.095V15"/>
    </g>
  </g>
  <defs>
    <clipPath id="a">
      <path fill="#fff" d="M0 0h24v24H0z"/>
    </clipPath>
  </defs>
</svg>
