<svg xmlns="http://www.w3.org/2000/svg" width="24" height="24" fill="none" viewBox="0 0 24 24">
  <path fill="#60a5fa" d="M16.92 9.938h-2.49a2.4 2.4 0 0 0-.277-.858q-.21-.381-.54-.648a2.4 2.4 0 0 0-.762-.41 2.9 2.9 0 0 0-.926-.141q-.903 0-1.574.449-.67.443-1.04 1.295-.369.846-.369 2.057 0 1.245.37 2.09.375.847 1.045 1.28.67.43 1.551.431.495 0 .915-.13.426-.132.756-.381.33-.255.545-.62.222-.363.307-.83l2.489.012a4.643 4.643 0 0 1-1.511 2.87 4.8 4.8 0 0 1-1.535.92q-.886.335-2.006.335-1.556 0-2.784-.704-1.221-.705-1.931-2.04-.705-1.335-.705-3.233 0-1.905.716-3.239.716-1.335 1.943-2.034 1.227-.704 2.761-.704 1.013 0 1.875.284.87.284 1.54.83.67.539 1.091 1.323.426.784.546 1.796"/>
</svg>
