<svg xmlns="http://www.w3.org/2000/svg" width="24" height="24" fill="none" viewBox="0 0 24 24">
  <path fill="#22c55e" fill-rule="evenodd" d="M13.934 17.123c.436.16.935.256 1.539.335q.34.042.731.043a9.7 9.7 0 0 0 2.35-.327C16.995 19.487 14.419 21 11.502 21c-4.763 0-8.624-4.03-8.624-9l-.001-.157a4 4 0 0 1 .051-.81C3.633 8.524 5.33 7.595 6.938 7.58c.326-.001.645.044.952.121A5.8 5.8 0 0 0 6.02 12c0 3.158 2.454 5.717 5.48 5.717.874 0 1.7-.214 2.433-.594M8.88 8.11C7.71 8.97 6.944 10.39 6.94 12a4.83 4.83 0 0 0 1.887 3.85c.195-.844.592-1.638 1.168-2.791.255-.51.544-1.088.866-1.772q-.094-.27-.213-.581c-.292-.763-.712-1.649-1.088-2.05a3 3 0 0 0-.68-.545m2.263 4.051c-.086.194-.18.412-.279.644-.346.819-.73 1.815-.87 2.453a4 4 0 0 0-.08.821q0 .187.016.386c.49.188 1.018.291 1.57.292a4.4 4.4 0 0 0 1.438-.244 3 3 0 0 1-.3-.332c-.612-.815-.954-2.01-1.495-4.02" clip-rule="evenodd"/>
  <path fill="#60a5fa" fill-rule="evenodd" d="M4.492 6.76C6.057 4.483 8.612 3 11.5 3c4.763 0 8.624 4.03 8.624 9q-.002.584-.072 1.148c-.235.974-.658 1.623-1.162 2.067-.774.68-1.807.899-2.762.899a6 6 0 0 1-.779-.046A5.83 5.83 0 0 0 16.98 12c0-3.158-2.453-5.717-5.48-5.717-.784 0-1.53.173-2.204.483a4 4 0 0 0-.263-.175c-.379-.222-1.167-.546-2.17-.549a4.25 4.25 0 0 0-2.371.717m9.702 9.076a2.3 2.3 0 0 1-.342-.122c-.178-.08-.44-.355-.679-.737-.362-.57-.695-1.352-.929-1.983-.215-.58-.348-1.028-.37-1.1q-.002-.01-.003-.01v-.003c-.431-1.721-.876-3.295-1.802-4.397.45-.155.931-.242 1.432-.243 2.518.006 4.556 2.132 4.56 4.759a4.83 4.83 0 0 1-1.867 3.836" clip-rule="evenodd"/>
</svg>
