<svg xmlns="http://www.w3.org/2000/svg" width="24" height="24" fill="none" viewBox="0 0 24 24">
  <path fill="#14b8a6" d="M14.846 9.938h-2.489a2.4 2.4 0 0 0-.278-.858q-.21-.381-.54-.648a2.4 2.4 0 0 0-.761-.41 2.9 2.9 0 0 0-.926-.141q-.904 0-1.574.449-.67.443-1.04 1.295-.37.846-.37 2.057 0 1.245.37 2.09.375.847 1.046 1.28.67.43 1.55.431.495 0 .915-.13.428-.132.756-.381.33-.255.546-.62.221-.363.306-.83l2.49.012a4.643 4.643 0 0 1-1.511 2.87 4.8 4.8 0 0 1-1.535.92q-.887.335-2.006.335-1.557 0-2.784-.704-1.222-.705-1.932-2.04-.705-1.335-.705-3.233.001-1.905.716-3.239.716-1.335 1.944-2.034 1.227-.704 2.76-.704 1.012 0 1.876.284.87.284 1.54.83.67.539 1.09 1.323.427.784.546 1.796M19.428 16.47l1.405-8.94h1.339l-1.405 8.94zm-3.836-2.218.222-1.397h6.692l-.221 1.397zm.824 2.217 1.406-8.938h1.338l-1.405 8.938zm-.334-5.324.226-1.397H23l-.226 1.397z"/>
</svg>
