<svg xmlns="http://www.w3.org/2000/svg" width="24" height="24" fill="none" viewBox="0 0 24 24">
  <path fill="#22c55e" d="M9.711 9.551V8.478q.159-.012.318-.014c2.942-.092 4.87 2.531 4.87 2.531s-2.08 2.889-4.313 2.889q-.45 0-.868-.14v-3.259c1.146.14 1.378.643 2.06 1.789l1.53-1.285s-1.12-1.465-3-1.465a4.5 4.5 0 0 0-.597.027m0-3.551v1.603l.318-.02c4.088-.139 6.758 3.353 6.758 3.353s-3.061 3.723-6.248 3.723q-.416-.002-.821-.073v.994c.225.026.457.046.682.046 2.968 0 5.115-1.517 7.195-3.306.344.278 1.755.948 2.047 1.24-1.974 1.655-6.579 2.987-9.189 2.987-.252 0-.49-.013-.729-.04v1.398H21V6zm0 7.745v.848c-2.743-.49-3.505-3.346-3.505-3.346s1.319-1.458 3.505-1.696v.928h-.007c-1.146-.14-2.047.934-2.047.934s.51 1.808 2.054 2.332m-4.87-2.617s1.624-2.399 4.877-2.65v-.875C6.114 7.895 3 10.943 3 10.943s1.762 5.1 6.711 5.564v-.927c-3.63-.45-4.87-4.452-4.87-4.452"/>
</svg>
