<svg xmlns="http://www.w3.org/2000/svg" width="24" height="24" fill="none" viewBox="0 0 24 24">
  <path fill="#38bdf8" fill-rule="evenodd" d="m13.543 3.592 2.951 3.079-10.667-.592 5.447-2.842c.248-.155.63-.237 1.021-.237.454 0 .99.322 1.248.592M5.826 15.67c0 .95.114 1.183.567 1.658l.454.474L9.911 21h7.15v-3.197l-4.993-5.92-6.242-5.804z" clip-rule="evenodd"/>
  <path fill="#075985" fill-rule="evenodd" d="M5.826 6.078h9.08c.624 0 1.077.058 1.587.592l3.632 3.79v7.342h-3.064zM3.442 14.25l2.951 3.08-.567-11.25L3.102 12c-.098.214-.227.589-.227.828 0 .518.217 1.047.567 1.422" clip-rule="evenodd"/>
</svg>
