<svg xmlns="http://www.w3.org/2000/svg" width="24" height="24" fill="none" viewBox="0 0 24 24">
  <path fill="#60a5fa" d="M20.894 10.53c-.052-.044-.537-.434-1.56-.434q-.406.002-.807.074c-.198-1.446-1.32-2.151-1.37-2.183l-.275-.169-.181.278a4 4 0 0 0-.489 1.217c-.183.825-.071 1.6.322 2.263-.475.282-1.238.352-1.392.358H2.517c-.33 0-.598.284-.6.636-.014 1.178.173 2.349.553 3.455.435 1.215 1.082 2.11 1.924 2.657.944.616 2.476.967 4.213.967.785.003 1.569-.073 2.34-.226a9.4 9.4 0 0 0 3.054-1.181 8.5 8.5 0 0 0 2.083-1.817c1-1.206 1.597-2.55 2.04-3.743h.176c1.096 0 1.77-.467 2.14-.858.247-.25.44-.553.565-.89l.078-.245z"/>
  <path fill="#60a5fa" d="M3.687 11.54h1.692c.081 0 .148-.07.148-.157V9.778c0-.087-.066-.158-.147-.159H3.687c-.082 0-.148.07-.148.158v1.606c0 .087.066.157.148.157M6.018 11.54H7.71c.082 0 .148-.07.148-.157V9.778c0-.087-.065-.158-.147-.159H6.017c-.082 0-.148.071-.148.159v1.605c0 .087.067.157.148.157M8.385 11.54h1.692c.082 0 .148-.07.148-.157V9.778c0-.087-.065-.158-.147-.159H8.384c-.081 0-.147.07-.147.158v1.606c0 .087.066.157.147.157M10.724 11.54h1.692c.082 0 .148-.07.149-.157V9.778c0-.088-.067-.159-.149-.159h-1.692c-.081 0-.148.07-.148.158v1.606c0 .087.067.157.148.157M6.018 9.23H7.71c.082 0 .148-.07.148-.157V7.467c0-.086-.066-.157-.148-.157H6.018c-.081 0-.148.07-.148.157v1.606c0 .087.066.157.148.158M8.385 9.23h1.692c.082 0 .148-.07.148-.157V7.467c0-.086-.066-.157-.148-.157H8.385c-.081 0-.147.07-.147.157v1.606c0 .087.066.157.147.158M10.724 9.23h1.692c.082 0 .148-.07.149-.157V7.467c0-.087-.067-.157-.149-.157h-1.692c-.081 0-.148.07-.148.157v1.606c0 .087.066.157.148.158M10.724 6.92h1.692c.082 0 .148-.07.149-.157V5.157c0-.087-.067-.157-.149-.157h-1.692c-.081 0-.148.07-.148.157v1.606c0 .087.067.158.148.158M13.084 11.54h1.692c.081 0 .148-.07.148-.157V9.778c0-.088-.066-.159-.148-.159h-1.692c-.082 0-.148.07-.148.158v1.606c0 .087.066.157.148.157"/>
</svg>
