<svg xmlns="http://www.w3.org/2000/svg" width="24" height="24" fill="none" viewBox="0 0 24 24">
  <path fill="#fff" fill-rule="evenodd" d="M11.897 6.79h9.121v3.691h-9.12z" clip-rule="evenodd"/>
  <path fill="#22c55e" fill-rule="evenodd" d="M3.645 18.842a2.17 2.17 0 0 1-1.879-1.086 2.172 2.172 0 0 0 1.879 3.258h2.172v-2.172z" clip-rule="evenodd"/>
  <path fill="#22c55e" fill-rule="evenodd" d="m13.415 7.373 7.603-.475V5.812c0-1.2-.972-2.172-2.172-2.172H9.074l-.271-.47a.313.313 0 0 0-.543 0l-.272.47-.271-.47a.313.313 0 0 0-.543 0l-.272.47-.271-.47a.313.313 0 0 0-.543 0l-.271.47H5.81l-.45-.449a.313.313 0 0 0-.524.14l-.15.555-.563-.151a.313.313 0 0 0-.384.384l.151.564-.554.148a.313.313 0 0 0-.14.524l.45.45-.001.007-.47.272a.313.313 0 0 0 0 .542l.47.272-.47.271a.313.313 0 0 0 0 .543l.47.272-.47.271a.313.313 0 0 0 0 .543l.47.272-.47.271a.313.313 0 0 0 0 .543l.47.271-.47.272a.313.313 0 0 0 0 .543l.47.271-.47.272a.313.313 0 0 0 0 .543l.47.271-.47.271a.313.313 0 0 0 0 .543l.47.272-.47.271a.313.313 0 0 0 0 .543l.47.272-.47.271a.313.313 0 0 0 0 .543l.47.271-.47.272a.313.313 0 0 0 0 .543l.47.271-.47.272a.313.313 0 0 0 0 .543l.47.271-.47.272a.313.313 0 0 0 0 .543l.47.27c0 1.2.972 2.172 2.172 2.172h13.03c1.199 0 2.171-.972 2.171-2.171v-8.687l-7.603-.475a1.156 1.156 0 0 1 0-2.307" clip-rule="evenodd"/>
  <path fill="#22c55e" fill-rule="evenodd" d="M16.675 21.014h3.257V16.67h-3.257z" clip-rule="evenodd"/>
  <path fill="#22c55e" fill-rule="evenodd" d="M22.104 18.299q-.036.001-.07.007l-.012-.049a.542.542 0 1 0-.537-.931l-.036-.037a.538.538 0 0 0-.325-.856.54.54 0 0 0-.608.32q-.024-.008-.048-.013.006-.034.007-.07a.543.543 0 1 0-1.086 0q.001.036.007.07l-.048.012a.543.543 0 1 0-.933.537 2.172 2.172 0 1 0 3.619 2.089q.034.006.07.007a.543.543 0 0 0 0-1.086M17.76 14.499h3.258v-2.172H17.76z" clip-rule="evenodd"/>
  <path fill="#22c55e" fill-rule="evenodd" d="M22.104 13.684a.272.272 0 1 0 0-.543q-.017 0-.035.004l-.006-.025a.271.271 0 1 0-.268-.465l-.019-.018a.27.27 0 0 0-.006-.334.272.272 0 0 0-.46.065 1.086 1.086 0 1 0 0 2.09.271.271 0 1 0 .466-.269l.019-.018a.27.27 0 0 0 .335-.005.272.272 0 0 0-.067-.46l.006-.025q.018.002.035.003" clip-rule="evenodd"/>
  <path fill="#fde047" fill-rule="evenodd" d="M12.331 21.014h6.515c1.2 0 2.172-.973 2.172-2.172v-7.6h-6.515c-1.2 0-2.172.971-2.172 2.17z" clip-rule="evenodd"/>
  <path fill="#000" stroke="#000" stroke-linejoin="round" stroke-width=".2" d="M6.903 5.441c.803 0 1.457.653 1.457 1.457a.372.372 0 1 1-.744 0 .715.715 0 0 0-1.428 0 .372.372 0 1 1-.742 0c0-.804.653-1.457 1.457-1.457Z"/>
  <path fill="#000" fill-rule="evenodd" d="M19.391 14.607h-5.433a.109.109 0 1 1 0-.217h5.433a.109.109 0 0 1 .077.185.1.1 0 0 1-.077.032m0 2.172h-5.433a.109.109 0 1 1 0-.217h5.433a.109.109 0 1 1 0 .217m0 2.172h-5.433a.109.109 0 0 1-.077-.186.1.1 0 0 1 .077-.032h5.433a.109.109 0 1 1 0 .218m0-5.41h-5.433a.109.109 0 0 1-.077-.185.1.1 0 0 1 .077-.032h5.433a.109.109 0 0 1 .077.186.1.1 0 0 1-.077.032m0 2.152h-5.433a.109.109 0 1 1 0-.217h5.433a.109.109 0 1 1 0 .217m0 2.172h-5.433a.109.109 0 1 1 0-.217h5.433a.109.109 0 1 1 0 .217m1.627-10.032h-.004c-.335.01-.494.346-.634.642-.146.31-.26.511-.444.505-.206-.007-.323-.239-.447-.484-.143-.282-.306-.601-.648-.59-.33.012-.49.304-.63.562-.15.274-.251.441-.448.433-.209-.007-.32-.196-.449-.414-.143-.242-.309-.515-.644-.506-.325.011-.485.259-.626.478-.149.23-.254.372-.452.364-.214-.008-.325-.164-.453-.345-.144-.204-.306-.434-.64-.423-.318.011-.478.214-.619.393-.133.17-.238.304-.459.296a.109.109 0 0 0-.008.217c.328.01.494-.196.638-.379.128-.162.238-.302.455-.31.21-.009.307.121.456.33.14.2.3.426.622.438.337.01.499-.24.643-.464.128-.199.239-.37.45-.378.195-.007.3.147.45.4.141.238.3.508.629.52.339.012.503-.284.646-.546.123-.227.24-.441.447-.448.195-.005.296.173.446.47.14.277.3.591.633.603h.018c.333 0 .49-.333.63-.629.124-.261.241-.508.442-.518z" clip-rule="evenodd"/>
  <path fill="#000" stroke="#000" stroke-linejoin="round" stroke-width=".2" d="M16.745 5.04h.001l.07.021.064.034.003.002.052.042.006.006a1 1 0 0 1 .041.052l.002.003.034.063.002.003.019.067q.006.032.007.072c0 .098-.04.194-.109.262l-.003.004a1 1 0 0 1-.051.042l-.003.002-.064.033a.4.4 0 0 1-.069.021l-.072.008a.4.4 0 0 1-.072-.008l-.07-.02a.4.4 0 0 1-.063-.034l-.003-.002a1 1 0 0 1-.052-.042l-.007-.007a.4.4 0 0 1-.077-.117.4.4 0 0 1-.027-.141v-.001a.4.4 0 0 1 .026-.139l.001-.003a.4.4 0 0 1 .034-.063l.001-.003.071.05.012.007-.082-.057a1 1 0 0 1 .041-.051l.007-.008a1 1 0 0 1 .052-.04l.003-.003a.4.4 0 0 1 .063-.034l.07-.02a.4.4 0 0 1 .142 0Zm2.172-.134v-.001a.4.4 0 0 1 .07.02h.001l.064.034.003.002.05.042.005.004a.38.38 0 0 1 .1.333v.001a.4.4 0 0 1-.02.07l-.002.004-.09-.042.09.042a1 1 0 0 1-.032.06l-.002.002a1 1 0 0 1-.042.052l-.006.007-.067-.075.066.075q-.021.02-.05.042l-.003.002-.064.033a.4.4 0 0 1-.07.02l-.071.008a.38.38 0 0 1-.263-.108l-.003-.003a1 1 0 0 1-.042-.052l-.003-.004a.4.4 0 0 1-.033-.062V5.41a.4.4 0 0 1-.029-.141v-.001c0-.099.041-.193.109-.262l.004-.004a1 1 0 0 1 .052-.042l.003-.002a.4.4 0 0 1 .132-.054.4.4 0 0 1 .143 0Z"/>
  <path fill="#22c55e" fill-rule="evenodd" d="M10.16 21.014h4.343V16.67H10.16z" clip-rule="evenodd"/>
  <path fill="#22c55e" fill-rule="evenodd" d="M16.675 18.299q-.036.001-.07.007l-.012-.049a.543.543 0 0 0-.21-1.044.54.54 0 0 0-.327.113l-.036-.037a.54.54 0 0 0-.013-.667.543.543 0 0 0-.92.13l-.048-.012q.006-.034.007-.07a.543.543 0 1 0-1.086 0q.001.036.007.07l-.048.012a.543.543 0 1 0-.933.537 2.172 2.172 0 1 0 3.619 2.089q.034.006.07.007a.543.543 0 1 0 0-1.086M10.16 14.499h4.343v-2.172H10.16z" clip-rule="evenodd"/>
  <path fill="#22c55e" fill-rule="evenodd" d="M15.589 13.684a.271.271 0 1 0 0-.543q-.018 0-.035.004l-.006-.025a.271.271 0 1 0-.268-.465l-.019-.018a.27.27 0 0 0-.006-.334.272.272 0 0 0-.46.065 1.086 1.086 0 1 0 0 2.09.272.272 0 0 0 .521-.107.27.27 0 0 0-.055-.162l.019-.018a.27.27 0 0 0 .335-.005.272.272 0 0 0-.067-.46l.006-.025q.018.002.035.003" clip-rule="evenodd"/>
</svg>
