<svg xmlns="http://www.w3.org/2000/svg" width="24" height="24" fill="none" viewBox="0 0 24 24">
  <path fill="#22c55e" d="M7.015 11.416a.777.777 0 0 0-.296-1.067.8.8 0 0 0-1.078.3l-2.537 4.426a.777.777 0 0 0 .296 1.067.8.8 0 0 0 1.078-.3zM12.483 8.022a.777.777 0 0 0-.296-1.067.797.797 0 0 0-1.078.3L8.572 11.68a.777.777 0 0 0 .296 1.067.8.8 0 0 0 1.078-.3zM20.896 8.022a.777.777 0 0 0-.295-1.067.8.8 0 0 0-1.079.3l-2.537 4.426a.777.777 0 0 0 .296 1.067.797.797 0 0 0 1.079-.3zM15.427 11.416a.777.777 0 0 0-.296-1.067.8.8 0 0 0-1.078.3l-2.537 4.426a.777.777 0 0 0 .296 1.067.8.8 0 0 0 1.078-.3z"/>
</svg>
