<svg xmlns="http://www.w3.org/2000/svg" width="24" height="24" fill="none" viewBox="0 0 24 24">
  <path fill="#a5b4fc" d="m15.288 9.394-3.64-2.193a.28.28 0 0 0-.295 0l-3.64 2.193a.3.3 0 0 0-.108.113.3.3 0 0 0-.04.153v4.387c0 .11.056.21.147.266l3.64 2.193a.28.28 0 0 0 .295 0l3.64-2.193a.31.31 0 0 0 .148-.267V9.66a.31.31 0 0 0-.148-.266"/>
  <path fill="#4f46e5" d="m2.035 11.392 4.35-7.896c.158-.285.45-.496.765-.496h8.7c.316 0 .607.21.766.496l4.349 7.879a.97.97 0 0 1 0 .931l-4.35 7.831a.85.85 0 0 1-.765.432h-8.7c-.315 0-.607-.142-.765-.427l-4.35-7.844a.92.92 0 0 1 0-.906m3.602 3.797c0 .116.067.223.163.281l5.54 3.336a.3.3 0 0 0 .314 0l5.544-3.336a.34.34 0 0 0 .164-.281V8.518a.34.34 0 0 0-.162-.282l-5.541-3.335a.3.3 0 0 0-.313 0L5.8 8.236a.34.34 0 0 0-.165.282z"/>
</svg>
