<svg xmlns="http://www.w3.org/2000/svg" fill="none" viewBox="0 0 24 24">
  <path fill="#ff9100" d="M8.84 21.64a8 8 0 0 0 2.728.577 8 8 0 0 0 3.653-.736 11.4 11.4 0 0 1-3.561-2.236 6.1 6.1 0 0 1-2.82 2.396"/>
  <path fill="#ffc400" d="M11.66 19.245a11.35 11.35 0 0 1-3.633-9.09 6.1 6.1 0 0 0-3.173.033A8.052 8.052 0 0 0 8.84 21.64a6.1 6.1 0 0 0 2.82-2.396"/>
  <path fill="#ff9100" d="M11.66 19.245a6.075 6.075 0 0 0-3.632-9.09 11.354 11.354 0 0 0 3.632 9.09"/>
  <path fill="#dd2c00" d="M12.272 2.002a11.35 11.35 0 0 0-4.246 8.153 6.075 6.075 0 0 1 3.632 9.09 11.4 11.4 0 0 0 3.562 2.237 8.05 8.05 0 0 0 4.672-7.029c.071-2.034-.71-3.847-1.815-5.378-1.166-1.618-5.805-7.073-5.805-7.073"/>
</svg>
