<svg xmlns="http://www.w3.org/2000/svg" width="24" height="24" fill="none" viewBox="0 0 24 24">
  <path fill="#a855f7" d="M6.718 19.995c-.195-.02-.48-.08-.665-.14a2.76 2.76 0 0 1-1.179-.73 2.76 2.76 0 0 1-.73-1.172C3.989 17.48 4 17.99 4 11.999c0-5.95-.01-5.47.135-5.927a2.8 2.8 0 0 1 .74-1.198 2.8 2.8 0 0 1 1.176-.73C6.517 3.989 6.014 4 12.001 4c5.084 0 5.362.002 5.545.037a2.9 2.9 0 0 1 1.58.837c.447.447.702.922.827 1.543l.047.229v10.706l-.047.23a2.94 2.94 0 0 1-.775 1.494c-.429.447-.912.72-1.54.867l-.223.054-5.313.003c-2.922.001-5.345 0-5.384-.005m6.163-2.393a10 10 0 0 0-.025-.713c-.013-.03-.044-.035-.212-.035-.504 0-1.318-.057-1.495-.103a.53.53 0 0 1-.282-.256c-.065-.147-.079-.489-.092-2.335l-.012-1.788.079.013c.044.007.246.026.45.043.675.057.956.138 1.221.351.131.105.224.263.31.53.143.431.208.817.237 1.393l.015.28h1.4V8.754h-.658c-.495 0-.666.005-.692.025-.025.018-.042.095-.066.29-.114.936-.216 1.258-.486 1.525-.175.174-.268.222-.556.287a4.5 4.5 0 0 1-.906.103l-.341.015V7.126h.167c.093 0 .672.01 1.288.02 1.63.029 2.288.067 2.59.156.492.141.9.472 1.144.927.112.208.155.351.246.809.096.485.131.744.172 1.273.035.445.054.548.108.571.02.008.33.02.692.026l.656.01V5.723H6.169v1.404h.107c.29.001 1.143.042 1.276.06a.6.6 0 0 1 .394.202c.086.095.089.11.116.562.066 1.084.085 2.792.042 3.663-.01.224-.02 1.3-.023 2.392 0 1.091-.01 2.088-.018 2.214-.022.3-.07.389-.267.488-.163.084-.286.099-1.034.135-.434.023-.56.034-.575.055-.01.015-.017.333-.017.706v.676h6.722z"/>
</svg>
