<svg xmlns="http://www.w3.org/2000/svg" width="24" height="24" fill="none" viewBox="0 0 24 24">
  <path fill="#f87171" d="M19.8 11.198 12.269 3.34a1.08 1.08 0 0 0-1.57 0L9.132 4.972l1.984 2.07a1.28 1.28 0 0 1 1.358.33c.369.386.473.942.313 1.425l1.912 1.995a1.28 1.28 0 0 1 1.366.327 1.42 1.42 0 0 1 0 1.95c-.517.54-1.353.54-1.87 0-.388-.405-.484-1-.288-1.5l-1.783-1.86v4.897q.19.097.35.26a1.423 1.423 0 0 1 0 1.951 1.283 1.283 0 0 1-1.87 0 1.42 1.42 0 0 1 0-1.95 1.3 1.3 0 0 1 .433-.302V9.624a1.3 1.3 0 0 1-.433-.3 1.42 1.42 0 0 1-.285-1.509l-1.955-2.04L3.2 11.161a1.195 1.195 0 0 0 0 1.64l7.532 7.858a1.08 1.08 0 0 0 1.571 0L19.8 12.84a1.196 1.196 0 0 0 0-1.64"/>
</svg>
