<svg xmlns="http://www.w3.org/2000/svg" width="24" height="24" fill="none" viewBox="0 0 24 24">
  <path fill="#71717a" fill-rule="evenodd" d="M11.5 2.247c-5.295 0-9.583 4.475-9.583 10 0 4.425 2.743 8.162 6.552 9.487.48.088.66-.212.66-.475 0-.237-.013-1.025-.013-1.862-2.408.462-3.03-.613-3.222-1.175-.108-.288-.575-1.175-.983-1.413-.335-.187-.814-.65-.012-.662.755-.013 1.294.725 1.474 1.025.862 1.512 2.24 1.087 2.791.825.084-.65.335-1.088.611-1.338-2.132-.25-4.36-1.112-4.36-4.937 0-1.088.37-1.988.982-2.688-.096-.25-.431-1.275.096-2.65 0 0 .802-.262 2.635 1.025a8.6 8.6 0 0 1 2.396-.337c.815 0 1.63.112 2.396.337 1.833-1.3 2.635-1.025 2.635-1.025.527 1.375.192 2.4.096 2.65.61.7.982 1.588.982 2.688 0 3.837-2.24 4.687-4.372 4.937.347.313.647.913.647 1.85 0 1.338-.012 2.413-.012 2.75 0 .263.18.575.659.475a9.64 9.64 0 0 0 4.726-3.648 10.3 10.3 0 0 0 1.802-5.84c0-5.524-4.288-10-9.583-10" clip-rule="evenodd"/>
</svg>
