<svg xmlns="http://www.w3.org/2000/svg" width="24" height="24" fill="none" viewBox="0 0 24 24">
  <path fill="#f472b6" d="M11.04 3.842a1.087 1.087 0 0 1 1.893 0l2.177 3.857c.269.477.733.813 1.27.922l4.345.875a1.083 1.083 0 0 1 .585 1.796l-3 3.26a1.88 1.88 0 0 0-.486 1.492l.51 4.398a1.085 1.085 0 0 1-1.531 1.11l-4.031-1.843a1.89 1.89 0 0 0-1.57 0l-4.03 1.843a1.086 1.086 0 0 1-1.531-1.11l.508-4.398a1.88 1.88 0 0 0-.485-1.492l-3-3.26a1.083 1.083 0 0 1 .585-1.796l4.345-.875a1.89 1.89 0 0 0 1.27-.922z"/>
  <path fill="#151515" d="M11.987 2.902c-.508 0-1.015.248-1.295.743L8.516 7.502c-.213.376-.578.64-1.001.726l-4.346.876c-1.115.224-1.57 1.624-.8 2.46l3 3.259a1.48 1.48 0 0 1 .383 1.175l-.51 4.398c-.13 1.128 1.06 1.993 2.096 1.52l4.03-1.842a1.49 1.49 0 0 1 1.237 0l4.031 1.842c1.035.473 2.226-.392 2.095-1.52l-.509-4.398a1.48 1.48 0 0 1 .382-1.175l3-3.26c.77-.836.315-2.235-.8-2.46l-4.345-.875a1.49 1.49 0 0 1-1-.726l-2.177-3.857a1.47 1.47 0 0 0-1.295-.743m0 .775c.23 0 .461.12.597.361l2.177 3.857c.326.579.889.987 1.54 1.118l4.345.876a.67.67 0 0 1 .369 1.132l-3 3.26a2.29 2.29 0 0 0-.589 1.809l.51 4.398a.673.673 0 0 1-.967.7l-4.03-1.843a2.29 2.29 0 0 0-1.904 0l-4.03 1.843a.673.673 0 0 1-.967-.7l.509-4.398a2.29 2.29 0 0 0-.589-1.81l-3-3.26a.67.67 0 0 1 .37-1.131l4.345-.876a2.29 2.29 0 0 0 1.54-1.118l2.176-3.857a.68.68 0 0 1 .598-.36"/>
  <path fill="#151515" stroke="#000" stroke-width=".4" d="M11.475 13.827a.6.6 0 0 1 .47.472l.006.016q.005.007.012.013.007.004.016.005h.017l.015-.005.012-.013.006-.015.034-.112a.6.6 0 0 1 .439-.359.602.602 0 0 1 .705.707 1.24 1.24 0 0 1-.98.976 1.25 1.25 0 0 1-1.204-.434l-.072-.098a1.2 1.2 0 0 1-.184-.448v-.001a.6.6 0 0 1 .708-.705Zm-2.706-1.842a.987.987 0 1 1 0 1.974.987.987 0 0 1 0-1.974Zm6.435 0a.986.986 0 1 1 0 1.973.986.986 0 0 1 0-1.973Z"/>
</svg>
