<svg xmlns="http://www.w3.org/2000/svg" width="24" height="24" fill="none" viewBox="0 0 24 24">
  <path fill="#f472b6" fill-rule="evenodd" d="M11.53 5.564q.249-.001.478-.071l5.161 9.329a1.8 1.8 0 0 0-.479.864H6.368a1.8 1.8 0 0 0-.478-.864l5.162-9.33q.228.071.478.072M6.366 16.532l-.02.076 3.948 2.378a1.67 1.67 0 0 1 1.234-.55c.485 0 .923.211 1.234.55l3.947-2.378-.02-.076zm3.523 3.187L5.942 17.34c-.311.34-.75.55-1.234.55C3.765 17.89 3 17.094 3 16.11c0-.839.555-1.542 1.303-1.732V9.622C3.555 9.433 3 8.73 3 7.891c0-.984.765-1.782 1.708-1.782.485 0 .923.211 1.234.55L9.89 4.281a1.9 1.9 0 0 1-.068-.5c0-.983.764-1.781 1.707-1.781s1.708.798 1.708 1.782q-.001.26-.068.5l3.947 2.377a1.67 1.67 0 0 1 1.234-.55c.943 0 1.707.798 1.707 1.782 0 .838-.554 1.541-1.302 1.731v4.756c.748.19 1.302.893 1.302 1.731 0 .984-.764 1.782-1.707 1.782a1.67 1.67 0 0 1-1.234-.55l-3.947 2.378q.067.238.068.5c0 .983-.765 1.781-1.708 1.781s-1.707-.798-1.707-1.782q0-.26.068-.5M5.114 9.622c.747-.19 1.301-.893 1.301-1.731q0-.26-.068-.499l3.948-2.378.054.055-5.162 9.33-.073-.021zm12.757 4.776.073-.02V9.622c-.747-.19-1.302-.893-1.302-1.731q.001-.26.068-.5l-3.947-2.377-.053.055z" clip-rule="evenodd"/>
</svg>
