<svg xmlns="http://www.w3.org/2000/svg" width="24" height="24" fill="none" viewBox="0 0 24 24">
  <path fill="#db2777" fill-rule="evenodd" d="M11.357 1.895h.125l.012.001h.015l.012.001h.014l.013.001h.002l.012.001h.002l.012.001.013.002h.014l.013.002h.015l.013.002h.015l.012.002h.015l.013.002h.002l.012.001h.002l.012.002h.001l.012.002h.002l.011.001h.002l.012.002h.002l.013.001.013.002h.001l.013.001h.001l.012.002.002.001.012.002h.002l.012.002.013.002h.002l.012.002h.001l.012.002h.001l.013.003h.001l.012.002h.002l.012.002h.001l.012.003h.002l.012.002h.001l.012.003h.002l.012.003h.001l.012.002H12l.012.003.013.003h.002l.012.003h.001l.012.003h.002l.012.003h.001l.013.004.013.003h.001l.012.003h.001l.013.004h.001l.012.003h.002l.011.003h.002l.012.004h.001l.012.004h.002l.011.003h.002l.012.004h.001l.013.003h.001l.012.004h.002l.012.003h.001l.012.005h.002l.012.004h.001l.012.004h.001l.012.004h.002l.012.004h.001l.012.004.002.001.012.004.013.005h.001l.012.004h.002l.012.004h.001l.012.005h.002l.012.005.013.004h.001l.012.005h.001l.012.005h.001l.012.004.001.001.012.004h.001l.012.005h.001l.012.006h.002l.011.005h.001l.012.004.001.001.013.005h.001l.012.005h.002l.011.005h.002l.011.006h.001l.012.005h.001l.012.006h.002l.011.006h.002l.012.005h.001l.012.006h.001l.012.006.012.006h.001l.012.005h.001l.012.006h.001l.012.006h.001l.012.006.012.006h.002l.011.006h.002l.011.006h.001l.012.007.012.006h.002l.011.006h.002l.011.006.002.001.011.006h.001l.012.007.012.006h.001l.011.007h.002l.011.006h.001l.012.007h.001l.011.007.002.001.011.006h.002l.011.007h.001l.011.007h.002l.011.007.001.001.011.007.002.001.01.007h.002l.011.007h.001l.011.007.001.002.011.006.002.001.01.007h.001l5.672 3.478.01.005v.001l.01.006h.001l.01.007.01.007.01.006.01.007.01.006.01.006.01.007.01.007h.001l.01.006.01.007.01.007v.001l.009.006h.002l.008.007h.002l.009.007.009.006h.001l.008.007h.002l.008.007.001.001.009.006.009.008h.002l.008.007h.001l.009.007.01.006V6l.009.007.01.007.009.007.01.008.009.008h.001l.009.007h.001l.009.008.01.008.008.007.002.001.008.008.002.001.016.014.002.001.016.015.002.001.016.014.002.002.017.014.002.001.016.015.002.002.016.014.002.001.015.015.002.001.016.015.002.002.015.015.002.001.015.015.002.002.016.015.002.002.015.015.002.002.015.015.002.002.015.015.002.003.014.015.002.002.014.016.002.002.015.016.002.002.014.015.002.003.014.015.002.002.014.016.002.002.014.016.002.002.013.017.002.002.014.016.002.002.013.017.002.002.014.017.001.002.014.017.002.002.013.017.001.002.013.016.002.002.013.018.002.002.012.017.002.002.012.017.002.002.012.018.002.002.012.018.002.002.012.017.002.003.012.018.001.002.012.018.002.002.012.017.001.003.012.018.001.002.012.019.001.002.011.018.002.002.011.018.002.002.011.018.002.002.01.019.002.002.01.019.002.002.011.019.002.002.01.018.002.003.01.019.002.002.01.019.001.002.01.02.002.002.01.019.001.002.01.019.001.003.01.019.001.003.01.019v.002l.01.02.002.002.009.02v.002l.01.02.001.002.01.02v.002l.01.02v.003l.009.02v.002l.01.02v.003l.009.02v.002l.009.02v.003l.009.02v.002l.008.02.001.003.008.02v.002l.008.02.001.003.008.02v.003l.008.02.001.003.007.02.001.003.007.02v.003l.007.02.001.003.007.02v.003l.007.021v.003l.007.02v.003l.007.02v.003l.006.021.001.003.006.02.001.003.006.021v.003l.006.02v.003l.006.021v.003l.006.022v.002l.006.022v.002l.005.022.001.002.005.022v.003l.005.021v.003l.005.021v.003l.005.021v.003l.004.021v.003l.005.022v.002l.004.022v.003l.004.021v.003l.004.022v.003l.003.022.001.003.003.022v.002l.002.011v.014l.002.01v.002l.002.011v.002l.001.01v.002l.002.011v.002l.001.01v.002l.002.01v.002l.001.011v.002l.001.01v.002l.002.011v.002l.001.01v.002l.001.011v.002l.001.01v.002l.001.011v.002l.001.01v.015l.001.011v.002l.001.012v.013l.001.011v.014l.001.011v.015l.001.01v.014l.001.011v7.32l-.001.012v.013l-.001.013v.013l-.001.012v.013l-.001.002v.013l-.001.011v.015l-.002.012v.015l-.002.011v.015l-.001.011v.002l-.001.012v.001l-.001.012v.001l-.001.012-.002.013v.001l-.001.012v.001l-.001.012v.001l-.002.012v.001l-.002.012-.001.012v.002l-.002.011V16l-.002.012v.002l-.002.011v.002l-.002.011v.002l-.001.011v.002l-.002.011v.002l-.002.011v.002l-.002.011v.002l-.002.01v.002l-.002.012v.001l-.002.011v.002l-.002.012-.002.012v.001l-.002.012-.002.012v.002l-.002.01v.002l-.002.011v.002l-.003.011v.002l-.003.011v.001l-.002.012v.001l-.002.011v.002l-.003.011v.001l-.002.012-.003.012-.002.012v.001l-.003.011v.002l-.003.01v.002l-.003.011v.001l-.003.011v.001l-.003.011v.002l-.003.01v.002l-.003.011v.002l-.004.01v.002l-.003.012v.002l-.003.01v.002l-.003.011v.002l-.004.01v.002l-.003.012-.004.012-.003.012v.001l-.004.011v.002l-.004.01v.002l-.003.01v.002l-.004.011v.001l-.004.011v.002l-.004.01v.002l-.004.011v.002l-.004.01v.002l-.004.011v.001l-.004.011v.002l-.004.01v.003l-.004.01v.002l-.004.01v.002l-.004.011v.002l-.004.01v.002l-.004.01v.002l-.004.01v.002l-.004.01v.002l-.005.011v.002l-.004.01v.002l-.005.01v.002l-.004.01v.002l-.005.01v.002l-.004.01v.002l-.005.01v.001l-.005.01v.002l-.005.011v.002l-.004.01v.002l-.005.01v.002l-.005.01v.002l-.005.01v.001l-.005.01v.002l-.005.01v.002l-.005.01v.001l-.005.01v.002l-.005.01v.001l-.006.01v.002l-.005.01v.001l-.005.01v.002l-.006.01v.001l-.005.01v.002l-.005.01V17l-.006.01v.001l-.005.01v.001l-.006.01v.002l-.005.01v.002l-.006.01v.002l-.006.01v.001l-.005.01v.002l-.006.01v.002l-.006.01v.001l-.006.01v.001l-.006.01v.001l-.006.01-.001.001-.005.01-.001.001-.005.01-.001.002-.006.01-.006.01v.002l-.006.01v.001l-.006.01-.001.001-.005.01-.001.001-.005.01-.001.002-.006.01-.006.01v.001l-.006.01h-.001l-.006.01v.002l-.007.01-.007.01v.001l-.006.01-.001.002-.006.01h-.001l-.006.01-.007.01v.002l-.006.009-.001.001-.007.01-.006.01v.001l-.007.01-.007.01-.007.01v.001l-.007.01h-.001l-.006.01v.001l-.007.01-.001.001-.006.01h-.001l-.007.01v.001l-.007.01h-.001l-.007.01v.001l-.007.01-.007.01h-.001l-.007.01-.007.01h-.001l-.007.01-.007.01-.008.01v.001l-.008.009-.008.01-.007.01h-.001l-.007.01h-.001l-.007.01h-.001l-.007.01h-.001l-.007.01-.008.01-.008.01h-.001l-.007.01h-.001l-.007.01h-.001l-.007.01h-.001l-.007.009-.001.001-.007.008-.001.001-.008.01-.008.01-.008.01h-.001l-.007.01h-.001l-.008.008v.002l-.008.008h-.002l-.007.01h-.001l-.008.009-.008.01h-.001l-.008.009-.008.009-.001.001-.008.008v.001l-.009.009-.008.01h-.001l-.008.008v.001l-.009.008-.001.001-.008.009h-.001l-.008.009h-.001l-.008.01h-.001l-.008.008-.001.001-.008.008h-.001l-.008.009h-.001l-.008.009h-.001l-.008.009h-.001l-.008.008-.001.001-.009.008-.009.009-.01.009-.009.008-.01.009-.009.008-.001.001-.009.007v.002l-.01.007v.001l-.009.008v.001l-.01.008V18l-.009.007v.002l-.01.007-.01.008-.009.008-.001.001-.009.007v.001l-.01.008-.009.008v.001l-.01.007v.002l-.01.006v.001l-.01.008-.01.008v.001l-.01.007v.001l-.01.008-.01.007-.01.007-.01.008h-.001l-.009.007-.001.001-.009.007h-.001l-.009.008h-.001l-.009.007-.002.002-.008.006h-.002l-.009.008h-.002l-.009.007h-.001l-.01.008-.01.007-.001.001-.01.007-.01.008h-.001l-.01.007-.01.007h-.002l-.01.007-.01.007v.001l-.01.006h-.001l-.01.007h-.001l-.01.007-.01.007H18.7l-.01.007v.001l-.01.006-.002.001-.01.007-.01.006h-.002l-.01.007-.01.007-.002.001-.01.006-.01.006-.002.001-.01.006h-.001l-.01.006h-.001l-.01.006-5.804 3.375-.01.006-.01.006-.002.001-.01.006-.01.005h-.001l-.01.006h-.001l-.01.006h-.001l-.01.006h-.001l-.01.005-.01.006h-.001l-.01.005-.01.006-.002.001-.01.005-.01.006-.01.005h-.001l-.01.006-.011.005h-.001l-.01.005-.01.005h-.002l-.009.005h-.001l-.01.006h-.001l-.01.005h-.001l-.01.005h-.001l-.01.005-.001.001-.01.005h-.002l-.01.005-.01.005h-.001l-.01.005h-.001l-.01.004h-.001l-.01.005h-.002l-.01.005h-.001l-.01.004-.002.001-.01.004-.01.004h-.001l-.01.005h-.002l-.01.005h-.001l-.01.004h-.002l-.01.005h-.001l-.01.004h-.002l-.01.005-.01.004h-.002l-.01.004h-.002l-.01.004h-.001l-.01.004h-.001l-.01.004-.01.004h-.002l-.01.004h-.002l-.01.003-.01.004-.002.001-.01.003h-.002l-.01.004h-.001l-.01.004h-.002l-.01.004H12.2l-.02.006-.003.002-.02.006h-.003l-.02.007h-.003l-.02.006h-.003l-.02.007h-.003l-.02.006h-.004l-.02.006h-.003l-.02.005h-.003l-.02.006h-.003l-.02.005h-.003l-.021.006h-.003l-.021.005h-.003l-.02.004-.003.001-.02.004h-.003l-.02.004h-.003l-.021.005h-.003l-.02.004h-.003l-.021.003h-.003l-.021.004h-.002l-.021.004h-.003l-.021.003h-.003l-.021.003-.003.001-.02.003h-.003l-.021.003-.021.002h-.003l-.02.001-.003.001-.021.002h-.003l-.02.001h-.003l-.021.002h-.003l-.021.002h-.026l-.021.002h-.05l-.021.001h-.12l-.02-.001h-.001l-.021-.001h-.003l-.02-.002h-.024l-.003-.001-.02-.001h-.003l-.021-.002h-.003l-.02-.003h-.004l-.02-.002h-.004l-.02-.003h-.003l-.021-.002h-.003l-.02-.003h-.003l-.021-.003h-.003l-.021-.002h-.003l-.021-.004h-.003l-.02-.004h-.003l-.021-.003h-.003l-.021-.004h-.002l-.021-.004h-.002l-.02-.004h-.003l-.02-.005h-.003l-.02-.005h-.003l-.02-.004h-.004l-.02-.005h-.003l-.02-.005-.004-.001-.02-.005h-.003l-.02-.006h-.003l-.02-.006-.003-.001-.02-.006h-.003l-.02-.006-.003-.001-.02-.006h-.003l-.02-.007h-.003l-.02-.007-.004-.001-.02-.006-.003-.001-.02-.007h-.003l-.02-.007h-.003l-.02-.007h-.002l-.01-.004h-.002l-.01-.003-.001-.001-.01-.004h-.002l-.01-.004h-.001l-.01-.004h-.002l-.01-.004h-.001l-.01-.004h-.001l-.01-.005h-.001l-.01-.004h-.001l-.01-.005h-.002l-.01-.004h-.001l-.01-.005h-.001l-.01-.005h-.002l-.01-.004-.01-.005h-.002l-.01-.005h-.001l-.01-.004h-.001l-.01-.005h-.002l-.01-.005h-.001l-.01-.005H10.2l-.01-.004h-.001l-.01-.005h-.001l-.01-.005h-.002l-.01-.005-.01-.006h-.001l-.01-.005h-.001l-.01-.005h-.002l-.01-.005-.01-.005H10.1l-.01-.005-.001-.001-.01-.005-.01-.005h-.001l-.01-.005-.001-.001-.01-.006h-.001l-.01-.005h-.001l-.01-.006h-.001l-.01-.006h-.001l-.01-.006h-.001l-.01-.005h-.001l-.01-.006-.01-.006H9.97l-.01-.006-.01-.006-.01-.006h-.002l-.01-.006-.01-.006-.001-.001-.01-.005h-.001l-.01-.006h-.001l-.01-.006h-.001l-.01-.006h-.001l-.01-.006v-.001l-.01-.006-5.246-3.195-.001-.001-.011-.007h-.001l-.011-.007h-.002l-.011-.008h-.002l-.01-.007h-.002l-.01-.008-.002-.001-.01-.008h-.002l-.01-.008H4.52l-.011-.007-.002-.001-.01-.008h-.002l-.01-.008h.002l-.011-.007-.002-.001-.01-.008h-.002l-.01-.008H4.45l-.011-.009h-.002l-.01-.009h-.002l-.01-.008-.002-.001-.01-.008H4.4l-.01-.009h-.002l-.01-.009h-.002l-.01-.008-.001-.002-.01-.007-.002-.002-.01-.007-.002-.001-.01-.008H4.33l-.01-.008-.001-.002-.01-.007-.001-.002-.01-.007h-.002l-.01-.009h-.002l-.01-.01h-.001l-.01-.008-.002-.001-.01-.008-.002-.001-.01-.009-.01-.01h-.002l-.01-.008v-.001l-.01-.008-.002-.002-.01-.008-.01-.01h-.002l-.01-.009h-.001l-.01-.009-.001-.001-.01-.009H4.15l-.01-.009h-.001l-.01-.01-.01-.01h-.002l-.01-.009-.01-.01h-.002l-.01-.008v-.001l-.01-.009h-.001l-.01-.01-.01-.01h-.001l-.01-.01-.01-.01h-.001l-.01-.01-.01-.01H4.01l-.01-.01H4l-.01-.01-.01-.01-.01-.01-.001-.001-.01-.01-.01-.01v-.001l-.01-.01-.01-.01h-.001l-.01-.01-.01-.01v-.001l-.01-.01-.01-.01v-.001l-.01-.01-.01-.01v-.001l-.009-.01-.01-.01v-.001l-.01-.01-.01-.01v-.002l-.009-.01-.01-.01v-.002l-.01-.01-.009-.01-.001-.002-.008-.01H3.78l-.009-.01-.001-.002-.008-.01h-.001l-.008-.01-.001-.002-.009-.01-.01-.011v-.001l-.009-.01-.001-.001-.009-.01v-.002l-.009-.01-.008-.01-.001-.002-.008-.01-.001-.001-.009-.01v-.002l-.009-.01-.01-.01v-.001l-.008-.01-.001-.001-.008-.01-.001-.002-.008-.01-.001-.001-.008-.01-.001-.002-.008-.01-.001-.001-.008-.01v-.002l-.008-.01-.001-.001-.008-.01v-.002l-.008-.01v-.001l-.008-.011-.001-.001-.008-.01v-.002l-.008-.01v-.001l-.008-.011v-.001l-.008-.011v-.001l-.008-.01v-.002l-.008-.01-.001-.001-.008-.011v-.001l-.008-.011-.001-.002-.007-.01-.001-.002-.007-.01-.001-.002-.007-.01-.001-.002-.007-.01v-.002l-.008-.01v-.002l-.008-.011v-.002l-.008-.01v-.002l-.008-.01v-.002l-.008-.01v-.002l-.007-.01v-.002l-.007-.01-.001-.002-.007-.011-.001-.002-.007-.01v-.002l-.008-.011v-.002l-.007-.01v-.002l-.007-.01-.001-.002-.007-.011-.001-.002-.006-.01-.001-.002-.006-.011-.001-.001-.006-.011-.001-.002-.007-.011-.001-.002-.006-.011-.002-.002-.006-.012-.007-.012v-.001l-.007-.012-.006-.012v-.002l-.007-.011v-.002l-.007-.011v-.002l-.006-.012-.007-.012v-.002l-.006-.011v-.002l-.007-.012v-.001l-.006-.012v-.001L3.26 17v-.002l-.007-.012-.006-.013-.006-.012v-.002l-.006-.012-.006-.011v-.002l-.006-.012v-.001l-.006-.012v-.002l-.006-.012-.006-.013-.006-.013-.006-.013-.006-.013-.006-.013v-.001l-.005-.012v-.002l-.006-.011v-.002l-.006-.012v-.001l-.006-.012v-.001l-.005-.012v-.002l-.006-.012-.005-.013-.005-.013v-.002l-.005-.012v-.001l-.006-.012v-.002l-.005-.011v-.002l-.005-.012v-.001l-.005-.013v-.001l-.005-.013v-.001L3.1 16.63v-.002l-.005-.013-.005-.013V16.6l-.005-.013v-.001l-.005-.013-.004-.014v-.001l-.005-.013v-.001l-.005-.013v-.001l-.004-.013-.005-.013v-.001l-.004-.013v-.002l-.005-.012v-.002l-.004-.012v-.002l-.005-.012v-.002l-.004-.012v-.002l-.004-.012v-.001l-.005-.014v-.001l-.004-.013v-.002l-.004-.012v-.002l-.004-.012v-.002l-.004-.013v-.002l-.004-.013-.004-.014-.004-.013v-.001l-.003-.013-.004-.013v-.002l-.003-.012v-.002l-.003-.013v-.001l-.004-.013v-.001l-.003-.013-.003-.013v-.002l-.003-.012v-.002l-.004-.013-.003-.014-.003-.013v-.002l-.003-.013v-.002l-.003-.013v-.001l-.004-.013v-.001l-.003-.013v-.002l-.003-.013v-.002l-.003-.013-.002-.013v-.001l-.003-.014v-.001l-.002-.013v-.002l-.004-.012v-.002l-.002-.014v-.002l-.003-.013v-.002l-.003-.013v-.002l-.002-.013v-.001l-.002-.013v-.002l-.002-.013-.001-.001-.002-.014v.001l-.002-.013v-.001l-.002-.013v-.002l-.002-.013v-.001l-.002-.013v-.001l-.001-.014v-.002l-.002-.013-.002-.014v-.002l-.002-.013v-.001l-.001-.014-.001-.002-.001-.013v-.002l-.002-.013v-.002l-.002-.013v-.002l-.001-.014h-.001l-.001-.014-.001-.014v-.001l-.002-.014v-.002l-.002-.013v-.002l-.001-.013v-.002l-.001-.013v-.002l-.001-.014v-.001l-.001-.014-.001-.013v-.002l-.001-.013v-.002l-.002-.014v-.047l-.001-.013v-.002l-.001-.014v-.029l-.001-.014V8.79l.001-.013v-.063l.001-.014v-.016l.001-.014v-.016l.001-.014V8.64l.001-.014v-.002l.001-.013v-.017l.002-.013v-.032l.002-.014v-.016l.002-.014v-.002l.001-.013v-.001l.002-.014.001-.014v-.001l.002-.014v-.002l.002-.013v-.002l.001-.013v-.001l.002-.014.001-.015v-.001l.002-.014V8.37l.002-.013v-.002l.001-.013v-.002l.002-.014v-.001l.002-.013v-.002l.002-.013v-.002l.001-.014V8.28l.002-.013v-.002l.003-.013V8.25l.002-.014v-.001l.002-.014.002-.014v-.001l.003-.013V8.19l.003-.013v-.002l.003-.013V8.16l.002-.013.003-.014.002-.014v-.001l.003-.014.003-.014V8.09l.003-.013v-.002l.003-.013v-.001l.003-.013v-.002l.002-.013.003-.014.004-.014v-.001l.003-.013v-.002l.003-.013v-.002l.003-.013V7.96l.003-.013v-.002l.004-.013V7.93l.003-.013.003-.014.003-.014v-.001l.004-.013v-.001l.004-.013v-.002l.003-.013v-.001l.004-.013V7.83l.004-.013v-.001l.004-.013v-.001l.004-.013v-.001l.004-.013v-.002l.004-.013.004-.014.004-.013v-.001l.004-.013v-.001l.004-.013v-.002l.005-.012v-.002l.004-.013.004-.013V7.66l.004-.012v-.001l.005-.013v-.001l.004-.013V7.62l.005-.012v-.002l.004-.012v-.001l.005-.013.005-.013v-.002l.004-.012V7.55l.005-.013.005-.013v-.001l.005-.013V7.51l.005-.012v-.002l.005-.013.005-.013v-.002l.005-.012.006-.013v-.001l.005-.013v-.001l.006-.013v-.002l.005-.012v-.002l.006-.012v-.002l.005-.012V7.37l.006-.012v-.002l.005-.012v-.001l.006-.012V7.33l.005-.012v-.001l.006-.013v-.001l.006-.012V7.29l.006-.012v-.002l.006-.012.006-.013.006-.013.006-.013v-.001l.006-.012V7.21l.006-.012v-.001l.006-.012v-.001l.006-.012V7.17l.006-.012v-.001l.006-.012v-.001l.006-.012h.001l.006-.013.001-.001.006-.012v-.002l.006-.012.001-.001.006-.012.007-.012v-.001l.006-.012v-.001l.007-.012.007-.012v-.002l.006-.011.001-.001.006-.012.007-.012V6.99l.007-.011v-.002l.007-.011v-.001l.007-.012.007-.012V6.94l.007-.012.007-.012v-.001l.007-.012h.001l.007-.012V6.89l.007-.012.007-.012v-.001l.008-.012v-.001l.008-.012.007-.012.008-.012.007-.012v-.001l.008-.011V6.79l.007-.01.001-.002.007-.011.001-.001.007-.011v-.002l.008-.01V6.74l.007-.01v-.002l.008-.01.001-.002.007-.01.001-.002.008-.01v-.002l.008-.01V6.68l.008-.01v-.002l.008-.01v-.002l.008-.01v-.002l.008-.01.001-.002.008-.01v-.001l.008-.011V6.61l.008-.01.001-.002.008-.01v-.001l.008-.01.001-.002.008-.01v-.001l.008-.01v-.002l.009-.01V6.54l.009-.01v-.002l.009-.01v-.001l.009-.01v-.002l.009-.01v-.002l.009-.01v-.001l.008-.01.001-.002.008-.01.001-.001.008-.01.001-.001.008-.01.001-.002.008-.01.001-.001.009-.01.001-.001.008-.01.001-.002.008-.01h.001l.008-.011.001-.001.009-.01v-.002l.009-.01.01-.01v-.001l.009-.01v-.001l.01-.01v-.001l.008-.01.001-.001.009-.01v-.001l.01-.01v-.001l.008-.01.001-.001.01-.01V6.27l.009-.01V6.26l.01-.01h.001l.01-.01v-.002l.01-.01.01-.01v-.001l.01-.01.01-.01v-.001l.01-.01.01-.01.01-.01v-.001l.01-.01.01-.01v-.001l.01-.01.01-.01v-.001l.01-.01.01-.01h.001l.01-.01.01-.01h.001l.01-.01.01-.01h.001l.01-.009v-.001l.01-.009.001-.001.01-.009.01-.01h.001l.01-.01H4.1l.01-.01h.001l.01-.01h.001l.01-.008.002-.002.01-.008.01-.01h.001l.01-.009h.001l.01-.01h.001l.01-.008.001-.001.01-.008.001-.001.01-.009h.001l.01-.01h.002l.01-.009.011-.009.001-.001.01-.008.002-.001.01-.009.011-.009h.001l.01-.01h.001l.01-.008.002-.001.01-.008.001-.001.01-.008h.002l.01-.009h.002l.01-.008.001-.001.01-.008h.002l.01-.01h.001l.011-.008h.001l.01-.008.002-.001.01-.008h.002l.01-.008h.001l.011-.009h.001l.01-.008h.002l.01-.008h.002l.01-.009h.002l.01-.008.002-.001.01-.008h.002l.01-.008h.002l.011-.008.001-.001.011-.007h.001l.011-.008h.001l.011-.008h.001l.012-.008h.001l.011-.007 5.032-3.239.011-.007h.001l.011-.008.002-.001.01-.007h.002l.011-.008h.002l.01-.007.002-.001.012-.007.012-.008h.001l.011-.007h.001l.012-.007.012-.007.001-.001.011-.006h.002l.011-.007.001-.001.011-.006.002-.002.01-.006h.002l.011-.007.001-.001.012-.006.012-.007h.001l.011-.007h.002l.011-.007h.002l.011-.007h.001l.012-.006h.001l.012-.006h.001l.011-.006h.002l.011-.007h.001l.012-.006h.001l.012-.006.001-.001.012-.006h.001l.012-.006h.001l.012-.006h.001l.012-.006h.001l.011-.006h.001l.012-.006h.002l.011-.006h.002l.011-.006h.002l.011-.006h.002l.011-.005h.002l.011-.006h.002l.011-.005h.002l.011-.006h.002l.012-.006h.001l.012-.005.002-.002.011-.004h.001l.012-.005.002-.001.011-.005h.001l.012-.005h.002l.012-.005h.001l.012-.005h.002l.012-.005h.001l.012-.005h.002l.012-.004.001-.001.012-.004h.001l.012-.005h.002l.011-.005h.002l.012-.004.013-.005h.001l.012-.005h.002l.012-.004h.001l.012-.005h.001l.012-.004h.002l.012-.004h.001l.013-.004h.001l.012-.004h.001l.012-.004h.001l.012-.004h.002l.011-.004h.002l.012-.004.002-.001.011-.003h.002l.012-.004h.001l.012-.004h.001l.013-.004.013-.003h.001l.013-.003h.001L10.553 2h.001l.012-.004h.002l.012-.003h.002l.012-.003h.001l.012-.003h.002l.012-.004h.001l.012-.003h.002l.012-.002.001-.001.012-.003h.001l.012-.002h.002l.012-.003h.001l.013-.003.013-.003h.002l.012-.003h.002l.012-.003h.002l.012-.002h.001l.013-.003h.002l.012-.003h.002l.011-.002h.002l.012-.002h.002l.012-.003h.001l.012-.002h.002l.012-.002h.002l.012-.003h.002l.012-.002h.002l.012-.002h.002l.012-.002h.002l.012-.001h.001l.013-.002h.001l.013-.002.013-.001h.002l.012-.002h.001l.012-.001h.002l.012-.002h.002l.012-.002h.015l.013-.002h.001l.013-.002h.001l.013-.001h.001l.013-.001h.001l.013-.001h.001l.013-.001h.001l.013-.002h.015l.012-.002h.029l.013-.001h.014l.001-.001h.014l.013-.001h.015l.013-.001h.014l.013-.001h.058zm-.011 1.41h-.05l-.009.001h-.009l-.008.001h-.008l-.009.001h-.008l-.008.001h-.008l-.008.001h-.008l-.009.002-.008.001-.008.001-.009.001-.008.001-.009.001-.008.001-.008.001-.008.001-.008.001-.009.001-.008.001-.008.002h-.008l-.008.002h-.008l-.008.002-.008.001-.009.002-.008.001-.008.002-.008.002-.008.001-.008.002-.008.001-.008.001-.008.002-.008.001-.009.002-.008.002-.008.001-.008.002-.008.002-.008.002-.008.002-.008.002-.008.001-.008.002-.008.002-.008.002-.008.002-.008.003-.008.002-.008.002-.008.002-.008.002-.008.002-.008.003-.008.002-.008.002-.008.003-.008.003-.008.002-.008.003-.008.002-.008.003-.007.003-.008.002-.008.003-.008.003-.008.003-.008.003-.008.002-.008.003-.008.003-.008.003-.008.003-.008.003-.007.003-.008.003-.008.003-.007.003-.008.004-.008.003-.008.003-.008.004-.008.003-.007.003-.008.004-.008.004-.007.003-.008.004-.008.004-.007.003-.008.004-.008.004-.007.003-.008.004-.008.004-.008.003-.007.004-.008.004-.007.004-.008.004-.007.004-.008.004-.007.004-.008.004-.007.004-.008.004-.007.005-.008.004-.007.004-.007.005-.007.004-.008.005-.007.004-.008.005-.007.004-.007.005-.007.005-.008.004-.007.005-.008.005L5.29 6.852l-.009.005-.008.005-.007.006-.008.005-.007.005-.008.005-.007.006-.008.005-.007.005-.008.005-.007.005-.008.006-.007.005-.007.006-.007.005-.008.005-.007.005-.007.006-.007.005-.007.005-.007.005-.007.005-.007.006-.007.005-.007.006-.007.006-.007.006L5.085 7l-.007.006-.007.006-.006.006-.007.005-.007.006-.007.006-.007.006-.007.005-.006.006-.008.006-.006.006-.007.005-.006.007-.007.006-.006.006-.007.005-.006.007-.007.006-.006.006-.007.006-.006.007-.007.006-.006.006-.007.007-.006.006-.007.006-.006.006-.006.007-.007.006-.006.007-.006.006-.006.007-.006.006-.006.007-.006.006-.006.007-.006.007-.007.006-.006.007-.006.006-.006.007-.006.007-.005.007-.006.007-.006.006-.006.007-.006.008-.006.006-.006.007-.005.007-.006.007-.006.007-.006.007-.005.007-.006.007-.005.007-.006.008-.005.007-.006.007-.005.007-.006.008-.005.007-.005.007-.006.008-.005.007-.006.007-.005.008-.005.007-.005.007-.005.008-.005.007-.005.008-.005.008-.005.007-.005.007-.005.008-.005.007-.004.008-.005.008-.005.007-.005.008-.005.008-.004.007-.005.008-.005.008-.004.007-.005.008-.005.008-.005.008-.004.008-.005.008-.004.007-.005.008-.004.008-.005.008-.004.008-.005.008-.004.007-.005.008-.004.009-.005.007-.004.008-.005.009-.004.007-.004.009-.004.008-.004.008-.004.008-.004.008-.004.009-.004.007-.004.009-.003.008-.004.008-.004.008-.004.009-.004.008-.004.008-.004.009-.003.008-.004.008-.003.009-.004.008-.003.008-.004.009-.003.008-.004.009-.003.008-.003.008-.004.01-.003.008-.004.008-.003.008-.003.009-.004.008-.003.009L4.38 8l-.003.01-.003.007-.003.01-.003.008-.003.009-.003.008-.003.01-.003.008-.003.009-.003.008-.002.01-.003.008-.002.009-.003.008-.003.009-.002.008-.003.009-.003.009-.002.009-.003.008-.002.009-.003.009-.002.009-.003.009-.002.009-.002.008-.002.01-.003.008-.002.01-.002.008-.002.009-.002.009-.002.01-.002.008-.002.009-.002.009-.002.009-.002.008-.002.01-.002.008-.002.01-.001.008-.002.01-.001.009-.002.01-.001.009-.002.008-.001.01-.002.009-.001.01-.002.008-.001.009-.002.009-.001.01-.001.009-.001.009-.001.009-.002.01-.001.008-.001.01-.001.009-.001.01-.001.009-.001.01-.001.009-.001.008-.001.01-.001.01v.009l-.002.01v.009l-.001.009v.01l-.001.009v.01l-.001.009v.009l-.001.01v.009l-.001.01v.018l-.001.01v.019l-.001.009v6.67l.001.009v.01l.001.009v.01l.001.009v.009l.001.01v.009l.002.01v.018l.001.01.001.008.001.01.001.009v.009l.002.009v.009l.002.009v.008l.002.01v.009l.002.009v.01l.002.008v.01l.002.009.001.009.002.008.001.01.002.008.001.01.002.008.001.01.002.008.001.01.002.008.002.009.001.009.002.009.002.009.002.008.001.01.002.008.002.01.002.008.002.009.002.009.002.009.002.008.002.009.003.008.002.01.002.008.002.009.002.009.002.008.002.009.002.008.003.01.002.008.002.008.003.01.002.008.003.009.002.009.003.008.002.009.003.008.003.008.003.009.003.008.003.009.003.008.003.009.003.008.003.008.003.009.003.008.003.008.003.009.003.008.003.009.003.008.004.008.003.009.003.008.003.008.003.009.003.008.003.008.004.009.003.008.004.009.003.008.004.008.003.009.004.008.003.008.004.009.003.008.004.008.004.008.004.008.004.008.004.008.004.008.004.008.004.008.004.008.004.007.004.008.004.008.004.008.004.008.005.008.004.007.004.008.004.008.004.008.005.008.004.008.004.007.005.008.004.007.005.008.004.008.005.007.004.007.005.008.004.007.005.008.004.008.005.007.005.007.005.008.004.007.005.008.005.007.005.007.005.008.005.008.005.007.005.007.005.008.005.007.005.007.005.007.005.008.006.007.005.007.005.008.005.007.005.007.005.007.006.007.005.007.006.007.005.007.006.007.005.007.006.007.005.006.006.007.005.007.006.007.005.007.006.006.005.007.006.007.006.007.006.007.005.006.006.007.006.006.006.007.006.006.006.007.006.007.006.006.006.007.006.006.006.006.006.007.006.006.006.006.006.007.006.006.006.006.006.006.006.007.006.006.007.006.006.007.006.006.006.006.007.006.006.006.007.006.006.006.007.006.006.006.007.006.006.006.007.006.007.006.007.005.007.006.006.006.007.006.007.005.007.006.007.005.006.006.007.006.007.006.007.005.007.006.007.005.007.006.007.005.007.006.007.005.007.006.007.005.007.005.007.005.007.005.007.006.007.005.007.005.008.005.007.005.008.005.007.005.007.006.008.005.007.005.007.004.008.005.007.005.008.004.007.005.008.005.008.005.007.004.009.005 5.24 3.197.007.005.005.003.006.003.006.003.006.003.006.004.006.003.006.003.006.003.006.004.006.003.006.003.006.003.006.003.006.003.006.004.006.003.006.003.005.003.006.003.006.003.006.003.006.003.006.002.006.003.006.003.006.003.006.003.006.003.006.003.006.002.006.003.006.003.006.002.006.003.006.003.006.002.006.003.006.002.006.002.007.003.006.003.006.002.006.003.006.002.006.002.006.003.006.002.006.002.006.002.006.003.006.002.013.004.012.004.013.004.012.003.013.004.013.004.012.003.013.004.012.003.013.004.012.003.013.003.012.003.013.003.012.002.013.003.012.002.013.003.012.002.013.002.012.002.013.002.013.003.013.001.013.002.013.001.013.001.012.001.013.001.013.002h.013l.013.002h.012l.013.001h.012l.013.001h.104l.013-.001.013-.002h.013l.013-.001.013-.001.013-.001.013-.001.012-.001.013-.002.013-.001.013-.002.013-.002.012-.002.013-.002.013-.002.013-.002.012-.002.013-.002.012-.003.013-.002.013-.003.012-.003.013-.003.012-.003.013-.003.012-.003.013-.003.012-.004.013-.003.013-.004.012-.004.013-.004.006-.002.006-.002.006-.002.007-.002.006-.002.006-.003.006-.002.006-.002.007-.002.006-.002.006-.002.006-.002.006-.003.007-.002.006-.002.006-.002.006-.003.006-.002.006-.002.006-.002.006-.003.006-.002.006-.003.006-.003.006-.002.006-.003.006-.003.006-.002.006-.003.006-.002.006-.003.006-.004.006-.002.006-.003.006-.003.006-.003.006-.003.006-.003.006-.004.006-.003.006-.003.006-.003.006-.003.006-.003.006-.003.006-.003.006-.004.006-.003.005-.003.006-.003.007-.003.006-.004 5.805-3.376.007-.003.007-.004.006-.004.006-.003.006-.004.006-.004.006-.004.006-.004.006-.003.006-.004.007-.004.006-.004.006-.004.006-.004.005-.003.006-.004.006-.005.006-.003.006-.005.006-.003.006-.004.005-.005.006-.004.006-.004.005-.004.006-.004.006-.004.006-.005.005-.004.006-.004.005-.004.006-.004.005-.004.006-.005.006-.004.005-.005.006-.004.005-.004.006-.005.005-.005.006-.005.005-.004.006-.004.005-.005.005-.004.006-.005.005-.005.005-.004.006-.005.005-.005.005-.005.006-.004.005-.005.005-.005.005-.005.005-.005.005-.005.005-.004.005-.006.005-.005.005-.005.005-.005.005-.005.005-.005.005-.005.005-.005.005-.005.005-.006.005-.005.004-.005.005-.005.005-.006.005-.005.005-.005.004-.005.005-.005.004-.006.005-.005.005-.005.004-.005.005-.006.004-.005.005-.005.004-.005.005-.005.004-.006.005-.006.004-.006.005-.005.005-.005.004-.005.005-.006.004-.005.005-.006.003-.005.005-.006.004-.006.003-.005.005-.006.004-.006.004-.005.004-.006.004-.006.004-.005.004-.006.004-.006.004-.006.004-.005.004-.006.004-.006.004-.006.004-.005.003-.007.004-.006.004-.006.004-.005.003-.006.004-.006.004-.006.004-.006.003-.006.004-.006.003-.007.004-.006.003-.006.004-.006.003-.006.004-.006.003-.006.004-.007.003-.006.003-.006.003-.006.004-.007.003-.006.003-.006.004-.006.003-.007.003-.006.003-.006.003-.007.003-.006.004-.007.003-.006.003-.006.003-.006.003-.007.003-.006.003-.007.003-.006.003-.007.003-.006.003-.006.003-.007.003-.007.003-.007.003-.006.003-.006.002-.007.003-.007.002-.007.003-.006.002-.007.003-.006.002-.007.003-.007.002-.006.003-.007.002-.007.003-.007.002-.006.002-.007.002-.007.002-.007.002-.007.003-.006.002-.007.003-.007.002-.007.002-.007.003-.006.002-.007.002-.007.002-.007.002-.006.002-.007.002-.007.002-.007.002-.007.002-.007.002-.006.002-.007.002-.007.001-.007.002-.007.002-.007.001-.006.002-.008.002-.007.001-.006.002-.007.001-.007.002-.007.001-.007.002-.007v-.007l.002-.008.002-.006v-.008l.002-.006.002-.008.001-.007.002-.007.001-.007.001-.008.002-.007v-.007l.002-.006.001-.008.001-.007.001-.007.001-.008.001-.007.001-.007.001-.008v-.007l.002-.007v-.007l.001-.007.001-.007.001-.007v-.008l.001-.007v-.007l.001-.008.001-.007v-.007l.001-.008v-.007l.001-.007v-.008l.001-.007v-.007l.001-.007v-.008l.001-.007v-.022l.001-.007V8.41l-.001-.007v-.021l-.001-.006V8.37l-.001-.006v-.007l-.001-.007v-.006l-.001-.007V8.33l-.001-.007-.001-.007v-.006l-.001-.006-.001-.007v-.006l-.002-.007V8.28l-.001-.006-.001-.007v-.007l-.001-.006-.001-.006-.002-.014-.002-.013-.002-.014-.002-.013-.002-.013-.003-.013-.002-.013-.002-.013-.003-.013-.003-.013-.003-.013-.003-.013-.003-.013-.003-.013-.003-.013-.004-.013-.003-.013-.004-.013-.004-.014-.003-.012-.004-.013-.004-.012-.004-.013-.004-.012-.005-.013-.004-.012-.005-.012-.004-.013-.005-.012-.004-.013-.005-.012-.005-.012-.005-.012-.005-.012-.005-.013-.005-.012-.005-.012-.006-.012-.005-.012-.006-.011-.006-.012-.005-.012-.006-.012-.006-.012-.006-.011-.006-.012-.006-.011-.006-.012-.007-.011-.006-.012-.007-.011-.007-.012-.006-.01-.007-.011-.007-.011-.007-.011-.007-.011-.007-.011-.007-.011-.007-.011-.008-.01-.007-.011-.008-.01-.007-.011-.008-.01-.008-.011-.008-.01-.008-.01-.008-.011-.008-.01-.008-.01-.008-.01-.009-.01-.008-.01-.009-.01-.008-.01-.009-.01-.009-.01-.009-.009-.009-.009-.009-.01-.009-.009-.01-.01-.009-.009-.01-.008-.009-.01-.01-.008-.009-.01-.01-.008-.01-.009-.01-.008-.01-.009-.009-.008-.01-.009-.005-.003-.005-.005-.005-.004-.005-.004-.005-.004-.005-.004-.005-.004-.005-.004-.005-.004-.006-.005-.005-.004-.005-.004-.005-.004-.005-.004-.005-.004-.005-.004-.005-.004-.005-.003-.006-.005-.005-.003-.006-.004-.005-.004-.005-.003-.006-.004-.006-.003-.005-.004-.006-.004-.005-.003-.006-.004-.005-.004-.005-.003-.006-.004-.006-.003-.006-.003-5.665-3.468-.008-.005-.007-.005-.008-.004-.007-.005-.007-.004-.008-.004-.007-.005-.008-.004-.007-.004-.008-.004-.007-.004-.007-.005-.008-.004-.008-.004-.007-.004-.008-.004-.007-.004-.008-.004-.007-.004-.008-.004-.007-.004-.008-.004-.007-.003-.008-.004-.008-.004-.007-.003-.008-.004-.007-.003-.008-.004-.008-.004-.007-.003-.008-.003-.008-.003-.008-.004-.007-.003-.008-.003-.008-.004-.008-.003-.008-.003-.008-.003-.008-.004-.008-.003-.008-.003-.007-.003-.008-.003-.007-.002-.008-.003-.008-.003-.008-.003-.008-.002-.008-.003-.007-.002-.008-.003-.008-.003-.008-.002-.008-.003-.008-.002-.008-.003-.008-.003-.008-.002-.008-.002-.008-.002-.008-.003-.008-.002-.008-.002-.008-.002-.008-.003-.008-.002-.008-.002-.008-.002-.008-.002-.008-.002-.008-.002-.008-.002-.008-.002-.008-.001-.008-.002-.008-.002-.008-.001-.008-.002-.008-.002-.008-.001-.008-.002-.008-.001-.008-.002h-.008l-.008-.002h-.008l-.008-.002-.008-.002-.008-.001-.008-.001-.009-.002h-.008l-.008-.002-.008-.001-.008-.001-.008-.001-.008-.002h-.008l-.009-.002h-.008l-.008-.001-.008-.001h-.008l-.008-.001h-.008l-.008-.001h-.008l-.008-.001h-.009l-.008-.001h-.016l-.008-.001-.008-.001h-.016l-.008-.001h-.008l-.008-.001h-.04z" clip-rule="evenodd"/>
  <path fill="#f472b6" fill-rule="evenodd" d="M19.46 8.473v6.386h-.001v.749c0 .885-.46 1.7-1.2 2.131l-2.42 1.406-3.384 1.967a2.2 2.2 0 0 1-2.263-.024L4.95 17.89c-.862-.525-1.391-1.489-1.391-2.53V8.821c0-1.05.521-2.024 1.378-2.575l4.848-3.12.182-.117a2.54 2.54 0 0 1 2.718-.03l5.667 3.474a2.36 2.36 0 0 1 1.108 2.02M7.536 6.545v10.824h2.17v-4.733h3.6v4.733h2.177V6.545h-2.177v3.942h-3.6V6.545z" clip-rule="evenodd"/>
</svg>
