<svg xmlns="http://www.w3.org/2000/svg" width="24" height="24" fill="none" viewBox="0 0 24 24">
  <path fill="#f472b6" d="m14.42 7.453-1.168 2.462c.384.371.655.86.762 1.414h.88c.102-.525.35-.996.706-1.361z"/>
  <path fill="#f472b6" d="m12.27 9.32 2.15-4.535 2.145 4.564q.128-.043.254-.076L18.857 3h-8.88l2.033 6.255c.085.018.175.041.26.065m-.74 4.011c.785 0 1.423-.665 1.423-1.484a1.53 1.53 0 0 0-.39-1.025l-.006-.006a1 1 0 0 0-.191-.17l-.006-.007c-.017-.011-.04-.03-.062-.04-.006 0-.006-.007-.011-.007-.023-.011-.046-.03-.068-.041h-.006c-.022-.012-.05-.03-.073-.041h-.006a.3.3 0 0 0-.068-.03c-.005 0-.01-.005-.017-.005-.016-.006-.039-.018-.056-.024-.006 0-.011-.006-.023-.006-.022-.006-.045-.018-.067-.024h-.006c-.028-.005-.05-.011-.079-.017q-.007.002-.022-.006c-.023-.006-.04-.006-.063-.012q-.013.002-.028-.006c-.017 0-.04-.006-.056-.006h-.22c-.023 0-.04.006-.062.006h-.023c-.023.006-.045.006-.068.012h-.017l-.079.018c-.62.159-1.083.748-1.083 1.443.01.807.649 1.478 1.433 1.478m5.984-2.968h-.012c-.022 0-.04-.006-.062-.006h-.073q-.042-.002-.09.006h-.029c-.022 0-.045.005-.068.005-.005 0-.017 0-.022.006l-.085.018h-.005l-.08.018c-.005 0-.016.006-.022.006a.3.3 0 0 0-.068.023c-.005 0-.011.006-.017.006l-.079.035c-.028.012-.05.024-.079.036-.005 0-.011.006-.017.006q-.034.015-.067.04s-.006 0-.006.007a1 1 0 0 0-.147.106l-.006.006a1.6 1.6 0 0 0-.197.194 1.544 1.544 0 0 0-.344.972c0 .819.637 1.484 1.422 1.484s1.422-.665 1.422-1.484c0-.719-.496-1.325-1.145-1.46a1 1 0 0 0-.125-.024M5.632 13.33c.784 0 1.422-.665 1.422-1.484s-.638-1.484-1.422-1.484c-.785 0-1.423.665-1.423 1.484s.638 1.484 1.423 1.484"/>
  <path fill="#f472b6" d="M17.372 14.48c-1.174 0-2.161-.843-2.444-1.973h-.948c-.282 1.13-1.27 1.973-2.444 1.973a3 3 0 0 1-.39-.03 7.8 7.8 0 0 1-1.174 1.455 7.7 7.7 0 0 1-2.71 1.755l-.23.089-.215-.118c-1.185-.636-1.795-1.926-1.58-3.175a2 2 0 0 1-.39-.106c-.023.041-.04.088-.062.136-.361.777-.74 1.578-.875 2.438-.147.919-.209 2.598 1.033 3.493.542.389 1.112.583 1.75.583 1.225 0 2.545-.683 3.945-1.408 1.095-.565 2.224-1.154 3.398-1.455.446-.111.898-.182 1.332-.247.796-.118 1.553-.236 2.168-.607a2.6 2.6 0 0 0 1.225-1.808c.079-.46.034-.925-.113-1.355a2.47 2.47 0 0 1-1.276.36"/>
</svg>
