<svg xmlns="http://www.w3.org/2000/svg" width="24" height="24" fill="none" viewBox="0 0 24 24">
  <path stroke="#f87171" stroke-width="2" d="M6.878 13c1.619 0 3.003 1.382 3.003 3.177s-1.384 3.177-3.003 3.177-3.003-1.382-3.003-3.177S5.259 13 6.878 13Z"/>
  <path stroke="#4ade80" stroke-width="2" d="M11.5 4.646c1.619 0 3.003 1.382 3.003 3.177S13.119 11 11.5 11 8.497 9.618 8.497 7.823 9.881 4.646 11.5 4.646Z"/>
  <path stroke="#c084fc" stroke-width="2" d="M16.122 13c1.619 0 3.003 1.382 3.003 3.177s-1.384 3.177-3.003 3.177-3.003-1.382-3.003-3.177S14.503 13 16.122 13Z"/>
</svg>
