<svg xmlns="http://www.w3.org/2000/svg" width="24" height="24" fill="none" viewBox="0 0 24 24">
  <path fill="#60a5fa" d="M10.88 16.177c0 2.307-1.791 4.177-4.002 4.177s-4.003-1.87-4.003-4.177S4.667 12 6.878 12c2.21 0 4.003 1.87 4.003 4.177M15.503 7.823C15.503 10.13 13.71 12 11.5 12c-2.21 0-4.003-1.87-4.003-4.177S9.29 3.646 11.5 3.646c2.21 0 4.003 1.87 4.003 4.177M20.125 16.177c0 2.307-1.792 4.177-4.003 4.177-2.21 0-4.003-1.87-4.003-4.177S13.911 12 16.122 12c2.21 0 4.003 1.87 4.003 4.177"/>
</svg>
