<svg xmlns="http://www.w3.org/2000/svg" width="24" height="24" fill="none" viewBox="0 0 24 24">
  <path fill="#2563eb" fill-rule="evenodd" d="M10.399 5.3c4.152 0 7.523 3.518 7.523 7.85 0 4.333-3.371 7.851-7.523 7.851-4.153 0-7.524-3.518-7.524-7.85 0-4.333 3.371-7.851 7.524-7.851m3.117 2.299c1.216 0 2.203 1.03 2.203 2.298 0 1.27-.987 2.3-2.203 2.3s-2.203-1.03-2.203-2.3c0-1.268.987-2.298 2.203-2.298" clip-rule="evenodd"/>
  <path fill="#2563eb" d="M20.125 5.298c0-1.269-.987-2.3-2.203-2.3s-2.203 1.031-2.203 2.3.987 2.298 2.203 2.298 2.203-1.027 2.203-2.298"/>
</svg>
