<svg xmlns="http://www.w3.org/2000/svg" width="24" height="24" fill="none" viewBox="0 0 24 24">
  <path fill="#0ea5e9" fill-rule="evenodd" d="M6.916 3.38c-1.343 4-4 13.042-3.868 13.162.277.251 12.893 4.185 13.493 4.208.505.018.616-.26 2.538-6.373 1.106-3.516 1.99-6.531 1.964-6.7-.03-.206-2.343-1.024-6.872-2.435-3.754-1.17-6.902-2.128-6.995-2.13s-.21.12-.26.268m9.877 5.358c-.152.594-.265 1.154-.25 1.246.023.157 2.206.986 2.292.871.23-.306.716-2.231.592-2.342-.123-.109-2.153-.853-2.328-.853-.016 0-.154.485-.306 1.078" clip-rule="evenodd"/>
</svg>
