<svg xmlns="http://www.w3.org/2000/svg" width="24" height="24" fill="none" viewBox="0 0 24 24">
  <path fill="#64748b" fill-rule="evenodd" d="m18.76 21.775-2.111-3.34-5.289-8.365a599 599 0 0 0-3.242-5.087c-.14-.157-.23-.18-.76-.18-.453 0-.498.005-.604.058a1 1 0 0 0-.196.169.43.43 0 0 0-.078.247l-.011 5.347-.006 5.366q.001.129.056.246c.04.08.1.15.173.198.08.057.176.088.274.088h.302c.397 0 .47-.012.554-.059a.5.5 0 0 0 .234-.245c.045-.092.045-.253.056-4.079v-.12c.004-1.52.01-2.852.017-3.559.004-.336.123-.368.307-.087q1.215 1.845 2.41 3.704l2.689 4.147 2.146 3.028a463 463 0 0 0 2.17 3.042c.007.01.02.017.02.03M16.277 4.608a.5.5 0 0 0-.165-.132c-.084-.053-.151-.053-.542-.053-.414 0-.447 0-.56.059a.54.54 0 0 0-.256.344c-.017.064-.028 1.365-.028 3.675v3.294a1 1 0 0 0 .152.531l.68 1.086c.244.386.84.214.84-.242V9.82c.005-3.43 0-4.953-.018-5.023a.6.6 0 0 0-.103-.189" clip-rule="evenodd"/>
</svg>
