<svg xmlns="http://www.w3.org/2000/svg" width="24" height="24" fill="none" viewBox="0 0 24 24">
  <path fill="#14b8a6" d="M11.99 1.65c-.17 0-.34.044-.493.131L3.352 6.487a.98.98 0 0 0-.492.852v9.41a.98.98 0 0 0 .492.852l8.145 4.701a.98.98 0 0 0 .984 0l8.147-4.7a.98.98 0 0 0 .492-.853v-9.41a.99.99 0 0 0-.492-.852l-8.147-4.705a1 1 0 0 0-.492-.132M6.663 5.674s.943 2.643 2.838 2.555l2.22-1.277a.6.6 0 0 1 .273-.079h.051c.096.003.19.03.272.08l2.22 1.276c1.895.088 2.837-2.555 2.837-2.555.419 1.853.085 3.092-.474 3.916l.364.209a.6.6 0 0 1 .299.52l-.01 7.664a.3.3 0 0 1-.148.258.29.29 0 0 1-.299 0l-2.939-1.683a.6.6 0 0 1-.3-.519v-3.58a.6.6 0 0 0-.298-.518l-1.252-.72a.58.58 0 0 0-.596 0l-1.252.72a.6.6 0 0 0-.298.517v3.581a.6.6 0 0 1-.3.519l-2.94 1.683a.29.29 0 0 1-.296 0 .29.29 0 0 1-.15-.258l-.01-7.665a.6.6 0 0 1 .299-.519l.363-.21c-.558-.823-.892-2.062-.474-3.915"/>
</svg>
