<svg xmlns="http://www.w3.org/2000/svg" width="24" height="24" fill="none" viewBox="0 0 24 24">
  <path fill="#22c55e" d="M13.22 18.525h7.435c.236 0 .468-.06.673-.175.203-.114.373-.278.492-.478a1.27 1.27 0 0 0 0-1.305L16.825 8.18c-.119-.2-.289-.365-.492-.478a1.38 1.38 0 0 0-1.345 0 1.3 1.3 0 0 0-.492.478l-1.277 2.146-2.496-4.197c-.12-.2-.29-.365-.492-.478a1.38 1.38 0 0 0-1.346 0 1.3 1.3 0 0 0-.492.478L2.18 16.568a1.27 1.27 0 0 0 0 1.304c.12.2.29.364.492.478.206.115.438.175.673.175h4.667c1.85 0 3.213-.788 4.151-2.325l2.278-3.827 1.22-2.048 3.662 6.152h-4.882zm-5.284-2.05-3.257-.001L9.56 8.272l2.436 4.1-1.63 2.742c-.624.997-1.332 1.36-2.431 1.36"/>
</svg>
