<svg xmlns="http://www.w3.org/2000/svg" width="24" height="24" fill="none" viewBox="0 0 24 24">
  <g clip-path="url(#a)">
    <path fill="url(#b)" d="M2.832 12.52c.12.104.297.248.568.301a1.2 1.2 0 0 0 .735-.1c.19.23.792.892 1.804 1.102a3.1 3.1 0 0 0 1.537-.066 3.1 3.1 0 0 0 1.186-.685c.668-.622 1.176-1.67.986-2.824-.2-1.22-1.073-1.894-1.27-2.038.06-.053.144-.133.234-.234.063-.073.36-.414.568-.969.06-.16.174-.474.2-.902.047-.745-.21-1.31-.334-1.57a3.5 3.5 0 0 0-.334-.568 9.71 9.71 0 0 0-4.31 2.406c-.384.37-.745.725-1.103 1.303a5.8 5.8 0 0 0-.735 1.837 1.5 1.5 0 0 0-.4.568c-.134.338-.1.632-.067.902.033.254.13 1.023.735 1.537"/>
    <path fill="url(#c)" d="M17.132 5.938a9.6 9.6 0 0 0-3.91-1.971 9.6 9.6 0 0 0-4.126-.084c.371.488.518.946.585 1.22.28 1.173-.194 2.135-.334 2.406-.167.324-.35.564-.485.718.19.164.451.42.685.785.117.184.351.555.468 1.103a3.14 3.14 0 0 1-.4 2.305c.22-.037.544-.077.935-.067 1.19.03 2.071.485 2.439.702.237.14.778.485 1.303 1.103a5.16 5.16 0 0 1 1.236 3.508c-.01.28-.094 2.041-1.47 3.441-.12.124-.635.632-1.47 1.036-.889.431-1.7.528-2.189.551.348.024.779.034 1.27 0a9.4 9.4 0 0 0 3.926-1.186 9.6 9.6 0 0 0 4.477-5.48 9.6 9.6 0 0 0 .434-2.706 9.8 9.8 0 0 0-.434-2.973c-.798-2.553-2.54-4.073-2.94-4.41"/>
    <path fill="url(#d)" d="M21.843 6.774c-.267-.933-1.062-1.644-2.055-1.855.023-.46-.013-1.253-.518-1.921-.868-1.153-2.786-1.504-4.644-.668-.317-.658-.735-.869-.902-.936-.929-.377-2.332.27-3.208 1.771 1.043-.033 2.69.06 4.478.835a10.2 10.2 0 0 1 2.405 1.47 10.2 10.2 0 0 1 3.074 4.377c.234-.12.642-.37.969-.835.08-.117.735-1.072.401-2.238"/>
    <path fill="url(#e)" d="M12.003 17.65c.16.12.688.487 1.437.467.979-.027 1.574-.688 1.67-.802a4.7 4.7 0 0 0-.167-1.07c-.474-1.7-1.78-2.582-1.97-2.706a4.93 4.93 0 0 0-2.74-.768 4.3 4.3 0 0 0-.669.067c.27.053.668.164 1.086.418 1.21.731 1.524 1.998 1.57 2.205.2.862.007 1.563-.033 1.704-.06.2-.13.367-.184.484"/>
    <path fill="url(#f)" d="M6.707 20.138c-.417-1.112-.183-2.085-.1-2.405.08-.311.184-.562.267-.735-.096-.067-1.553-1.046-3.023-.385-.669.301-1.05.812-1.22 1.086a9.6 9.6 0 0 0 1.704 2.272 9.64 9.64 0 0 0 5.623 2.687 4.1 4.1 0 0 1-1.58-.548c-.267-.16-1.213-.749-1.67-1.972"/>
    <path fill="#fff" stroke="#fff" stroke-linejoin="round" stroke-miterlimit="10" stroke-width=".022" d="M6.674 12.403a1.687 1.687 0 1 0 0-3.374 1.687 1.687 0 0 0 0 3.374Z"/>
    <path fill="url(#g)" d="M6.674 11.675a.959.959 0 1 0 0-1.918.959.959 0 0 0 0 1.918"/>
    <path fill="#fff" d="M7.192 10.232c-.03-.034-.267-.291-.622-.264-.213.016-.474.133-.57.364-.018.037-.101.257.022.4.084.098.21.101.234.101.117 0 .228-.06.284-.147.077-.124 0-.22.05-.32.044-.088.18-.168.602-.134"/>
    <path fill="url(#h)" d="M11.469 6.89c.604.796 2.225-.611 4.042.2 1.24.556 1.658 1.728 2.54 1.571.42-.077.715-.41.892-.671a9.7 9.7 0 0 0-1.811-2.052 9.58 9.58 0 0 0-5.7-2.228l-.03.407c-.104 1.65-.157 2.48.067 2.773"/>
    <path fill="url(#i)" d="M14.442 12.303c-.067-.157-.35-.755-.969-1.102-.504-.284-.788-.157-1.436-.335-1.053-.29-1.153-.942-1.771-1.002q-.156-.014-.318-.003.037.119.067.254a3.14 3.14 0 0 1-.4 2.305c.22-.037.544-.077.935-.067 1.19.03 2.071.485 2.439.702a5.2 5.2 0 0 1 1.433 1.263c.247-.665.29-1.39.02-2.015"/>
    <path fill="url(#j)" d="M19.504 17.432a9.6 9.6 0 0 0 .568-1.403 9.6 9.6 0 0 0 .434-2.707 9.8 9.8 0 0 0-.444-3.003c-.127.46-.33.912-.641 1.316-.966 1.253-2.39 1.343-2.473 2.239-.08.885 1.263 1.212 1.738 2.505.354.973.046 2.018-.375 2.87q.209-.25.425-.547a10.4 10.4 0 0 0 .768-1.27"/>
    <path fill="url(#k)" d="M16.347 20.656c-.044-.22-.197-.498-.435-.601-.47-.207-.995.374-1.754.949l-.1.103a5.4 5.4 0 0 1-1.47 1.036c-.889.431-1.7.528-2.189.551.348.024.779.034 1.27 0a9.36 9.36 0 0 0 3.926-1.186q.387-.216.708-.434a.72.72 0 0 0 .044-.418"/>
    <path fill="url(#l)" d="M5.033 12.62c-.21.168-.377.378-.467.609a.5.5 0 0 0-.03.087c-.01.026-.02.066-.03.1q-.027.099-.044.187a.7.7 0 0 0 .02.334q.052.15.194.267c.15.117.32.164.357.174.137.034.241.03.411.023.188-.006.274-.033.532-.04h.26q.131 0 .268.014c.18.013.364.04.538.093.177.054.344.14.48.25.134.114.241.248.305.398a.7.7 0 0 1 .06.234c.01.08.003.157-.01.234a.9.9 0 0 1-.07.224.62.62 0 0 1-.264.27.723.723 0 0 1-.638-.03.5.5 0 0 1-.178-.16c.004-.003.064.084.188.144.03.013.116.053.237.06a.7.7 0 0 0 .24-.03q.056-.018.107-.047.027-.015.047-.03a.572.572 0 0 0 .194-.418.7.7 0 0 0-.084-.394.94.94 0 0 0-.287-.31c-.12-.08-.26-.14-.411-.17-.3-.068-.632-.048-.966-.018-.237.02-.237.05-.484.074-.26.027-.408.04-.605.007a1.5 1.5 0 0 1-.551-.218 1.2 1.2 0 0 1-.23-.197 1 1 0 0 1-.164-.247 1.14 1.14 0 0 1-.097-.534q.005-.13.026-.248c.007-.04.01-.073.02-.117.007-.043.02-.083.03-.127.097-.334.295-.641.562-.895l.003-.004c.137-.13.371-.14.521-.023a.287.287 0 0 1 .03.448c-.003.013-.013.02-.02.027"/>
  </g>
  <defs>
    <linearGradient id="g" x1="5.666" x2="6.872" y1="8.532" y2="11.147" gradientUnits="userSpaceOnUse">
      <stop stop-color="#9e60fc"/>
      <stop offset=".928" stop-color="#45239b"/>
    </linearGradient>
    <linearGradient id="h" x1="12.281" x2="15.626" y1="9.314" y2="5.334" gradientUnits="userSpaceOnUse">
      <stop offset=".506" stop-color="#ffbf4f"/>
      <stop offset="1" stop-color="#f58e54"/>
    </linearGradient>
    <linearGradient id="i" x1="12.997" x2="10.722" y1="11.289" y2="13.53" gradientUnits="userSpaceOnUse">
      <stop offset=".185" stop-color="#ffbf4f"/>
      <stop offset="1" stop-color="#f58e54"/>
    </linearGradient>
    <linearGradient id="j" x1="16.943" x2="20.506" y1="14.783" y2="14.783" gradientUnits="userSpaceOnUse">
      <stop offset=".236" stop-color="#ffbf4f"/>
      <stop offset="1" stop-color="#f58e54"/>
    </linearGradient>
    <linearGradient id="k" x1="15.89" x2="12.361" y1="18.962" y2="23.017" gradientUnits="userSpaceOnUse">
      <stop offset=".103" stop-color="#ffbf4f"/>
      <stop offset=".893" stop-color="#f58e54"/>
    </linearGradient>
    <linearGradient id="l" x1="3.861" x2="7.892" y1="14.108" y2="14.108" gradientUnits="userSpaceOnUse">
      <stop offset=".185" stop-color="#ffbf4f"/>
      <stop offset="1" stop-color="#f58e54"/>
    </linearGradient>
    <radialGradient id="b" cx="0" cy="0" r="1" gradientTransform="translate(12.001 12.001)scale(13.1309)" gradientUnits="userSpaceOnUse">
      <stop stop-color="#9e60fc"/>
      <stop offset="1" stop-color="#45239b"/>
    </radialGradient>
    <radialGradient id="c" cx="0" cy="0" r="1" gradientTransform="translate(12.001 12.002)scale(13.1309)" gradientUnits="userSpaceOnUse">
      <stop stop-color="#9e60fc"/>
      <stop offset="1" stop-color="#45239b"/>
    </radialGradient>
    <radialGradient id="d" cx="0" cy="0" r="1" gradientTransform="translate(12.001 12.001)scale(13.1309)" gradientUnits="userSpaceOnUse">
      <stop stop-color="#9e60fc"/>
      <stop offset="1" stop-color="#45239b"/>
    </radialGradient>
    <radialGradient id="e" cx="0" cy="0" r="1" gradientTransform="translate(12.001 12.002)scale(13.1309)" gradientUnits="userSpaceOnUse">
      <stop stop-color="#9e60fc"/>
      <stop offset="1" stop-color="#45239b"/>
    </radialGradient>
    <radialGradient id="f" cx="0" cy="0" r="1" gradientTransform="translate(12.001 12.002)scale(13.1309)" gradientUnits="userSpaceOnUse">
      <stop stop-color="#9e60fc"/>
      <stop offset="1" stop-color="#45239b"/>
    </radialGradient>
    <clipPath id="a">
      <path fill="#fff" d="M0 0h24v24H0z"/>
    </clipPath>
  </defs>
</svg>
