<svg xmlns="http://www.w3.org/2000/svg" fill="none" viewBox="0 0 24 24">
  <path fill="#14b8a6" d="M14.707 5.052c0 .536.434.97.97.97h3.678c.432 0 .648.522.342.827l-4.706 4.706a.97.97 0 0 0-.285.686v1.61c0 .669.664 1.133 1.251.814a8.7 8.7 0 0 0 1.658-1.169c.2-.178.506-.18.695.01l3.428 3.428c.19.19.19.497-.005.68a14.5 14.5 0 0 1-9.936 3.922c-3.841 0-7.336-1.49-9.936-3.922a.47.47 0 0 1-.005-.68l3.428-3.428a.507.507 0 0 1 .695-.01c.503.45 1.06.844 1.658 1.169.588.32 1.251-.145 1.251-.814v-1.61a.97.97 0 0 0-.284-.686L3.897 6.85a.484.484 0 0 1 .343-.827h3.678a.97.97 0 0 0 .97-.97V2.628c0-.268.216-.485.484-.485h4.848c.267 0 .484.217.484.485v2.424z"/>
</svg>
