<svg xmlns="http://www.w3.org/2000/svg" width="24" height="24" fill="none" viewBox="0 0 24 24">
  <path fill="#32f3ef" d="m22.346 17.516-3.585-3.713a.48.48 0 0 0-.554-.117.5.5 0 0 0-.163.117c-.543.482-1.134.909-1.764 1.273a.898.898 0 0 1-1.28-.902v-1.75c.002-.278.112-.544.307-.742l4.94-4.778a.536.536 0 0 0-.36-.904h-3.762A1.125 1.125 0 0 1 15 4.875V2.063a.563.563 0 0 0-.562-.563H9.561A.56.56 0 0 0 9 2.063v2.812A1.125 1.125 0 0 1 7.875 6H4.112a.536.536 0 0 0-.358.904l4.938 4.778c.196.198.306.464.308.742v1.75a.897.897 0 0 1-1.28.902q-.946-.547-1.764-1.273a.48.48 0 0 0-.717 0l-3.585 3.712a.525.525 0 0 0 0 .743 14.737 14.737 0 0 0 20.692 0 .523.523 0 0 0 0-.742"/>
</svg>
