<svg xmlns="http://www.w3.org/2000/svg" width="24" height="24" fill="none" viewBox="0 0 24 24">
  <path fill="#32f3ef" d="m20.868 16.727-3.073-3.182a.415.415 0 0 0-.614 0c-.466.414-.973.78-1.512 1.091a.77.77 0 0 1-1.098-.772v-1.5a.91.91 0 0 1 .264-.637l4.233-4.095a.46.46 0 0 0-.307-.775h-3.225a.964.964 0 0 1-.965-.964v-2.41A.48.48 0 0 0 14.09 3H9.911a.48.48 0 0 0-.482.482v2.41a.964.964 0 0 1-.965.965H5.24a.459.459 0 0 0-.307.775l4.233 4.095c.168.17.262.398.264.637v1.5a.77.77 0 0 1-1.098.772 9.3 9.3 0 0 1-1.512-1.09.415.415 0 0 0-.614 0l-3.073 3.181a.45.45 0 0 0 0 .637 12.63 12.63 0 0 0 17.736 0 .45.45 0 0 0 0-.637"/>
</svg>
