<svg xmlns="http://www.w3.org/2000/svg" width="24" height="24" fill="none" viewBox="0 0 24 24">
  <path fill="#ea580c" fill-rule="evenodd" d="M12.314 6.27a1.91 1.91 0 1 0 0-3.82 1.91 1.91 0 0 0 0 3.82m0-.787a1.124 1.124 0 1 0 0-2.247 1.124 1.124 0 0 0 0 2.247" clip-rule="evenodd"/>
  <path fill="#ea580c" fill-rule="evenodd" d="M13.103 6.1a1.91 1.91 0 1 0-1.577 0l-.048 1.406h-.006l-2.666.2a.337.337 0 0 0-.312.337v.724a.337.337 0 0 0 .311.336l2.61.2-.123 4.693c-.038 1.418-.269 3.154-1.653 3.458a2.2 2.2 0 0 1-.47.052c-.83 0-1.788-1.022-2.402-2.07q.365-.158.746-.274c.146-.045.175-.25.048-.334-.92-.607-1.649-1.423-2.096-2.366-.062-.13-.247-.14-.31-.01a7 7 0 0 0-.395 1.012 7 7 0 0 0-.233 3.105l.01.067c.022.135.19.183.288.087q.279-.268.589-.501c1.128 3.552 4.902 5.329 6.9 5.329s5.775-1.778 6.902-5.332q.309.233.588.503c.098.096.266.048.288-.088l.01-.066a7 7 0 0 0-.232-3.104 7 7 0 0 0-.393-1.01c-.062-.13-.248-.12-.31.01-.445.942-1.17 1.757-2.085 2.364-.127.085-.098.29.048.334q.374.115.734.27c-.614 1.05-1.573 2.074-2.404 2.074q-.239 0-.47-.052c-1.384-.304-1.615-2.04-1.653-3.458l-.124-4.693 2.61-.2a.337.337 0 0 0 .312-.336v-.724a.337.337 0 0 0-.312-.336l-2.666-.201h-.006zm.335-1.74a1.124 1.124 0 1 1-2.247 0 1.124 1.124 0 0 1 2.247 0" clip-rule="evenodd"/>
  <path fill="#000" fill-opacity=".4" fill-rule="evenodd" d="M12.314 6.045c0-.124.101-.224.225-.236.862-.09 1.55-.686 1.668-1.442l.003-.005.005-.003.007.003.002.003v.004a1.91 1.91 0 0 1-1.121 1.73l.054 1.407-.654.61a.112.112 0 0 1-.189-.082zm6.98 6.384a.1.1 0 0 0-.013.028l-.003.015c-.59 5.294-3.91 6.932-6.322 6.82.919-.296 1.54-.953 2.087-1.605.1-.12.254-.174.41-.181q-.237-.001-.464-.05c-1.386-.302-1.614-2.042-1.652-3.46l-.124-4.693 2.618-.194a.337.337 0 0 0 .304-.335v-.37h-3.652a.17.17 0 0 0-.169.17V21.55c1.999 0 5.775-1.778 6.902-5.332q.309.233.588.503c.098.095.266.048.288-.088l.01-.066a7 7 0 0 0-.232-3.104 7.3 7.3 0 0 0-.4-1.024.101.101 0 0 0-.175-.011M8.555 9.022a.23.23 0 0 1-.06-.152v-.467h3.603a.09.09 0 0 1 .088.108.1.1 0 0 1-.024.046l-.745.745-2.714-.208a.23.23 0 0 1-.148-.072" clip-rule="evenodd"/>
</svg>
