<svg xmlns="http://www.w3.org/2000/svg" width="24" height="24" fill="none" viewBox="0 0 24 24">
  <path fill="#a855f7" d="M8.79 3c-.257.045-.477.185-.719.27-.511.342-.922.868-1.027 1.502-.32 1.073-1.26 1.777-1.59 2.84-.27.683-.754 1.22-1.206 1.768-.312.406-.278.95-.415 1.425-.137.13-.235.425.022.458-.007.241-.166.51.002.74.13.505.359.988.586 1.454.046.17.324.367.366.093.034-.39.196-.855-.067-1.2-.169-.442-.03-.908.049-1.35-.038-.272.055-.582.195-.799.146.082.096.356.154.503.139 1.058.18 2.157-.076 3.2-.095.409.062.841-.03 1.243-.33.373-.075.91-.046 1.344.16.806.073 1.643-.158 2.413-.005.277-.098.53-.154.794.093.332.53.45.823.371.182-.128.529.116.616-.188.026-.33-.283-.578-.258-.914-.193-.92-.338-1.88-.15-2.82.096-.546.058-1.13.205-1.655a4.1 4.1 0 0 0 .687-1.457c.193-.439.313-.971.43-1.389.504.846.808 1.86.676 2.87.017.394-.22.856.098 1.167.384.628.87 1.22 1.064 1.943.016.303-.375.308-.479.553-.23.348-.205.792-.23 1.195.216.088.534.322.718.04.179-.197.255-.542.442-.693.114.227.007.595.303.706.425.159.914.203 1.354.093.227-.205-.083-.493-.274-.572-.319-.098-.505-.357-.614-.67-.1-.174-.172-.376.023-.51.46-.58 1.09-.965 1.577-1.51.293-.424.216-1.017.105-1.497-.138-.28-.237-.574-.162-.892.05-.274-.13-.557-.118-.8.257-.018.558-.008.787.082.063.433-.03.895.09 1.315.195.194.287.5.3.78.182.233.067.576.116.862-.116.464.05.922.186 1.363.25.84.144 1.744.357 2.586.163.239-.11.638.208.795.49.192 1.148.246 1.567-.139.127-.266-.25-.419-.43-.503a.64.64 0 0 1-.502-.518c-.388-.834-.577-1.77-.441-2.699.02-.448.078-.89.189-1.317.052-.435.058-.883.18-1.297.072-.582-.05-1.197.106-1.763.253.167.524.337.823.36.195.155.404.001.51-.184.156-.224.344.374.486.07.177-.209.406-.358.607-.522.113-.194.347-.188.51-.277.114-.155-.073-.4.137-.519.072-.198.254.063.338-.125.088-.204.074-.486.31-.575.428-.355.3-1.003.377-1.505-.005-.5.09-1.03-.027-1.513-.138-.382-.364-.77-.455-1.15.418-.347 1.156-.06 1.44-.631.124-.42-.264-.776-.519-1.042-.248-.244-.64-.128-.943-.248-.236-.084-.602.009-.664-.326-.099-.265-.408-.263-.574-.463-.264-.142-.505.183-.765.21-.29.21-.623.417-.808.739-.08.21-.01.484-.228.614-.362.434-.21 1.078-.244 1.607.004.241-.002.485.13.683.02.296.278.49.232.795-.037.2.132.628-.185.535-.097-.168-.082-.455-.173-.652-.265-.852-.667-1.776-1.472-2.203-.567-.433-.972-1.063-1.207-1.747-.223-.347-.633-.56-.808-.936-.23-.103-.508-.067-.737-.201-.284-.132-.542-.37-.882-.328-.225.017-.432-.064-.644-.082m.415 9.558c.196.068.136.388.207.554.092.234.014.648.275.766.147.254.056.598.204.832-.034.167-.086.478.162.482.222-.02.283.24.44.356.145.211.307.51.083.734-.217.275-.366.706-.766.718-.165.018-.392.286-.467.01-.285-.502-.528-1.036-.472-1.633.004-.938.209-1.86.312-2.784q-.007-.038.022-.035"/>
</svg>
