<svg xmlns="http://www.w3.org/2000/svg" width="24" height="24" fill="none" viewBox="0 0 24 24">
  <path fill="#f59e0b" d="M19.167 7.768a1 1 0 0 1-1 1h-2.57a1 1 0 0 1-1-1V5a1 1 0 0 1 1-1h2.57a1 1 0 0 1 1 1zM13.785 7.768a1 1 0 0 1-1 1h-2.57a1 1 0 0 1-1-1V5a1 1 0 0 1 1-1h2.57a1 1 0 0 1 1 1zM8.403 7.768a1 1 0 0 1-1 1h-2.57a1 1 0 0 1-1-1V5a1 1 0 0 1 1-1h2.57a1 1 0 0 1 1 1zM19.167 13.384a1 1 0 0 1-1 1h-2.57a1 1 0 0 1-1-1v-2.768a1 1 0 0 1 1-1h2.57a1 1 0 0 1 1 1z"/>
  <path fill="#71717a" d="M13.785 13.384a1 1 0 0 1-1 1h-2.57a1 1 0 0 1-1-1v-2.768a1 1 0 0 1 1-1h2.57a1 1 0 0 1 1 1zM13.785 19a1 1 0 0 1-1 1h-2.57a1 1 0 0 1-1-1v-2.768a1 1 0 0 1 1-1h2.57a1 1 0 0 1 1 1zM19.167 19a1 1 0 0 1-1 1h-2.57a1 1 0 0 1-1-1v-2.768a1 1 0 0 1 1-1h2.57a1 1 0 0 1 1 1zM8.403 19a1 1 0 0 1-1 1h-2.57a1 1 0 0 1-1-1v-2.768a1 1 0 0 1 1-1h2.57a1 1 0 0 1 1 1z"/>
</svg>
