<svg xmlns="http://www.w3.org/2000/svg" width="24" height="24" fill="none" viewBox="0 0 24 24">
  <path fill="#f87171" d="M9.173 20.143H4.244a.42.42 0 0 0-.41.428.42.42 0 0 0 .41.429h4.929a.42.42 0 0 0 .41-.429.42.42 0 0 0-.41-.428"/>
  <path fill="#fbbf24" d="M9.173 18.429H7.53a.42.42 0 0 0-.411.428.42.42 0 0 0 .41.429h1.644a.42.42 0 0 0 .41-.429.42.42 0 0 0-.41-.428"/>
  <path fill="#2dd4bf" d="M5.887 18.429H4.244a.42.42 0 0 0-.41.428.42.42 0 0 0 .41.429h1.643a.42.42 0 0 0 .41-.429.42.42 0 0 0-.41-.428"/>
  <path fill="#c084fc" d="M9.173 16.714H4.244a.42.42 0 0 0-.41.429.42.42 0 0 0 .41.428h4.929a.42.42 0 0 0 .41-.428.42.42 0 0 0-.41-.429"/>
  <path fill="#fbbf24" d="M14.101 15H6.708a.42.42 0 0 0-.41.429.42.42 0 0 0 .41.428h7.393a.42.42 0 0 0 .41-.428.42.42 0 0 0-.41-.429"/>
  <path fill="#c084fc" d="M5.066 15h-.822a.42.42 0 0 0-.41.429.42.42 0 0 0 .41.428h.822a.42.42 0 0 0 .41-.428.42.42 0 0 0-.41-.429M16.566 13.286H14.1a.42.42 0 0 0-.41.428.42.42 0 0 0 .41.429h2.465a.42.42 0 0 0 .41-.429.42.42 0 0 0-.41-.428"/>
  <path fill="#f87171" d="M12.458 13.286H9.173a.42.42 0 0 0-.411.428.42.42 0 0 0 .41.429h3.286a.42.42 0 0 0 .411-.429.42.42 0 0 0-.41-.428"/>
  <path fill="#2dd4bf" d="M7.53 13.286H4.244a.42.42 0 0 0-.41.428.42.42 0 0 0 .41.429H7.53a.42.42 0 0 0 .41-.429.42.42 0 0 0-.41-.428M17.387 11.571h-6.571a.42.42 0 0 0-.411.429.42.42 0 0 0 .41.429h6.572a.42.42 0 0 0 .41-.429.42.42 0 0 0-.41-.429"/>
  <path fill="#fbbf24" d="M9.173 11.571H6.708a.42.42 0 0 0-.41.429.42.42 0 0 0 .41.429h2.465a.42.42 0 0 0 .41-.429.42.42 0 0 0-.41-.429"/>
  <path fill="#f87171" d="M5.066 11.571h-.822a.42.42 0 0 0-.41.429.42.42 0 0 0 .41.429h.822a.42.42 0 0 0 .41-.429.42.42 0 0 0-.41-.429"/>
  <path fill="#fbbf24" d="M18.208 9.857h-4.107a.42.42 0 0 0-.41.429.42.42 0 0 0 .41.428h4.107a.42.42 0 0 0 .411-.428.42.42 0 0 0-.41-.429"/>
  <path fill="#c084fc" d="M7.53 9.857H4.244a.42.42 0 0 0-.41.429.42.42 0 0 0 .41.428H7.53a.42.42 0 0 0 .41-.428.42.42 0 0 0-.41-.429"/>
  <path fill="#f87171" d="M18.208 8.143h-4.107a.42.42 0 0 0-.41.428.42.42 0 0 0 .41.429h4.107a.42.42 0 0 0 .411-.429.42.42 0 0 0-.41-.428"/>
  <path fill="#fbbf24" d="M7.53 8.143H4.244a.42.42 0 0 0-.41.428.42.42 0 0 0 .41.429H7.53a.42.42 0 0 0 .41-.429.42.42 0 0 0-.41-.428"/>
  <path fill="#2dd4bf" d="M17.387 6.429h-.822a.42.42 0 0 0-.41.428.42.42 0 0 0 .41.429h.822a.42.42 0 0 0 .41-.429.42.42 0 0 0-.41-.428"/>
  <path fill="#c084fc" d="M14.923 6.429h-3.286a.42.42 0 0 0-.41.428.42.42 0 0 0 .41.429h3.286a.42.42 0 0 0 .41-.429.42.42 0 0 0-.41-.428"/>
  <path fill="#2dd4bf" d="M9.994 6.429h-5.75a.42.42 0 0 0-.41.428.42.42 0 0 0 .41.429h5.75a.42.42 0 0 0 .41-.429.42.42 0 0 0-.41-.428"/>
  <path fill="#fbbf24" d="M16.566 4.714H8.35a.42.42 0 0 0-.41.429.42.42 0 0 0 .41.428h8.215a.42.42 0 0 0 .41-.428.42.42 0 0 0-.41-.429"/>
  <path fill="#f87171" d="M6.708 4.714H4.244a.42.42 0 0 0-.41.429.42.42 0 0 0 .41.428h2.464a.42.42 0 0 0 .411-.428.42.42 0 0 0-.41-.429"/>
  <path fill="#2dd4bf" d="M14.101 3H4.244a.42.42 0 0 0-.41.429.42.42 0 0 0 .41.428h9.857a.42.42 0 0 0 .41-.428.42.42 0 0 0-.41-.429"/>
</svg>
