<svg xmlns="http://www.w3.org/2000/svg" width="24" height="24" fill="none" viewBox="0 0 24 24">
  <path fill="#fed7aa" fill-rule="evenodd" d="M17.947 9.217q-.001.23.008.471c.01.2.05.404.09.615.069.368.141.752.075 1.149-.058.389-.098.778-.137 1.16-.043.415-.085.822-.148 1.213-.044.303-.253.58-.46.854-.208.276-.415.55-.452.847-.195 1.592-1.72 2.326-5.31 2.326v.125h-.016v-.125c-3.59 0-5.176-.734-5.385-2.326-.037-.287-.255-.558-.476-.834-.224-.278-.451-.561-.497-.867-.062-.39-.104-.797-.147-1.213-.04-.382-.08-.771-.137-1.16-.066-.396.006-.773.075-1.136a5 5 0 0 0 .09-.612l.02-.366c.024-.535.046-1.01.279-1.445.718-1.296 2.603-2.045 6.193-2.045s5.386.75 6.104 2.03c.229.393.23.842.231 1.34m-6.023 2.353c.064-.018.09-.133.06-.258-.031-.125-.108-.213-.172-.196-.064.018-.091.133-.06.258.03.125.108.213.172.196m-.108.282c-.119.025-.204.043-.204.068.009.035.012.09.017.153q.004.076.013.16l.002.26c.004.375.009.918-.02 1.114.658.024 1.649.935 1.649 2.075v.063c-.015-1.109-1.272-2.014-1.676-2.014s-1.66.905-1.675 2.014v-.063c0-1.12.983-2.044 1.642-2.075-.042-.235-.042-1.03-.042-1.375 0-.066.006-.149.01-.214l.005-.098c0-.04-.606-.204-.787-.252.151.04.596.148.683.096.09-.062.134-.25.134-.25s.03.188.15.25c.12.078.673-.11.673-.11-.16.112-.402.162-.574.198m-1.116-.197.05.013zm.636-.274c-.037.123-.118.207-.181.186s-.085-.137-.048-.26c.037-.124.118-.207.18-.187.064.02.085.137.049.26m-1.175 1.367a.12.12 0 0 1-.12.124.12.12 0 0 1-.12-.124c0-.07.054-.125.12-.125s.12.056.12.125m-.688.749a.12.12 0 0 1-.12.125.12.12 0 0 1-.12-.125c0-.07.054-.125.12-.125s.12.056.12.125m-.344-.625c.066 0 .12-.056.12-.124a.12.12 0 0 0-.12-.125.12.12 0 0 0-.12.125c0 .069.054.124.12.124m3.95-.124a.12.12 0 0 1-.12.124.12.12 0 0 1-.12-.124c0-.07.053-.125.12-.125.066 0 .12.056.12.125m.568.874c.066 0 .12-.056.12-.125a.12.12 0 0 0-.12-.125.12.12 0 0 0-.12.125c0 .069.054.125.12.125m.344-.874a.12.12 0 0 1-.12.124.12.12 0 0 1-.12-.124c0-.07.054-.125.12-.125s.12.056.12.125" clip-rule="evenodd"/>
  <path fill="#18181b" fill-rule="evenodd" d="M17.013 10.812c0 .759-.59 1.374-1.317 1.374s-1.316-.615-1.316-1.374.59-1.374 1.316-1.374 1.317.615 1.317 1.374m-1.317-.609a.35.35 0 0 1-.344.36.35.35 0 0 1-.344-.36c0-.198.154-.359.344-.359s.344.16.344.36" clip-rule="evenodd"/>
  <path fill="#fed7aa" d="M13.692 10.75s1.181.842 1.825 1.67c.643.827.628.983.628.983l-.464.219s-.658-1.296-1.466-1.78c-.823-.484-.912-.89-.912-.89z"/>
  <path fill="#18181b" fill-rule="evenodd" d="M8.77 10.812c0 .759-.59 1.374-1.317 1.374s-1.316-.615-1.316-1.374.59-1.374 1.316-1.374c.728 0 1.317.615 1.317 1.374m-.628-.609a.35.35 0 0 1-.344.36.35.35 0 0 1-.345-.36c0-.198.155-.359.345-.359s.344.16.344.36" clip-rule="evenodd"/>
  <path fill="#fed7aa" d="M9.368 10.75s-1.181.842-1.825 1.67c-.643.827-.628.983-.628.983l.464.219s.658-1.296 1.466-1.78.912-.89.912-.89z"/>
  <path fill="#713f12" d="M15.262 6.254s1.736 1.514 2.244 3.262c.509 1.749.3 3.871.688 4.137.554.374 1.182-1.858 1.392-2.092.329-.374 1.42-1.327 1.496-1.498.074-.172-2.214-2.779-3.217-3.294-1.211-.593-2.707-.64-2.603-.515M7.738 6.254S6.002 7.768 5.494 9.516c-.509 1.749-.3 3.871-.688 4.137-.554.374-1.182-1.858-1.392-2.092-.329-.374-1.42-1.327-1.496-1.498-.074-.172 2.214-2.779 3.217-3.294 1.211-.593 2.707-.64 2.603-.515"/>
  <path fill="#713f12" fill-rule="evenodd" d="M15.068 12.888c-.513-.658-1.248-1.284-2.21-1.588-.1-.335-.576-.691-1.246-.691-.653.012-1.122.354-1.238.675-.988.297-1.74.934-2.262 1.604-.695.884-.693 1.27-.689 2.046v.186c0 2.486.637 2.548 1.264 2.61.2.02.4.04.577.137.601.314 1.222.295 1.854.275q.231-.008.464-.01h.015q.219.002.435.008c.649.016 1.271.032 1.884-.288.178-.095.377-.11.578-.124.627-.047 1.262-.094 1.262-2.577l.002-.123c.015-.82.023-1.232-.69-2.14m-3.144-1.318c.064-.018.09-.133.06-.258-.031-.125-.108-.213-.172-.196-.064.018-.091.133-.06.258.03.125.108.213.172.196m-.108.282c-.119.025-.204.043-.204.068.009.035.012.09.017.153q.004.076.013.16l.002.26c.004.375.009.918-.02 1.114.658.024 1.649.935 1.649 2.075v.063c-.015-1.109-1.272-2.014-1.676-2.014s-1.66.905-1.675 2.014v-.063c0-1.12.983-2.044 1.642-2.075-.042-.235-.042-1.03-.042-1.375 0-.066.006-.149.01-.214l.005-.098c0-.04-.606-.204-.787-.252.151.04.596.148.683.096.09-.062.134-.25.134-.25s.03.188.15.25c.12.078.673-.11.673-.11-.16.112-.402.162-.574.198m-1.116-.197.05.013zm.636-.274c-.037.123-.118.207-.181.186s-.085-.137-.048-.26c.037-.124.118-.207.18-.187.064.02.085.137.049.26m-1.175 1.367a.12.12 0 0 1-.12.124.12.12 0 0 1-.12-.124c0-.07.054-.125.12-.125.067 0 .12.056.12.125m-.688.749a.12.12 0 0 1-.12.125.12.12 0 0 1-.12-.125c0-.07.054-.125.12-.125s.12.056.12.125m-.344-.625c.066 0 .12-.056.12-.124a.12.12 0 0 0-.12-.125.12.12 0 0 0-.12.125c0 .069.054.124.12.124m3.95-.124a.12.12 0 0 1-.12.124.12.12 0 0 1-.12-.124c0-.07.053-.125.12-.125.066 0 .12.056.12.125m.568.874c.066 0 .12-.056.12-.125a.12.12 0 0 0-.12-.125.12.12 0 0 0-.12.125c0 .069.054.125.12.125m.344-.874a.12.12 0 0 1-.12.124.12.12 0 0 1-.12-.124c0-.07.054-.125.12-.125s.12.056.12.125" clip-rule="evenodd"/>
  <path fill="#fff" d="M15.352 10.562c.19 0 .344-.16.344-.359a.35.35 0 0 0-.344-.359c-.19 0-.344.16-.344.36 0 .197.154.358.344.358M7.798 10.562c.19 0 .344-.16.344-.359a.35.35 0 0 0-.344-.359c-.19 0-.345.16-.345.36 0 .197.155.358.345.358"/>
</svg>
