<svg xmlns="http://www.w3.org/2000/svg" width="24" height="24" fill="none" viewBox="0 0 24 24">
  <path fill="#f87171" fill-rule="evenodd" d="M5.82 12.597c.675-.407.676-1.723.002-2.94C5.15 8.44 4.057 7.784 3.383 8.19c-.675.406-.676 1.722-.003 2.94.674 1.216 1.766 1.873 2.441 1.467m.004 2.605c.673 1.217.672 2.533-.002 2.94-.675.406-1.768-.25-2.441-1.468-.674-1.217-.672-2.533.002-2.94.675-.406 1.768.251 2.441 1.468m4.598 2.774c.673 1.217.672 2.533-.003 2.94-.674.406-1.767-.251-2.44-1.468-.674-1.217-.673-2.533.002-2.94.675-.406 1.768.251 2.44 1.468m-.002-5.545c.674 1.217.672 2.533-.002 2.94-.675.406-1.768-.251-2.44-1.468-.674-1.217-.673-2.533.002-2.94.674-.406 1.767.251 2.44 1.468" clip-rule="evenodd"/>
  <path fill="#a855f7" fill-rule="evenodd" d="M19.618 11.132c.673-1.217.672-2.533-.002-2.94-.675-.406-1.768.251-2.441 1.468s-.672 2.533.002 2.94c.675.406 1.768-.25 2.441-1.468m0 2.605c.675.406.676 1.722.003 2.939s-1.766 1.874-2.441 1.467c-.675-.406-.676-1.722-.003-2.94.674-1.216 1.767-1.873 2.441-1.466m-4.597 2.769c.675.406.676 1.722.003 2.94-.673 1.216-1.766 1.873-2.44 1.466-.675-.406-.677-1.722-.003-2.939.673-1.217 1.766-1.874 2.44-1.467m-.002-5.544c.675.407.676 1.723.002 2.94-.673 1.216-1.766 1.873-2.44 1.467-.675-.407-.676-1.723-.003-2.94s1.766-1.873 2.44-1.467" clip-rule="evenodd"/>
  <path fill="#f59e0b" fill-rule="evenodd" d="M13.936 3.472c0 .813-1.092 1.472-2.438 1.472S9.06 4.284 9.06 3.472C9.06 2.659 10.15 2 11.498 2c1.346 0 2.438.659 2.438 1.472M9.34 6.238c0 .813-1.091 1.472-2.438 1.472s-2.438-.659-2.438-1.472S5.554 4.766 6.9 4.766s2.438.66 2.438 1.472m6.762 1.472c1.346 0 2.438-.659 2.438-1.472S17.447 4.766 16.1 4.766s-2.439.66-2.439 1.472c0 .813 1.092 1.472 2.439 1.472m-2.165 1.3c0 .814-1.092 1.473-2.438 1.473S9.06 9.823 9.06 9.01c0-.813 1.091-1.472 2.438-1.472 1.346 0 2.438.659 2.438 1.472" clip-rule="evenodd"/>
</svg>
