<svg xmlns="http://www.w3.org/2000/svg" width="24" height="24" fill="none" viewBox="0 0 24 24">
  <path fill="#71717a" fill-rule="evenodd" d="M19.028 14.03c.699-.87 1.097-1.874 1.097-2.943 0-3.329-3.861-6.027-8.625-6.027s-8.625 2.698-8.625 6.027c0 2.732 2.6 5.04 6.166 5.78v-1.963c-1.68-.746-2.777-1.976-2.777-3.367 0-2.276 2.936-4.12 6.556-4.12s6.293 1.262 6.293 4.12q0 .445-.085.839z" clip-rule="evenodd"/>
  <path fill="#2563eb" fill-rule="evenodd" d="M16.01 14.396s.522.164.826.324c.105.056.287.166.418.312.129.143.192.287.192.287l2.057 3.62-3.325.001-1.555-3.047s-.318-.57-.514-.736c-.164-.138-.233-.187-.395-.187h-.79v3.968l-2.942.001V8.803h5.909s2.691.05 2.691 2.722-2.572 2.87-2.572 2.87M14.73 11h-1.78l-.002 1.723h1.783s.825-.004.825-.878c0-.891-.825-.845-.825-.845" clip-rule="evenodd"/>
</svg>
