<svg xmlns="http://www.w3.org/2000/svg" width="24" height="24" fill="none" viewBox="0 0 24 24">
  <mask id="a" width="19" height="17" x="2" y="3" maskUnits="userSpaceOnUse" style="mask-type:alpha">
    <path fill="#d9d9d9" d="M16.92 3.14H6.175L2.398 9.377l9.179 9.878 8.644-9.878z"/>
  </mask>
  <g stroke="#f87171" stroke-linecap="round" stroke-linejoin="round" stroke-width="2" mask="url(#a)">
    <path d="M11.804 2.162 7.667 9.35l4.142 11.256"/>
    <path d="m10.642 2.17 4.15 7.193-4.133 11.265"/>
  </g>
  <path stroke="#f87171" stroke-linejoin="round" stroke-width="2" d="M3.613 9.35h15.454"/>
  <path fill="#f87171" fill-rule="evenodd" d="M6.143 3.584a1 1 0 0 1 .838-.453h10.002a1 1 0 0 1 .87.505l2.976 5.231a1 1 0 0 1-.082 1.112l-7.858 10.024a1 1 0 0 1-1.548.031L2.805 10.01a1 1 0 0 1-.076-1.195zm1.38 1.547-2.71 4.152 7.257 8.523 6.688-8.533-2.357-4.142z" clip-rule="evenodd"/>
</svg>
