<svg xmlns="http://www.w3.org/2000/svg" width="24" height="24" fill="none" viewBox="0 0 24 24">
  <path fill="#ea580c" fill-rule="evenodd" d="M11.734 2.136A.27.27 0 0 0 11.5 2a.27.27 0 0 0-.234.136l-.504.85-.223.022-.654-.73a.27.27 0 0 0-.255-.085.28.28 0 0 0-.203.18l-.336.936-.214.067-.778-.583a.27.27 0 0 0-.266-.032.28.28 0 0 0-.166.219l-.155.989-.195.11-.875-.417a.27.27 0 0 0-.267.023.29.29 0 0 0-.122.249l.034 1.005-.167.144-.94-.231a.27.27 0 0 0-.257.076.3.3 0 0 0-.074.269l.222.98-.138.175-.963-.036a.27.27 0 0 0-.239.127.3.3 0 0 0-.021.279l.398.913-.104.203L2.855 8a.28.28 0 0 0-.21.173.3.3 0 0 0 .031.278l.56.812-.065.223-.896.35a.28.28 0 0 0-.173.213.3.3 0 0 0 .082.266l.699.682-.022.233-.814.526a.29.29 0 0 0-.13.244c0 .1.049.192.13.244l.814.526.022.233-.7.682a.3.3 0 0 0-.081.266.28.28 0 0 0 .173.213l.896.35q.03.112.065.223l-.56.812a.3.3 0 0 0-.03.278.28.28 0 0 0 .21.173l.948.162q.051.102.105.203l-.4.913a.3.3 0 0 0 .022.279c.053.082.143.13.239.127l.964-.036q.067.088.137.174l-.222.981a.3.3 0 0 0 .074.269c.067.07.165.1.257.076l.94-.23q.082.072.167.142l-.034 1.006c-.004.1.043.194.122.25.08.055.18.063.267.022l.875-.417q.098.056.195.11l.155.99c.015.098.078.18.166.218a.27.27 0 0 0 .266-.032l.778-.584q.106.035.214.068l.336.935c.033.093.11.162.203.18.094.02.19-.012.255-.085l.654-.73q.11.015.223.023l.504.85c.05.085.139.136.234.136a.27.27 0 0 0 .234-.136l.504-.85q.112-.01.223-.023l.654.73a.27.27 0 0 0 .255.086.28.28 0 0 0 .203-.18l.336-.936q.108-.032.214-.068l.778.584c.078.058.178.07.266.032a.28.28 0 0 0 .166-.219l.155-.99q.098-.052.195-.109l.875.417a.27.27 0 0 0 .267-.023.29.29 0 0 0 .122-.249l-.034-1.006.167-.143.94.231a.27.27 0 0 0 .257-.076.3.3 0 0 0 .073-.269l-.221-.98.137-.175.964.036a.27.27 0 0 0 .239-.127.3.3 0 0 0 .021-.279l-.399-.913.105-.203.948-.162a.28.28 0 0 0 .21-.173.3.3 0 0 0-.03-.278l-.56-.812q.034-.11.065-.223l.896-.35a.28.28 0 0 0 .173-.213.3.3 0 0 0-.082-.266l-.7-.682q.014-.116.023-.233l.814-.526a.29.29 0 0 0 .13-.244.29.29 0 0 0-.13-.244l-.814-.526-.022-.233.7-.682c.069-.068.1-.168.081-.266a.28.28 0 0 0-.173-.213l-.896-.35-.065-.223.56-.812a.3.3 0 0 0 .03-.278.28.28 0 0 0-.21-.173l-.948-.162-.105-.203.4-.913a.3.3 0 0 0-.022-.279.27.27 0 0 0-.239-.127l-.964.036-.137-.174.221-.981a.3.3 0 0 0-.073-.269.27.27 0 0 0-.257-.076l-.94.23-.167-.142.034-1.006a.29.29 0 0 0-.122-.25.27.27 0 0 0-.267-.022l-.875.417-.195-.11-.155-.99a.28.28 0 0 0-.166-.218.27.27 0 0 0-.266.032l-.778.584-.214-.068-.336-.935a.28.28 0 0 0-.203-.18.27.27 0 0 0-.255.085l-.654.73-.223-.023zm-.247 1.62c.148.005.29.07.393.18a.6.6 0 0 1 .161.416c0 .158-.06.31-.167.421a.56.56 0 0 1-.403.174.56.56 0 0 1-.404-.174.61.61 0 0 1-.122-.653.6.6 0 0 1 .319-.323.55.55 0 0 1 .223-.04m1.306.98a6.9 6.9 0 0 1 2.78 1.234 7.2 7.2 0 0 1 2.026 2.338l-.674 1.585a.557.557 0 0 0 .264.717l1.295.6q.06.634.015 1.27h-.72c-.072 0-.102.05-.102.123v.344c0 .812-.438.99-.823 1.034-.367.044-.772-.161-.824-.394-.211-1.24-.559-1.526-1.105-1.975l-.04-.033c.707-.467 1.44-1.158 1.44-2.08 0-.998-.654-1.625-1.1-1.934-.627-.43-1.32-.516-1.508-.516H6.271a6.95 6.95 0 0 1 3.927-2.312l.878.96a.5.5 0 0 0 .734.018zM4.686 9.144a.56.56 0 0 1 .393.18.6.6 0 0 1 .161.415c0 .158-.06.309-.167.42a.56.56 0 0 1-.403.175.56.56 0 0 1-.404-.174.61.61 0 0 1-.122-.653.6.6 0 0 1 .319-.323.55.55 0 0 1 .223-.04m13.6.026a.56.56 0 0 1 .393.18.61.61 0 0 1-.006.836.56.56 0 0 1-.403.175.56.56 0 0 1-.404-.175.61.61 0 0 1-.122-.652.6.6 0 0 1 .319-.323.55.55 0 0 1 .223-.04m-12.525.096h.994v4.678H4.75a7.6 7.6 0 0 1-.228-2.797l1.229-.57a.55.55 0 0 0 .264-.716zm4.149.05h2.368c.122 0 .864.147.864.727 0 .48-.57.653-1.037.653H9.908zm0 3.36h1.814c.165 0 .886.05 1.115 1.011.025.104.061.291.102.503.076.389.167.861.237 1.06.108.345.547 1.034 1.015 1.034h2.96a7 7 0 0 1-.65.785l-1.204-.27a.52.52 0 0 0-.619.417l-.286 1.394c-.92.434-1.919.657-2.93.652a6.8 6.8 0 0 1-2.922-.681l-.287-1.393a.52.52 0 0 0-.616-.418l-1.18.264a7 7 0 0 1-.608-.75h5.735c.064 0 .108-.011.108-.074v-2.117c0-.061-.044-.075-.108-.075H9.908zm-2.647 4.848a.56.56 0 0 1 .393.18c.103.112.161.26.161.416 0 .157-.06.309-.167.42a.56.56 0 0 1-.403.175.56.56 0 0 1-.404-.174.61.61 0 0 1-.122-.653.6.6 0 0 1 .319-.323.55.55 0 0 1 .223-.04m8.446.027a.56.56 0 0 1 .393.18c.104.112.161.26.161.415 0 .158-.06.31-.167.421a.56.56 0 0 1-.403.175.56.56 0 0 1-.403-.175.61.61 0 0 1-.123-.652.6.6 0 0 1 .319-.324.55.55 0 0 1 .223-.04" clip-rule="evenodd"/>
</svg>
