<svg xmlns="http://www.w3.org/2000/svg" width="24" height="24" fill="none" viewBox="0 0 24 24">
  <path fill="#f472b6" d="M18.416 12.76c-.67.004-1.25.175-1.737.43-.18-.378-.36-.708-.39-.955-.033-.286-.074-.461-.033-.803s.229-.827.229-.866c-.004-.036-.042-.211-.427-.215-.386-.004-.72.08-.757.187a5 5 0 0 0-.16.608c-.068.374-.772 1.697-1.172 2.393-.131-.27-.244-.509-.266-.7-.034-.286-.075-.46-.034-.803.041-.341.229-.826.229-.866-.004-.036-.042-.21-.427-.215-.386-.004-.72.08-.757.187s-.078.362-.16.608c-.08.247-1.015 2.457-1.258 3.033-.124.295-.233.529-.311.688-.079.16-.004.012-.011.028l-.105.21v.005c-.053.099-.109.194-.135.194-.019 0-.056-.266.007-.632.139-.767.476-1.963.472-2.007 0-.02.064-.23-.217-.338-.273-.107-.37.071-.393.071-.022 0-.041.064-.041.064s.303-1.348-.58-1.348c-.555 0-1.318.64-1.696 1.225-.24.139-.75.433-1.288.747-.206.12-.42.247-.622.362l-.041-.048c-1.07-1.212-3.051-2.07-2.969-3.7.03-.593.225-2.155 3.804-4.048 2.931-1.55 5.279-1.125 5.687-.179.58 1.352-1.255 3.864-4.302 4.226-1.16.14-1.77-.338-1.924-.517-.161-.186-.184-.194-.244-.159-.097.056-.037.223 0 .322.09.25.465.696 1.101.919.558.194 1.92.302 3.568-.374 1.846-.76 3.287-2.866 2.864-4.627-.43-1.793-3.231-2.381-5.878-1.384C6.466 5.08 4.76 6.01 3.531 7.23c-1.46 1.447-1.692 2.711-1.595 3.236.34 1.873 2.77 3.093 3.744 3.995l-.135.08c-.487.254-2.34 1.284-2.804 2.373-.524 1.232.082 2.119.487 2.238 1.25.37 2.53-.294 3.223-1.387.689-1.093.607-2.513.288-3.16l-.01-.024.381-.239c.247-.155.49-.298.704-.421-.12.346-.206.755-.251 1.351-.052.7.217 1.606.573 1.964.157.155.344.16.46.16.412 0 .6-.363.805-.796.255-.529.48-1.14.48-1.14s-.281 1.657.486 1.657c.28 0 .562-.386.689-.585v.004l.022-.04c.03-.047.045-.075.045-.075v-.008c.113-.207.364-.68.738-1.463.483-1.01.947-2.274.947-2.274s.045.31.184.82c.082.301.261.631.4.953-.112.167-.18.263-.18.263l.004.004q-.136.193-.296.397c-.381.485-.838 1.038-.898 1.197-.071.187-.056.326.082.437.101.08.281.096.472.08.344-.024.584-.116.704-.171.187-.072.4-.18.606-.338.375-.294.603-.712.58-1.268-.01-.306-.104-.609-.22-.895l.1-.159c.592-.918 1.049-1.928 1.049-1.928s.045.31.184.82c.07.258.213.54.34.818-.554.481-.902 1.038-1.022 1.403-.22.676-.049.982.277 1.054.146.032.356-.04.513-.112a2.3 2.3 0 0 0 .648-.353c.374-.295.733-.704.715-1.257a2.5 2.5 0 0 0-.161-.743c.471-.207 1.082-.326 1.857-.226 1.666.206 1.995 1.311 1.931 1.773-.063.46-.411.715-.527.795-.116.075-.154.103-.143.159.015.083.068.079.169.063.138-.024.876-.378.906-1.228.045-1.093-.932-2.286-2.666-2.274m-12.849 4.6c-.55.64-1.325.882-1.654.675-.356-.218-.217-1.16.46-1.84.412-.414.947-.796 1.3-1.03.078-.052.198-.127.34-.219q.035-.024.037-.024.041-.024.087-.055c.25.97.01 1.82-.57 2.492m4.025-2.907c-.19.497-.595 1.773-.839 1.702-.21-.06-.336-1.026-.04-1.98.15-.48.467-1.053.654-1.276.304-.358.633-.477.715-.33.098.19-.37 1.574-.49 1.884m3.32 1.686c-.082.044-.156.075-.19.052-.026-.016.034-.076.034-.076s.415-.473.58-.692c.094-.127.206-.274.326-.44v.047c0 .572-.517.954-.75 1.109m2.562-.62c-.06-.048-.053-.195.15-.656a2.5 2.5 0 0 1 .568-.78c.038.12.06.235.057.343-.004.715-.483.981-.775 1.093"/>
</svg>
