<svg xmlns="http://www.w3.org/2000/svg" width="24" height="24" fill="none" viewBox="0 0 24 24">
  <path fill="#ff269e" d="M19.131 21c1.608 0 2.198-.706 2.198-2.434v-3.38c0-1.608.768-2.525 1.505-2.96.221-.135.221-.451 0-.601-.767-.496-1.504-1.533-1.504-2.915V5.404C21.33 3.541 20.828 3 19.22 3H4.78c-1.608 0-2.11.542-2.11 2.404v3.32c0 1.382-.738 2.419-1.504 2.916a.35.35 0 0 0-.165.3.36.36 0 0 0 .165.3c.737.421 1.503 1.338 1.503 2.96v3.366c0 1.727.592 2.434 2.2 2.434zm-7.168-3.08c-1.726 0-2.98-.526-4.146-1.562a.84.84 0 0 1-.265-.632.78.78 0 0 1 .177-.525l.369-.481c.177-.226.368-.33.59-.33.25 0 .486.104.737.27a4.8 4.8 0 0 0 2.744.825c.811 0 1.46-.345 1.46-1.05 0-1.834-5.988-.827-5.988-4.944 0-2.209 1.769-3.44 4.07-3.44 1.623 0 2.818.48 3.704 1.05.22.151.368.452.368.752a.85.85 0 0 1-.147.495l-.266.406c-.192.271-.412.407-.693.407-.192 0-.399-.075-.62-.18a4.6 4.6 0 0 0-2.198-.527c-.87 0-1.387.48-1.387.976 0 1.88 5.99.858 5.99 4.854 0 2.254-1.785 3.636-4.5 3.636"/>
</svg>
