<svg xmlns="http://www.w3.org/2000/svg" width="24" height="24" fill="none" viewBox="0 0 24 24">
  <mask id="a" width="16" height="20" x="3.562" y="2" fill="#000" maskUnits="userSpaceOnUse">
    <path fill="#fff" d="M3.562 2h16v20h-16z"/>
    <path d="M10.138 19.877a3.53 3.53 0 0 1-2.201-.116 3.7 3.7 0 0 1-1.741-1.409 3.6 3.6 0 0 1-.55-1.28c-.1-.46-.11-.937-.031-1.402q.04-.23.11-.45l.087-.278.237.181c.547.42 1.159.739 1.808.944l.172.054-.016.18c-.02.254.046.508.187.716.13.194.312.343.525.425.212.082.444.094.663.035a1 1 0 0 0 .283-.13l4.624-3.075a1 1 0 0 0 .285-.288c.075-.116.126-.247.15-.384a1.12 1.12 0 0 0-.176-.809 1.1 1.1 0 0 0-.524-.424 1.06 1.06 0 0 0-.663-.036 1 1 0 0 0-.284.13l-1.764 1.174c-.29.192-.608.337-.94.43a3.53 3.53 0 0 1-2.2-.116 3.7 3.7 0 0 1-1.742-1.409 3.6 3.6 0 0 1-.55-1.28c-.1-.46-.11-.937-.03-1.402a3.4 3.4 0 0 1 .495-1.273c.248-.384.57-.71.947-.956l4.624-3.075c.29-.193.607-.338.94-.43a3.53 3.53 0 0 1 2.2.115 3.7 3.7 0 0 1 1.741 1.409c.263.384.45.82.55 1.28s.11.937.031 1.402a4 4 0 0 1-.11.45l-.087.278-.237-.181a5.9 5.9 0 0 0-1.809-.943l-.171-.055.015-.179a1.12 1.12 0 0 0-.186-.717 1.1 1.1 0 0 0-.525-.425 1.06 1.06 0 0 0-.663-.035 1 1 0 0 0-.283.13L8.704 9.728a1 1 0 0 0-.285.288 1 1 0 0 0-.15.384 1.12 1.12 0 0 0 .176.809c.129.194.312.342.524.424.213.083.444.095.663.036a1 1 0 0 0 .284-.13l1.764-1.173c.29-.193.607-.338.94-.43a3.53 3.53 0 0 1 2.2.115 3.7 3.7 0 0 1 1.741 1.409c.264.384.45.82.55 1.28s.11.937.031 1.402c-.078.456-.247.89-.495 1.274a3.3 3.3 0 0 1-.946.956l-4.624 3.074a3.3 3.3 0 0 1-.94.43"/>
  </mask>
  <path fill="#2563eb" d="m7.937 19.761.721-1.865zm-1.741-1.409 1.665-1.107-.015-.023zm-.581-2.682-1.97-.346-.002.01zm.11-.45 1.907.604.002-.006zm.087-.278 1.216-1.588a2 2 0 0 0-3.124.99zm.237.181 1.218-1.586-.002-.002zm1.808.944.604-1.907H8.46zm.172.054 1.992.176a2 2 0 0 0-1.388-2.083zm-.016.18-1.992-.176v.012zm.187.716 1.666-1.106-.01-.017zm1.188.46.524 1.93.01-.003zm.283-.13 1.104 1.668.004-.003zm4.624-3.075L13.197 12.6l-.01.007zm.434-.672 1.971.34.002-.006zm-.175-.809-1.666 1.107.015.022zm-1.187-.46-.523-1.93-.012.003zm-.284.13-1.103-1.668-.005.003zm-1.764 1.174 1.105 1.667.002-.002zm-.94.43.524 1.93.013-.004zM6.437 12.54l1.666-1.107-.016-.023zm-.58-2.682-1.972-.34v.004zm1.442-2.229 1.096 1.673.011-.008zm4.624-3.075-1.107-1.666zm.94-.43-.524-1.931-.014.004zm3.941 1.524L15.14 6.755l.015.023zm.581 2.682 1.97.349.002-.013zm-.11.45-1.907-.603-.002.005zm-.087.278-1.215 1.589a2 2 0 0 0 3.123-.99zm-.237-.181-1.218 1.587.003.002zm-1.809-.943L14.54 9.84h.002zm-.171-.055-1.992-.177a2 2 0 0 0 1.389 2.084zm.015-.179 1.993.178v-.015zm-.186-.717-1.666 1.106.01.015zm-1.188-.46-.523-1.93-.011.003zm-.283.13-1.104-1.669-.004.003zM8.704 9.728 9.8 11.4l.01-.006zm-.434.672-1.971-.34v.005zm.175.809 1.665-1.107-.014-.022zm1.187.46.523 1.93.013-.004zm.284-.13 1.102 1.669.005-.004zm1.764-1.173L10.573 8.7zm.94-.43-.524-1.931-.013.004zm3.941 1.524-1.665 1.107.015.023zm.581 2.682 1.971.34v-.004zm-1.44 2.23L14.602 14.7l-.01.006zm-4.625 3.074 1.107 1.666zm-1.463-1.5a1.53 1.53 0 0 1-.956-.05l-1.443 3.73a5.53 5.53 0 0 0 3.446.181zm-.956-.05a1.7 1.7 0 0 1-.797-.651L4.53 19.459a5.7 5.7 0 0 0 2.685 2.167zm-.812-.674a1.6 1.6 0 0 1-.245-.573l-3.91.846c.154.71.443 1.386.854 1.987zM7.6 16.65c-.046-.211-.05-.43-.015-.643l-3.943-.672a5.7 5.7 0 0 0 .048 2.161zm-.016-.633q.017-.099.047-.192l-3.813-1.21q-.111.35-.174.71zm.049-.198.087-.277-3.817-1.198-.087.278zm-3.038.712.237.181 2.432-3.176-.237-.181zm.236.18c.73.56 1.55.988 2.424 1.264L8.46 14.16a3.9 3.9 0 0 1-1.192-.622zm2.422 1.264.172.054 1.207-3.814-.172-.054zm-1.217-2.028-.016.179 3.985.35.015-.178zm-.017.19a3.1 3.1 0 0 0 .525 2.004l3.31-2.246a.9.9 0 0 1 .152.57zm.514 1.987c.352.53.86.949 1.469 1.184l1.444-3.73c.183.07.325.192.42.334zm1.469 1.184c.609.236 1.277.271 1.909.1l-1.048-3.86a.94.94 0 0 1 .583.03zm1.92.097c.304-.085.591-.216.852-.389L8.568 15.68a1 1 0 0 1 .285-.13zm.856-.392 4.624-3.075-2.216-3.33-4.623 3.075zm4.614-3.069c.35-.23.643-.528.866-.873l-3.358-2.173c.073-.113.173-.216.296-.297zm.866-.873a3 3 0 0 0 .441-1.13l-3.941-.68a1 1 0 0 1 .142-.363zm.442-1.136a3.1 3.1 0 0 0-.027-1.18l-3.909.847a.9.9 0 0 1-.008-.335zm-.027-1.18a3.1 3.1 0 0 0-.468-1.09l-3.303 2.256a.9.9 0 0 1-.138-.32zm-.454-1.07a3.1 3.1 0 0 0-1.468-1.182l-1.445 3.73a.9.9 0 0 1-.419-.334zm-1.468-1.182a3.06 3.06 0 0 0-1.908-.101l1.045 3.861a.94.94 0 0 1-.582-.03zm-1.92-.098c-.304.085-.591.216-.852.389l2.206 3.336q-.128.085-.284.13zm-.857.392-1.764 1.173 2.215 3.33 1.765-1.173zm-1.761 1.172a1.3 1.3 0 0 1-.372.17l1.074 3.853a5.3 5.3 0 0 0 1.508-.69zm-.359.167a1.53 1.53 0 0 1-.955-.051l-1.443 3.73a5.53 5.53 0 0 0 3.446.181zm-.955-.051a1.7 1.7 0 0 1-.797-.651l-3.331 2.214a5.7 5.7 0 0 0 2.685 2.168zm-.813-.674a1.6 1.6 0 0 1-.245-.573l-3.91.847c.155.71.444 1.386.855 1.986zm-.245-.573c-.046-.21-.05-.43-.014-.643l-3.943-.672a5.7 5.7 0 0 0 .048 2.162zm-.015-.64a1.4 1.4 0 0 1 .204-.526L4.673 7.498a5.4 5.4 0 0 0-.788 2.02zm.204-.526c.1-.154.225-.278.364-.37L6.202 5.957a5.3 5.3 0 0 0-1.529 1.542zm.375-.377L13.03 6.22l-2.215-3.33-4.624 3.075zM13.03 6.22c.117-.078.243-.135.37-.17l-1.074-3.853a5.3 5.3 0 0 0-1.509.691zm.357-.166c.315-.086.647-.069.956.05l1.442-3.73a5.53 5.53 0 0 0-3.445-.181zm.956.05c.31.12.591.342.797.651l3.33-2.214a5.7 5.7 0 0 0-2.685-2.167zm.812.674c.115.168.2.363.245.573l3.91-.846a5.6 5.6 0 0 0-.854-1.987zm.245.573c.046.211.05.43.015.644l3.943.67a5.7 5.7 0 0 0-.048-2.16zm.017.63a2 2 0 0 1-.048.196l3.813 1.207q.11-.346.174-.705zm-.05.201-.087.277 3.817 1.198.087-.278zm3.036-.713-.236-.18-2.43 3.177.237.18zm-.234-.179a7.9 7.9 0 0 0-2.424-1.264l-1.202 3.815c.424.134.827.344 1.191.623zm-2.422-1.263-.172-.055-1.207 3.814.172.055zm1.217 2.03.016-.18-3.985-.354-.015.179zm.017-.194a3.12 3.12 0 0 0-.524-2.001l-3.312 2.242a.88.88 0 0 1-.15-.567zm-.514-1.987a3.1 3.1 0 0 0-1.469-1.183l-1.443 3.73a.9.9 0 0 1-.42-.334zm-1.469-1.183a3.06 3.06 0 0 0-1.908-.1l1.047 3.86a.94.94 0 0 1-.582-.03zm-1.92-.097a3 3 0 0 0-.852.388l2.207 3.337q-.128.084-.285.13zm-.856.391L7.596 8.063l2.215 3.33 4.625-3.075zm-4.615 3.07c-.35.229-.643.528-.867.873l3.36 2.172a1 1 0 0 1-.298.298zm-.867.873c-.223.345-.371.73-.44 1.13l3.942.68a1 1 0 0 1-.143.362zm-.44 1.135c-.067.39-.059.792.025 1.18l3.91-.845q.036.167.008.335zm.025 1.18c.084.388.242.76.47 1.092l3.302-2.257c.068.1.114.21.138.32zm.455 1.07c.352.53.86.948 1.468 1.183l1.444-3.73c.183.071.326.193.42.334zm1.468 1.183a3.06 3.06 0 0 0 1.908.101L9.11 9.738a.94.94 0 0 1 .581.03zm1.921.097a3 3 0 0 0 .85-.387L8.814 9.87q.127-.085.282-.128zm.855-.39 1.765-1.174-2.215-3.33-1.765 1.173zm1.764-1.173q.176-.116.37-.17l-1.074-3.853a5.3 5.3 0 0 0-1.51.691zm.356-.166c.315-.086.647-.07.956.05l1.443-3.73a5.53 5.53 0 0 0-3.446-.181zm.956.05c.31.12.591.342.797.651l3.331-2.214a5.7 5.7 0 0 0-2.685-2.167zm.812.674c.115.168.2.363.245.573l3.91-.846a5.6 5.6 0 0 0-.854-1.987zm.245.573c.046.211.051.43.015.643l3.943.672a5.7 5.7 0 0 0-.048-2.161zm.015.64a1.4 1.4 0 0 1-.204.527l3.36 2.171a5.4 5.4 0 0 0 .786-2.02zm-.204.527c-.1.154-.225.279-.364.37l2.196 3.344a5.3 5.3 0 0 0 1.528-1.543zm-.373.376L9.97 17.78l2.214 3.331 4.624-3.073zM9.97 17.78a1.3 1.3 0 0 1-.37.17l1.075 3.853a5.3 5.3 0 0 0 1.509-.691z" mask="url(#a)"/>
</svg>
