<svg xmlns="http://www.w3.org/2000/svg" width="24" height="24" fill="none" viewBox="0 0 24 24">
  <path fill="url(#a)" d="M3.895 8.585c-.001.002-.047.007-.1.014a1.5 1.5 0 0 0-.213.033 1.4 1.4 0 0 0-.227.063 1.96 1.96 0 0 0-.946.694l-.099.134c-.075.099-.235.488-.265.646-.054.28-.06.59-.017.797.073.345.176.577.376.843.05.067.411.443.804.834.511.511.72.733.743.783a.37.37 0 0 1-.192.485c-.058.025-.119.03-.444.032-.206 0-.411.008-.453.017a.825.825 0 0 0-.277 1.495c.168.113.289.135.787.135.371 0 .505-.01.662-.046l.091-.018c.153-.027.592-.232.664-.309a2.242 2.242 0 0 0 .455-.453c.188-.256.339-.64.377-.956.014-.117.015-.417.002-.486l-.029-.147a2.06 2.06 0 0 0-.38-.831 24 24 0 0 0-.804-.83c-.775-.776-.776-.776-.756-.943.03-.258.282-.405.511-.301.054.023.666.627 2.46 2.418a432 432 0 0 0 2.443 2.435c.032.027.118.088.191.136a2.02 2.02 0 0 0 2.307-.064c.107-.078.318-.288.402-.399l.06-.079.192.192c.17.166.215.208.294.271.01.008.065.046.124.085.668.442 1.607.434 2.276-.024.117-.08.156-.112.282-.233.279-.27.493-.68.569-1.09.024-.128.028-.572.006-.68l-.019-.1a2.2 2.2 0 0 0-.355-.765 17 17 0 0 0-.79-.824 29 29 0 0 1-.741-.758.4.4 0 0 1-.029-.322.4.4 0 0 1 .166-.194c.047-.027.111-.031.554-.036l.5-.005-.014.089a3.6 3.6 0 0 0 0 .583 2.072 2.072 0 0 0 .165.536c.154.33.134.306 1.841 2.02.873.875 1.648 1.638 1.721 1.695.287.223.549.34.906.405.155.026.425.035.554.016a2.004 2.004 0 0 0 1.761-1.766c.041-.393-.059-.666-.317-.868a.82.82 0 0 0-.907-.057.84.84 0 0 0-.413.695c-.014.252-.206.401-.445.342-.078-.018-.139-.077-1.613-1.548-.843-.84-1.552-1.561-1.575-1.6a.38.38 0 0 1 .067-.441c.09-.088.145-.099.506-.099.404 0 .522-.024.697-.143a.822.822 0 0 0-.088-1.42c-.17-.088-.147-.086-2.034-.088-1.873 0-1.966.004-2.181.06-.037.009-.079.021-.093.023-.05.011-.246.089-.318.125a2.4 2.4 0 0 0-.682.556 2.5 2.5 0 0 0-.323.6 2 2 0 0 0 .236 1.781c.087.13.236.289.841.896.405.406.748.76.764.789.06.117.03.3-.071.407-.084.09-.136.11-.287.11-.109 0-.146-.006-.193-.037a238 238 0 0 1-2.608-2.584c-1.921-1.92-2.575-2.564-2.649-2.608a.84.84 0 0 0-.617-.094.86.86 0 0 0-.612.637c-.04.21.01.452.13.629.026.037.819.84 1.765 1.787 1.567 1.568 1.721 1.725 1.74 1.794.037.133.016.235-.069.356-.084.116-.304.159-.443.087-.032-.018-1.148-1.12-2.479-2.449C5.8 9.53 5.274 9.015 5.17 8.946a2 2 0 0 0-1.107-.359c-.09-.002-.166-.003-.168-.002"/>
  <defs>
    <linearGradient id="a" x1="2" x2="22" y1="12.088" y2="12.088" gradientUnits="userSpaceOnUse">
      <stop stop-color="#ffa888"/>
      <stop offset="1" stop-color="#f1e323"/>
    </linearGradient>
  </defs>
</svg>
