<svg xmlns="http://www.w3.org/2000/svg" width="24" height="24" fill="none" viewBox="0 0 24 24">
  <path stroke="#ea580c" stroke-linejoin="round" stroke-width="2" d="M12.962 4.624a1 1 0 0 1 1.27-.197c3.597 2.174 5.94 6.325 5.088 10.071.773 1.113 1.082 2.229 1.16 3.073.041.454.02.88-.064 1.207a1.6 1.6 0 0 1-.102.29c-.04.085-.131.261-.314.41-.224.184-.63.345-1.072.156a1.1 1.1 0 0 1-.538-.508l-.004-.009c-.288-.568-.618-.68-.922-.699-.342-.021-.725.084-1.081.22a1 1 0 0 1-.113.07 8.44 8.44 0 0 1-7.494.104 11.35 11.35 0 0 1-5.122-4.373 1.001 1.001 0 0 1 1.465-1.32q.526.415 1.12.729l.399.196.008.004c1.644.766 3.215.911 4.5.61a37.4 37.4 0 0 1-5.18-5.613A8.5 8.5 0 0 1 5.07 7.8a1 1 0 0 1 1.452-1.314q.113.082.222.165a1 1 0 0 1 1.708-.809 41.7 41.7 0 0 0 5.974 5.04 6.9 6.9 0 0 0-1.49-4.972 1 1 0 0 1 .026-1.285Z"/>
</svg>
