<svg xmlns="http://www.w3.org/2000/svg" width="24" height="24" fill="none" viewBox="0 0 24 24">
  <path fill="#0ea5e9" fill-rule="evenodd" d="M11.5 6Q7.666 6 6.708 9.976q1.438-1.988 3.355-1.49c.728.188 1.25.737 1.826 1.344.94.99 2.028 2.134 4.403 2.134q3.833 0 4.791-3.976-1.437 1.989-3.353 1.49c-.73-.188-1.251-.737-1.828-1.344C14.962 7.144 13.875 6 11.5 6m-4.792 5.964q-3.833 0-4.791 3.976 1.437-1.987 3.354-1.491c.729.189 1.25.738 1.827 1.345.94.99 2.027 2.134 4.402 2.134q3.834 0 4.792-3.976-1.438 1.988-3.355 1.491c-.728-.189-1.25-.738-1.826-1.345-.94-.989-2.028-2.134-4.403-2.134" clip-rule="evenodd"/>
</svg>
