<svg xmlns="http://www.w3.org/2000/svg" width="24" height="24" fill="none" viewBox="0 0 24 24">
  <path fill="#863bff" d="M20.53 9.43h-4.52a1 1 0 0 1-.483-.15.94.94 0 0 1-.337-.362.88.88 0 0 1 .074-.929l2.984-4.292a.435.435 0 0 0-.14-.624.5.5 0 0 0-.233-.073H6.364a.44.44 0 0 0-.213.046.4.4 0 0 0-.16.14L2.077 8.733a.436.436 0 0 0 .139.624q.107.065.234.073h5.545c.173.008.34.06.484.15s.26.215.336.362a.88.88 0 0 1-.074.928L5.7 15.162a.435.435 0 0 0 .139.624q.107.065.233.073l4.542.001c.24.006.47.102.635.268a.84.84 0 0 1 .25.615v3.815c-.005.09.02.178.072.253a.44.44 0 0 0 .216.163.47.47 0 0 0 .276.01.44.44 0 0 0 .228-.148l8.611-10.663a.45.45 0 0 0 .05-.478.5.5 0 0 0-.173-.188.5.5 0 0 0-.25-.077"/>
</svg>
