<svg xmlns="http://www.w3.org/2000/svg" width="24" height="24" fill="none" viewBox="0 0 24 24">
  <path fill="#00ff74" d="M11.118 20.768a.45.45 0 0 1-.132.145.48.48 0 0 1-.385.075.5.5 0 0 1-.181-.083l-8.233-5.847a.4.4 0 0 1-.143-.16.4.4 0 0 1-.043-.205v-7.08a.44.44 0 0 1 .071-.249.5.5 0 0 1 .201-.173.51.51 0 0 1 .519.057l5.023 3.608q.175.114.382.152a1.05 1.05 0 0 0 .789-.175 1 1 0 0 0 .27-.297l4.14-7.308a.5.5 0 0 1 .178-.166.5.5 0 0 1 .241-.062h6.698q.134.008.247.075a.5.5 0 0 1 .178.18.47.47 0 0 1-.006.476l-9.814 17.083z"/>
</svg>
