<svg xmlns="http://www.w3.org/2000/svg" width="24" height="24" fill="none" viewBox="0 0 24 24">
  <path fill="#a855f7" d="m20.08 5.668-8.108 15.12a.432.432 0 0 1-.767.003L2.935 5.669c-.184-.338.093-.749.461-.68l8.117 1.513q.078.015.157 0l7.947-1.51c.367-.07.646.336.464.676"/>
  <path fill="#fbbf24" d="m15.38 3.005-6 1.226a.23.23 0 0 0-.178.212l-.37 6.5c-.008.154.127.272.27.238l1.67-.402c.157-.038.298.106.266.27l-.496 2.534c-.034.17.12.317.28.266l1.032-.327c.16-.05.313.096.28.267l-.79 3.98c-.049.25.269.386.401.172l.089-.143 4.89-10.175c.081-.17-.06-.365-.24-.329l-1.72.346c-.16.033-.298-.124-.252-.289l1.122-4.057c.046-.165-.093-.323-.254-.29"/>
</svg>
