<svg xmlns="http://www.w3.org/2000/svg" width="24" height="24" fill="none" viewBox="0 0 24 24">
  <path fill="#2563eb" fill-rule="evenodd" d="M11.9 15.621c0 .32.332.521.598.361l2.606-1.57a.42.42 0 0 0 .2-.36v-3.14c0-.322-.333-.522-.6-.362L12.1 12.12a.42.42 0 0 0-.2.361zm2.406-5.792a.426.426 0 0 0 0-.722L11.7 7.537a.39.39 0 0 0-.4 0L8.651 9.133a.426.426 0 0 0 0 .722l2.606 1.57a.39.39 0 0 0 .4 0zm-6.011.773c-.266-.16-.599.04-.599.361v3.088a.42.42 0 0 0 .2.361l2.606 1.57c.266.16.599-.04.599-.36v-3.089a.42.42 0 0 0-.2-.36z" clip-rule="evenodd"/>
  <path fill="#93c5fd" d="m5.282 7.773 1.191.718a.39.39 0 0 0 .4 0L10.9 6.064a.42.42 0 0 0 .2-.361V4.267c0-.32-.333-.521-.6-.36L5.282 7.05a.426.426 0 0 0 0 .722M11.9 4.267v1.436a.42.42 0 0 0 .199.36l4.028 2.428a.39.39 0 0 0 .4 0l1.191-.718a.426.426 0 0 0 0-.722l-5.22-3.145c-.266-.16-.599.04-.599.361M16.726 9.573v4.854a.42.42 0 0 0 .2.36l1.192.719c.266.16.599-.04.599-.361v-6.29c0-.32-.333-.521-.6-.36l-1.191.717a.42.42 0 0 0-.2.361M16.127 15.51 12.1 17.935a.42.42 0 0 0-.2.361v1.436c0 .32.333.521.6.36l5.22-3.144a.426.426 0 0 0 0-.722l-1.192-.718a.38.38 0 0 0-.4 0M10.901 17.936 6.873 15.51a.39.39 0 0 0-.4 0l-1.191.718a.426.426 0 0 0 0 .722l5.22 3.145c.266.16.599-.04.599-.361v-1.436a.42.42 0 0 0-.2-.36M6.274 14.427V9.573a.42.42 0 0 0-.2-.36l-1.192-.719c-.266-.16-.599.04-.599.361v6.29c0 .32.333.521.6.36l1.191-.717a.42.42 0 0 0 .2-.361"/>
</svg>
