<svg xmlns="http://www.w3.org/2000/svg" width="24" height="24" fill="none" viewBox="0 0 24 24">
  <path fill="#60a5fa" fill-rule="evenodd" d="M5.486 20.594c-.168-.02-.337-.108-.505-.196a1 1 0 0 1-.192-.13q-.33-.288-.096-.773c0-.05.024-.1.048-.15s.048-.1.048-.151c-.385 0-.577-.2-.673-.502-.481-1.304-.385-2.308.577-3.31q.038-.081.075-.144c.065-.119.117-.212.117-.359 0-1.304.192-2.508 1.058-3.612a4.2 4.2 0 0 1 1.154-1.103c.192-.1.192-.201.096-.402-.385-.502-.577-1.003-.673-1.605-.077-.402.092-.803.261-1.204q.064-.15.123-.301c.096-.1.193-.201.289-.201.282-.074.512-.255.729-.426q.117-.095.232-.176c.673-.702 1.443-1.003 2.404-1.003.187 0 .283-.095.288-.192v-.01l.03-.114a3 3 0 0 1 .212-.538 4 4 0 0 1 .336-.551l.288-.301c.147-.154.351-.19.482-.063l.006.007q.057.057.089.156a11 11 0 0 1 .499 1.022q.09.203.174.383l.003.005.003.007c.094.189.188.186.283.088.341-.152.51-.228.617-.173.105.053.153.228.248.575a9 9 0 0 1 .197 1.268c.131 1.648-.239 3.232-1.159 4.752-.048.1-.12.2-.192.3-.072.101-.144.202-.192.302-.096.2-.096.3.096.502.865.802 1.442 1.906 1.635 3.11q.032.24.05.491l.005.073a8.8 8.8 0 0 1-.055 1.643q-.036.149-.036.23c0 .166.107.147.324.072a8 8 0 0 0 .53-.18q.34-.129.668-.294l.046-.023a6 6 0 0 0 .68-.407l.243-.147c.41-.248.795-.482 1.227-.628q.26-.088.549-.128c.1 0 .188-.012.273-.023l.069-.01q.083-.01.168-.011c.08 0 .165.012.259.044.288.1.48.402.48.703s-.192.502-.48.602a5 5 0 0 0-.77.229q-.132.05-.263.11a7 7 0 0 0-1.033.579 9 9 0 0 0-.53.386 9.2 9.2 0 0 1-1.638.943 11 11 0 0 1-1.536.562c-.096 0-.288.1-.384.201-.301.235-.602.287-.948.346q-.145.023-.302.055l-.244.024c-.963.092-1.857.177-2.833.177l-.206-.001a1 1 0 0 1-.077.06l-.006-.009.029-.053-.064-.002a3 3 0 0 1-.638-.095 1.4 1.4 0 0 1-.385-.207 1 1 0 0 1-.19-.199.7.7 0 0 1-.098-.196q-.104-.43.088-.707l.023-.031a.8.8 0 0 1 .177-.165c.101 0 .176-.028.237-.054l.022-.01c.046-.02.086-.037.126-.037a.75.75 0 0 1-.305-.26 1 1 0 0 1-.08-.141c-.096-.1-.096-.1-.192 0a1 1 0 0 0-.049.124v.002a2 2 0 0 0-.047.175c-.024.1-.048.2-.096.3-.138.48-.319.798-.575.979a1 1 0 0 1-.204.109q-.218.083-.5.075a2.6 2.6 0 0 1-.452-.058 1 1 0 0 1-.072-.005m-.174 1.991c-.574-.061-1.04-.317-1.164-.385l-.024-.013c-.457-.238-1.056-.702-1.322-1.533a2.6 2.6 0 0 1-.11-.528 3 3 0 0 1-.378-.75c-.302-.831-.499-1.773-.343-2.774.134-.855.499-1.59 1.006-2.225.052-1.384.35-2.914 1.457-4.344q.196-.271.441-.543a6 6 0 0 1-.242-.978c-.133-.746.032-1.382.162-1.769a8 8 0 0 1 .239-.613c.04-.093.065-.155.09-.221.097-.252.241-.48.425-.672l.007-.007c.037-.04.177-.187.342-.316.11-.086.366-.276.738-.384l.145-.113.004-.003.145-.112c.748-.733 1.594-1.166 2.518-1.35q.198-.372.442-.711.082-.114.178-.214l.289-.301c.407-.425 1.077-.806 1.891-.712.835.097 1.449.648 1.755 1.323q.067.12.13.246c.162.028.333.078.509.159.76.353 1.043 1.038 1.122 1.234.083.208.148.45.185.586l.01.035q.012.043.021.086c.56 2.455.273 4.856-.945 7.099a7.5 7.5 0 0 1 1.328 3.103c.54-.313 1.27-.674 2.13-.786a2 2 0 0 1 .213-.016l.042-.005.031-.004c.034-.005.087-.012.146-.018.277-.03.692-.04 1.182.13 1.112.387 1.791 1.484 1.791 2.6 0 1.45-1.02 2.23-1.791 2.5a2 2 0 0 1-.23.063c-.58.121-1.183.443-1.822.943l-.051.039c-1.137.83-2.444 1.403-3.625 1.754-.743.523-1.638.64-1.859.669l-.047.006a2 2 0 0 1-.203.031l-.254.024c-.95.091-1.929.185-2.996.185h-.023c-.307 0-.79 0-1.404-.16a2 2 0 0 1-.141-.043 3.3 3.3 0 0 1-.547-.25c-.576.16-1.137.122-1.593.038m3.361-1.41q.003 0 0 .001M14.666 3.73l.01.021zM6.228 8.38l.011-.006z" clip-rule="evenodd"/>
</svg>
