<svg width="24" height="24" viewBox="0 0 24 24" fill="none" xmlns="http://www.w3.org/2000/svg">
<path fill-rule="evenodd" clip-rule="evenodd" d="M5 4C3.34315 4 2 5.34315 2 7V17C2 18.6569 3.34315 20 5 20H10.4484V18H5C4.44772 18 4 17.5523 4 17V7C4 6.44772 4.44772 6 5 6H7.78388C8.01539 6 8.23973 6.08033 8.41862 6.22727L10.8119 8.19318C11.3486 8.63402 12.0216 8.875 12.7161 8.875H19C19.5523 8.875 20 9.32272 20 9.875V10H22V9.875C22 8.21815 20.6569 6.875 19 6.875H12.7161C12.4846 6.875 12.2603 6.79467 12.0814 6.64773L9.6881 4.68182C9.15142 4.24098 8.47841 4 7.78388 4H5Z" fill="#64748B"/>
<path d="M12.9518 14.0938C13.1086 13.8201 13.4586 13.7233 13.734 13.877C14.0103 14.0313 14.1072 14.3796 13.9498 14.6543L12.5084 17.1699C12.3515 17.4435 12.0015 17.5405 11.7262 17.3867C11.4499 17.2324 11.3532 16.884 11.5103 16.6094L12.9518 14.0938ZM18.732 14.0938C18.8888 13.8201 19.2389 13.7233 19.5143 13.877C19.7906 14.0313 19.8875 14.3796 19.7301 14.6543L18.2887 17.1699C18.1317 17.4435 17.7818 17.5405 17.5064 17.3867C17.2302 17.2324 17.1335 16.884 17.2906 16.6094L18.732 14.0938ZM16.5592 12.165C16.716 11.8913 17.066 11.7944 17.3414 11.9482C17.6178 12.1026 17.7146 12.4509 17.5572 12.7256L16.1158 15.2412C15.959 15.5147 15.6089 15.6116 15.3336 15.458C15.0573 15.3037 14.9605 14.9553 15.1178 14.6807L16.5592 12.165ZM22.3404 12.165C22.4973 11.8913 22.8472 11.7944 23.1227 11.9482C23.3989 12.1026 23.4958 12.451 23.3385 12.7256L21.8971 15.2412C21.7403 15.5148 21.3902 15.6116 21.1148 15.458C20.8385 15.3036 20.7417 14.9553 20.899 14.6807L22.3404 12.165Z" fill="#4ADE80" stroke="#4ADE80" stroke-width="0.25"/>
</svg>
