<svg width="24" height="24" viewBox="0 0 24 24" fill="none" xmlns="http://www.w3.org/2000/svg">
<path fill-rule="evenodd" clip-rule="evenodd" d="M5 4C3.34315 4 2 5.34315 2 7V17C2 18.6569 3.34315 20 5 20H13V18H5C4.44772 18 4 17.5523 4 17V7C4 6.44772 4.44772 6 5 6H7.78388C8.01539 6 8.23973 6.08033 8.41862 6.22727L10.8119 8.19318C11.3486 8.63402 12.0216 8.875 12.7161 8.875H19C19.5523 8.875 20 9.32272 20 9.875V10H22V9.875C22 8.21815 20.6569 6.875 19 6.875H12.7161C12.4846 6.875 12.2603 6.79467 12.0814 6.64773L9.6881 4.68182C9.15142 4.24098 8.47841 4 7.78388 4H5Z" fill="#64748B"/>
<path d="M16 19.52C16 20.86 17.09 21.95 18.43 21.95C19.77 21.95 20.86 20.86 20.86 19.52V16" stroke="#8B5CF6" stroke-width="1.5" stroke-linecap="round"/>
<path d="M16 19.52V16.89L17.72 18.61" stroke="#8B5CF6" stroke-width="1.5" stroke-linecap="round"/>
<path d="M20.8604 12.25C21.7715 12.2502 22.5098 12.9892 22.5098 13.9004C22.5096 14.8114 21.7713 15.5496 20.8604 15.5498C19.9492 15.5498 19.2102 14.8115 19.21 13.9004C19.21 12.9891 19.9491 12.25 20.8604 12.25Z" stroke="#8B5CF6" stroke-width="1.5" stroke-linecap="round"/>
</svg>
