<svg width="24" height="24" viewBox="0 0 24 24" fill="none" xmlns="http://www.w3.org/2000/svg">
<path fill-rule="evenodd" clip-rule="evenodd" d="M5 4C3.34315 4 2 5.34315 2 7V17C2 18.6569 3.34315 20 5 20H13V18H5C4.44772 18 4 17.5523 4 17V7C4 6.44772 4.44772 6 5 6H7.78388C8.01539 6 8.23973 6.08033 8.41862 6.22727L10.8119 8.19318C11.3486 8.63402 12.0216 8.875 12.7161 8.875H19C19.5523 8.875 20 9.32272 20 9.875V10H22V9.875C22 8.21815 20.6569 6.875 19 6.875H12.7161C12.4846 6.875 12.2603 6.79467 12.0814 6.64773L9.6881 4.68182C9.15142 4.24098 8.47841 4 7.78388 4H5Z" fill="#64748B"/>
<path d="M19.0002 12.3866C19.7077 12.3866 20.374 12.4978 20.8839 12.6981C21.1371 12.7976 21.3804 12.9298 21.5695 13.1053C21.7593 13.2817 21.9357 13.5432 21.9357 13.8798C21.9357 14.2163 21.7594 14.4778 21.5695 14.6542C21.3804 14.8298 21.1371 14.9619 20.8839 15.0614C20.374 15.2617 19.7077 15.3739 19.0002 15.3739C18.2925 15.3739 17.6263 15.2617 17.1164 15.0614C16.8631 14.9619 16.6199 14.8298 16.4308 14.6542C16.2409 14.4778 16.0656 14.2163 16.0656 13.8798C16.0656 13.5432 16.241 13.2817 16.4308 13.1053C16.6199 12.9297 16.8631 12.7976 17.1164 12.6981C17.6263 12.4978 18.2926 12.3866 19.0002 12.3866Z" stroke="#F472B6" stroke-width="1.12188"/>
<path d="M16.0687 19.2388V14.0634L16.5571 15.1345L16.8162 15.886L18.872 15.981L21.7294 14.8442L21.9313 14.0634V19.2388C21.9313 19.9027 21.3931 20.4408 20.7293 20.4408H17.2707C16.6069 20.4408 16.0687 19.9027 16.0687 19.2388Z" fill="#F472B6" stroke="#F472B6" stroke-width="1.12188" stroke-linejoin="round"/>
</svg>
