<svg xmlns="http://www.w3.org/2000/svg" width="24" height="24" fill="none" viewBox="0 0 24 24">
  <path fill="#64748b" fill-rule="evenodd" d="M5 4a3 3 0 0 0-3 3v10a3 3 0 0 0 3 3h8v-2H5a1 1 0 0 1-1-1V7a1 1 0 0 1 1-1h2.784a1 1 0 0 1 .635.227l2.393 1.966a3 3 0 0 0 1.904.682H19a1 1 0 0 1 1 1V10h2v-.125a3 3 0 0 0-3-3h-6.284a1 1 0 0 1-.635-.227L9.688 4.682A3 3 0 0 0 7.784 4z" clip-rule="evenodd"/>
  <mask id="a" width="10" height="10" x="14" y="11" maskUnits="userSpaceOnUse" style="mask-type:alpha">
    <path fill="#fff" fill-rule="evenodd" d="M21.091 20.932a.62.62 0 0 0 .496-.02l2.06-.99a.63.63 0 0 0 .353-.563V12.64c0-.24-.138-.459-.354-.563l-2.059-.99a.62.62 0 0 0-.71.12l-3.941 3.596-1.717-1.303a.416.416 0 0 0-.532.024l-.55.5a.417.417 0 0 0-.001.617L15.625 16l-1.49 1.358a.417.417 0 0 0 .001.616l.55.501a.416.416 0 0 0 .533.024l1.717-1.303 3.94 3.596q.096.093.215.14m.41-7.202L18.511 16l2.99 2.27z" clip-rule="evenodd"/>
  </mask>
  <g mask="url(#a)">
    <path fill="#0065a9" d="m23.646 12.08-2.06-.992a.62.62 0 0 0-.711.12l-6.745 6.15a.417.417 0 0 0 0 .616l.551.501a.42.42 0 0 0 .532.024l8.123-6.162a.414.414 0 0 1 .664.33v-.024a.63.63 0 0 0-.354-.563"/>
    <g filter="url(#b)">
      <path fill="#007acc" d="m23.646 19.92-2.06.992a.62.62 0 0 1-.711-.12l-6.745-6.15a.417.417 0 0 1 0-.617l.551-.5a.42.42 0 0 1 .532-.024l8.123 6.162a.414.414 0 0 0 .664-.33v.024c0 .24-.137.46-.354.563"/>
    </g>
    <g filter="url(#c)">
      <path fill="#1f9cf0" d="M21.586 20.913a.62.62 0 0 1-.711-.121c.23.23.625.067.625-.26v-9.065a.366.366 0 0 0-.625-.259.62.62 0 0 1 .71-.12l2.06.99a.63.63 0 0 1 .355.563v6.718c0 .24-.138.459-.354.563z"/>
    </g>
    <path fill="url(#d)" fill-rule="evenodd" d="M21.085 20.932a.62.62 0 0 0 .496-.02l2.059-.99a.63.63 0 0 0 .354-.563V12.64c0-.24-.138-.459-.354-.563l-2.059-.99a.62.62 0 0 0-.71.12l-3.942 3.596-1.716-1.303a.416.416 0 0 0-.532.024l-.55.5a.417.417 0 0 0-.001.617L15.619 16l-1.49 1.358a.417.417 0 0 0 .001.617l.55.5a.416.416 0 0 0 .533.024l1.716-1.303 3.942 3.596q.094.094.214.14m.41-7.202L18.505 16l2.99 2.27z" clip-rule="evenodd" opacity=".25" style="mix-blend-mode:overlay"/>
  </g>
  <defs>
    <filter id="b" width="11.673" height="9.225" x="13.161" y="12.583" color-interpolation-filters="sRGB" filterUnits="userSpaceOnUse">
      <feFlood flood-opacity="0" result="BackgroundImageFix"/>
      <feColorMatrix in="SourceAlpha" result="hardAlpha" values="0 0 0 0 0 0 0 0 0 0 0 0 0 0 0 0 0 0 127 0"/>
      <feOffset/>
      <feGaussianBlur stdDeviation=".417"/>
      <feColorMatrix values="0 0 0 0 0 0 0 0 0 0 0 0 0 0 0 0 0 0 0.25 0"/>
      <feBlend in2="BackgroundImageFix" mode="overlay" result="effect1_dropShadow_38272_281"/>
      <feBlend in="SourceGraphic" in2="effect1_dropShadow_38272_281" result="shape"/>
    </filter>
    <filter id="c" width="4.792" height="11.615" x="20.042" y="10.192" color-interpolation-filters="sRGB" filterUnits="userSpaceOnUse">
      <feFlood flood-opacity="0" result="BackgroundImageFix"/>
      <feColorMatrix in="SourceAlpha" result="hardAlpha" values="0 0 0 0 0 0 0 0 0 0 0 0 0 0 0 0 0 0 127 0"/>
      <feOffset/>
      <feGaussianBlur stdDeviation=".417"/>
      <feColorMatrix values="0 0 0 0 0 0 0 0 0 0 0 0 0 0 0 0 0 0 0.25 0"/>
      <feBlend in2="BackgroundImageFix" mode="overlay" result="effect1_dropShadow_38272_281"/>
      <feBlend in="SourceGraphic" in2="effect1_dropShadow_38272_281" result="shape"/>
    </filter>
    <linearGradient id="d" x1="18.994" x2="18.994" y1="11.026" y2="20.974" gradientUnits="userSpaceOnUse">
      <stop stop-color="#fff"/>
      <stop offset="1" stop-color="#fff" stop-opacity="0"/>
    </linearGradient>
  </defs>
</svg>
