<svg xmlns="http://www.w3.org/2000/svg" width="24" height="24" fill="none" viewBox="0 0 24 24">
  <path fill="#64748b" fill-rule="evenodd" d="M5 4a3 3 0 0 0-3 3v10a3 3 0 0 0 3 3h8v-2H5a1 1 0 0 1-1-1V7a1 1 0 0 1 1-1h2.784a1 1 0 0 1 .635.227l2.393 1.966a3 3 0 0 0 1.904.682H19a1 1 0 0 1 1 1V10h2v-.125a3 3 0 0 0-3-3h-6.284a1 1 0 0 1-.635-.227L9.688 4.682A3 3 0 0 0 7.784 4z" clip-rule="evenodd"/>
  <path stroke="#8b5cf6" stroke-linecap="round" stroke-width="1.5" d="M16 19.52c0 1.34 1.09 2.43 2.43 2.43s2.43-1.09 2.43-2.43V16"/>
  <path stroke="#8b5cf6" stroke-linecap="round" stroke-width="1.5" d="M16 19.52v-2.63l1.72 1.72M20.86 12.25a1.65 1.65 0 1 1-.001 3.3 1.65 1.65 0 0 1 .001-3.3Z"/>
</svg>
