<svg xmlns="http://www.w3.org/2000/svg" width="24" height="24" fill="none" viewBox="0 0 24 24">
  <path fill="#22c55e" d="M20.43 13.115a18 18 0 0 1-.915-1.11.02.02 0 0 0-.03 0c-.079.106-.466.612-.915 1.11-3.858 4.594.608 7.695.608 7.695l.037.023c.033.478.116 1.167.116 1.167h.333s.084-.685.117-1.167l.037-.027c.005 0 4.47-3.097.612-7.691m-.932 7.624s-.2-.159-.254-.24v-.008l.241-5.003c0-.016.026-.016.026 0l.24 5.003v.007c-.053.082-.253.241-.253.241"/>
  <path fill="#64748b" fill-rule="evenodd" d="M5 4a3 3 0 0 0-3 3v10a3 3 0 0 0 3 3h8v-2H5a1 1 0 0 1-1-1V7a1 1 0 0 1 1-1h2.784a1 1 0 0 1 .635.227l2.393 1.966a3 3 0 0 0 1.904.682H19a1 1 0 0 1 1 1V10h2v-.125a3 3 0 0 0-3-3h-6.284a1 1 0 0 1-.635-.227L9.688 4.682A3 3 0 0 0 7.784 4z" clip-rule="evenodd"/>
</svg>
