<svg xmlns="http://www.w3.org/2000/svg" width="24" height="24" fill="none" viewBox="0 0 24 24">
  <path fill="#e24329" d="m22.85 15.562-.013-.034-1.224-3.319a.318.318 0 0 0-.61.035l-.827 2.627h-3.35L16 12.244a.32.32 0 0 0-.484-.193.33.33 0 0 0-.125.158l-1.228 3.318-.012.033a2.45 2.45 0 0 0-.062 1.496c.136.492.423.925.817 1.233l.004.004.011.008 1.866 1.45.923.726.563.441a.37.37 0 0 0 .457 0l.563-.44.923-.726 1.877-1.46.005-.004c.393-.308.678-.74.814-1.232a2.45 2.45 0 0 0-.06-1.494"/>
  <path fill="#fc6d26" d="m22.85 15.562-.013-.034c-.596.128-1.159.39-1.647.77l-2.69 2.111 1.714 1.345 1.877-1.46.005-.004c.393-.308.68-.741.816-1.233a2.45 2.45 0 0 0-.062-1.495"/>
  <path fill="#fca326" d="m16.786 19.754.923.725.563.441a.37.37 0 0 0 .457 0l.563-.44.923-.726-1.715-1.345z"/>
  <path fill="#fc6d26" d="M15.81 16.297a4.06 4.06 0 0 0-1.648-.77l-.012.033a2.45 2.45 0 0 0-.062 1.496c.136.492.423.925.817 1.233l.004.004.011.008 1.866 1.45 1.714-1.344z"/>
  <path fill="#64748b" fill-rule="evenodd" d="M5 4a3 3 0 0 0-3 3v10a3 3 0 0 0 3 3h8v-2H5a1 1 0 0 1-1-1V7a1 1 0 0 1 1-1h2.784a1 1 0 0 1 .635.227l2.393 1.966a3 3 0 0 0 1.904.682H19a1 1 0 0 1 1 1V10h2v-.125a3 3 0 0 0-3-3h-6.284a1 1 0 0 1-.635-.227L9.688 4.682A3 3 0 0 0 7.784 4z" clip-rule="evenodd"/>
</svg>
