<svg xmlns="http://www.w3.org/2000/svg" width="24" height="24" fill="none" viewBox="0 0 24 24">
  <path fill="#64748b" fill-rule="evenodd" d="M5 4a3 3 0 0 0-3 3v10a3 3 0 0 0 3 3h5.448v-2H5a1 1 0 0 1-1-1V7a1 1 0 0 1 1-1h2.784a1 1 0 0 1 .635.227l2.393 1.966a3 3 0 0 0 1.904.682H19a1 1 0 0 1 1 1V10h2v-.125a3 3 0 0 0-3-3h-6.284a1 1 0 0 1-.635-.227L9.688 4.682A3 3 0 0 0 7.784 4z" clip-rule="evenodd"/>
  <path fill="#4ade80" stroke="#4ade80" stroke-width=".25" d="M12.952 14.094a.58.58 0 0 1 .782-.217.566.566 0 0 1 .216.777l-1.442 2.516a.58.58 0 0 1-.782.217.567.567 0 0 1-.216-.778zm5.78 0a.58.58 0 0 1 .782-.217.566.566 0 0 1 .216.777L18.29 17.17a.58.58 0 0 1-.783.217.567.567 0 0 1-.215-.778zm-2.173-1.929a.58.58 0 0 1 .782-.217.566.566 0 0 1 .216.778l-1.441 2.515a.58.58 0 0 1-.782.217.566.566 0 0 1-.216-.777zm5.781 0a.58.58 0 0 1 .783-.217.567.567 0 0 1 .215.778l-1.44 2.515a.58.58 0 0 1-.783.217.566.566 0 0 1-.216-.777z"/>
</svg>
