<svg xmlns="http://www.w3.org/2000/svg" width="24" height="24" fill="none" viewBox="0 0 24 24">
  <path fill="#64748b" fill-rule="evenodd" d="M5 4a3 3 0 0 0-3 3v10a3 3 0 0 0 3 3h8v-2H5a1 1 0 0 1-1-1V7a1 1 0 0 1 1-1h2.784a1 1 0 0 1 .635.227l2.393 1.966a3 3 0 0 0 1.904.682H19a1 1 0 0 1 1 1V10h2v-.125a3 3 0 0 0-3-3h-6.284a1 1 0 0 1-.635-.227L9.688 4.682A3 3 0 0 0 7.784 4z" clip-rule="evenodd"/>
  <path fill="#f4aa41" d="m16.453 12.652-.914.348-1.313 1.422-.745 1.89.232.96c.226.683.6 1.158 1.271 1.665l.484-.465s.688 1.387 1.932 1.612c0 0 1.847.349 2.807-.157.268-.142.452-.33.592-.467.372-.366.546-.634.817-.943l.3.325.331-.01.903-1.3.36-.913-.003-.766-.391-1.01-.87-1.335s-.475-.765-1.47-.704c0 0-1.17-.87-2.129-.735s-.65-.122-2.194.583"/>
  <path fill="#ea5a47" d="m18.527 18.334-.555.434h-.45l.095.7.075.543.145.422.51.27.825-.105.154-.397.127-.752.139-.65-.36.044z"/>
  <path fill="#3f3f3f" d="m17.897 16.568-.285.674.39.225.225.09.78.03.525-.405-.315-.584z"/>
  <path fill="#000" d="M17.359 15.342s-.325.224-.495.12a.36.36 0 1 1 .374-.614c.17.103.12.494.12.494"/>
  <path stroke="#000" stroke-linecap="round" stroke-linejoin="round" stroke-width=".36" d="M18.007 16.583h1.106a.18.18 0 0 1 .165.11l.209.49-.392.206a.18.18 0 0 1-.263-.136M18.304 17.26a.18.18 0 0 1-.245.134l-.417-.172.196-.522a.18.18 0 0 1 .169-.117M17.526 18.926s-.13 1.583.541 1.788c.476.147.927.096 1.09-.044.158-.136.475-.806.33-1.744"/>
  <path fill="#000" d="M20.014 15.342s.325.224.495.12a.36.36 0 1 0-.375-.614c-.17.103-.12.494-.12.494"/>
  <path stroke="#000" stroke-linecap="round" stroke-linejoin="round" stroke-width=".36" d="M16.66 17.633c-.085.648.402 1.035.771 1.231a.61.61 0 0 0 .67-.057l.464-.364.464.364c.192.15.454.172.669.057.369-.196.856-.583.771-1.231"/>
  <path stroke="#000" stroke-linecap="round" stroke-linejoin="round" stroke-width=".36" d="M15.639 15.027c-.417.928-.091 2.344.022 2.767a.36.36 0 0 1-.023.245l-.358.755a.36.36 0 0 1-.6.079c-.574-.681-1.54-2.05-1.178-3.003 1.271-3.348 2.856-3.264 2.856-3.264.511-.348 2.357-1.249 4.464.157 0 0 1.554-.309 2.688 3.048.325.96-.617 2.315-1.178 2.995a.36.36 0 0 1-.602-.077l-.355-.75a.36.36 0 0 1-.023-.245c.113-.423.438-1.838.021-2.767"/>
  <path stroke="#000" stroke-linecap="round" stroke-linejoin="round" stroke-width=".36" d="M21.52 18.285s-.554 1.21-1.405 1.488M15.547 18.376s.554 1.095 1.404 1.373M18.565 18.443v-.546"/>
</svg>
