<svg xmlns="http://www.w3.org/2000/svg" width="24" height="24" fill="none" viewBox="0 0 24 24">
  <path fill="#64748b" fill-rule="evenodd" d="M5 4a3 3 0 0 0-3 3v10a3 3 0 0 0 3 3h8v-2H5a1 1 0 0 1-1-1V7a1 1 0 0 1 1-1h2.784a1 1 0 0 1 .635.227l2.393 1.966a3 3 0 0 0 1.904.682H19a1 1 0 0 1 1 1V10h2v-.125a3 3 0 0 0-3-3h-6.284a1 1 0 0 1-.635-.227L9.688 4.682A3 3 0 0 0 7.784 4z" clip-rule="evenodd"/>
  <path stroke="#f472b6" stroke-width="1.122" d="M19 12.387c.708 0 1.374.11 1.884.311.253.1.496.232.686.407.19.177.366.438.366.775 0 .336-.177.598-.366.774-.19.176-.433.308-.686.407-.51.2-1.176.313-1.884.313-.707 0-1.374-.112-1.884-.313a2.2 2.2 0 0 1-.685-.407c-.19-.176-.365-.438-.365-.774 0-.337.175-.598.365-.775.189-.175.432-.307.685-.407.51-.2 1.177-.311 1.884-.311Z"/>
  <path fill="#f472b6" stroke="#f472b6" stroke-linejoin="round" stroke-width="1.122" d="M16.069 19.239v-5.176l.488 1.071.26.752 2.055.095 2.857-1.137.202-.78v5.175c0 .664-.538 1.202-1.202 1.202h-3.458a1.2 1.2 0 0 1-1.202-1.202Z"/>
</svg>
