<svg xmlns="http://www.w3.org/2000/svg" width="24" height="24" fill="none" viewBox="0 0 24 24">
  <path fill="#64748b" fill-rule="evenodd" d="M5 4a3 3 0 0 0-3 3v10a3 3 0 0 0 3 3h8v-2H5a1 1 0 0 1-1-1V7a1 1 0 0 1 1-1h2.784a1 1 0 0 1 .635.227l2.393 1.966a3 3 0 0 0 1.904.682H19a1 1 0 0 1 1 1V10h2v-.125a3 3 0 0 0-3-3h-6.284a1 1 0 0 1-.635-.227L9.688 4.682A3 3 0 0 0 7.784 4z" clip-rule="evenodd"/>
  <path fill="#f472b6" fill-rule="evenodd" d="M18.5 12.782a1 1 0 0 0 .253-.036l2.723 4.665a.9.9 0 0 0-.252.432h-5.448a.9.9 0 0 0-.252-.432l2.724-4.665q.12.036.252.036m-2.724 5.484-.01.038 2.083 1.19a.9.9 0 0 1 .651-.276c.256 0 .487.106.651.275l2.083-1.189-.01-.038zm1.86 1.593-2.084-1.189a.9.9 0 0 1-.651.275.896.896 0 0 1-.901-.89c0-.42.293-.771.688-.866V14.81a.89.89 0 0 1-.688-.866c0-.492.403-.89.901-.89.256 0 .487.105.651.275l2.083-1.19A.896.896 0 0 1 18.5 11a.896.896 0 0 1 .865 1.14l2.083 1.19a.9.9 0 0 1 .651-.275c.498 0 .901.398.901.89 0 .42-.293.771-.687.866v2.378a.89.89 0 0 1 .687.866c0 .492-.403.89-.901.89a.9.9 0 0 1-.651-.275l-2.083 1.19q.036.118.036.25c0 .491-.403.89-.9.89a.896.896 0 0 1-.866-1.14m-2.52-5.048a.893.893 0 0 0 .65-1.115l2.083-1.19.028.029-2.723 4.664-.039-.01zm6.73 2.388.04-.01V14.81a.893.893 0 0 1-.652-1.115l-2.083-1.19-.028.029z" clip-rule="evenodd"/>
</svg>
